<svg width="508" height="275" viewBox="0 0 508 275" fill="none" xmlns="http://www.w3.org/2000/svg">
<path d="M34.9531 273.939C15.4306 273.939 1.26096 255.781 6.27342 237.267C14.2763 207.706 32.351 162.245 82.4807 149.274C168.375 127.048 162.817 23.6704 230.795 23.6704C298.772 23.6704 299.13 74.7774 319.397 79.9746C339.665 85.1718 407.604 69.7373 422.782 115.297C450.835 199.514 493.394 159.773 507.384 236.242C510.914 255.533 498.977 273.937 479.004 273.937L34.9531 273.939Z" fill="#F3F5FD"/>
<path d="M155.964 73.6864C157.552 73.6864 158.839 72.4234 158.839 70.8654C158.839 69.3074 157.552 68.0444 155.964 68.0444C154.376 68.0444 153.089 69.3074 153.089 70.8654C153.089 72.4234 154.376 73.6864 155.964 73.6864Z" fill="white"/>
<path d="M113.139 123.86L112.134 124.32L113.822 127.864L114.826 127.404L113.139 123.86Z" fill="white"/>
<path d="M111.759 124.954C111.142 124.954 110.539 124.774 110.026 124.438C109.513 124.102 109.113 123.624 108.877 123.065C108.641 122.506 108.579 121.89 108.7 121.297C108.82 120.703 109.117 120.158 109.553 119.729C109.989 119.301 110.545 119.01 111.15 118.892C111.755 118.774 112.382 118.834 112.952 119.066C113.522 119.298 114.009 119.69 114.352 120.193C114.695 120.696 114.878 121.288 114.878 121.893C114.877 122.705 114.548 123.482 113.963 124.056C113.378 124.63 112.586 124.953 111.759 124.954ZM111.759 119.921C111.361 119.921 110.973 120.037 110.642 120.254C110.312 120.47 110.054 120.778 109.902 121.139C109.75 121.499 109.71 121.896 109.787 122.279C109.865 122.661 110.056 123.013 110.338 123.288C110.619 123.564 110.977 123.752 111.367 123.828C111.757 123.904 112.161 123.865 112.528 123.716C112.896 123.567 113.21 123.314 113.431 122.99C113.651 122.665 113.769 122.284 113.769 121.894C113.769 121.371 113.557 120.869 113.18 120.5C112.803 120.13 112.292 119.922 111.759 119.921Z" fill="white"/>
<path d="M192.088 64.6372H0V201.13H192.088V64.6372Z" fill="#E2E9FC"/>
<path d="M149.687 116.497H42.3987C38.9665 116.497 36.1841 119.227 36.1841 122.594C36.1841 125.962 38.9665 128.692 42.3987 128.692H149.687C153.119 128.692 155.902 125.962 155.902 122.594C155.902 119.227 153.119 116.497 149.687 116.497Z" fill="white"/>
<path d="M155.903 122.594C155.904 123.394 155.744 124.187 155.432 124.926C155.121 125.666 154.664 126.338 154.087 126.905C153.511 127.471 152.827 127.92 152.073 128.227C151.32 128.534 150.512 128.692 149.696 128.693H129.682V116.498H149.687C150.503 116.497 151.311 116.655 152.065 116.961C152.82 117.267 153.505 117.716 154.082 118.282C154.659 118.848 155.117 119.52 155.43 120.259C155.742 120.999 155.903 121.792 155.904 122.592L155.903 122.594Z" fill="#FF776B"/>
<path d="M77.6614 155.927C77.3358 155.927 77.0141 155.857 76.7187 155.723C76.4233 155.588 76.1612 155.392 75.9506 155.149C75.7401 154.905 75.586 154.619 75.4992 154.311C75.4124 154.003 75.3949 153.681 75.4479 153.365L78.653 134.52C78.7508 133.945 79.0776 133.431 79.5614 133.092C80.0453 132.753 80.6466 132.617 81.2331 132.713C81.8196 132.809 82.3432 133.129 82.6887 133.604C83.0343 134.079 83.1734 134.669 83.0756 135.244L79.8706 154.089C79.7833 154.602 79.5134 155.069 79.109 155.405C78.7045 155.741 78.1917 155.926 77.6614 155.927Z" fill="#FF776B"/>
<path d="M82.187 135.818C78.9897 135.82 75.9109 134.631 73.5732 132.491C71.2354 130.351 69.8132 127.419 69.5941 124.289C69.3751 121.16 70.3755 118.065 72.3932 115.632C74.4108 113.198 77.2951 111.607 80.4626 111.18C83.6302 110.754 86.8446 111.523 89.4559 113.334C92.0672 115.144 93.8804 117.86 94.5288 120.932C95.1772 124.003 94.6125 127.202 92.9489 129.881C91.2852 132.56 88.6467 134.519 85.5671 135.362C84.4665 135.663 83.3295 135.817 82.187 135.818ZM80.002 115.763C78.1907 116.258 76.6104 117.354 75.5303 118.864C74.4502 120.374 73.9372 122.205 74.0786 124.045C74.2201 125.884 75.0073 127.619 76.306 128.953C77.6048 130.287 79.3348 131.138 81.2013 131.36C83.0677 131.583 84.9552 131.164 86.542 130.174C88.1288 129.185 89.3167 127.686 89.9035 125.933C90.4902 124.18 90.4394 122.282 89.7598 120.562C89.0801 118.842 87.8136 117.406 86.176 116.5C85.2477 115.983 84.224 115.651 83.1642 115.525C82.1044 115.398 81.0296 115.479 80.002 115.763Z" fill="#FF776B"/>
<path d="M59.2692 260.88L52.8198 260.127C53.1102 257.732 53.4384 254.855 53.4606 254.383C53.4606 254.413 53.4606 254.438 53.4606 254.457H59.9555C59.9542 254.648 59.9542 255.23 59.2692 260.88Z" fill="#EDA59F"/>
<path d="M33.3908 261.642L26.896 261.621C26.896 261.621 26.9176 255.04 26.9176 254.458H33.4124C33.4124 255.042 33.3908 261.642 33.3908 261.642Z" fill="#EDA59F"/>
<path d="M61.6653 258.676C61.1278 245.321 61.0953 231.295 60.9271 217.904C58.6922 203.462 57.5191 187.621 54.7616 173.28L54.6794 173.304L54.4375 171.687L30.9087 170.263C30.9087 170.263 30.2951 181.575 30.081 185.345C28.9342 205.552 26.6069 238.031 25.2217 258.506L36.6241 259.452C38.6607 239.314 41.9814 207.233 43.8216 187.386C45.8412 197.499 47.7457 208.888 49.5386 219.121C49.931 232.194 50.2595 245.817 50.2236 258.868L61.6653 258.676Z" fill="#8980E7"/>
<path d="M41.2857 264.106C41.6226 264.105 41.9451 263.972 42.1823 263.737C42.4194 263.503 42.5518 263.185 42.5503 262.854C42.5503 262.824 42.5503 262.794 42.5466 262.763C42.5277 262.526 42.4403 262.3 42.2946 262.11C42.1489 261.92 41.951 261.776 41.7243 261.692L34.1646 259.208C34.0182 259.16 33.863 259.144 33.7097 259.161C33.5564 259.178 33.4086 259.227 33.2764 259.305C32.237 260.012 30.9939 260.374 29.7296 260.337C28.7448 260.268 27.7996 259.929 27.0018 259.359C26.9316 259.302 26.8466 259.267 26.7566 259.256C26.6666 259.245 26.5753 259.26 26.4934 259.298C26.4115 259.336 26.3424 259.396 26.294 259.472C26.2456 259.547 26.22 259.634 26.2202 259.723V263.35C26.2202 263.565 26.3075 263.772 26.4628 263.925C26.6181 264.077 26.8288 264.163 27.0485 264.163H27.0516L41.2857 264.106Z" fill="#C1D8ED"/>
<path d="M67.1825 264.106C67.3493 264.106 67.5143 264.073 67.6681 264.009C67.8219 263.946 67.9615 263.854 68.0789 263.738C68.1963 263.621 68.2893 263.483 68.3524 263.332C68.4155 263.18 68.4476 263.018 68.4468 262.855C68.4468 262.824 68.4468 262.794 68.4431 262.764C68.4243 262.527 68.3369 262.3 68.1913 262.11C68.0457 261.921 67.8478 261.776 67.6211 261.693L60.0614 259.208C59.915 259.16 59.7598 259.144 59.6065 259.161C59.4532 259.178 59.3054 259.227 59.1732 259.305C58.1338 260.012 56.8907 260.374 55.6264 260.337C54.6415 260.268 53.6962 259.929 52.8982 259.359C52.8281 259.302 52.7431 259.267 52.6531 259.256C52.5631 259.245 52.4718 259.26 52.3899 259.298C52.308 259.336 52.2389 259.396 52.1905 259.472C52.1421 259.547 52.1165 259.634 52.1167 259.723V263.35C52.1167 263.565 52.204 263.772 52.3593 263.925C52.5146 264.077 52.7253 264.163 52.9449 264.163H52.9483L67.1825 264.106Z" fill="#C1D8ED"/>
<path d="M38.5317 139.149C38.5317 139.149 40.9231 137.905 40.3893 131.515L45.3303 130.616C45.3303 130.616 44.7736 136.345 47.2747 138.163L38.5317 139.149Z" fill="#EDA59F"/>
<path d="M37.5862 129.037C37.9283 130.975 39.0064 132.811 40.7492 133.437C42.8182 134.18 44.3507 134.231 46.7362 134.231C49.9913 134.231 49.8837 130.9 49.9752 127.543C50.068 124.174 49.7937 120.558 48.5071 119.383C45.9401 117.039 38.4021 118.524 37.4854 122.444C37.0119 124.472 37.2593 127.191 37.5862 129.037Z" fill="#EDA59F"/>
<path d="M51.9858 119.346C51.4415 117.386 49.7442 116.429 46.9378 117.149C44.9418 117.661 44.6891 117.201 42.9986 116.402C42.0305 115.945 38.8543 116.154 38.0684 118.263C37.2259 120.523 34.6196 118.693 34.3775 122.374C34.1749 125.455 35.2363 129.859 37.3691 132.337C38.1077 133.195 39.3123 134.224 40.2454 134.478C41.1618 134.728 45.1236 134.508 45.5087 134.285C47.4005 133.183 47.2063 128.128 46.9063 124.885C46.8571 124.352 46.957 123.465 48.3525 123.465C49.3112 123.465 49.8422 123.443 50.3374 123.093C50.3368 123.093 52.5308 121.305 51.9858 119.346Z" fill="#0F1011"/>
<path d="M48.781 128.179C48.8188 128.67 48.657 129.156 48.331 129.53C48.0051 129.905 47.5414 130.137 47.0412 130.177C46.541 130.217 46.045 130.062 45.6614 129.744C45.2778 129.427 45.0379 128.973 44.994 128.483C44.9698 128.243 44.9939 128.001 45.0651 127.771C45.1362 127.54 45.2529 127.326 45.4085 127.14C45.5641 126.953 45.7556 126.799 45.972 126.685C46.1883 126.572 46.4254 126.501 46.6696 126.478C46.6903 126.475 46.7114 126.474 46.7315 126.472C48.0864 126.43 48.6954 127.153 48.781 128.179Z" fill="#EDA59F"/>
<path d="M23.9842 181.196C23.9842 182.101 24.471 185.124 23.6883 185.34C23.2188 185.469 22.6646 183.216 22.6646 183.216" fill="#EDA59F"/>
<path d="M20.2885 180.722C20.2885 180.722 17.7327 186.825 20.6476 190.332C20.722 190.421 20.822 190.487 20.9347 190.519C21.0474 190.552 21.1675 190.55 21.2792 190.515C21.391 190.479 21.4893 190.411 21.5612 190.32C21.6331 190.229 21.6754 190.119 21.6824 190.004C21.8244 187.64 22.3103 182.783 23.899 183.35V179.538" fill="#EDA59F"/>
<path d="M77.9202 148.201C77.9202 148.201 81.5682 143.841 82.0228 142.912C83.6233 139.645 82.8235 138.148 82.157 137.67C81.3705 137.104 77.7232 141.913 77.7232 141.913C77.7232 141.913 78.0399 140.183 77.3567 140.069C77.0762 140.023 76.8539 140.293 76.4147 141.517C75.9143 142.913 74.9141 145.012 74.9141 145.012L77.9202 148.201Z" fill="#EDA59F"/>
<path d="M74.1622 144.503L63.6041 156.158L55.3464 141.654C54.5645 139.362 52.7847 137.828 49.1538 137.675C47.912 137.623 41.853 137.614 37.4167 137.614C34.4365 137.614 31.9898 138.512 30.5767 139.898C29.8651 140.586 29.3326 141.432 29.0242 142.365L28.9815 142.349L21.882 161.289C21.8026 161.501 21.7455 161.721 21.7116 161.945L18.8462 180.884L25.517 181.855L28.3314 163.252L31.1984 155.602C31.4969 156.778 31.6601 157.983 31.6849 159.194C31.6849 165.567 28.7467 168.425 28.9632 171.697C29.3034 176.839 54.7659 175.624 56.0633 172.703C57.3991 169.691 54.688 167.835 54.8067 157.983C54.8194 156.91 54.9038 155.789 55.0201 154.646L60.0304 163.447C60.2928 163.908 60.6637 164.3 61.1123 164.592C61.5609 164.883 62.074 165.065 62.6088 165.122C62.7302 165.135 62.8523 165.142 62.9744 165.142C63.4506 165.142 63.9213 165.043 64.3557 164.851C64.79 164.66 65.1781 164.38 65.4944 164.031L79.376 148.099L74.1622 144.503Z" fill="#2F3235"/>
<path d="M159.622 69.4927H98.3677V108.943H159.622V69.4927Z" fill="#F3F5FD"/>
<path d="M153.321 89.2304C153.321 91.2775 152.883 93.2973 152.04 95.1342C151.197 96.9711 149.973 98.5761 148.461 99.8257C146.949 101.075 145.19 101.936 143.32 102.342C141.449 102.748 139.516 102.688 137.67 102.167C135.824 101.645 134.115 100.677 132.673 99.3356C131.231 97.9943 130.095 96.316 129.353 94.43C128.611 92.5439 128.282 90.5004 128.392 88.4566C128.502 86.4129 129.048 84.4235 129.988 82.6416L140.846 89.2304L152.967 86.0641H152.97C153.204 87.1007 153.322 88.1637 153.321 89.2304Z" fill="#C1D8ED"/>
<path d="M152.968 86.0642L140.846 89.2305L145.68 76.8945C147.478 77.7062 149.074 78.9585 150.34 80.5508C151.606 82.1432 152.506 84.0314 152.968 86.0642Z" fill="#FF776B"/>
<path d="M121.307 80.0156H104.745V82.9482H121.307V80.0156Z" fill="#C1D8ED"/>
<path d="M121.307 87.7515H104.745V90.684H121.307V87.7515Z" fill="#C1D8ED"/>
<path d="M121.307 95.4878H104.745V98.4203H121.307V95.4878Z" fill="#C1D8ED"/>
<path d="M145.681 76.8944L140.846 89.2304L129.988 82.6416C131.494 79.7889 133.923 77.6281 136.816 76.5687C139.708 75.5094 142.863 75.6253 145.681 76.8944Z" fill="white"/>
<path d="M93.4191 69.4927H32.1646V108.943H93.4191V69.4927Z" fill="#F3F5FD"/>
<path d="M89.0563 104.631H36.353C36.3237 104.631 36.2947 104.625 36.2676 104.614C36.2406 104.603 36.216 104.587 36.1953 104.566C36.1746 104.545 36.1582 104.521 36.147 104.494C36.1358 104.467 36.1301 104.438 36.1301 104.409V74.206C36.1288 74.1761 36.1336 74.1461 36.1442 74.1181C36.1548 74.09 36.171 74.0643 36.1918 74.0427C36.2127 74.021 36.2377 74.0038 36.2654 73.992C36.2931 73.9802 36.3229 73.9741 36.353 73.9741C36.3831 73.9741 36.4129 73.9802 36.4406 73.992C36.4683 74.0038 36.4933 74.021 36.5141 74.0427C36.535 74.0643 36.5512 74.09 36.5618 74.1181C36.5724 74.1461 36.5772 74.1761 36.5759 74.206V104.186H89.0563C89.0863 104.185 89.1164 104.19 89.1446 104.2C89.1728 104.211 89.1985 104.227 89.2203 104.248C89.242 104.268 89.2593 104.293 89.2712 104.321C89.283 104.348 89.2891 104.378 89.2891 104.408C89.2891 104.438 89.283 104.468 89.2712 104.495C89.2593 104.523 89.242 104.548 89.2203 104.569C89.1985 104.589 89.1728 104.606 89.1446 104.616C89.1164 104.627 89.0863 104.631 89.0563 104.63V104.631Z" fill="#C1D8ED"/>
<path d="M38.0984 102.411C38.053 102.411 38.0086 102.397 37.9712 102.371C37.9338 102.345 37.9052 102.309 37.8892 102.267C37.8733 102.224 37.8707 102.178 37.8818 102.134C37.8929 102.09 37.9173 102.051 37.9515 102.021L52.0872 89.7337C52.1272 89.6988 52.1785 89.6794 52.2316 89.6788C52.2848 89.6783 52.3364 89.6967 52.3772 89.7307L56.6066 93.2592L68.5075 84.673C68.5454 84.6459 68.5909 84.6312 68.6376 84.6312C68.6843 84.6312 68.7298 84.6459 68.7677 84.673L75.7372 89.6235L87.1713 80.4253C87.2175 80.39 87.2757 80.3741 87.3334 80.381C87.3912 80.3878 87.444 80.4169 87.4806 80.462C87.5172 80.5071 87.5346 80.5647 87.5291 80.6224C87.5237 80.6801 87.4958 80.7334 87.4515 80.7709L75.8856 90.0749C75.8477 90.1053 75.8009 90.1226 75.7522 90.124C75.7036 90.1255 75.6558 90.1111 75.6162 90.083L68.6393 85.1269L56.7276 93.7212C56.6874 93.7501 56.6385 93.7649 56.5889 93.7631C56.5393 93.7614 56.4917 93.7432 56.4536 93.7114L52.2371 90.1937L38.2449 102.355C38.2044 102.391 38.1524 102.41 38.0984 102.411Z" fill="#C1D8ED"/>
<path d="M86.8745 81.9537C87.4492 81.9537 87.9151 81.4897 87.9151 80.9173C87.9151 80.3449 87.4492 79.8809 86.8745 79.8809C86.2999 79.8809 85.834 80.3449 85.834 80.9173C85.834 81.4897 86.2999 81.9537 86.8745 81.9537Z" fill="#C1D8ED"/>
<g opacity="0.77">
<g opacity="0.77">
<path opacity="0.77" d="M89.0563 76.7031H36.2036V76.8511H89.0563V76.7031Z" fill="#C1D8ED"/>
<path opacity="0.77" d="M89.0563 81.269H36.2036V81.417H89.0563V81.269Z" fill="#C1D8ED"/>
<path opacity="0.77" d="M89.0563 85.834H36.2036V85.982H89.0563V85.834Z" fill="#C1D8ED"/>
<path opacity="0.77" d="M89.0563 90.3999H36.2036V90.5479H89.0563V90.3999Z" fill="#C1D8ED"/>
<path opacity="0.77" d="M89.0563 94.9658H36.2036V95.1138H89.0563V94.9658Z" fill="#C1D8ED"/>
<path opacity="0.77" d="M89.0563 99.5312H36.2036V99.6792H89.0563V99.5312Z" fill="#C1D8ED"/>
</g>
</g>
<path d="M315.237 85.5762H197.319V235.669H315.237V85.5762Z" fill="#E2E9FC"/>
<path d="M306.752 93.3701H205.803V145.289H306.752V93.3701Z" fill="#6C60E1"/>
<path d="M216.804 108.226H212.352V138.557H216.804V108.226Z" fill="white"/>
<path d="M241.791 111.238H237.339V138.557H241.791V111.238Z" fill="white"/>
<path d="M225.133 101.807H220.681V138.557H225.133V101.807Z" fill="white"/>
<path d="M233.462 115.421H229.01V138.557H233.462V115.421Z" fill="white"/>
<path d="M250.119 106.747H245.667V138.557H250.119V106.747Z" fill="white"/>
<path d="M258.448 104.182H253.997V138.557H258.448V104.182Z" fill="white"/>
<path d="M266.777 115.421H262.325V138.557H266.777V115.421Z" fill="white"/>
<path d="M275.106 108.226H270.654V138.557H275.106V108.226Z" fill="white"/>
<path d="M300.092 111.238H295.641V138.557H300.092V111.238Z" fill="white"/>
<path d="M283.435 101.807H278.983V138.557H283.435V101.807Z" fill="white"/>
<path d="M291.764 115.421H287.312V138.557H291.764V115.421Z" fill="white"/>
<path d="M213.944 167.469C218.088 167.469 221.448 164.173 221.448 160.107C221.448 156.041 218.088 152.745 213.944 152.745C209.8 152.745 206.441 156.041 206.441 160.107C206.441 164.173 209.8 167.469 213.944 167.469Z" fill="white"/>
<path d="M306.115 155.191H228.047V158.425H306.115V155.191Z" fill="white"/>
<path d="M252.187 161.338H228.047V164.572H252.187V161.338Z" fill="white"/>
<path d="M212.64 163.9C212.425 163.9 212.219 163.819 212.063 163.675L209.178 161.004C209.018 160.853 208.925 160.647 208.919 160.429C208.914 160.212 208.996 160.001 209.148 159.842C209.3 159.684 209.51 159.591 209.732 159.584C209.954 159.577 210.169 159.656 210.332 159.804L212.594 161.898L217.508 156.584C217.581 156.502 217.671 156.434 217.771 156.386C217.872 156.338 217.981 156.31 218.092 156.303C218.204 156.297 218.316 156.312 218.421 156.349C218.527 156.385 218.623 156.442 218.706 156.516C218.789 156.589 218.856 156.679 218.903 156.778C218.951 156.877 218.977 156.985 218.982 157.095C218.986 157.204 218.968 157.314 218.929 157.416C218.89 157.519 218.83 157.613 218.753 157.693L213.263 163.629C213.188 163.711 213.097 163.776 212.995 163.823C212.894 163.869 212.784 163.895 212.673 163.899L212.64 163.9Z" fill="#6C60E1"/>
<path d="M213.944 187.221C218.088 187.221 221.448 183.925 221.448 179.859C221.448 175.793 218.088 172.497 213.944 172.497C209.8 172.497 206.441 175.793 206.441 179.859C206.441 183.925 209.8 187.221 213.944 187.221Z" fill="white"/>
<path d="M306.115 174.944H228.047V178.178H306.115V174.944Z" fill="white"/>
<path d="M252.187 181.09H228.047V184.324H252.187V181.09Z" fill="white"/>
<path d="M212.64 183.652C212.426 183.651 212.219 183.571 212.063 183.427L209.178 180.756C209.018 180.606 208.925 180.399 208.919 180.181C208.914 179.964 208.996 179.753 209.148 179.595C209.3 179.436 209.51 179.343 209.732 179.336C209.954 179.329 210.169 179.408 210.332 179.556L212.594 181.65L217.508 176.337C217.581 176.254 217.671 176.187 217.771 176.138C217.872 176.09 217.981 176.062 218.092 176.056C218.204 176.049 218.316 176.065 218.421 176.101C218.527 176.138 218.623 176.194 218.706 176.268C218.789 176.342 218.856 176.431 218.903 176.53C218.951 176.63 218.977 176.737 218.982 176.847C218.986 176.957 218.968 177.066 218.929 177.169C218.89 177.271 218.83 177.365 218.753 177.445L213.264 183.382C213.188 183.463 213.098 183.528 212.996 183.575C212.895 183.621 212.785 183.647 212.673 183.652H212.64Z" fill="#6C60E1"/>
<path d="M213.944 206.973C218.088 206.973 221.448 203.676 221.448 199.61C221.448 195.544 218.088 192.248 213.944 192.248C209.8 192.248 206.441 195.544 206.441 199.61C206.441 203.676 209.8 206.973 213.944 206.973Z" fill="white"/>
<path d="M306.115 194.696H228.047V197.93H306.115V194.696Z" fill="white"/>
<path d="M252.187 200.843H228.047V204.077H252.187V200.843Z" fill="white"/>
<path d="M212.641 203.404C212.426 203.404 212.22 203.324 212.064 203.179L209.178 200.509C209.096 200.435 209.029 200.346 208.982 200.247C208.935 200.147 208.908 200.04 208.904 199.93C208.9 199.82 208.918 199.711 208.957 199.609C208.996 199.506 209.056 199.412 209.133 199.332C209.209 199.253 209.301 199.189 209.404 199.144C209.506 199.1 209.616 199.076 209.728 199.074C209.839 199.071 209.95 199.091 210.054 199.132C210.158 199.172 210.253 199.232 210.333 199.309L212.594 201.403L217.508 196.09C217.582 196.007 217.671 195.94 217.772 195.891C217.872 195.843 217.981 195.815 218.093 195.809C218.205 195.802 218.316 195.818 218.422 195.854C218.527 195.891 218.624 195.947 218.707 196.021C218.79 196.095 218.857 196.184 218.904 196.283C218.951 196.383 218.978 196.49 218.982 196.6C218.987 196.71 218.969 196.819 218.929 196.922C218.89 197.024 218.83 197.118 218.754 197.198L213.263 203.134C213.188 203.216 213.097 203.281 212.996 203.328C212.895 203.374 212.785 203.4 212.673 203.405L212.641 203.404Z" fill="#6C60E1"/>
<path d="M213.944 226.725C218.088 226.725 221.448 223.429 221.448 219.363C221.448 215.297 218.088 212 213.944 212C209.8 212 206.441 215.297 206.441 219.363C206.441 223.429 209.8 226.725 213.944 226.725Z" fill="white"/>
<path d="M306.115 214.448H228.047V217.682H306.115V214.448Z" fill="white"/>
<path d="M252.187 220.595H228.047V223.829H252.187V220.595Z" fill="white"/>
<path d="M212.64 223.156C212.426 223.156 212.219 223.076 212.063 222.931L209.178 220.261C209.018 220.11 208.925 219.903 208.919 219.686C208.914 219.468 208.996 219.257 209.148 219.099C209.3 218.941 209.51 218.848 209.732 218.841C209.954 218.833 210.169 218.912 210.332 219.06L212.594 221.154L217.508 215.841C217.581 215.758 217.671 215.691 217.771 215.643C217.872 215.595 217.981 215.566 218.092 215.56C218.204 215.554 218.316 215.569 218.421 215.606C218.527 215.642 218.623 215.699 218.706 215.773C218.789 215.846 218.856 215.935 218.903 216.035C218.951 216.134 218.977 216.242 218.982 216.351C218.986 216.461 218.968 216.57 218.929 216.673C218.89 216.776 218.83 216.87 218.753 216.95L213.263 222.886C213.188 222.967 213.097 223.033 212.995 223.079C212.894 223.126 212.784 223.152 212.673 223.156H212.64Z" fill="#6C60E1"/>
<path d="M409.559 7.22949H333.663C327.851 7.22949 323.14 11.8524 323.14 17.5551V169.505C323.14 175.207 327.851 179.83 333.663 179.83H409.559C415.371 179.83 420.083 175.207 420.083 169.505V17.5551C420.083 11.8524 415.371 7.22949 409.559 7.22949Z" fill="white"/>
<path d="M409.56 182.508H333.664C330.15 182.504 326.782 181.132 324.297 178.695C321.813 176.257 320.415 172.952 320.411 169.504V17.5551C320.415 14.1076 321.813 10.8025 324.297 8.36478C326.782 5.92705 330.15 4.55577 333.664 4.55176H409.56C413.074 4.55577 416.442 5.92705 418.927 8.36478C421.411 10.8025 422.809 14.1076 422.813 17.5551V169.504C422.809 172.952 421.411 176.257 418.926 178.695C416.442 181.133 413.073 182.504 409.56 182.508ZM333.664 9.90665C331.597 9.90922 329.617 10.7157 328.155 12.1493C326.694 13.5829 325.872 15.5265 325.87 17.5539V169.504C325.872 171.532 326.694 173.475 328.155 174.909C329.616 176.343 331.597 177.149 333.664 177.152H409.56C411.626 177.149 413.607 176.343 415.068 174.909C416.529 173.475 417.351 171.532 417.354 169.504V17.5551C417.351 15.5277 416.529 13.5841 415.068 12.1505C413.607 10.7169 411.626 9.91043 409.56 9.90786L333.664 9.90665Z" fill="#DEE8F5"/>
<path d="M354.993 7.22949H388.229V13.5567C388.229 14.1786 388.104 14.7945 387.862 15.3691C387.619 15.9437 387.264 16.4658 386.816 16.9056C386.367 17.3454 385.835 17.6943 385.25 17.9323C384.664 18.1703 384.036 18.2928 383.402 18.2928H359.82C358.54 18.2928 357.312 17.7938 356.407 16.9056C355.502 16.0174 354.993 14.8128 354.993 13.5567V7.22949H354.993Z" fill="#DEE8F5"/>
<path d="M368.91 120.583H338.969V133.162H368.91V120.583Z" fill="#FF776B"/>
<path d="M404.253 120.583H374.312V133.162H404.253V120.583Z" fill="#6C60E1"/>
<path d="M393.215 63.5754C393.223 69.0565 391.058 74.3258 387.178 78.269C384.264 71.8812 378.385 67.5204 371.615 67.5204C364.839 67.5204 358.959 71.8872 356.046 78.2751C353.594 75.7759 351.805 72.7244 350.835 69.3884C349.865 66.0524 349.745 62.5339 350.484 59.1416C351.223 55.7493 352.8 52.5868 355.075 49.9316C357.35 47.2765 360.255 45.2098 363.534 43.913C366.813 42.6161 370.367 42.1287 373.883 42.4935C377.398 42.8583 380.769 44.0642 383.699 46.0054C386.63 47.9465 389.03 50.5636 390.689 53.6269C392.348 56.6903 393.215 60.1064 393.215 63.5754Z" fill="#6C60E1"/>
<path d="M371.611 65.7591C376.335 65.7591 380.164 62.0018 380.164 57.3668C380.164 52.7319 376.335 48.9746 371.611 48.9746C366.887 48.9746 363.058 52.7319 363.058 57.3668C363.058 62.0018 366.887 65.7591 371.611 65.7591Z" fill="#F3F5FD"/>
<path d="M387.177 78.2686C385.162 80.3245 382.745 81.9601 380.07 83.0775C377.396 84.1949 374.519 84.7712 371.612 84.7718C368.705 84.7723 365.828 84.1972 363.153 83.0808C360.478 81.9644 358.061 80.3297 356.045 78.2747C358.958 71.8868 364.838 67.52 371.614 67.52C378.384 67.52 384.263 71.8808 387.177 78.2686Z" fill="#F3F5FD"/>
<path d="M404.254 93.1616H338.969V95.7195H404.254V93.1616Z" fill="#DEE8F5"/>
<path d="M404.254 100.125H338.969V102.683H404.254V100.125Z" fill="#DEE8F5"/>
<path d="M368.91 107.328H338.969V109.886H368.91V107.328Z" fill="#DEE8F5"/>
<path d="M426.335 261.274C425.592 255.153 425.592 254.523 425.592 254.316H432.629C432.629 254.295 432.629 254.268 432.629 254.236C432.654 254.747 433.008 257.864 433.323 260.459L426.335 261.274Z" fill="#EDA59F"/>
<path d="M454.371 262.099C454.371 262.099 454.348 254.949 454.348 254.316H461.384C461.384 254.948 461.408 262.077 461.408 262.077L454.371 262.099Z" fill="#EDA59F"/>
<path d="M423.737 258.886C424.319 244.605 424.322 229.026 424.536 214.718C426.919 199.064 428.243 181.909 431.216 166.366L431.306 166.392L431.568 164.64L457.06 164.158L463.221 258.702L450.867 259.726L443.114 181.417C440.651 192.962 438.998 204.935 436.818 216.363C436.818 216.363 436.085 245.018 436.134 259.094L423.737 258.886Z" fill="#8980E7"/>
<path d="M445.817 264.769C445.636 264.769 445.458 264.733 445.291 264.664C445.124 264.596 444.973 264.496 444.846 264.37C444.718 264.244 444.618 264.095 444.549 263.931C444.481 263.766 444.446 263.591 444.447 263.413C444.447 263.38 444.447 263.347 444.451 263.313C444.472 263.056 444.566 262.811 444.724 262.605C444.882 262.4 445.096 262.243 445.342 262.152L453.532 259.461C453.691 259.409 453.859 259.392 454.025 259.41C454.191 259.428 454.351 259.482 454.495 259.566C455.62 260.333 456.967 260.725 458.337 260.684C459.404 260.61 460.428 260.243 461.293 259.625C461.369 259.564 461.461 259.525 461.558 259.513C461.656 259.501 461.755 259.517 461.844 259.559C461.933 259.6 462.007 259.665 462.06 259.747C462.112 259.828 462.14 259.923 462.14 260.019V263.949C462.14 264.182 462.045 264.406 461.877 264.571C461.709 264.736 461.481 264.829 461.243 264.829H461.239L445.817 264.769Z" fill="#6C60E1"/>
<path d="M417.761 264.769C417.58 264.769 417.401 264.733 417.234 264.664C417.068 264.596 416.916 264.496 416.789 264.37C416.662 264.244 416.561 264.095 416.493 263.931C416.424 263.766 416.389 263.591 416.39 263.413C416.39 263.38 416.39 263.347 416.394 263.313C416.415 263.056 416.51 262.811 416.668 262.605C416.825 262.4 417.04 262.243 417.285 262.152L425.475 259.461C425.634 259.409 425.802 259.392 425.968 259.41C426.134 259.428 426.295 259.482 426.438 259.566C427.564 260.333 428.911 260.725 430.281 260.684C431.348 260.61 432.372 260.243 433.236 259.625C433.312 259.564 433.404 259.525 433.502 259.513C433.599 259.501 433.698 259.517 433.787 259.559C433.876 259.6 433.951 259.665 434.003 259.747C434.056 259.828 434.083 259.923 434.083 260.019V263.949C434.083 264.182 433.988 264.406 433.82 264.571C433.652 264.736 433.424 264.829 433.186 264.829H433.182L417.761 264.769Z" fill="#6C60E1"/>
<path d="M464.561 174.943C464.561 175.923 464.036 179.198 464.882 179.432C465.39 179.572 465.991 177.131 465.991 177.131" fill="#EDA59F"/>
<path d="M468.566 174.428C468.566 174.428 471.334 181.041 468.176 184.841C468.096 184.938 467.987 185.008 467.865 185.043C467.743 185.079 467.613 185.077 467.492 185.039C467.371 185 467.264 184.927 467.186 184.828C467.108 184.729 467.063 184.61 467.055 184.485C466.9 181.924 466.375 176.662 464.654 177.277V173.146" fill="#EDA59F"/>
<path d="M406.126 139.195C406.126 139.195 402.26 136.181 401.986 135.099C401.711 134.016 404.436 131.887 404.436 131.887C404.436 131.887 400.814 128.306 401.536 127.785C402.389 127.173 406.591 132.382 406.591 132.382C406.591 132.382 405.997 130.508 406.737 130.385C407.041 130.335 407.282 130.628 407.758 131.954C408.3 133.465 409.383 135.74 409.383 135.74L406.126 139.195Z" fill="#EDA59F"/>
<path d="M449.23 128.897C449.23 128.897 446.535 127.761 446.535 120.815L441.117 120.273C441.117 120.273 442.234 126.411 439.699 128.593L449.23 128.897Z" fill="#EDA59F"/>
<path d="M449.34 117.895C449.145 120.019 448.147 122.094 446.321 122.922C444.337 123.886 442.142 124.359 439.928 124.299C434.048 124.299 434.114 111.175 436.676 108.421C439.239 105.666 447.51 106.614 448.854 110.769C449.549 112.917 449.525 115.874 449.34 117.895Z" fill="#EDA59F"/>
<path d="M440.81 116.957C441.078 116.957 441.296 116.743 441.296 116.481C441.296 116.218 441.078 116.004 440.81 116.004C440.542 116.004 440.325 116.218 440.325 116.481C440.325 116.743 440.542 116.957 440.81 116.957Z" fill="#2F3235"/>
<path d="M441.764 115.537C441.752 115.537 441.74 115.536 441.729 115.534L440.44 115.337C440.38 115.328 440.326 115.296 440.29 115.248C440.255 115.2 440.24 115.141 440.249 115.082C440.259 115.023 440.291 114.971 440.34 114.936C440.389 114.901 440.45 114.886 440.51 114.895L441.799 115.092C441.856 115.1 441.907 115.129 441.943 115.174C441.979 115.218 441.997 115.274 441.993 115.33C441.988 115.387 441.962 115.439 441.92 115.478C441.877 115.516 441.822 115.537 441.764 115.537Z" fill="#2F3235"/>
<path d="M437.252 112.788C439.552 122.908 441.669 125.613 447 123.587C448.222 123.122 451.151 120.273 451.444 114.21C451.706 108.79 447.287 105.936 444.508 105.557C433.951 104.116 433.58 113.47 433.58 113.47C438.879 114.361 446.096 112.889 446.096 112.889" fill="#0F1011"/>
<path d="M449.97 114.208C452.562 114.208 454.663 112.146 454.663 109.603C454.663 107.06 452.562 104.998 449.97 104.998C447.378 104.998 445.277 107.06 445.277 109.603C445.277 112.146 447.378 114.208 449.97 114.208Z" fill="#0F1011"/>
<path d="M410.198 135.188L421.637 147.815L430.595 132.081C431.446 129.611 433.372 127.954 437.293 127.79C438.638 127.734 445.203 127.724 450.009 127.724C453.238 127.724 455.889 128.695 457.419 130.198C458.191 130.943 458.767 131.86 459.102 132.87L459.148 132.853L466.839 153.374C466.926 153.604 466.988 153.842 467.025 154.085L470.128 174.606L462.901 175.659L459.852 155.503L456.746 147.217C456.423 148.49 456.247 149.795 456.221 151.108C456.221 158.014 459.403 161.109 459.17 164.652C458.801 170.223 431.215 168.907 429.809 165.743C428.362 162.479 431.299 160.468 431.17 149.794C431.156 148.632 431.064 147.417 430.939 146.18L425.51 155.713C425.226 156.212 424.824 156.638 424.338 156.954C423.852 157.269 423.296 157.467 422.717 157.529C422.137 157.59 421.551 157.515 421.007 157.31C420.463 157.104 419.977 156.773 419.59 156.346L404.551 139.084L410.198 135.188Z" fill="#2F3235"/>
<path d="M437.002 118.502C437.002 119.038 437.219 119.552 437.605 119.93C437.991 120.309 438.515 120.522 439.061 120.522C439.607 120.522 440.13 120.309 440.516 119.93C440.902 119.552 441.119 119.038 441.119 118.502C441.128 117.976 440.924 117.467 440.551 117.089C440.178 116.71 439.667 116.492 439.13 116.483H439.061C437.595 116.554 437.002 117.387 437.002 118.502Z" fill="#EDA59F"/>
<path d="M383.778 202.215L380.751 201.513L376.958 217.258L379.984 217.96L383.778 202.215Z" fill="#F0F6FF"/>
<path d="M377.424 200.29L375.744 200.594L378.344 214.413L380.025 214.11L377.424 200.29Z" fill="#91B3FA"/>
<path d="M377.423 200.285L375.745 200.599L376.04 202.123L377.719 201.809L377.423 200.285Z" fill="#4F52FF"/>
<path d="M382.623 203.804L377.179 217.364L378.112 217.724L383.556 204.165L382.623 203.804Z" fill="#FF776B"/>
<path d="M383.816 209.736H375.609V220.028H383.816V209.736Z" fill="#4F52FF"/>
<path d="M405.723 268.247H408.792V238.617H405.723V268.247Z" fill="#91B3FA"/>
<path d="M408.249 268.247H411.318V238.617H408.249V268.247Z" fill="#4F52FF"/>
<path d="M367.49 268.247H370.56V238.617H367.49V268.247Z" fill="#91B3FA"/>
<path d="M370.015 268.247H373.085V238.617H370.015V268.247Z" fill="#4F52FF"/>
<path d="M397.302 268.247H400.372V238.618H397.302V268.247Z" fill="#91B3FA"/>
<path d="M399.828 268.247H402.898V238.618H399.828V268.247Z" fill="#4F52FF"/>
<path d="M359.071 268.247H362.14V238.617H359.071V268.247Z" fill="#91B3FA"/>
<path d="M361.597 268.247H364.667V238.617H361.597V268.247Z" fill="#4F52FF"/>
<path d="M400.355 219.652H359.071V239.328H400.355V219.652Z" fill="#91B3FA"/>
<path d="M411.319 219.652H370.035V239.328H411.319V219.652Z" fill="#4F52FF"/>
<g opacity="0.53">
<path opacity="0.53" d="M409.098 222.45H372.256V236.444H409.098V222.45Z" fill="#F3F5FD"/>
</g>
<path d="M390.676 231.053C391.58 231.053 392.313 230.334 392.313 229.447C392.313 228.561 391.58 227.842 390.676 227.842C389.773 227.842 389.04 228.561 389.04 229.447C389.04 230.334 389.773 231.053 390.676 231.053Z" fill="white"/>
<path d="M90.9024 207.568H133.969C134.782 207.568 135.563 207.886 136.138 208.45C136.713 209.015 137.036 209.78 137.036 210.579V229.125H87.8345V210.579C87.8345 209.78 88.1577 209.015 88.733 208.45C89.3084 207.886 90.0887 207.568 90.9024 207.568Z" fill="#91B3FA"/>
<path d="M131 211.827H93.871C93.3589 211.827 92.9438 212.234 92.9438 212.736V222.447C92.9438 222.95 93.3589 223.357 93.871 223.357H131C131.512 223.357 131.928 222.95 131.928 222.447V212.736C131.928 212.234 131.512 211.827 131 211.827Z" fill="white"/>
<path d="M87.8345 227.213H137.037V265.858C137.037 266.656 136.714 267.422 136.138 267.986C135.563 268.551 134.783 268.868 133.969 268.868H90.9028C90.4999 268.868 90.1009 268.79 89.7286 268.639C89.3564 268.488 89.0181 268.266 88.7332 267.986C88.4483 267.707 88.2222 267.375 88.068 267.01C87.9138 266.644 87.8345 266.253 87.8345 265.858V227.213Z" fill="#D7E8F4"/>
<path d="M120.468 230.5H113.97C113.394 230.5 112.927 230.958 112.927 231.523V235.191C112.927 235.756 113.394 236.215 113.97 236.215H120.468C121.044 236.215 121.511 235.756 121.511 235.191V231.523C121.511 230.958 121.044 230.5 120.468 230.5Z" fill="white"/>
<path d="M120.468 237.581H113.97C113.394 237.581 112.927 238.039 112.927 238.604V242.273C112.927 242.838 113.394 243.296 113.97 243.296H120.468C121.044 243.296 121.511 242.838 121.511 242.273V238.604C121.511 238.039 121.044 237.581 120.468 237.581Z" fill="white"/>
<path d="M120.468 244.664H113.97C113.394 244.664 112.927 245.122 112.927 245.687V249.356C112.927 249.921 113.394 250.379 113.97 250.379H120.468C121.044 250.379 121.511 249.921 121.511 249.356V245.687C121.511 245.122 121.044 244.664 120.468 244.664Z" fill="white"/>
<path d="M120.468 251.746H113.97C113.394 251.746 112.927 252.204 112.927 252.769V256.438C112.927 257.003 113.394 257.461 113.97 257.461H120.468C121.044 257.461 121.511 257.003 121.511 256.438V252.769C121.511 252.204 121.044 251.746 120.468 251.746Z" fill="white"/>
<path d="M120.468 258.828H113.97C113.394 258.828 112.927 259.286 112.927 259.851V263.52C112.927 264.085 113.394 264.543 113.97 264.543H120.468C121.044 264.543 121.511 264.085 121.511 263.52V259.851C121.511 259.286 121.044 258.828 120.468 258.828Z" fill="white"/>
<path d="M110.382 230.5H103.884C103.308 230.5 102.841 230.958 102.841 231.523V235.191C102.841 235.756 103.308 236.215 103.884 236.215H110.382C110.958 236.215 111.424 235.756 111.424 235.191V231.523C111.424 230.958 110.958 230.5 110.382 230.5Z" fill="#8DDBE0"/>
<path d="M110.382 237.581H103.884C103.308 237.581 102.841 238.039 102.841 238.604V242.273C102.841 242.838 103.308 243.296 103.884 243.296H110.382C110.958 243.296 111.424 242.838 111.424 242.273V238.604C111.424 238.039 110.958 237.581 110.382 237.581Z" fill="white"/>
<path d="M110.382 244.664H103.884C103.308 244.664 102.841 245.122 102.841 245.687V249.356C102.841 249.921 103.308 250.379 103.884 250.379H110.382C110.958 250.379 111.424 249.921 111.424 249.356V245.687C111.424 245.122 110.958 244.664 110.382 244.664Z" fill="white"/>
<path d="M110.382 251.746H103.884C103.308 251.746 102.841 252.204 102.841 252.769V256.438C102.841 257.003 103.308 257.461 103.884 257.461H110.382C110.958 257.461 111.424 257.003 111.424 256.438V252.769C111.424 252.204 110.958 251.746 110.382 251.746Z" fill="white"/>
<path d="M110.382 258.828H103.884C103.308 258.828 102.841 259.286 102.841 259.851V263.52C102.841 264.085 103.308 264.543 103.884 264.543H110.382C110.958 264.543 111.424 264.085 111.424 263.52V259.851C111.424 259.286 110.958 258.828 110.382 258.828Z" fill="white"/>
<path d="M100.295 230.5H93.7966C93.2208 230.5 92.7539 230.958 92.7539 231.523V235.191C92.7539 235.756 93.2208 236.215 93.7966 236.215H100.295C100.871 236.215 101.337 235.756 101.337 235.191V231.523C101.337 230.958 100.871 230.5 100.295 230.5Z" fill="#FD5D76"/>
<path d="M100.295 237.581H93.7966C93.2208 237.581 92.7539 238.039 92.7539 238.604V242.273C92.7539 242.838 93.2208 243.296 93.7966 243.296H100.295C100.871 243.296 101.337 242.838 101.337 242.273V238.604C101.337 238.039 100.871 237.581 100.295 237.581Z" fill="white"/>
<path d="M100.295 244.664H93.7966C93.2208 244.664 92.7539 245.122 92.7539 245.687V249.356C92.7539 249.921 93.2208 250.379 93.7966 250.379H100.295C100.871 250.379 101.337 249.921 101.337 249.356V245.687C101.337 245.122 100.871 244.664 100.295 244.664Z" fill="white"/>
<path d="M100.295 251.746H93.7966C93.2208 251.746 92.7539 252.204 92.7539 252.769V256.438C92.7539 257.003 93.2208 257.461 93.7966 257.461H100.295C100.871 257.461 101.337 257.003 101.337 256.438V252.769C101.337 252.204 100.871 251.746 100.295 251.746Z" fill="white"/>
<path d="M100.295 258.828H93.7966C93.2208 258.828 92.7539 259.286 92.7539 259.851V263.52C92.7539 264.085 93.2208 264.543 93.7966 264.543H100.295C100.871 264.543 101.337 264.085 101.337 263.52V259.851C101.337 259.286 100.871 258.828 100.295 258.828Z" fill="white"/>
<path d="M130.555 230.5H124.057C123.481 230.5 123.015 230.958 123.015 231.523V235.191C123.015 235.756 123.481 236.215 124.057 236.215H130.555C131.131 236.215 131.598 235.756 131.598 235.191V231.523C131.598 230.958 131.131 230.5 130.555 230.5Z" fill="white"/>
<path d="M130.555 237.581H124.057C123.481 237.581 123.015 238.039 123.015 238.604V242.273C123.015 242.838 123.481 243.296 124.057 243.296H130.555C131.131 243.296 131.598 242.838 131.598 242.273V238.604C131.598 238.039 131.131 237.581 130.555 237.581Z" fill="white"/>
<path d="M130.555 244.664H124.057C123.481 244.664 123.015 245.122 123.015 245.687V249.356C123.015 249.921 123.481 250.379 124.057 250.379H130.555C131.131 250.379 131.598 249.921 131.598 249.356V245.687C131.598 245.122 131.131 244.664 130.555 244.664Z" fill="white"/>
<path d="M130.555 251.746H124.057C123.481 251.746 123.015 252.204 123.015 252.769V263.52C123.015 264.085 123.481 264.543 124.057 264.543H130.555C131.131 264.543 131.598 264.085 131.598 263.52V252.769C131.598 252.204 131.131 251.746 130.555 251.746Z" fill="#FF776B"/>
<path d="M240.772 53.1059C255.717 53.1059 267.833 41.2177 267.833 26.5529C267.833 11.8882 255.717 0 240.772 0C225.826 0 213.71 11.8882 213.71 26.5529C213.71 41.2177 225.826 53.1059 240.772 53.1059Z" fill="#91B3FA"/>
<path d="M240.772 47.8537C252.762 47.8537 262.481 38.317 262.481 26.5528C262.481 14.7887 252.762 5.25195 240.772 5.25195C228.782 5.25195 219.063 14.7887 219.063 26.5528C219.063 38.317 228.782 47.8537 240.772 47.8537Z" fill="white"/>
<path d="M240.772 42.4951C249.746 42.4951 257.02 35.3576 257.02 26.553C257.02 17.7484 249.746 10.6108 240.772 10.6108C231.799 10.6108 224.525 17.7484 224.525 26.553C224.525 35.3576 231.799 42.4951 240.772 42.4951Z" fill="#91B3FA"/>
<path d="M240.772 37.1524C246.738 37.1524 251.575 32.4068 251.575 26.5528C251.575 20.6987 246.738 15.9531 240.772 15.9531C234.806 15.9531 229.969 20.6987 229.969 26.5528C229.969 32.4068 234.806 37.1524 240.772 37.1524Z" fill="white"/>
<path d="M240.772 31.9755C243.825 31.9755 246.299 29.5476 246.299 26.5527C246.299 23.5578 243.825 21.1299 240.772 21.1299C237.72 21.1299 235.246 23.5578 235.246 26.5527C235.246 29.5476 237.72 31.9755 240.772 31.9755Z" fill="#91B3FA"/>
<path d="M260.189 7.9292L262.481 8.19209L259.429 11.1865L257.137 10.924L260.189 7.9292Z" fill="#FF776B"/>
<path d="M259.974 5.73193L260.242 7.98073L257.19 10.9752L256.922 8.72637L259.974 5.73193Z" fill="#FF776B"/>
<path d="M242.108 26.0187C242.007 25.919 241.949 25.7838 241.949 25.6428C241.949 25.5018 242.007 25.3666 242.108 25.267L259.984 7.72753L260.75 8.47924L242.874 26.0187C242.773 26.1184 242.635 26.1744 242.491 26.1744C242.348 26.1744 242.21 26.1184 242.108 26.0187Z" fill="#FF776B"/>
<path d="M347.627 222.438C357.875 222.438 366.184 214.286 366.184 204.23C366.184 194.174 357.875 186.022 347.627 186.022C337.378 186.022 329.07 194.174 329.07 204.23C329.07 214.286 337.378 222.438 347.627 222.438Z" fill="#8DDBE0"/>
<path d="M344.475 213.047C344.088 213.047 343.716 212.902 343.435 212.641L336.386 206.115C336.241 205.981 336.125 205.821 336.043 205.642C335.962 205.464 335.917 205.272 335.911 205.077C335.906 204.882 335.939 204.687 336.01 204.505C336.081 204.322 336.187 204.155 336.324 204.013C336.46 203.871 336.624 203.757 336.806 203.677C336.987 203.597 337.183 203.553 337.382 203.547C337.581 203.542 337.779 203.574 337.965 203.644C338.151 203.713 338.321 203.818 338.466 203.952L344.391 209.437L356.766 196.058C357.037 195.771 357.413 195.6 357.812 195.583C358.211 195.566 358.601 195.704 358.896 195.967C359.192 196.231 359.37 196.598 359.392 196.989C359.413 197.38 359.276 197.764 359.011 198.057L345.598 212.558C345.463 212.705 345.299 212.823 345.116 212.907C344.934 212.99 344.736 213.037 344.535 213.045C344.514 213.046 344.494 213.047 344.475 213.047Z" fill="white"/>
<path d="M196.684 274.073H143.473C140.555 266.621 149.323 262.947 152.112 267.776C150.449 264.895 150.006 261.244 153.46 258.894C157.08 257.031 161.44 259.161 162.106 262.53C161.218 258.043 165.446 253.571 170.15 252.554C182.226 249.946 184.918 261.633 183.824 263.471C187.013 258.117 200.2 264.725 196.684 274.073Z" fill="#C1D8ED"/>
<path d="M486.404 273.458C489.079 273.022 491.71 272.335 494.375 269.785C494.922 269.263 495.464 268.572 495.306 267.838C495.187 267.286 494.678 266.874 494.127 266.712C493.921 266.654 493.709 266.62 493.495 266.61C493.493 266.61 493.492 266.61 493.492 266.609C493.162 266.598 492.832 266.617 492.506 266.665L492.413 266.678C490.858 266.895 489.344 267.336 487.92 267.987C487.791 268.045 487.645 268.059 487.507 268.026C487.369 267.993 487.246 267.916 487.159 267.805C487.072 267.695 487.025 267.559 487.027 267.42C487.028 267.281 487.078 267.146 487.167 267.037C487.331 266.841 487.514 266.662 487.714 266.502C488.009 266.272 488.325 266.07 488.658 265.897C489.102 265.663 489.568 265.463 490.026 265.256C491.728 264.487 493.364 263.586 494.919 262.561C496.029 261.828 497.131 260.998 497.771 259.845C498.064 259.314 498.253 258.683 498.07 258.106C497.769 257.159 496.598 256.748 495.587 256.801C493.815 256.894 492.262 257.952 490.867 259.026C489.709 259.919 488.414 260.905 486.948 260.773C486.696 260.763 486.453 260.68 486.249 260.536C485.867 260.233 485.84 259.646 486.051 259.211C486.263 258.776 486.656 258.459 487.036 258.155C489.242 256.387 491.428 254.534 493.023 252.22C494.617 249.906 495.578 247.05 495.077 244.299C494.929 243.495 494.651 242.694 494.132 242.054C493.614 241.414 492.826 240.951 491.992 240.949C490.856 240.943 489.887 241.755 489.189 242.633C486.79 245.646 486.351 249.673 485.282 253.35C484.983 254.379 484.61 255.426 483.853 256.205C483.782 256.28 483.696 256.34 483.601 256.38C483.035 256.607 482.648 255.943 482.522 255.407C482.025 253.286 482.152 250.953 480.992 249.097C480.549 248.391 479.871 247.759 479.033 247.652C478.01 247.521 477.017 248.243 476.585 249.163C476.153 250.083 476.187 251.15 476.374 252.146C476.721 253.993 477.564 255.723 478.624 257.287C479.182 258.112 479.827 258.957 479.891 259.945C479.906 260.28 479.834 260.613 479.681 260.913C479.528 261.213 479.299 261.469 479.017 261.658C478.886 261.743 478.738 261.801 478.583 261.828C478.429 261.856 478.27 261.853 478.116 261.819C477.785 261.744 477.505 261.535 477.235 261.333C477.121 261.248 477.008 261.162 476.893 261.076C476.442 260.738 475.992 260.399 475.541 260.06C474.394 259.197 472.992 258.285 471.614 258.711C470.91 258.929 470.394 259.473 470.095 260.137C469.825 260.74 469.733 261.405 469.828 262.056C470.032 263.412 471.958 267.368 472.83 268.439C473.849 269.691 477.253 274.952 486.404 273.458Z" fill="#8DDBE0"/>
</svg>
