<svg width="48" height="48" viewBox="0 0 48 48" fill="none" xmlns="http://www.w3.org/2000/svg">
<path fill-rule="evenodd" clip-rule="evenodd" d="M43.1998 24C43.1998 34.6039 34.6037 43.2 23.9998 43.2C13.3959 43.2 4.7998 34.6039 4.7998 24C4.7998 13.3961 13.3959 4.8 23.9998 4.8C34.6037 4.8 43.1998 13.3961 43.1998 24ZM26.3998 33.6C26.3998 34.9255 25.3253 36 23.9998 36C22.6743 36 21.5998 34.9255 21.5998 33.6C21.5998 32.2745 22.6743 31.2 23.9998 31.2C25.3253 31.2 26.3998 32.2745 26.3998 33.6ZM23.9998 12C22.6743 12 21.5998 13.0745 21.5998 14.4V24C21.5998 25.3255 22.6743 26.4 23.9998 26.4C25.3253 26.4 26.3998 25.3255 26.3998 24V14.4C26.3998 13.0745 25.3253 12 23.9998 12Z" fill="#C0392B"/>
</svg>
