<svg width="416" height="176" viewBox="0 0 416 176" fill="none" xmlns="http://www.w3.org/2000/svg">
<g filter="url(#filter0_d_8916_22111)">
<mask id="path-1-inside-1_8916_22111" fill="white">
<path d="M8 12.0762C8 9.86703 9.79086 8.07617 12 8.07617H404C406.209 8.07617 408 9.86703 408 12.0762V163.076C408 165.285 406.209 167.076 404 167.076H12C9.79086 167.076 8 165.285 8 163.076V12.0762Z"/>
</mask>
<path d="M8 12.0762C8 9.86703 9.79086 8.07617 12 8.07617H404C406.209 8.07617 408 9.86703 408 12.0762V163.076C408 165.285 406.209 167.076 404 167.076H12C9.79086 167.076 8 165.285 8 163.076V12.0762Z" fill="white" shape-rendering="crispEdges"/>
<g filter="url(#filter1_d_8916_22111)">
<rect x="54.5" y="16.0762" width="80" height="80" rx="40" fill="#EEECFE" shape-rendering="crispEdges"/>
<path d="M104.5 74.0762H84.5C76.5 74.0762 74.5 72.0762 74.5 64.0762V48.0762C74.5 40.0762 76.5 38.0762 84.5 38.0762H104.5C112.5 38.0762 114.5 40.0762 114.5 48.0762V64.0762C114.5 72.0762 112.5 74.0762 104.5 74.0762Z" stroke="#6257CD" stroke-width="3" stroke-linecap="round" stroke-linejoin="round"/>
<path d="M98.5 48.0762H108.5" stroke="#6257CD" stroke-width="3" stroke-linecap="round" stroke-linejoin="round"/>
<path d="M100.5 56.0762H108.5" stroke="#6257CD" stroke-width="3" stroke-linecap="round" stroke-linejoin="round"/>
<path d="M104.5 64.0762H108.5" stroke="#6257CD" stroke-width="3" stroke-linecap="round" stroke-linejoin="round"/>
<path d="M87.4989 54.656C89.4982 54.656 91.1189 53.0353 91.1189 51.036C91.1189 49.0367 89.4982 47.416 87.4989 47.416C85.4996 47.416 83.8789 49.0367 83.8789 51.036C83.8789 53.0353 85.4996 54.656 87.4989 54.656Z" stroke="#6257CD" stroke-width="3" stroke-linecap="round" stroke-linejoin="round"/>
<path d="M94.5 64.7362C94.22 61.8362 91.92 59.5562 89.02 59.2962C88.02 59.1962 87 59.1962 85.98 59.2962C83.08 59.5762 80.78 61.8362 80.5 64.7362" stroke="#6257CD" stroke-width="3" stroke-linecap="round" stroke-linejoin="round"/>
<rect x="55" y="16.5762" width="79" height="79" rx="39.5" stroke="#EEECFE" shape-rendering="crispEdges"/>
</g>
<path d="M40.58 124.076L37.5 118.636H36.18V124.076H33.38V110.116H38.62C39.7 110.116 40.62 110.31 41.38 110.696C42.14 111.07 42.7067 111.583 43.08 112.236C43.4667 112.876 43.66 113.596 43.66 114.396C43.66 115.316 43.3933 116.15 42.86 116.896C42.3267 117.63 41.5333 118.136 40.48 118.416L43.82 124.076H40.58ZM36.18 116.536H38.52C39.28 116.536 39.8467 116.356 40.22 115.996C40.5933 115.623 40.78 115.11 40.78 114.456C40.78 113.816 40.5933 113.323 40.22 112.976C39.8467 112.616 39.28 112.436 38.52 112.436H36.18V116.536ZM56.4925 118.296C56.4925 118.696 56.4658 119.056 56.4125 119.376H48.3125C48.3792 120.176 48.6592 120.803 49.1525 121.256C49.6458 121.71 50.2525 121.936 50.9725 121.936C52.0125 121.936 52.7525 121.49 53.1925 120.596H56.2125C55.8925 121.663 55.2792 122.543 54.3725 123.236C53.4658 123.916 52.3525 124.256 51.0325 124.256C49.9658 124.256 49.0058 124.023 48.1525 123.556C47.3125 123.076 46.6525 122.403 46.1725 121.536C45.7058 120.67 45.4725 119.67 45.4725 118.536C45.4725 117.39 45.7058 116.383 46.1725 115.516C46.6392 114.65 47.2925 113.983 48.1325 113.516C48.9725 113.05 49.9392 112.816 51.0325 112.816C52.0858 112.816 53.0258 113.043 53.8525 113.496C54.6925 113.95 55.3392 114.596 55.7925 115.436C56.2592 116.263 56.4925 117.216 56.4925 118.296ZM53.5925 117.496C53.5792 116.776 53.3192 116.203 52.8125 115.776C52.3058 115.336 51.6858 115.116 50.9525 115.116C50.2592 115.116 49.6725 115.33 49.1925 115.756C48.7258 116.17 48.4392 116.75 48.3325 117.496H53.5925ZM63.6163 115.296H61.6763V124.076H58.8363V115.296H57.5763V112.996H58.8363V112.436C58.8363 111.076 59.2229 110.076 59.9963 109.436C60.7696 108.796 61.9363 108.496 63.4963 108.536V110.896C62.8163 110.883 62.3429 110.996 62.0763 111.236C61.8096 111.476 61.6763 111.91 61.6763 112.536V112.996H63.6163V115.296ZM75.7308 118.296C75.7308 118.696 75.7041 119.056 75.6508 119.376H67.5508C67.6174 120.176 67.8974 120.803 68.3908 121.256C68.8841 121.71 69.4908 121.936 70.2108 121.936C71.2508 121.936 71.9908 121.49 72.4308 120.596H75.4508C75.1308 121.663 74.5174 122.543 73.6108 123.236C72.7041 123.916 71.5908 124.256 70.2708 124.256C69.2041 124.256 68.2441 124.023 67.3908 123.556C66.5508 123.076 65.8908 122.403 65.4108 121.536C64.9441 120.67 64.7108 119.67 64.7108 118.536C64.7108 117.39 64.9441 116.383 65.4108 115.516C65.8774 114.65 66.5308 113.983 67.3708 113.516C68.2108 113.05 69.1774 112.816 70.2708 112.816C71.3241 112.816 72.2641 113.043 73.0908 113.496C73.9308 113.95 74.5774 114.596 75.0308 115.436C75.4974 116.263 75.7308 117.216 75.7308 118.296ZM72.8308 117.496C72.8174 116.776 72.5574 116.203 72.0508 115.776C71.5441 115.336 70.9241 115.116 70.1908 115.116C69.4974 115.116 68.9108 115.33 68.4308 115.756C67.9641 116.17 67.6774 116.75 67.5708 117.496H72.8308ZM80.5745 114.716C80.9345 114.13 81.4012 113.67 81.9745 113.336C82.5612 113.003 83.2279 112.836 83.9745 112.836V115.776H83.2345C82.3545 115.776 81.6879 115.983 81.2345 116.396C80.7945 116.81 80.5745 117.53 80.5745 118.556V124.076H77.7745V112.996H80.5745V114.716ZM101.366 124.076L99.8461 122.576C98.5528 123.736 96.9728 124.316 95.1061 124.316C94.0794 124.316 93.1728 124.143 92.3861 123.796C91.6128 123.436 91.0128 122.936 90.5861 122.296C90.1594 121.643 89.9461 120.89 89.9461 120.036C89.9461 119.116 90.2061 118.29 90.7261 117.556C91.2461 116.823 92.0128 116.23 93.0261 115.776C92.6661 115.336 92.4061 114.916 92.2461 114.516C92.0861 114.103 92.0061 113.663 92.0061 113.196C92.0061 112.556 92.1728 111.983 92.5061 111.476C92.8394 110.956 93.3128 110.55 93.9261 110.256C94.5528 109.963 95.2794 109.816 96.1061 109.816C96.9461 109.816 97.6661 109.976 98.2661 110.296C98.8661 110.616 99.3128 111.043 99.6061 111.576C99.8994 112.11 100.026 112.703 99.9861 113.356H97.2661C97.2794 112.916 97.1728 112.583 96.9461 112.356C96.7194 112.116 96.4128 111.996 96.0261 111.996C95.6528 111.996 95.3394 112.11 95.0861 112.336C94.8461 112.55 94.7261 112.83 94.7261 113.176C94.7261 113.51 94.8261 113.843 95.0261 114.176C95.2261 114.496 95.5528 114.896 96.0061 115.376L99.5261 118.856C99.5528 118.83 99.5728 118.803 99.5861 118.776C99.5994 118.75 99.6128 118.723 99.6261 118.696L100.766 116.796H103.686L102.286 119.256C102.019 119.776 101.733 120.27 101.426 120.736L104.806 124.076H101.366ZM95.1861 121.996C96.2794 121.996 97.2461 121.61 98.0861 120.836L94.6461 117.436C93.3528 118.01 92.7061 118.823 92.7061 119.876C92.7061 120.476 92.9328 120.983 93.3861 121.396C93.8394 121.796 94.4394 121.996 95.1861 121.996ZM121.258 118.296C121.258 118.696 121.231 119.056 121.178 119.376H113.078C113.145 120.176 113.425 120.803 113.918 121.256C114.411 121.71 115.018 121.936 115.738 121.936C116.778 121.936 117.518 121.49 117.958 120.596H120.978C120.658 121.663 120.045 122.543 119.138 123.236C118.231 123.916 117.118 124.256 115.798 124.256C114.731 124.256 113.771 124.023 112.918 123.556C112.078 123.076 111.418 122.403 110.938 121.536C110.471 120.67 110.238 119.67 110.238 118.536C110.238 117.39 110.471 116.383 110.938 115.516C111.405 114.65 112.058 113.983 112.898 113.516C113.738 113.05 114.705 112.816 115.798 112.816C116.851 112.816 117.791 113.043 118.618 113.496C119.458 113.95 120.105 114.596 120.558 115.436C121.025 116.263 121.258 117.216 121.258 118.296ZM118.358 117.496C118.345 116.776 118.085 116.203 117.578 115.776C117.071 115.336 116.451 115.116 115.718 115.116C115.025 115.116 114.438 115.33 113.958 115.756C113.491 116.17 113.205 116.75 113.098 117.496H118.358ZM122.582 118.496C122.582 117.376 122.802 116.383 123.242 115.516C123.695 114.65 124.302 113.983 125.062 113.516C125.835 113.05 126.695 112.816 127.642 112.816C128.469 112.816 129.189 112.983 129.802 113.316C130.429 113.65 130.929 114.07 131.302 114.576V112.996H134.122V124.076H131.302V122.456C130.942 122.976 130.442 123.41 129.802 123.756C129.175 124.09 128.449 124.256 127.622 124.256C126.689 124.256 125.835 124.016 125.062 123.536C124.302 123.056 123.695 122.383 123.242 121.516C122.802 120.636 122.582 119.63 122.582 118.496ZM131.302 118.536C131.302 117.856 131.169 117.276 130.902 116.796C130.635 116.303 130.275 115.93 129.822 115.676C129.369 115.41 128.882 115.276 128.362 115.276C127.842 115.276 127.362 115.403 126.922 115.656C126.482 115.91 126.122 116.283 125.842 116.776C125.575 117.256 125.442 117.83 125.442 118.496C125.442 119.163 125.575 119.75 125.842 120.256C126.122 120.75 126.482 121.13 126.922 121.396C127.375 121.663 127.855 121.796 128.362 121.796C128.882 121.796 129.369 121.67 129.822 121.416C130.275 121.15 130.635 120.776 130.902 120.296C131.169 119.803 131.302 119.216 131.302 118.536ZM139.657 114.716C140.017 114.13 140.483 113.67 141.057 113.336C141.643 113.003 142.31 112.836 143.057 112.836V115.776H142.317C141.437 115.776 140.77 115.983 140.317 116.396C139.877 116.81 139.657 117.53 139.657 118.556V124.076H136.857V112.996H139.657V114.716ZM151.083 112.836C152.403 112.836 153.469 113.256 154.283 114.096C155.096 114.923 155.503 116.083 155.503 117.576V124.076H152.703V117.956C152.703 117.076 152.483 116.403 152.043 115.936C151.603 115.456 151.003 115.216 150.243 115.216C149.469 115.216 148.856 115.456 148.403 115.936C147.963 116.403 147.743 117.076 147.743 117.956V124.076H144.943V112.996H147.743V114.376C148.116 113.896 148.589 113.523 149.163 113.256C149.749 112.976 150.389 112.836 151.083 112.836Z" fill="#141226"/>
<path fill-rule="evenodd" clip-rule="evenodd" d="M368.752 78.7247C368.283 78.2561 368.283 77.4963 368.752 77.0276L372.703 73.0762L368.752 69.1247C368.283 68.6561 368.283 67.8963 368.752 67.4276C369.22 66.959 369.98 66.959 370.449 67.4276L375.249 72.2276C375.718 72.6963 375.718 73.4561 375.249 73.9247L370.449 78.7247C369.98 79.1933 369.22 79.1933 368.752 78.7247Z" fill="#6257CD"/>
<path d="M34.688 142.924V154.076H33.232V142.924H34.688ZM41.4415 145.148C42.5082 145.148 43.3722 145.474 44.0335 146.124C44.6948 146.764 45.0255 147.692 45.0255 148.908V154.076H43.5855V149.116C43.5855 148.242 43.3668 147.575 42.9295 147.116C42.4922 146.647 41.8948 146.412 41.1375 146.412C40.3695 146.412 39.7562 146.652 39.2975 147.132C38.8495 147.612 38.6255 148.311 38.6255 149.228V154.076H37.1695V145.308H38.6255V146.556C38.9135 146.108 39.3028 145.762 39.7935 145.516C40.2948 145.271 40.8442 145.148 41.4415 145.148ZM50.5079 154.22C49.8359 154.22 49.2332 154.108 48.6999 153.884C48.1665 153.65 47.7452 153.33 47.4359 152.924C47.1265 152.508 46.9559 152.034 46.9239 151.5H48.4279C48.4705 151.938 48.6732 152.295 49.0359 152.572C49.4092 152.85 49.8945 152.988 50.4919 152.988C51.0465 152.988 51.4839 152.866 51.8039 152.62C52.1239 152.375 52.2839 152.066 52.2839 151.692C52.2839 151.308 52.1132 151.026 51.7719 150.844C51.4305 150.652 50.9025 150.466 50.1879 150.284C49.5372 150.114 49.0039 149.943 48.5879 149.772C48.1825 149.591 47.8305 149.33 47.5319 148.988C47.2439 148.636 47.0999 148.178 47.0999 147.612C47.0999 147.164 47.2332 146.754 47.4999 146.38C47.7665 146.007 48.1452 145.714 48.6359 145.5C49.1265 145.276 49.6865 145.164 50.3159 145.164C51.2865 145.164 52.0705 145.41 52.6679 145.9C53.2652 146.391 53.5852 147.063 53.6279 147.916H52.1719C52.1399 147.458 51.9532 147.09 51.6119 146.812C51.2812 146.535 50.8332 146.396 50.2679 146.396C49.7452 146.396 49.3292 146.508 49.0199 146.732C48.7105 146.956 48.5559 147.25 48.5559 147.612C48.5559 147.9 48.6465 148.14 48.8279 148.332C49.0199 148.514 49.2545 148.663 49.5319 148.78C49.8199 148.887 50.2145 149.01 50.7159 149.148C51.3452 149.319 51.8572 149.49 52.2519 149.66C52.6465 149.82 52.9825 150.066 53.2599 150.396C53.5479 150.727 53.6972 151.159 53.7079 151.692C53.7079 152.172 53.5745 152.604 53.3079 152.988C53.0412 153.372 52.6625 153.676 52.1719 153.9C51.6919 154.114 51.1372 154.22 50.5079 154.22ZM57.5393 146.508V151.676C57.5393 152.103 57.6299 152.407 57.8113 152.588C57.9926 152.759 58.3073 152.844 58.7552 152.844H59.8273V154.076H58.5153C57.7046 154.076 57.0966 153.89 56.6913 153.516C56.2859 153.143 56.0833 152.53 56.0833 151.676V146.508H54.9473V145.308H56.0833V143.1H57.5393V145.308H59.8273V146.508H57.5393ZM61.0474 149.66C61.0474 148.764 61.2287 147.98 61.5914 147.308C61.954 146.626 62.45 146.098 63.0794 145.724C63.7194 145.351 64.4287 145.164 65.2074 145.164C65.9754 145.164 66.642 145.33 67.2074 145.66C67.7727 145.991 68.194 146.407 68.4714 146.908V145.308H69.9434V154.076H68.4714V152.444C68.1834 152.956 67.7514 153.383 67.1754 153.724C66.61 154.055 65.9487 154.22 65.1914 154.22C64.4127 154.22 63.7087 154.028 63.0794 153.644C62.45 153.26 61.954 152.722 61.5914 152.028C61.2287 151.335 61.0474 150.546 61.0474 149.66ZM68.4714 149.676C68.4714 149.015 68.338 148.439 68.0714 147.948C67.8047 147.458 67.442 147.084 66.9834 146.828C66.5354 146.562 66.0394 146.428 65.4954 146.428C64.9514 146.428 64.4554 146.556 64.0074 146.812C63.5594 147.068 63.202 147.442 62.9354 147.932C62.6687 148.423 62.5354 148.999 62.5354 149.66C62.5354 150.332 62.6687 150.919 62.9354 151.42C63.202 151.911 63.5594 152.29 64.0074 152.556C64.4554 152.812 64.9514 152.94 65.4954 152.94C66.0394 152.94 66.5354 152.812 66.9834 152.556C67.442 152.29 67.8047 151.911 68.0714 151.42C68.338 150.919 68.4714 150.338 68.4714 149.676ZM76.6759 145.148C77.7425 145.148 78.6065 145.474 79.2679 146.124C79.9292 146.764 80.2599 147.692 80.2599 148.908V154.076H78.8199V149.116C78.8199 148.242 78.6012 147.575 78.1639 147.116C77.7265 146.647 77.1292 146.412 76.3719 146.412C75.6039 146.412 74.9905 146.652 74.5319 147.132C74.0839 147.612 73.8599 148.311 73.8599 149.228V154.076H72.4039V145.308H73.8599V146.556C74.1479 146.108 74.5372 145.762 75.0279 145.516C75.5292 145.271 76.0785 145.148 76.6759 145.148ZM84.4143 146.508V151.676C84.4143 152.103 84.5049 152.407 84.6863 152.588C84.8676 152.759 85.1823 152.844 85.6302 152.844H86.7023V154.076H85.3903C84.5796 154.076 83.9716 153.89 83.5663 153.516C83.1609 153.143 82.9583 152.53 82.9583 151.676V146.508H81.8223V145.308H82.9583V143.1H84.4143V145.308H86.7023V146.508H84.4143ZM94.188 146.94C94.4867 146.418 94.924 145.991 95.5 145.66C96.076 145.33 96.732 145.164 97.468 145.164C98.2573 145.164 98.9667 145.351 99.596 145.724C100.225 146.098 100.721 146.626 101.084 147.308C101.447 147.98 101.628 148.764 101.628 149.66C101.628 150.546 101.447 151.335 101.084 152.028C100.721 152.722 100.22 153.26 99.58 153.644C98.9507 154.028 98.2467 154.22 97.468 154.22C96.7107 154.22 96.044 154.055 95.468 153.724C94.9027 153.394 94.476 152.972 94.188 152.46V154.076H92.732V142.236H94.188V146.94ZM100.14 149.66C100.14 148.999 100.007 148.423 99.74 147.932C99.4733 147.442 99.1107 147.068 98.652 146.812C98.204 146.556 97.708 146.428 97.164 146.428C96.6307 146.428 96.1347 146.562 95.676 146.828C95.228 147.084 94.8653 147.463 94.588 147.964C94.3213 148.455 94.188 149.026 94.188 149.676C94.188 150.338 94.3213 150.919 94.588 151.42C94.8653 151.911 95.228 152.29 95.676 152.556C96.1347 152.812 96.6307 152.94 97.164 152.94C97.708 152.94 98.204 152.812 98.652 152.556C99.1107 152.29 99.4733 151.911 99.74 151.42C100.007 150.919 100.14 150.332 100.14 149.66ZM111.545 149.356C111.545 149.634 111.529 149.927 111.497 150.236H104.489C104.542 151.1 104.835 151.778 105.369 152.268C105.913 152.748 106.569 152.988 107.337 152.988C107.966 152.988 108.489 152.844 108.905 152.556C109.331 152.258 109.63 151.863 109.801 151.372H111.369C111.134 152.215 110.665 152.903 109.961 153.436C109.257 153.959 108.382 154.22 107.337 154.22C106.505 154.22 105.758 154.034 105.097 153.66C104.446 153.287 103.934 152.759 103.561 152.076C103.187 151.383 103.001 150.583 103.001 149.676C103.001 148.77 103.182 147.975 103.545 147.292C103.907 146.61 104.414 146.087 105.065 145.724C105.726 145.351 106.483 145.164 107.337 145.164C108.169 145.164 108.905 145.346 109.545 145.708C110.185 146.071 110.675 146.572 111.017 147.212C111.369 147.842 111.545 148.556 111.545 149.356ZM110.041 149.052C110.041 148.498 109.918 148.023 109.673 147.628C109.427 147.223 109.091 146.919 108.665 146.716C108.249 146.503 107.785 146.396 107.273 146.396C106.537 146.396 105.907 146.631 105.385 147.1C104.873 147.57 104.579 148.22 104.505 149.052H110.041ZM117.738 145.148C118.805 145.148 119.669 145.474 120.33 146.124C120.992 146.764 121.322 147.692 121.322 148.908V154.076H119.882V149.116C119.882 148.242 119.664 147.575 119.226 147.116C118.789 146.647 118.192 146.412 117.434 146.412C116.666 146.412 116.053 146.652 115.594 147.132C115.146 147.612 114.922 148.311 114.922 149.228V154.076H113.466V145.308H114.922V146.556C115.21 146.108 115.6 145.762 116.09 145.516C116.592 145.271 117.141 145.148 117.738 145.148ZM131.701 149.356C131.701 149.634 131.685 149.927 131.653 150.236H124.645C124.698 151.1 124.991 151.778 125.525 152.268C126.069 152.748 126.725 152.988 127.493 152.988C128.122 152.988 128.645 152.844 129.061 152.556C129.487 152.258 129.786 151.863 129.957 151.372H131.525C131.29 152.215 130.821 152.903 130.117 153.436C129.413 153.959 128.538 154.22 127.493 154.22C126.661 154.22 125.914 154.034 125.253 153.66C124.602 153.287 124.09 152.759 123.717 152.076C123.343 151.383 123.157 150.583 123.157 149.676C123.157 148.77 123.338 147.975 123.701 147.292C124.063 146.61 124.57 146.087 125.221 145.724C125.882 145.351 126.639 145.164 127.493 145.164C128.325 145.164 129.061 145.346 129.701 145.708C130.341 146.071 130.831 146.572 131.173 147.212C131.525 147.842 131.701 148.556 131.701 149.356ZM130.197 149.052C130.197 148.498 130.074 148.023 129.829 147.628C129.583 147.223 129.247 146.919 128.821 146.716C128.405 146.503 127.941 146.396 127.429 146.396C126.693 146.396 126.063 146.631 125.541 147.1C125.029 147.57 124.735 148.22 124.661 149.052H130.197ZM137.191 146.508H135.351V154.076H133.895V146.508H132.759V145.308H133.895V144.684C133.895 143.703 134.145 142.988 134.647 142.54C135.159 142.082 135.975 141.852 137.095 141.852V143.068C136.455 143.068 136.001 143.196 135.735 143.452C135.479 143.698 135.351 144.108 135.351 144.684V145.308H137.191V146.508ZM139.64 143.884C139.363 143.884 139.128 143.788 138.936 143.596C138.744 143.404 138.648 143.17 138.648 142.892C138.648 142.615 138.744 142.38 138.936 142.188C139.128 141.996 139.363 141.9 139.64 141.9C139.907 141.9 140.131 141.996 140.312 142.188C140.504 142.38 140.6 142.615 140.6 142.892C140.6 143.17 140.504 143.404 140.312 143.596C140.131 143.788 139.907 143.884 139.64 143.884ZM140.344 145.308V154.076H138.888V145.308H140.344ZM144.602 146.508V151.676C144.602 152.103 144.692 152.407 144.874 152.588C145.055 152.759 145.37 152.844 145.818 152.844H146.89V154.076H145.578C144.767 154.076 144.159 153.89 143.754 153.516C143.348 153.143 143.146 152.53 143.146 151.676V146.508H142.01V145.308H143.146V143.1H144.602V145.308H146.89V146.508H144.602ZM151.758 154.22C151.086 154.22 150.483 154.108 149.95 153.884C149.417 153.65 148.995 153.33 148.686 152.924C148.377 152.508 148.206 152.034 148.174 151.5H149.678C149.721 151.938 149.923 152.295 150.286 152.572C150.659 152.85 151.145 152.988 151.742 152.988C152.297 152.988 152.734 152.866 153.054 152.62C153.374 152.375 153.534 152.066 153.534 151.692C153.534 151.308 153.363 151.026 153.022 150.844C152.681 150.652 152.153 150.466 151.438 150.284C150.787 150.114 150.254 149.943 149.838 149.772C149.433 149.591 149.081 149.33 148.782 148.988C148.494 148.636 148.35 148.178 148.35 147.612C148.35 147.164 148.483 146.754 148.75 146.38C149.017 146.007 149.395 145.714 149.886 145.5C150.377 145.276 150.937 145.164 151.566 145.164C152.537 145.164 153.321 145.41 153.918 145.9C154.515 146.391 154.835 147.063 154.878 147.916H153.422C153.39 147.458 153.203 147.09 152.862 146.812C152.531 146.535 152.083 146.396 151.518 146.396C150.995 146.396 150.579 146.508 150.27 146.732C149.961 146.956 149.806 147.25 149.806 147.612C149.806 147.9 149.897 148.14 150.078 148.332C150.27 148.514 150.505 148.663 150.782 148.78C151.07 148.887 151.465 149.01 151.966 149.148C152.595 149.319 153.107 149.49 153.502 149.66C153.897 149.82 154.233 150.066 154.51 150.396C154.798 150.727 154.947 151.159 154.958 151.692C154.958 152.172 154.825 152.604 154.558 152.988C154.291 153.372 153.913 153.676 153.422 153.9C152.942 154.114 152.387 154.22 151.758 154.22ZM169.599 148.844H166.191V152.3H164.831V148.844H161.439V147.612H164.831V144.14H166.191V147.612H169.599V148.844ZM184.466 149.356C184.466 149.634 184.45 149.927 184.418 150.236H177.41C177.464 151.1 177.757 151.778 178.29 152.268C178.834 152.748 179.49 152.988 180.258 152.988C180.888 152.988 181.41 152.844 181.826 152.556C182.253 152.258 182.552 151.863 182.722 151.372H184.29C184.056 152.215 183.586 152.903 182.882 153.436C182.178 153.959 181.304 154.22 180.258 154.22C179.426 154.22 178.68 154.034 178.018 153.66C177.368 153.287 176.856 152.759 176.482 152.076C176.109 151.383 175.922 150.583 175.922 149.676C175.922 148.77 176.104 147.975 176.466 147.292C176.829 146.61 177.336 146.087 177.986 145.724C178.648 145.351 179.405 145.164 180.258 145.164C181.09 145.164 181.826 145.346 182.466 145.708C183.106 146.071 183.597 146.572 183.938 147.212C184.29 147.842 184.466 148.556 184.466 149.356ZM182.962 149.052C182.962 148.498 182.84 148.023 182.594 147.628C182.349 147.223 182.013 146.919 181.586 146.716C181.17 146.503 180.706 146.396 180.194 146.396C179.458 146.396 178.829 146.631 178.306 147.1C177.794 147.57 177.501 148.22 177.426 149.052H182.962ZM190.964 154.076L188.884 150.812L186.884 154.076H185.364L188.196 149.724L185.364 145.308H187.012L189.092 148.556L191.076 145.308H192.596L189.78 149.644L192.612 154.076H190.964ZM193.501 149.66C193.501 148.764 193.682 147.98 194.045 147.308C194.407 146.626 194.903 146.098 195.533 145.724C196.173 145.351 196.882 145.164 197.661 145.164C198.429 145.164 199.095 145.33 199.661 145.66C200.226 145.991 200.647 146.407 200.925 146.908V145.308H202.397V154.076H200.925V152.444C200.637 152.956 200.205 153.383 199.629 153.724C199.063 154.055 198.402 154.22 197.645 154.22C196.866 154.22 196.162 154.028 195.533 153.644C194.903 153.26 194.407 152.722 194.045 152.028C193.682 151.335 193.501 150.546 193.501 149.66ZM200.925 149.676C200.925 149.015 200.791 148.439 200.525 147.948C200.258 147.458 199.895 147.084 199.437 146.828C198.989 146.562 198.493 146.428 197.949 146.428C197.405 146.428 196.909 146.556 196.461 146.812C196.013 147.068 195.655 147.442 195.389 147.932C195.122 148.423 194.989 148.999 194.989 149.66C194.989 150.332 195.122 150.919 195.389 151.42C195.655 151.911 196.013 152.29 196.461 152.556C196.909 152.812 197.405 152.94 197.949 152.94C198.493 152.94 198.989 152.812 199.437 152.556C199.895 152.29 200.258 151.911 200.525 151.42C200.791 150.919 200.925 150.338 200.925 149.676ZM215.401 145.148C216.084 145.148 216.692 145.292 217.225 145.58C217.758 145.858 218.18 146.279 218.489 146.844C218.798 147.41 218.953 148.098 218.953 148.908V154.076H217.513V149.116C217.513 148.242 217.294 147.575 216.857 147.116C216.43 146.647 215.849 146.412 215.113 146.412C214.356 146.412 213.753 146.658 213.305 147.148C212.857 147.628 212.633 148.327 212.633 149.244V154.076H211.193V149.116C211.193 148.242 210.974 147.575 210.537 147.116C210.11 146.647 209.529 146.412 208.793 146.412C208.036 146.412 207.433 146.658 206.985 147.148C206.537 147.628 206.313 148.327 206.313 149.244V154.076H204.857V145.308H206.313V146.572C206.601 146.114 206.985 145.762 207.465 145.516C207.956 145.271 208.494 145.148 209.081 145.148C209.817 145.148 210.468 145.314 211.033 145.644C211.598 145.975 212.02 146.46 212.297 147.1C212.542 146.482 212.948 146.002 213.513 145.66C214.078 145.319 214.708 145.148 215.401 145.148ZM228.893 145.308L223.613 158.204H222.109L223.837 153.98L220.301 145.308H221.917L224.669 152.412L227.389 145.308H228.893ZM233.461 154.22C232.789 154.22 232.186 154.108 231.653 153.884C231.12 153.65 230.698 153.33 230.389 152.924C230.08 152.508 229.909 152.034 229.877 151.5H231.381C231.424 151.938 231.626 152.295 231.989 152.572C232.362 152.85 232.848 152.988 233.445 152.988C234 152.988 234.437 152.866 234.757 152.62C235.077 152.375 235.237 152.066 235.237 151.692C235.237 151.308 235.066 151.026 234.725 150.844C234.384 150.652 233.856 150.466 233.141 150.284C232.49 150.114 231.957 149.943 231.541 149.772C231.136 149.591 230.784 149.33 230.485 148.988C230.197 148.636 230.053 148.178 230.053 147.612C230.053 147.164 230.186 146.754 230.453 146.38C230.72 146.007 231.098 145.714 231.589 145.5C232.08 145.276 232.64 145.164 233.269 145.164C234.24 145.164 235.024 145.41 235.621 145.9C236.218 146.391 236.538 147.063 236.581 147.916H235.125C235.093 147.458 234.906 147.09 234.565 146.812C234.234 146.535 233.786 146.396 233.221 146.396C232.698 146.396 232.282 146.508 231.973 146.732C231.664 146.956 231.509 147.25 231.509 147.612C231.509 147.9 231.6 148.14 231.781 148.332C231.973 148.514 232.208 148.663 232.485 148.78C232.773 148.887 233.168 149.01 233.669 149.148C234.298 149.319 234.81 149.49 235.205 149.66C235.6 149.82 235.936 150.066 236.213 150.396C236.501 150.727 236.65 151.159 236.661 151.692C236.661 152.172 236.528 152.604 236.261 152.988C235.994 153.372 235.616 153.676 235.125 153.9C234.645 154.114 234.09 154.22 233.461 154.22ZM245.02 142.924V144.108H240.172V147.868H244.108V149.052H240.172V154.076H238.716V142.924H245.02ZM247.531 143.884C247.254 143.884 247.019 143.788 246.827 143.596C246.635 143.404 246.539 143.17 246.539 142.892C246.539 142.615 246.635 142.38 246.827 142.188C247.019 141.996 247.254 141.9 247.531 141.9C247.798 141.9 248.022 141.996 248.203 142.188C248.395 142.38 248.491 142.615 248.491 142.892C248.491 143.17 248.395 143.404 248.203 143.596C248.022 143.788 247.798 143.884 247.531 143.884ZM248.235 145.308V154.076H246.779V145.308H248.235ZM252.172 146.732C252.428 146.231 252.791 145.842 253.26 145.564C253.74 145.287 254.322 145.148 255.004 145.148V146.652H254.62C252.988 146.652 252.172 147.538 252.172 149.308V154.076H250.716V145.308H252.172V146.732ZM259.789 154.22C259.117 154.22 258.514 154.108 257.981 153.884C257.448 153.65 257.026 153.33 256.717 152.924C256.408 152.508 256.237 152.034 256.205 151.5H257.709C257.752 151.938 257.954 152.295 258.317 152.572C258.69 152.85 259.176 152.988 259.773 152.988C260.328 152.988 260.765 152.866 261.085 152.62C261.405 152.375 261.565 152.066 261.565 151.692C261.565 151.308 261.394 151.026 261.053 150.844C260.712 150.652 260.184 150.466 259.469 150.284C258.818 150.114 258.285 149.943 257.869 149.772C257.464 149.591 257.112 149.33 256.813 148.988C256.525 148.636 256.381 148.178 256.381 147.612C256.381 147.164 256.514 146.754 256.781 146.38C257.048 146.007 257.426 145.714 257.917 145.5C258.408 145.276 258.968 145.164 259.597 145.164C260.568 145.164 261.352 145.41 261.949 145.9C262.546 146.391 262.866 147.063 262.909 147.916H261.453C261.421 147.458 261.234 147.09 260.893 146.812C260.562 146.535 260.114 146.396 259.549 146.396C259.026 146.396 258.61 146.508 258.301 146.732C257.992 146.956 257.837 147.25 257.837 147.612C257.837 147.9 257.928 148.14 258.109 148.332C258.301 148.514 258.536 148.663 258.813 148.78C259.101 148.887 259.496 149.01 259.997 149.148C260.626 149.319 261.138 149.49 261.533 149.66C261.928 149.82 262.264 150.066 262.541 150.396C262.829 150.727 262.978 151.159 262.989 151.692C262.989 152.172 262.856 152.604 262.589 152.988C262.322 153.372 261.944 153.676 261.453 153.9C260.973 154.114 260.418 154.22 259.789 154.22ZM266.821 146.508V151.676C266.821 152.103 266.911 152.407 267.093 152.588C267.274 152.759 267.589 152.844 268.036 152.844H269.109V154.076H267.797C266.986 154.076 266.378 153.89 265.973 153.516C265.567 153.143 265.365 152.53 265.365 151.676V146.508H264.229V145.308H265.365V143.1H266.821V145.308H269.109V146.508H266.821Z" fill="#3E3D4D"/>
<path d="M8 8.07617H408H8ZM408 167.076H8H408ZM12 167.076C7.58172 167.076 4 163.494 4 159.076V16.0762C4 11.6579 7.58172 8.07617 12 8.07617C12 8.07617 12 9.86703 12 12.0762V163.076C12 165.285 12 167.076 12 167.076ZM408 8.07617V167.076V8.07617Z" fill="#6257CD" mask="url(#path-1-inside-1_8916_22111)"/>
</g>
<defs>
<filter id="filter0_d_8916_22111" x="0" y="0.576172" width="416" height="175" filterUnits="userSpaceOnUse" color-interpolation-filters="sRGB">
<feFlood flood-opacity="0" result="BackgroundImageFix"/>
<feColorMatrix in="SourceAlpha" type="matrix" values="0 0 0 0 0 0 0 0 0 0 0 0 0 0 0 0 0 0 127 0" result="hardAlpha"/>
<feOffset dy="0.5"/>
<feGaussianBlur stdDeviation="4"/>
<feComposite in2="hardAlpha" operator="out"/>
<feColorMatrix type="matrix" values="0 0 0 0 0 0 0 0 0 0 0 0 0 0 0 0 0 0 0.1 0"/>
<feBlend mode="normal" in2="BackgroundImageFix" result="effect1_dropShadow_8916_22111"/>
<feBlend mode="normal" in="SourceGraphic" in2="effect1_dropShadow_8916_22111" result="shape"/>
</filter>
<filter id="filter1_d_8916_22111" x="52.5" y="15.0762" width="84" height="84" filterUnits="userSpaceOnUse" color-interpolation-filters="sRGB">
<feFlood flood-opacity="0" result="BackgroundImageFix"/>
<feColorMatrix in="SourceAlpha" type="matrix" values="0 0 0 0 0 0 0 0 0 0 0 0 0 0 0 0 0 0 127 0" result="hardAlpha"/>
<feOffset dy="1"/>
<feGaussianBlur stdDeviation="1"/>
<feComposite in2="hardAlpha" operator="out"/>
<feColorMatrix type="matrix" values="0 0 0 0 0 0 0 0 0 0 0 0 0 0 0 0 0 0 0.05 0"/>
<feBlend mode="normal" in2="BackgroundImageFix" result="effect1_dropShadow_8916_22111"/>
<feBlend mode="normal" in="SourceGraphic" in2="effect1_dropShadow_8916_22111" result="shape"/>
</filter>
</defs>
</svg>
