<svg width="416" height="176" viewBox="0 0 416 176" fill="none" xmlns="http://www.w3.org/2000/svg">
<g filter="url(#filter0_d_8916_22127)">
<mask id="path-1-inside-1_8916_22127" fill="white">
<path d="M8 12.0762C8 9.86703 9.79086 8.07617 12 8.07617H404C406.209 8.07617 408 9.86703 408 12.0762V163.076C408 165.285 406.209 167.076 404 167.076H12C9.79086 167.076 8 165.285 8 163.076V12.0762Z"/>
</mask>
<path d="M8 12.0762C8 9.86703 9.79086 8.07617 12 8.07617H404C406.209 8.07617 408 9.86703 408 12.0762V163.076C408 165.285 406.209 167.076 404 167.076H12C9.79086 167.076 8 165.285 8 163.076V12.0762Z" fill="white" shape-rendering="crispEdges"/>
<g filter="url(#filter1_d_8916_22127)">
<rect x="77" y="16.0762" width="80" height="80" rx="40" fill="#EEECFE" shape-rendering="crispEdges"/>
<path d="M127 74.0762H107C99 74.0762 97 72.0762 97 64.0762V48.0762C97 40.0762 99 38.0762 107 38.0762H127C135 38.0762 137 40.0762 137 48.0762V64.0762C137 72.0762 135 74.0762 127 74.0762Z" stroke="#6257CD" stroke-width="3" stroke-linecap="round" stroke-linejoin="round"/>
<path d="M121 48.0762H131" stroke="#6257CD" stroke-width="3" stroke-linecap="round" stroke-linejoin="round"/>
<path d="M123 56.0762H131" stroke="#6257CD" stroke-width="3" stroke-linecap="round" stroke-linejoin="round"/>
<path d="M127 64.0762H131" stroke="#6257CD" stroke-width="3" stroke-linecap="round" stroke-linejoin="round"/>
<path d="M109.999 54.656C111.998 54.656 113.619 53.0353 113.619 51.036C113.619 49.0367 111.998 47.416 109.999 47.416C108 47.416 106.379 49.0367 106.379 51.036C106.379 53.0353 108 54.656 109.999 54.656Z" stroke="#6257CD" stroke-width="3" stroke-linecap="round" stroke-linejoin="round"/>
<path d="M117 64.7362C116.72 61.8362 114.42 59.5562 111.52 59.2962C110.52 59.1962 109.5 59.1962 108.48 59.2962C105.58 59.5762 103.28 61.8362 103 64.7362" stroke="#6257CD" stroke-width="3" stroke-linecap="round" stroke-linejoin="round"/>
<rect x="77.5" y="16.5762" width="79" height="79" rx="39.5" stroke="#EEECFE" shape-rendering="crispEdges"/>
</g>
<path d="M41.52 110.116V119.916C41.52 121.276 41.1267 122.336 40.34 123.096C39.5533 123.843 38.5 124.216 37.18 124.216C35.8467 124.216 34.7667 123.83 33.94 123.056C33.1267 122.283 32.72 121.203 32.72 119.816H35.52C35.5333 120.416 35.6733 120.883 35.94 121.216C36.22 121.55 36.62 121.716 37.14 121.716C37.6467 121.716 38.0333 121.556 38.3 121.236C38.5667 120.916 38.7 120.476 38.7 119.916V110.116H41.52ZM49.7063 124.256C48.6396 124.256 47.6796 124.023 46.8263 123.556C45.9729 123.076 45.2996 122.403 44.8063 121.536C44.3263 120.67 44.0863 119.67 44.0863 118.536C44.0863 117.403 44.3329 116.403 44.8263 115.536C45.3329 114.67 46.0196 114.003 46.8863 113.536C47.7529 113.056 48.7196 112.816 49.7863 112.816C50.8529 112.816 51.8196 113.056 52.6863 113.536C53.5529 114.003 54.2329 114.67 54.7263 115.536C55.2329 116.403 55.4863 117.403 55.4863 118.536C55.4863 119.67 55.2263 120.67 54.7062 121.536C54.1996 122.403 53.5063 123.076 52.6263 123.556C51.7596 124.023 50.7863 124.256 49.7063 124.256ZM49.7063 121.816C50.2129 121.816 50.6863 121.696 51.1263 121.456C51.5796 121.203 51.9396 120.83 52.2063 120.336C52.4729 119.843 52.6063 119.243 52.6063 118.536C52.6063 117.483 52.3263 116.676 51.7663 116.116C51.2196 115.543 50.5463 115.256 49.7463 115.256C48.9463 115.256 48.2729 115.543 47.7263 116.116C47.1929 116.676 46.9263 117.483 46.9263 118.536C46.9263 119.59 47.1863 120.403 47.7063 120.976C48.2396 121.536 48.9063 121.816 49.7063 121.816ZM58.9602 111.676C58.4668 111.676 58.0535 111.523 57.7202 111.216C57.4002 110.896 57.2402 110.503 57.2402 110.036C57.2402 109.57 57.4002 109.183 57.7202 108.876C58.0535 108.556 58.4668 108.396 58.9602 108.396C59.4535 108.396 59.8602 108.556 60.1802 108.876C60.5135 109.183 60.6802 109.57 60.6802 110.036C60.6802 110.503 60.5135 110.896 60.1802 111.216C59.8602 111.523 59.4535 111.676 58.9602 111.676ZM60.3402 112.996V124.076H57.5402V112.996H60.3402ZM69.2466 112.836C70.5666 112.836 71.6332 113.256 72.4466 114.096C73.2599 114.923 73.6666 116.083 73.6666 117.576V124.076H70.8666V117.956C70.8666 117.076 70.6466 116.403 70.2066 115.936C69.7666 115.456 69.1666 115.216 68.4066 115.216C67.6332 115.216 67.0199 115.456 66.5666 115.936C66.1266 116.403 65.9066 117.076 65.9066 117.956V124.076H63.1066V112.996H65.9066V114.376C66.2799 113.896 66.7532 113.523 67.3266 113.256C67.9132 112.976 68.5532 112.836 69.2466 112.836Z" fill="#141226"/>
<path d="M83.8948 112.376V115.876H88.5948V118.096H83.8948V121.796H89.1948V124.076H81.0948V110.096H89.1948V112.376H83.8948ZM97.8594 124.076L95.5794 120.636L93.5594 124.076H90.5594L94.1794 118.516L90.5194 112.996H93.6794L95.9394 116.416L97.9794 112.996H100.979L97.3394 118.516L101.019 124.076H97.8594ZM101.82 118.496C101.82 117.376 102.04 116.383 102.48 115.516C102.933 114.65 103.54 113.983 104.3 113.516C105.073 113.05 105.933 112.816 106.88 112.816C107.707 112.816 108.427 112.983 109.04 113.316C109.667 113.65 110.167 114.07 110.54 114.576V112.996H113.36V124.076H110.54V122.456C110.18 122.976 109.68 123.41 109.04 123.756C108.413 124.09 107.687 124.256 106.86 124.256C105.927 124.256 105.073 124.016 104.3 123.536C103.54 123.056 102.933 122.383 102.48 121.516C102.04 120.636 101.82 119.63 101.82 118.496ZM110.54 118.536C110.54 117.856 110.407 117.276 110.14 116.796C109.873 116.303 109.513 115.93 109.06 115.676C108.607 115.41 108.12 115.276 107.6 115.276C107.08 115.276 106.6 115.403 106.16 115.656C105.72 115.91 105.36 116.283 105.08 116.776C104.813 117.256 104.68 117.83 104.68 118.496C104.68 119.163 104.813 119.75 105.08 120.256C105.36 120.75 105.72 121.13 106.16 121.396C106.613 121.663 107.093 121.796 107.6 121.796C108.12 121.796 108.607 121.67 109.06 121.416C109.513 121.15 109.873 120.776 110.14 120.296C110.407 119.803 110.54 119.216 110.54 118.536ZM129.855 112.836C131.215 112.836 132.308 113.256 133.135 114.096C133.975 114.923 134.395 116.083 134.395 117.576V124.076H131.595V117.956C131.595 117.09 131.375 116.43 130.935 115.976C130.495 115.51 129.895 115.276 129.135 115.276C128.375 115.276 127.768 115.51 127.315 115.976C126.875 116.43 126.655 117.09 126.655 117.956V124.076H123.855V117.956C123.855 117.09 123.635 116.43 123.195 115.976C122.755 115.51 122.155 115.276 121.395 115.276C120.622 115.276 120.008 115.51 119.555 115.976C119.115 116.43 118.895 117.09 118.895 117.956V124.076H116.095V112.996H118.895V114.336C119.255 113.87 119.715 113.503 120.275 113.236C120.848 112.97 121.475 112.836 122.155 112.836C123.022 112.836 123.795 113.023 124.475 113.396C125.155 113.756 125.682 114.276 126.055 114.956C126.415 114.316 126.935 113.803 127.615 113.416C128.308 113.03 129.055 112.836 129.855 112.836ZM147.652 112.996L140.792 129.316H137.812L140.212 123.796L135.772 112.996H138.912L141.772 120.736L144.672 112.996H147.652ZM153.401 124.256C152.495 124.256 151.681 124.096 150.961 123.776C150.241 123.443 149.668 122.996 149.241 122.436C148.828 121.876 148.601 121.256 148.561 120.576H151.381C151.435 121.003 151.641 121.356 152.001 121.636C152.375 121.916 152.835 122.056 153.381 122.056C153.915 122.056 154.328 121.95 154.621 121.736C154.928 121.523 155.081 121.25 155.081 120.916C155.081 120.556 154.895 120.29 154.521 120.116C154.161 119.93 153.581 119.73 152.781 119.516C151.955 119.316 151.275 119.11 150.741 118.896C150.221 118.683 149.768 118.356 149.381 117.916C149.008 117.476 148.821 116.883 148.821 116.136C148.821 115.523 148.995 114.963 149.341 114.456C149.701 113.95 150.208 113.55 150.861 113.256C151.528 112.963 152.308 112.816 153.201 112.816C154.521 112.816 155.575 113.15 156.361 113.816C157.148 114.47 157.581 115.356 157.661 116.476H154.981C154.941 116.036 154.755 115.69 154.421 115.436C154.101 115.17 153.668 115.036 153.121 115.036C152.615 115.036 152.221 115.13 151.941 115.316C151.675 115.503 151.541 115.763 151.541 116.096C151.541 116.47 151.728 116.756 152.101 116.956C152.475 117.143 153.055 117.336 153.841 117.536C154.641 117.736 155.301 117.943 155.821 118.156C156.341 118.37 156.788 118.703 157.161 119.156C157.548 119.596 157.748 120.183 157.761 120.916C157.761 121.556 157.581 122.13 157.221 122.636C156.875 123.143 156.368 123.543 155.701 123.836C155.048 124.116 154.281 124.256 153.401 124.256ZM168.68 110.116V112.376H162.86V115.956H167.32V118.176H162.86V124.076H160.06V110.116H168.68ZM172.085 111.676C171.592 111.676 171.178 111.523 170.845 111.216C170.525 110.896 170.365 110.503 170.365 110.036C170.365 109.57 170.525 109.183 170.845 108.876C171.178 108.556 171.592 108.396 172.085 108.396C172.578 108.396 172.985 108.556 173.305 108.876C173.638 109.183 173.805 109.57 173.805 110.036C173.805 110.503 173.638 110.896 173.305 111.216C172.985 111.523 172.578 111.676 172.085 111.676ZM173.465 112.996V124.076H170.665V112.996H173.465ZM179.032 114.716C179.392 114.13 179.858 113.67 180.432 113.336C181.018 113.003 181.685 112.836 182.432 112.836V115.776H181.692C180.812 115.776 180.145 115.983 179.692 116.396C179.252 116.81 179.032 117.53 179.032 118.556V124.076H176.232V112.996H179.032V114.716ZM188.558 124.256C187.651 124.256 186.838 124.096 186.118 123.776C185.398 123.443 184.824 122.996 184.398 122.436C183.984 121.876 183.758 121.256 183.718 120.576H186.538C186.591 121.003 186.798 121.356 187.158 121.636C187.531 121.916 187.991 122.056 188.538 122.056C189.071 122.056 189.484 121.95 189.778 121.736C190.084 121.523 190.238 121.25 190.238 120.916C190.238 120.556 190.051 120.29 189.678 120.116C189.318 119.93 188.738 119.73 187.938 119.516C187.111 119.316 186.431 119.11 185.898 118.896C185.378 118.683 184.924 118.356 184.538 117.916C184.164 117.476 183.978 116.883 183.978 116.136C183.978 115.523 184.151 114.963 184.498 114.456C184.858 113.95 185.364 113.55 186.018 113.256C186.684 112.963 187.464 112.816 188.358 112.816C189.678 112.816 190.731 113.15 191.518 113.816C192.304 114.47 192.738 115.356 192.818 116.476H190.138C190.098 116.036 189.911 115.69 189.578 115.436C189.258 115.17 188.824 115.036 188.278 115.036C187.771 115.036 187.378 115.13 187.098 115.316C186.831 115.503 186.698 115.763 186.698 116.096C186.698 116.47 186.884 116.756 187.258 116.956C187.631 117.143 188.211 117.336 188.998 117.536C189.798 117.736 190.458 117.943 190.978 118.156C191.498 118.37 191.944 118.703 192.318 119.156C192.704 119.596 192.904 120.183 192.918 120.916C192.918 121.556 192.738 122.13 192.378 122.636C192.031 123.143 191.524 123.543 190.858 123.836C190.204 124.116 189.438 124.256 188.558 124.256ZM198.476 115.296V120.656C198.476 121.03 198.563 121.303 198.736 121.476C198.923 121.636 199.229 121.716 199.656 121.716H200.956V124.076H199.196C196.836 124.076 195.656 122.93 195.656 120.636V115.296H194.336V112.996H195.656V110.256H198.476V112.996H200.956V115.296H198.476Z" fill="#6257CD"/>
<path fill-rule="evenodd" clip-rule="evenodd" d="M368.752 78.7247C368.283 78.2561 368.283 77.4963 368.752 77.0276L372.703 73.0762L368.752 69.1247C368.283 68.6561 368.283 67.8963 368.752 67.4276C369.22 66.959 369.98 66.959 370.449 67.4276L375.249 72.2276C375.718 72.6963 375.718 73.4561 375.249 73.9247L370.449 78.7247C369.98 79.1933 369.22 79.1933 368.752 78.7247Z" fill="#6257CD"/>
<path d="M34.688 144.108V147.836H38.752V149.036H34.688V152.876H39.232V154.076H33.232V142.908H39.232V144.108H34.688ZM46.0111 154.076L43.9311 150.812L41.9311 154.076H40.4111L43.2431 149.724L40.4111 145.308H42.0591L44.1391 148.556L46.1231 145.308H47.6431L44.8271 149.644L47.6591 154.076H46.0111ZM48.5474 149.676C48.5474 148.77 48.7287 147.98 49.0914 147.308C49.454 146.626 49.9554 146.098 50.5954 145.724C51.246 145.351 51.9874 145.164 52.8194 145.164C53.8967 145.164 54.782 145.426 55.4754 145.948C56.1794 146.471 56.6434 147.196 56.8674 148.124H55.2994C55.15 147.591 54.8567 147.17 54.4194 146.86C53.9927 146.551 53.4594 146.396 52.8194 146.396C51.9874 146.396 51.3154 146.684 50.8034 147.26C50.2914 147.826 50.0354 148.631 50.0354 149.676C50.0354 150.732 50.2914 151.548 50.8034 152.124C51.3154 152.7 51.9874 152.988 52.8194 152.988C53.4594 152.988 53.9927 152.839 54.4194 152.54C54.846 152.242 55.1394 151.815 55.2994 151.26H56.8674C56.6327 152.156 56.1634 152.876 55.4594 153.42C54.7554 153.954 53.8754 154.22 52.8194 154.22C51.9874 154.22 51.246 154.034 50.5954 153.66C49.9554 153.287 49.454 152.759 49.0914 152.076C48.7287 151.394 48.5474 150.594 48.5474 149.676ZM60.2661 142.236V154.076H58.8101V142.236H60.2661ZM70.5236 145.308V154.076H69.0676V152.78C68.7903 153.228 68.401 153.58 67.8996 153.836C67.409 154.082 66.865 154.204 66.2676 154.204C65.585 154.204 64.9716 154.066 64.4276 153.788C63.8836 153.5 63.4516 153.074 63.1316 152.508C62.8223 151.943 62.6676 151.255 62.6676 150.444V145.308H64.1076V150.252C64.1076 151.116 64.3263 151.783 64.7636 152.252C65.201 152.711 65.7983 152.94 66.5556 152.94C67.3343 152.94 67.9476 152.7 68.3956 152.22C68.8436 151.74 69.0676 151.042 69.0676 150.124V145.308H70.5236ZM76.086 154.22C75.414 154.22 74.8113 154.108 74.278 153.884C73.7447 153.65 73.3233 153.33 73.014 152.924C72.7047 152.508 72.534 152.034 72.502 151.5H74.006C74.0487 151.938 74.2513 152.295 74.614 152.572C74.9873 152.85 75.4727 152.988 76.07 152.988C76.6247 152.988 77.062 152.866 77.382 152.62C77.702 152.375 77.862 152.066 77.862 151.692C77.862 151.308 77.6913 151.026 77.35 150.844C77.0087 150.652 76.4807 150.466 75.766 150.284C75.1153 150.114 74.582 149.943 74.166 149.772C73.7607 149.591 73.4087 149.33 73.11 148.988C72.822 148.636 72.678 148.178 72.678 147.612C72.678 147.164 72.8113 146.754 73.078 146.38C73.3447 146.007 73.7233 145.714 74.214 145.5C74.7047 145.276 75.2647 145.164 75.894 145.164C76.8647 145.164 77.6487 145.41 78.246 145.9C78.8433 146.391 79.1633 147.063 79.206 147.916H77.75C77.718 147.458 77.5313 147.09 77.19 146.812C76.8593 146.535 76.4113 146.396 75.846 146.396C75.3233 146.396 74.9073 146.508 74.598 146.732C74.2887 146.956 74.134 147.25 74.134 147.612C74.134 147.9 74.2247 148.14 74.406 148.332C74.598 148.514 74.8327 148.663 75.11 148.78C75.398 148.887 75.7927 149.01 76.294 149.148C76.9233 149.319 77.4353 149.49 77.83 149.66C78.2247 149.82 78.5607 150.066 78.838 150.396C79.126 150.727 79.2753 151.159 79.286 151.692C79.286 152.172 79.1527 152.604 78.886 152.988C78.6193 153.372 78.2407 153.676 77.75 153.9C77.27 154.114 76.7153 154.22 76.086 154.22ZM82.0934 143.884C81.816 143.884 81.5814 143.788 81.3894 143.596C81.1974 143.404 81.1014 143.17 81.1014 142.892C81.1014 142.615 81.1974 142.38 81.3894 142.188C81.5814 141.996 81.816 141.9 82.0934 141.9C82.36 141.9 82.584 141.996 82.7654 142.188C82.9574 142.38 83.0534 142.615 83.0534 142.892C83.0534 143.17 82.9574 143.404 82.7654 143.596C82.584 143.788 82.36 143.884 82.0934 143.884ZM82.7974 145.308V154.076H81.3414V145.308H82.7974ZM88.5429 152.732L91.2629 145.308H92.8149L89.3749 154.076H87.6789L84.2389 145.308H85.8069L88.5429 152.732ZM102.248 149.356C102.248 149.634 102.232 149.927 102.2 150.236H95.1916C95.245 151.1 95.5383 151.778 96.0716 152.268C96.6156 152.748 97.2716 152.988 98.0396 152.988C98.669 152.988 99.1916 152.844 99.6076 152.556C100.034 152.258 100.333 151.863 100.504 151.372H102.072C101.837 152.215 101.368 152.903 100.664 153.436C99.9596 153.959 99.085 154.22 98.0396 154.22C97.2076 154.22 96.461 154.034 95.7996 153.66C95.149 153.287 94.637 152.759 94.2636 152.076C93.8903 151.383 93.7036 150.583 93.7036 149.676C93.7036 148.77 93.885 147.975 94.2476 147.292C94.6103 146.61 95.117 146.087 95.7676 145.724C96.429 145.351 97.1863 145.164 98.0396 145.164C98.8716 145.164 99.6076 145.346 100.248 145.708C100.888 146.071 101.378 146.572 101.72 147.212C102.072 147.842 102.248 148.556 102.248 149.356ZM100.744 149.052C100.744 148.498 100.621 148.023 100.376 147.628C100.13 147.223 99.7943 146.919 99.3676 146.716C98.9516 146.503 98.4876 146.396 97.9756 146.396C97.2396 146.396 96.6103 146.631 96.0876 147.1C95.5756 147.57 95.2823 148.22 95.2076 149.052H100.744ZM109.891 146.94C110.19 146.418 110.627 145.991 111.203 145.66C111.779 145.33 112.435 145.164 113.171 145.164C113.96 145.164 114.67 145.351 115.299 145.724C115.928 146.098 116.424 146.626 116.787 147.308C117.15 147.98 117.331 148.764 117.331 149.66C117.331 150.546 117.15 151.335 116.787 152.028C116.424 152.722 115.923 153.26 115.283 153.644C114.654 154.028 113.95 154.22 113.171 154.22C112.414 154.22 111.747 154.055 111.171 153.724C110.606 153.394 110.179 152.972 109.891 152.46V154.076H108.435V142.236H109.891V146.94ZM115.843 149.66C115.843 148.999 115.71 148.423 115.443 147.932C115.176 147.442 114.814 147.068 114.355 146.812C113.907 146.556 113.411 146.428 112.867 146.428C112.334 146.428 111.838 146.562 111.379 146.828C110.931 147.084 110.568 147.463 110.291 147.964C110.024 148.455 109.891 149.026 109.891 149.676C109.891 150.338 110.024 150.919 110.291 151.42C110.568 151.911 110.931 152.29 111.379 152.556C111.838 152.812 112.334 152.94 112.867 152.94C113.411 152.94 113.907 152.812 114.355 152.556C114.814 152.29 115.176 151.911 115.443 151.42C115.71 150.919 115.843 150.332 115.843 149.66ZM127.248 149.356C127.248 149.634 127.232 149.927 127.2 150.236H120.192C120.245 151.1 120.538 151.778 121.072 152.268C121.616 152.748 122.272 152.988 123.04 152.988C123.669 152.988 124.192 152.844 124.608 152.556C125.034 152.258 125.333 151.863 125.504 151.372H127.072C126.837 152.215 126.368 152.903 125.664 153.436C124.96 153.959 124.085 154.22 123.04 154.22C122.208 154.22 121.461 154.034 120.8 153.66C120.149 153.287 119.637 152.759 119.264 152.076C118.89 151.383 118.704 150.583 118.704 149.676C118.704 148.77 118.885 147.975 119.248 147.292C119.61 146.61 120.117 146.087 120.768 145.724C121.429 145.351 122.186 145.164 123.04 145.164C123.872 145.164 124.608 145.346 125.248 145.708C125.888 146.071 126.378 146.572 126.72 147.212C127.072 147.842 127.248 148.556 127.248 149.356ZM125.744 149.052C125.744 148.498 125.621 148.023 125.376 147.628C125.13 147.223 124.794 146.919 124.368 146.716C123.952 146.503 123.488 146.396 122.976 146.396C122.24 146.396 121.61 146.631 121.088 147.1C120.576 147.57 120.282 148.22 120.208 149.052H125.744ZM133.442 145.148C134.508 145.148 135.372 145.474 136.034 146.124C136.695 146.764 137.026 147.692 137.026 148.908V154.076H135.586V149.116C135.586 148.242 135.367 147.575 134.93 147.116C134.492 146.647 133.895 146.412 133.138 146.412C132.37 146.412 131.756 146.652 131.298 147.132C130.85 147.612 130.626 148.311 130.626 149.228V154.076H129.17V145.308H130.626V146.556C130.914 146.108 131.303 145.762 131.794 145.516C132.295 145.271 132.844 145.148 133.442 145.148ZM147.404 149.356C147.404 149.634 147.388 149.927 147.356 150.236H140.348C140.401 151.1 140.695 151.778 141.228 152.268C141.772 152.748 142.428 152.988 143.196 152.988C143.825 152.988 144.348 152.844 144.764 152.556C145.191 152.258 145.489 151.863 145.66 151.372H147.228C146.993 152.215 146.524 152.903 145.82 153.436C145.116 153.959 144.241 154.22 143.196 154.22C142.364 154.22 141.617 154.034 140.956 153.66C140.305 153.287 139.793 152.759 139.42 152.076C139.047 151.383 138.86 150.583 138.86 149.676C138.86 148.77 139.041 147.975 139.404 147.292C139.767 146.61 140.273 146.087 140.924 145.724C141.585 145.351 142.343 145.164 143.196 145.164C144.028 145.164 144.764 145.346 145.404 145.708C146.044 146.071 146.535 146.572 146.876 147.212C147.228 147.842 147.404 148.556 147.404 149.356ZM145.9 149.052C145.9 148.498 145.777 148.023 145.532 147.628C145.287 147.223 144.951 146.919 144.524 146.716C144.108 146.503 143.644 146.396 143.132 146.396C142.396 146.396 141.767 146.631 141.244 147.1C140.732 147.57 140.439 148.22 140.364 149.052H145.9ZM152.894 146.508H151.054V154.076H149.598V146.508H148.462V145.308H149.598V144.684C149.598 143.703 149.848 142.988 150.35 142.54C150.862 142.082 151.678 141.852 152.798 141.852V143.068C152.158 143.068 151.704 143.196 151.438 143.452C151.182 143.698 151.054 144.108 151.054 144.684V145.308H152.894V146.508ZM155.343 143.884C155.066 143.884 154.831 143.788 154.639 143.596C154.447 143.404 154.351 143.17 154.351 142.892C154.351 142.615 154.447 142.38 154.639 142.188C154.831 141.996 155.066 141.9 155.343 141.9C155.61 141.9 155.834 141.996 156.015 142.188C156.207 142.38 156.303 142.615 156.303 142.892C156.303 143.17 156.207 143.404 156.015 143.596C155.834 143.788 155.61 143.884 155.343 143.884ZM156.047 145.308V154.076H154.591V145.308H156.047ZM160.305 146.508V151.676C160.305 152.103 160.396 152.407 160.577 152.588C160.758 152.759 161.073 152.844 161.521 152.844H162.593V154.076H161.281C160.47 154.076 159.862 153.89 159.457 153.516C159.052 153.143 158.849 152.53 158.849 151.676V146.508H157.713V145.308H158.849V143.1H160.305V145.308H162.593V146.508H160.305ZM167.461 154.22C166.789 154.22 166.186 154.108 165.653 153.884C165.12 153.65 164.698 153.33 164.389 152.924C164.08 152.508 163.909 152.034 163.877 151.5H165.381C165.424 151.938 165.626 152.295 165.989 152.572C166.362 152.85 166.848 152.988 167.445 152.988C168 152.988 168.437 152.866 168.757 152.62C169.077 152.375 169.237 152.066 169.237 151.692C169.237 151.308 169.066 151.026 168.725 150.844C168.384 150.652 167.856 150.466 167.141 150.284C166.49 150.114 165.957 149.943 165.541 149.772C165.136 149.591 164.784 149.33 164.485 148.988C164.197 148.636 164.053 148.178 164.053 147.612C164.053 147.164 164.186 146.754 164.453 146.38C164.72 146.007 165.098 145.714 165.589 145.5C166.08 145.276 166.64 145.164 167.269 145.164C168.24 145.164 169.024 145.41 169.621 145.9C170.218 146.391 170.538 147.063 170.581 147.916H169.125C169.093 147.458 168.906 147.09 168.565 146.812C168.234 146.535 167.786 146.396 167.221 146.396C166.698 146.396 166.282 146.508 165.973 146.732C165.664 146.956 165.509 147.25 165.509 147.612C165.509 147.9 165.6 148.14 165.781 148.332C165.973 148.514 166.208 148.663 166.485 148.78C166.773 148.887 167.168 149.01 167.669 149.148C168.298 149.319 168.81 149.49 169.205 149.66C169.6 149.82 169.936 150.066 170.213 150.396C170.501 150.727 170.65 151.159 170.661 151.692C170.661 152.172 170.528 152.604 170.261 152.988C169.994 153.372 169.616 153.676 169.125 153.9C168.645 154.114 168.09 154.22 167.461 154.22ZM184.982 143.82C186.166 143.82 187.195 144.044 188.07 144.492C188.945 144.94 189.617 145.57 190.086 146.38C190.555 147.18 190.79 148.108 190.79 149.164C190.79 150.007 190.651 150.818 190.374 151.596C190.097 152.364 189.691 152.988 189.158 153.468C188.635 153.948 188.022 154.188 187.318 154.188C186.785 154.188 186.374 154.055 186.086 153.788C185.798 153.522 185.633 153.159 185.59 152.7C185.259 153.159 184.838 153.522 184.326 153.788C183.825 154.055 183.291 154.188 182.726 154.188C181.915 154.188 181.275 153.943 180.806 153.452C180.347 152.951 180.118 152.279 180.118 151.436C180.118 150.636 180.283 149.89 180.614 149.196C180.955 148.503 181.425 147.948 182.022 147.532C182.619 147.106 183.297 146.892 184.054 146.892C185.067 146.892 185.75 147.276 186.102 148.044L186.278 147.052H187.542L186.742 151.676C186.71 151.879 186.694 152.066 186.694 152.236C186.694 152.876 186.977 153.196 187.542 153.196C187.969 153.196 188.337 152.994 188.646 152.588C188.966 152.183 189.206 151.676 189.366 151.068C189.526 150.45 189.606 149.842 189.606 149.244C189.606 147.847 189.185 146.764 188.342 145.996C187.51 145.228 186.331 144.844 184.806 144.844C183.537 144.844 182.39 145.154 181.366 145.772C180.353 146.38 179.558 147.218 178.982 148.284C178.406 149.351 178.118 150.53 178.118 151.82C178.107 153.228 178.529 154.311 179.382 155.068C180.235 155.836 181.419 156.22 182.934 156.22C183.937 156.22 184.822 156.039 185.59 155.676L185.782 156.668C184.833 157.063 183.787 157.26 182.646 157.26C181.505 157.26 180.497 157.042 179.622 156.604C178.758 156.178 178.086 155.559 177.606 154.748C177.137 153.948 176.902 153.015 176.902 151.948C176.902 150.444 177.249 149.074 177.942 147.836C178.635 146.588 179.595 145.607 180.822 144.892C182.059 144.178 183.446 143.82 184.982 143.82ZM183.158 153.052C183.638 153.052 184.081 152.914 184.486 152.636C184.891 152.348 185.211 151.964 185.446 151.484C185.681 150.994 185.798 150.46 185.798 149.884C185.798 149.33 185.643 148.882 185.334 148.54C185.035 148.188 184.609 148.012 184.054 148.012C183.542 148.012 183.089 148.167 182.694 148.476C182.31 148.775 182.011 149.175 181.798 149.676C181.585 150.167 181.478 150.679 181.478 151.212C181.478 151.778 181.622 152.226 181.91 152.556C182.198 152.887 182.614 153.052 183.158 153.052ZM192.593 151.5V150.396L198.209 142.62H199.953V150.236H201.553V151.5H199.953V154.076H198.513V151.5H192.593ZM198.577 144.14L194.273 150.236H198.577V144.14ZM204.88 150.972C204.986 151.58 205.232 152.05 205.616 152.38C206.01 152.711 206.538 152.876 207.2 152.876C208.085 152.876 208.736 152.53 209.152 151.836C209.578 151.143 209.781 149.975 209.76 148.332C209.536 148.812 209.162 149.191 208.64 149.468C208.117 149.735 207.536 149.868 206.896 149.868C206.181 149.868 205.541 149.724 204.976 149.436C204.421 149.138 203.984 148.706 203.664 148.14C203.344 147.575 203.184 146.892 203.184 146.092C203.184 144.951 203.514 144.034 204.176 143.34C204.837 142.636 205.776 142.284 206.992 142.284C208.485 142.284 209.53 142.77 210.128 143.74C210.736 144.711 211.04 146.156 211.04 148.076C211.04 149.42 210.917 150.53 210.672 151.404C210.437 152.279 210.032 152.946 209.456 153.404C208.89 153.863 208.112 154.092 207.12 154.092C206.032 154.092 205.184 153.799 204.576 153.212C203.968 152.626 203.621 151.879 203.536 150.972H204.88ZM207.136 148.636C207.85 148.636 208.437 148.418 208.896 147.98C209.354 147.532 209.584 146.93 209.584 146.172C209.584 145.372 209.36 144.727 208.912 144.236C208.464 143.746 207.834 143.5 207.024 143.5C206.277 143.5 205.68 143.735 205.232 144.204C204.794 144.674 204.576 145.292 204.576 146.06C204.576 146.839 204.794 147.463 205.232 147.932C205.669 148.402 206.304 148.636 207.136 148.636Z" fill="#3E3D4D"/>
<path d="M8 8.07617H408H8ZM408 167.076H8H408ZM12 167.076C7.58172 167.076 4 163.494 4 159.076V16.0762C4 11.6579 7.58172 8.07617 12 8.07617C12 8.07617 12 9.86703 12 12.0762V163.076C12 165.285 12 167.076 12 167.076ZM408 8.07617V167.076V8.07617Z" fill="#6257CD" mask="url(#path-1-inside-1_8916_22127)"/>
</g>
<defs>
<filter id="filter0_d_8916_22127" x="0" y="0.576172" width="416" height="175" filterUnits="userSpaceOnUse" color-interpolation-filters="sRGB">
<feFlood flood-opacity="0" result="BackgroundImageFix"/>
<feColorMatrix in="SourceAlpha" type="matrix" values="0 0 0 0 0 0 0 0 0 0 0 0 0 0 0 0 0 0 127 0" result="hardAlpha"/>
<feOffset dy="0.5"/>
<feGaussianBlur stdDeviation="4"/>
<feComposite in2="hardAlpha" operator="out"/>
<feColorMatrix type="matrix" values="0 0 0 0 0 0 0 0 0 0 0 0 0 0 0 0 0 0 0.1 0"/>
<feBlend mode="normal" in2="BackgroundImageFix" result="effect1_dropShadow_8916_22127"/>
<feBlend mode="normal" in="SourceGraphic" in2="effect1_dropShadow_8916_22127" result="shape"/>
</filter>
<filter id="filter1_d_8916_22127" x="75" y="15.0762" width="84" height="84" filterUnits="userSpaceOnUse" color-interpolation-filters="sRGB">
<feFlood flood-opacity="0" result="BackgroundImageFix"/>
<feColorMatrix in="SourceAlpha" type="matrix" values="0 0 0 0 0 0 0 0 0 0 0 0 0 0 0 0 0 0 127 0" result="hardAlpha"/>
<feOffset dy="1"/>
<feGaussianBlur stdDeviation="1"/>
<feComposite in2="hardAlpha" operator="out"/>
<feColorMatrix type="matrix" values="0 0 0 0 0 0 0 0 0 0 0 0 0 0 0 0 0 0 0.05 0"/>
<feBlend mode="normal" in2="BackgroundImageFix" result="effect1_dropShadow_8916_22127"/>
<feBlend mode="normal" in="SourceGraphic" in2="effect1_dropShadow_8916_22127" result="shape"/>
</filter>
</defs>
</svg>
