<svg width="127" height="61" viewBox="0 0 127 61" fill="none" xmlns="http://www.w3.org/2000/svg">
<g filter="url(#filter0_dd_5755_9844)">
<rect x="10" y="10.5" width="107" height="40" rx="4" fill="#6257CD" shape-rendering="crispEdges"/>
<path d="M34.2868 34.228H29.6308L28.8308 36.5H26.9268L30.9108 25.364H33.0228L37.0068 36.5H35.0868L34.2868 34.228ZM33.7748 32.74L31.9668 27.572L30.1428 32.74H33.7748ZM43.1871 27.54C43.8804 27.54 44.4991 27.684 45.0431 27.972C45.5977 28.26 46.0297 28.6867 46.3391 29.252C46.6484 29.8173 46.8031 30.5 46.8031 31.3V36.5H44.9951V31.572C44.9951 30.7827 44.7977 30.18 44.4031 29.764C44.0084 29.3373 43.4697 29.124 42.7871 29.124C42.1044 29.124 41.5604 29.3373 41.1551 29.764C40.7604 30.18 40.5631 30.7827 40.5631 31.572V36.5H38.7391V27.684H40.5631V28.692C40.8617 28.3293 41.2404 28.0467 41.6991 27.844C42.1684 27.6413 42.6644 27.54 43.1871 27.54ZM48.5217 32.052C48.5217 31.1667 48.703 30.3827 49.0657 29.7C49.439 29.0173 49.9404 28.4893 50.5697 28.116C51.2097 27.732 51.9137 27.54 52.6817 27.54C53.375 27.54 53.9777 27.6787 54.4897 27.956C55.0124 28.2227 55.4284 28.5587 55.7377 28.964V27.684H57.5777V36.5H55.7377V35.188C55.4284 35.604 55.007 35.9507 54.4737 36.228C53.9404 36.5053 53.3324 36.644 52.6497 36.644C51.8924 36.644 51.199 36.452 50.5697 36.068C49.9404 35.6733 49.439 35.1293 49.0657 34.436C48.703 33.732 48.5217 32.9373 48.5217 32.052ZM55.7377 32.084C55.7377 31.476 55.6097 30.948 55.3537 30.5C55.1084 30.052 54.783 29.7107 54.3777 29.476C53.9724 29.2413 53.535 29.124 53.0657 29.124C52.5964 29.124 52.159 29.2413 51.7537 29.476C51.3484 29.7 51.0177 30.036 50.7617 30.484C50.5164 30.9213 50.3937 31.444 50.3937 32.052C50.3937 32.66 50.5164 33.1933 50.7617 33.652C51.0177 34.1107 51.3484 34.4627 51.7537 34.708C52.1697 34.9427 52.607 35.06 53.0657 35.06C53.535 35.06 53.9724 34.9427 54.3777 34.708C54.783 34.4733 55.1084 34.132 55.3537 33.684C55.6097 33.2253 55.7377 32.692 55.7377 32.084ZM61.7974 24.66V36.5H59.9734V24.66H61.7974ZM72.1282 27.684L66.7202 40.644H64.8322L66.6242 36.356L63.1522 27.684H65.1842L67.6642 34.404L70.2402 27.684H72.1282ZM75.6327 29.172V34.052C75.6327 34.3827 75.7074 34.6227 75.8567 34.772C76.0167 34.9107 76.2834 34.98 76.6567 34.98H77.7767V36.5H76.3367C75.5154 36.5 74.886 36.308 74.4487 35.924C74.0114 35.54 73.7927 34.916 73.7927 34.052V29.172H72.7527V27.684H73.7927V25.492H75.6327V27.684H77.7767V29.172H75.6327ZM80.3858 26.516C80.0551 26.516 79.7778 26.404 79.5538 26.18C79.3298 25.956 79.2178 25.6787 79.2178 25.348C79.2178 25.0173 79.3298 24.74 79.5538 24.516C79.7778 24.292 80.0551 24.18 80.3858 24.18C80.7058 24.18 80.9778 24.292 81.2018 24.516C81.4258 24.74 81.5378 25.0173 81.5378 25.348C81.5378 25.6787 81.4258 25.956 81.2018 26.18C80.9778 26.404 80.7058 26.516 80.3858 26.516ZM81.2818 27.684V36.5H79.4578V27.684H81.2818ZM83.0686 32.084C83.0686 31.1773 83.2499 30.3827 83.6126 29.7C83.9859 29.0067 84.4979 28.4733 85.1486 28.1C85.7992 27.7267 86.5459 27.54 87.3886 27.54C88.4552 27.54 89.3352 27.796 90.0286 28.308C90.7326 28.8093 91.2072 29.5293 91.4526 30.468H89.4846C89.3246 30.0307 89.0686 29.6893 88.7166 29.444C88.3646 29.1987 87.9219 29.076 87.3886 29.076C86.6419 29.076 86.0446 29.3427 85.5966 29.876C85.1592 30.3987 84.9406 31.1347 84.9406 32.084C84.9406 33.0333 85.1592 33.7747 85.5966 34.308C86.0446 34.8413 86.6419 35.108 87.3886 35.108C88.4446 35.108 89.1432 34.644 89.4846 33.716H91.4526C91.1966 34.612 90.7166 35.3267 90.0126 35.86C89.3086 36.3827 88.4339 36.644 87.3886 36.644C86.5459 36.644 85.7992 36.4573 85.1486 36.084C84.4979 35.7 83.9859 35.1667 83.6126 34.484C83.2499 33.7907 83.0686 32.9907 83.0686 32.084ZM96.4703 36.644C95.777 36.644 95.153 36.5213 94.5983 36.276C94.0543 36.02 93.6223 35.6787 93.3023 35.252C92.9823 34.8147 92.8116 34.3293 92.7903 33.796H94.6783C94.7103 34.1693 94.8863 34.484 95.2063 34.74C95.537 34.9853 95.9476 35.108 96.4383 35.108C96.9503 35.108 97.345 35.012 97.6223 34.82C97.9103 34.6173 98.0543 34.3613 98.0543 34.052C98.0543 33.7213 97.8943 33.476 97.5743 33.316C97.265 33.156 96.769 32.98 96.0863 32.788C95.425 32.6067 94.8863 32.4307 94.4703 32.26C94.0543 32.0893 93.6916 31.828 93.3823 31.476C93.0836 31.124 92.9343 30.66 92.9343 30.084C92.9343 29.6147 93.073 29.188 93.3503 28.804C93.6276 28.4093 94.0223 28.1 94.5343 27.876C95.057 27.652 95.6543 27.54 96.3263 27.54C97.329 27.54 98.1343 27.796 98.7423 28.308C99.361 28.8093 99.6916 29.4973 99.7343 30.372H97.9103C97.8783 29.9773 97.7183 29.6627 97.4303 29.428C97.1423 29.1933 96.753 29.076 96.2623 29.076C95.7823 29.076 95.4143 29.1667 95.1583 29.348C94.9023 29.5293 94.7743 29.7693 94.7743 30.068C94.7743 30.3027 94.8596 30.5 95.0303 30.66C95.201 30.82 95.409 30.948 95.6543 31.044C95.8996 31.1293 96.2623 31.2413 96.7423 31.38C97.3823 31.5507 97.905 31.7267 98.3103 31.908C98.7263 32.0787 99.0836 32.3347 99.3823 32.676C99.681 33.0173 99.8356 33.4707 99.8463 34.036C99.8463 34.5373 99.7076 34.9853 99.4303 35.38C99.153 35.7747 98.7583 36.084 98.2463 36.308C97.745 36.532 97.153 36.644 96.4703 36.644Z" fill="white"/>
</g>
<defs>
<filter id="filter0_dd_5755_9844" x="0" y="0.5" width="127" height="60" filterUnits="userSpaceOnUse" color-interpolation-filters="sRGB">
<feFlood flood-opacity="0" result="BackgroundImageFix"/>
<feColorMatrix in="SourceAlpha" type="matrix" values="0 0 0 0 0 0 0 0 0 0 0 0 0 0 0 0 0 0 127 0" result="hardAlpha"/>
<feOffset dx="2" dy="2"/>
<feGaussianBlur stdDeviation="4"/>
<feComposite in2="hardAlpha" operator="out"/>
<feColorMatrix type="matrix" values="0 0 0 0 0.641667 0 0 0 0 0.641667 0 0 0 0 0.641667 0 0 0 1 0"/>
<feBlend mode="normal" in2="BackgroundImageFix" result="effect1_dropShadow_5755_9844"/>
<feColorMatrix in="SourceAlpha" type="matrix" values="0 0 0 0 0 0 0 0 0 0 0 0 0 0 0 0 0 0 127 0" result="hardAlpha"/>
<feOffset dx="-2" dy="-2"/>
<feGaussianBlur stdDeviation="4"/>
<feComposite in2="hardAlpha" operator="out"/>
<feColorMatrix type="matrix" values="0 0 0 0 0.643137 0 0 0 0 0.643137 0 0 0 0 0.643137 0 0 0 0.5 0"/>
<feBlend mode="normal" in2="effect1_dropShadow_5755_9844" result="effect2_dropShadow_5755_9844"/>
<feBlend mode="normal" in="SourceGraphic" in2="effect2_dropShadow_5755_9844" result="shape"/>
</filter>
</defs>
</svg>
