<svg width="416" height="176" viewBox="0 0 416 176" fill="none" xmlns="http://www.w3.org/2000/svg">
<g filter="url(#filter0_d_8916_22143)">
<mask id="path-1-inside-1_8916_22143" fill="white">
<path d="M8 12.0762C8 9.86703 9.79086 8.07617 12 8.07617H404C406.209 8.07617 408 9.86703 408 12.0762V163.076C408 165.285 406.209 167.076 404 167.076H12C9.79086 167.076 8 165.285 8 163.076V12.0762Z"/>
</mask>
<path d="M8 12.0762C8 9.86703 9.79086 8.07617 12 8.07617H404C406.209 8.07617 408 9.86703 408 12.0762V163.076C408 165.285 406.209 167.076 404 167.076H12C9.79086 167.076 8 165.285 8 163.076V12.0762Z" fill="white" shape-rendering="crispEdges"/>
<g filter="url(#filter1_d_8916_22143)">
<rect x="67" y="16.0762" width="80" height="80" rx="40" fill="#EEECFE"/>
<path d="M87 40.0762C87 39.5457 87.2107 39.037 87.5858 38.662C87.9609 38.2869 88.4696 38.0762 89 38.0762H125C125.53 38.0762 126.039 38.2869 126.414 38.662C126.789 39.037 127 39.5457 127 40.0762V51.0762C125.674 51.0762 124.402 51.603 123.464 52.5406C122.527 53.4783 122 54.7501 122 56.0762C122 57.4023 122.527 58.674 123.464 59.6117C124.402 60.5494 125.674 61.0762 127 61.0762V72.0762C127 72.6066 126.789 73.1153 126.414 73.4904C126.039 73.8655 125.53 74.0762 125 74.0762H89C88.4696 74.0762 87.9609 73.8655 87.5858 73.4904C87.2107 73.1153 87 72.6066 87 72.0762V40.0762ZM99.17 70.0762C99.3761 69.4902 99.7591 68.9826 100.266 68.6236C100.773 68.2645 101.379 68.0717 102 68.0717C102.621 68.0717 103.227 68.2645 103.734 68.6236C104.241 68.9826 104.624 69.4902 104.83 70.0762H123V64.1402C121.498 63.3956 120.233 62.2461 119.349 60.8213C118.465 59.3964 117.996 57.753 117.996 56.0762C117.996 54.3994 118.465 52.7559 119.349 51.3311C120.233 49.9063 121.498 48.7568 123 48.0122V42.0762H104.83C104.624 42.6622 104.241 43.1697 103.734 43.5288C103.227 43.8878 102.621 44.0806 102 44.0806C101.379 44.0806 100.773 43.8878 100.266 43.5288C99.7591 43.1697 99.3761 42.6622 99.17 42.0762H91V70.0762H99.17ZM102 54.0762C101.204 54.0762 100.441 53.7601 99.8787 53.1975C99.3161 52.6349 99 51.8718 99 51.0762C99 50.2805 99.3161 49.5175 99.8787 48.9549C100.441 48.3922 101.204 48.0762 102 48.0762C102.796 48.0762 103.559 48.3922 104.121 48.9549C104.684 49.5175 105 50.2805 105 51.0762C105 51.8718 104.684 52.6349 104.121 53.1975C103.559 53.7601 102.796 54.0762 102 54.0762ZM102 64.0762C101.204 64.0762 100.441 63.7601 99.8787 63.1975C99.3161 62.6349 99 61.8718 99 61.0762C99 60.2805 99.3161 59.5175 99.8787 58.9549C100.441 58.3922 101.204 58.0762 102 58.0762C102.796 58.0762 103.559 58.3922 104.121 58.9549C104.684 59.5175 105 60.2805 105 61.0762C105 61.8718 104.684 62.6349 104.121 63.1975C103.559 63.7601 102.796 64.0762 102 64.0762Z" fill="#6257CD"/>
<rect x="67.5" y="16.5762" width="79" height="79" rx="39.5" stroke="#EEECFE"/>
</g>
<path d="M32.7 117.076C32.7 115.703 33.0067 114.476 33.62 113.396C34.2467 112.303 35.0933 111.456 36.16 110.856C37.24 110.243 38.4467 109.936 39.78 109.936C41.34 109.936 42.7067 110.336 43.88 111.136C45.0533 111.936 45.8733 113.043 46.34 114.456H43.12C42.8 113.79 42.3467 113.29 41.76 112.956C41.1867 112.623 40.52 112.456 39.76 112.456C38.9467 112.456 38.22 112.65 37.58 113.036C36.9533 113.41 36.46 113.943 36.1 114.636C35.7533 115.33 35.58 116.143 35.58 117.076C35.58 117.996 35.7533 118.81 36.1 119.516C36.46 120.21 36.9533 120.75 37.58 121.136C38.22 121.51 38.9467 121.696 39.76 121.696C40.52 121.696 41.1867 121.53 41.76 121.196C42.3467 120.85 42.8 120.343 43.12 119.676H46.34C45.8733 121.103 45.0533 122.216 43.88 123.016C42.72 123.803 41.3533 124.196 39.78 124.196C38.4467 124.196 37.24 123.896 36.16 123.296C35.0933 122.683 34.2467 121.836 33.62 120.756C33.0067 119.676 32.7 118.45 32.7 117.076ZM53.6516 124.256C52.5849 124.256 51.6249 124.023 50.7716 123.556C49.9182 123.076 49.2449 122.403 48.7516 121.536C48.2716 120.67 48.0316 119.67 48.0316 118.536C48.0316 117.403 48.2782 116.403 48.7716 115.536C49.2782 114.67 49.9649 114.003 50.8316 113.536C51.6982 113.056 52.6649 112.816 53.7316 112.816C54.7982 112.816 55.7649 113.056 56.6316 113.536C57.4982 114.003 58.1782 114.67 58.6716 115.536C59.1782 116.403 59.4316 117.403 59.4316 118.536C59.4316 119.67 59.1716 120.67 58.6516 121.536C58.1449 122.403 57.4516 123.076 56.5716 123.556C55.7049 124.023 54.7316 124.256 53.6516 124.256ZM53.6516 121.816C54.1582 121.816 54.6316 121.696 55.0716 121.456C55.5249 121.203 55.8849 120.83 56.1516 120.336C56.4182 119.843 56.5516 119.243 56.5516 118.536C56.5516 117.483 56.2716 116.676 55.7116 116.116C55.1649 115.543 54.4916 115.256 53.6916 115.256C52.8916 115.256 52.2182 115.543 51.6716 116.116C51.1382 116.676 50.8716 117.483 50.8716 118.536C50.8716 119.59 51.1316 120.403 51.6516 120.976C52.1849 121.536 52.8516 121.816 53.6516 121.816ZM71.9455 112.996V124.076H69.1255V122.676C68.7655 123.156 68.2921 123.536 67.7055 123.816C67.1321 124.083 66.5055 124.216 65.8255 124.216C64.9588 124.216 64.1921 124.036 63.5255 123.676C62.8588 123.303 62.3321 122.763 61.9455 122.056C61.5721 121.336 61.3855 120.483 61.3855 119.496V112.996H64.1855V119.096C64.1855 119.976 64.4055 120.656 64.8455 121.136C65.2855 121.603 65.8855 121.836 66.6455 121.836C67.4188 121.836 68.0255 121.603 68.4655 121.136C68.9055 120.656 69.1255 119.976 69.1255 119.096V112.996H71.9455ZM77.5081 114.596C77.8681 114.09 78.3615 113.67 78.9881 113.336C79.6281 112.99 80.3548 112.816 81.1681 112.816C82.1148 112.816 82.9681 113.05 83.7281 113.516C84.5015 113.983 85.1081 114.65 85.5481 115.516C86.0015 116.37 86.2281 117.363 86.2281 118.496C86.2281 119.63 86.0015 120.636 85.5481 121.516C85.1081 122.383 84.5015 123.056 83.7281 123.536C82.9681 124.016 82.1148 124.256 81.1681 124.256C80.3548 124.256 79.6348 124.09 79.0081 123.756C78.3948 123.423 77.8948 123.003 77.5081 122.496V129.356H74.7081V112.996H77.5081V114.596ZM83.3681 118.496C83.3681 117.83 83.2281 117.256 82.9481 116.776C82.6815 116.283 82.3215 115.91 81.8681 115.656C81.4281 115.403 80.9481 115.276 80.4281 115.276C79.9215 115.276 79.4415 115.41 78.9881 115.676C78.5481 115.93 78.1881 116.303 77.9081 116.796C77.6415 117.29 77.5081 117.87 77.5081 118.536C77.5081 119.203 77.6415 119.783 77.9081 120.276C78.1881 120.77 78.5481 121.15 78.9881 121.416C79.4415 121.67 79.9215 121.796 80.4281 121.796C80.9481 121.796 81.4281 121.663 81.8681 121.396C82.3215 121.13 82.6815 120.75 82.9481 120.256C83.2281 119.763 83.3681 119.176 83.3681 118.496ZM93.1828 124.256C92.1161 124.256 91.1561 124.023 90.3028 123.556C89.4495 123.076 88.7761 122.403 88.2828 121.536C87.8028 120.67 87.5628 119.67 87.5628 118.536C87.5628 117.403 87.8095 116.403 88.3028 115.536C88.8095 114.67 89.4961 114.003 90.3628 113.536C91.2295 113.056 92.1961 112.816 93.2628 112.816C94.3295 112.816 95.2961 113.056 96.1628 113.536C97.0295 114.003 97.7095 114.67 98.2028 115.536C98.7095 116.403 98.9628 117.403 98.9628 118.536C98.9628 119.67 98.7028 120.67 98.1828 121.536C97.6761 122.403 96.9828 123.076 96.1028 123.556C95.2361 124.023 94.2628 124.256 93.1828 124.256ZM93.1828 121.816C93.6895 121.816 94.1628 121.696 94.6028 121.456C95.0561 121.203 95.4161 120.83 95.6828 120.336C95.9495 119.843 96.0828 119.243 96.0828 118.536C96.0828 117.483 95.8028 116.676 95.2428 116.116C94.6961 115.543 94.0228 115.256 93.2228 115.256C92.4228 115.256 91.7495 115.543 91.2028 116.116C90.6695 116.676 90.4028 117.483 90.4028 118.536C90.4028 119.59 90.6628 120.403 91.1828 120.976C91.7161 121.536 92.3828 121.816 93.1828 121.816ZM107.157 112.836C108.477 112.836 109.543 113.256 110.357 114.096C111.17 114.923 111.577 116.083 111.577 117.576V124.076H108.777V117.956C108.777 117.076 108.557 116.403 108.117 115.936C107.677 115.456 107.077 115.216 106.317 115.216C105.543 115.216 104.93 115.456 104.477 115.936C104.037 116.403 103.817 117.076 103.817 117.956V124.076H101.017V112.996H103.817V114.376C104.19 113.896 104.663 113.523 105.237 113.256C105.823 112.976 106.463 112.836 107.157 112.836ZM130.585 110.116V124.076H127.785V118.136H121.805V124.076H119.005V110.116H121.805V115.856H127.785V110.116H130.585ZM138.261 124.256C137.194 124.256 136.234 124.023 135.381 123.556C134.528 123.076 133.854 122.403 133.361 121.536C132.881 120.67 132.641 119.67 132.641 118.536C132.641 117.403 132.888 116.403 133.381 115.536C133.888 114.67 134.574 114.003 135.441 113.536C136.308 113.056 137.274 112.816 138.341 112.816C139.408 112.816 140.374 113.056 141.241 113.536C142.108 114.003 142.788 114.67 143.281 115.536C143.788 116.403 144.041 117.403 144.041 118.536C144.041 119.67 143.781 120.67 143.261 121.536C142.754 122.403 142.061 123.076 141.181 123.556C140.314 124.023 139.341 124.256 138.261 124.256ZM138.261 121.816C138.768 121.816 139.241 121.696 139.681 121.456C140.134 121.203 140.494 120.83 140.761 120.336C141.028 119.843 141.161 119.243 141.161 118.536C141.161 117.483 140.881 116.676 140.321 116.116C139.774 115.543 139.101 115.256 138.301 115.256C137.501 115.256 136.828 115.543 136.281 116.116C135.748 116.676 135.481 117.483 135.481 118.536C135.481 119.59 135.741 120.403 136.261 120.976C136.794 121.536 137.461 121.816 138.261 121.816ZM156.555 112.996V124.076H153.735V122.676C153.375 123.156 152.902 123.536 152.315 123.816C151.742 124.083 151.115 124.216 150.435 124.216C149.568 124.216 148.802 124.036 148.135 123.676C147.468 123.303 146.942 122.763 146.555 122.056C146.182 121.336 145.995 120.483 145.995 119.496V112.996H148.795V119.096C148.795 119.976 149.015 120.656 149.455 121.136C149.895 121.603 150.495 121.836 151.255 121.836C152.028 121.836 152.635 121.603 153.075 121.136C153.515 120.656 153.735 119.976 153.735 119.096V112.996H156.555ZM163.558 124.256C162.651 124.256 161.838 124.096 161.118 123.776C160.398 123.443 159.824 122.996 159.398 122.436C158.984 121.876 158.758 121.256 158.718 120.576H161.538C161.591 121.003 161.798 121.356 162.158 121.636C162.531 121.916 162.991 122.056 163.538 122.056C164.071 122.056 164.484 121.95 164.778 121.736C165.084 121.523 165.238 121.25 165.238 120.916C165.238 120.556 165.051 120.29 164.678 120.116C164.318 119.93 163.738 119.73 162.938 119.516C162.111 119.316 161.431 119.11 160.898 118.896C160.378 118.683 159.924 118.356 159.538 117.916C159.164 117.476 158.978 116.883 158.978 116.136C158.978 115.523 159.151 114.963 159.498 114.456C159.858 113.95 160.364 113.55 161.018 113.256C161.684 112.963 162.464 112.816 163.358 112.816C164.678 112.816 165.731 113.15 166.518 113.816C167.304 114.47 167.738 115.356 167.818 116.476H165.138C165.098 116.036 164.911 115.69 164.578 115.436C164.258 115.17 163.824 115.036 163.278 115.036C162.771 115.036 162.378 115.13 162.098 115.316C161.831 115.503 161.698 115.763 161.698 116.096C161.698 116.47 161.884 116.756 162.258 116.956C162.631 117.143 163.211 117.336 163.998 117.536C164.798 117.736 165.458 117.943 165.978 118.156C166.498 118.37 166.944 118.703 167.318 119.156C167.704 119.596 167.904 120.183 167.918 120.916C167.918 121.556 167.738 122.13 167.378 122.636C167.031 123.143 166.524 123.543 165.858 123.836C165.204 124.116 164.438 124.256 163.558 124.256ZM180.516 118.296C180.516 118.696 180.489 119.056 180.436 119.376H172.336C172.403 120.176 172.683 120.803 173.176 121.256C173.669 121.71 174.276 121.936 174.996 121.936C176.036 121.936 176.776 121.49 177.216 120.596H180.236C179.916 121.663 179.303 122.543 178.396 123.236C177.489 123.916 176.376 124.256 175.056 124.256C173.989 124.256 173.029 124.023 172.176 123.556C171.336 123.076 170.676 122.403 170.196 121.536C169.729 120.67 169.496 119.67 169.496 118.536C169.496 117.39 169.729 116.383 170.196 115.516C170.663 114.65 171.316 113.983 172.156 113.516C172.996 113.05 173.963 112.816 175.056 112.816C176.109 112.816 177.049 113.043 177.876 113.496C178.716 113.95 179.363 114.596 179.816 115.436C180.283 116.263 180.516 117.216 180.516 118.296ZM177.616 117.496C177.603 116.776 177.343 116.203 176.836 115.776C176.329 115.336 175.709 115.116 174.976 115.116C174.283 115.116 173.696 115.33 173.216 115.756C172.749 116.17 172.463 116.75 172.356 117.496H177.616Z" fill="#141226"/>
<path fill-rule="evenodd" clip-rule="evenodd" d="M368.752 78.7247C368.283 78.2561 368.283 77.4963 368.752 77.0276L372.703 73.0762L368.752 69.1247C368.283 68.6561 368.283 67.8963 368.752 67.4276C369.22 66.959 369.98 66.959 370.449 67.4276L375.249 72.2276C375.718 72.6963 375.718 73.4561 375.249 73.9247L370.449 78.7247C369.98 79.1933 369.22 79.1933 368.752 78.7247Z" fill="#6257CD"/>
<path d="M41.68 146.156C41.3707 145.506 40.9227 145.004 40.336 144.652C39.7493 144.29 39.0667 144.108 38.288 144.108C37.5093 144.108 36.8053 144.29 36.176 144.652C35.5573 145.004 35.0667 145.516 34.704 146.188C34.352 146.85 34.176 147.618 34.176 148.492C34.176 149.367 34.352 150.135 34.704 150.796C35.0667 151.458 35.5573 151.97 36.176 152.332C36.8053 152.684 37.5093 152.86 38.288 152.86C39.376 152.86 40.272 152.535 40.976 151.884C41.68 151.234 42.0907 150.354 42.208 149.244H37.76V148.06H43.76V149.18C43.6747 150.098 43.3867 150.94 42.896 151.708C42.4053 152.466 41.76 153.068 40.96 153.516C40.16 153.954 39.2693 154.172 38.288 154.172C37.2533 154.172 36.3093 153.932 35.456 153.452C34.6027 152.962 33.9253 152.284 33.424 151.42C32.9333 150.556 32.688 149.58 32.688 148.492C32.688 147.404 32.9333 146.428 33.424 145.564C33.9253 144.69 34.6027 144.012 35.456 143.532C36.3093 143.042 37.2533 142.796 38.288 142.796C39.472 142.796 40.5173 143.09 41.424 143.676C42.3413 144.263 43.008 145.09 43.424 146.156H41.68ZM53.6851 149.356C53.6851 149.634 53.6691 149.927 53.6371 150.236H46.6291C46.6825 151.1 46.9758 151.778 47.5091 152.268C48.0531 152.748 48.7091 152.988 49.4771 152.988C50.1065 152.988 50.6291 152.844 51.0451 152.556C51.4718 152.258 51.7705 151.863 51.9411 151.372H53.5091C53.2745 152.215 52.8051 152.903 52.1011 153.436C51.3971 153.959 50.5225 154.22 49.4771 154.22C48.6451 154.22 47.8985 154.034 47.2371 153.66C46.5865 153.287 46.0745 152.759 45.7011 152.076C45.3278 151.383 45.1411 150.583 45.1411 149.676C45.1411 148.77 45.3225 147.975 45.6851 147.292C46.0478 146.61 46.5545 146.087 47.2051 145.724C47.8665 145.351 48.6238 145.164 49.4771 145.164C50.3091 145.164 51.0451 145.346 51.6851 145.708C52.3251 146.071 52.8158 146.572 53.1571 147.212C53.5091 147.842 53.6851 148.556 53.6851 149.356ZM52.1811 149.052C52.1811 148.498 52.0585 148.023 51.8131 147.628C51.5678 147.223 51.2318 146.919 50.8051 146.716C50.3891 146.503 49.9251 146.396 49.4131 146.396C48.6771 146.396 48.0478 146.631 47.5251 147.1C47.0131 147.57 46.7198 148.22 46.6451 149.052H52.1811ZM57.383 146.508V151.676C57.383 152.103 57.4737 152.407 57.655 152.588C57.8363 152.759 58.151 152.844 58.599 152.844H59.671V154.076H58.359C57.5483 154.076 56.9403 153.89 56.535 153.516C56.1297 153.143 55.927 152.53 55.927 151.676V146.508H54.791V145.308H55.927V143.1H57.383V145.308H59.671V146.508H57.383ZM73.7008 149.356C73.7008 149.634 73.6848 149.927 73.6528 150.236H66.6448C66.6981 151.1 66.9914 151.778 67.5248 152.268C68.0688 152.748 68.7248 152.988 69.4928 152.988C70.1221 152.988 70.6448 152.844 71.0608 152.556C71.4874 152.258 71.7861 151.863 71.9568 151.372H73.5248C73.2901 152.215 72.8208 152.903 72.1168 153.436C71.4128 153.959 70.5381 154.22 69.4928 154.22C68.6608 154.22 67.9141 154.034 67.2528 153.66C66.6021 153.287 66.0901 152.759 65.7168 152.076C65.3434 151.383 65.1568 150.583 65.1568 149.676C65.1568 148.77 65.3381 147.975 65.7008 147.292C66.0634 146.61 66.5701 146.087 67.2208 145.724C67.8821 145.351 68.6394 145.164 69.4928 145.164C70.3248 145.164 71.0608 145.346 71.7008 145.708C72.3408 146.071 72.8314 146.572 73.1728 147.212C73.5248 147.842 73.7008 148.556 73.7008 149.356ZM72.1968 149.052C72.1968 148.498 72.0741 148.023 71.8288 147.628C71.5834 147.223 71.2474 146.919 70.8208 146.716C70.4048 146.503 69.9408 146.396 69.4288 146.396C68.6928 146.396 68.0634 146.631 67.5408 147.1C67.0288 147.57 66.7354 148.22 66.6608 149.052H72.1968ZM80.1986 154.076L78.1186 150.812L76.1186 154.076H74.5986L77.4306 149.724L74.5986 145.308H76.2466L78.3266 148.556L80.3106 145.308H81.8306L79.0146 149.644L81.8466 154.076H80.1986ZM82.7349 149.676C82.7349 148.77 82.9162 147.98 83.2789 147.308C83.6415 146.626 84.1429 146.098 84.7829 145.724C85.4335 145.351 86.1749 145.164 87.0069 145.164C88.0842 145.164 88.9695 145.426 89.6629 145.948C90.3669 146.471 90.8309 147.196 91.0549 148.124H89.4869C89.3375 147.591 89.0442 147.17 88.6069 146.86C88.1802 146.551 87.6469 146.396 87.0069 146.396C86.1749 146.396 85.5029 146.684 84.9909 147.26C84.4789 147.826 84.2229 148.631 84.2229 149.676C84.2229 150.732 84.4789 151.548 84.9909 152.124C85.5029 152.7 86.1749 152.988 87.0069 152.988C87.6469 152.988 88.1802 152.839 88.6069 152.54C89.0335 152.242 89.3269 151.815 89.4869 151.26H91.0549C90.8202 152.156 90.3509 152.876 89.6469 153.42C88.9429 153.954 88.0629 154.22 87.0069 154.22C86.1749 154.22 85.4335 154.034 84.7829 153.66C84.1429 153.287 83.6415 152.759 83.2789 152.076C82.9162 151.394 82.7349 150.594 82.7349 149.676ZM93.7496 143.884C93.4723 143.884 93.2376 143.788 93.0456 143.596C92.8536 143.404 92.7576 143.17 92.7576 142.892C92.7576 142.615 92.8536 142.38 93.0456 142.188C93.2376 141.996 93.4723 141.9 93.7496 141.9C94.0163 141.9 94.2403 141.996 94.4216 142.188C94.6136 142.38 94.7096 142.615 94.7096 142.892C94.7096 143.17 94.6136 143.404 94.4216 143.596C94.2403 143.788 94.0163 143.884 93.7496 143.884ZM94.4536 145.308V154.076H92.9976V145.308H94.4536ZM98.7111 146.508V151.676C98.7111 152.103 98.8018 152.407 98.9831 152.588C99.1645 152.759 99.4791 152.844 99.9271 152.844H100.999V154.076H99.6871C98.8765 154.076 98.2685 153.89 97.8631 153.516C97.4578 153.143 97.2551 152.53 97.2551 151.676V146.508H96.1191V145.308H97.2551V143.1H98.7111V145.308H100.999V146.508H98.7111ZM103.515 143.884C103.238 143.884 103.003 143.788 102.811 143.596C102.619 143.404 102.523 143.17 102.523 142.892C102.523 142.615 102.619 142.38 102.811 142.188C103.003 141.996 103.238 141.9 103.515 141.9C103.782 141.9 104.006 141.996 104.187 142.188C104.379 142.38 104.475 142.615 104.475 142.892C104.475 143.17 104.379 143.404 104.187 143.596C104.006 143.788 103.782 143.884 103.515 143.884ZM104.219 145.308V154.076H102.763V145.308H104.219ZM110.973 145.148C112.039 145.148 112.903 145.474 113.565 146.124C114.226 146.764 114.557 147.692 114.557 148.908V154.076H113.117V149.116C113.117 148.242 112.898 147.575 112.461 147.116C112.023 146.647 111.426 146.412 110.669 146.412C109.901 146.412 109.287 146.652 108.829 147.132C108.381 147.612 108.157 148.311 108.157 149.228V154.076H106.701V145.308H108.157V146.556C108.445 146.108 108.834 145.762 109.325 145.516C109.826 145.271 110.375 145.148 110.973 145.148ZM120.551 145.164C121.308 145.164 121.97 145.33 122.535 145.66C123.111 145.991 123.538 146.407 123.815 146.908V145.308H125.287V154.268C125.287 155.068 125.116 155.778 124.775 156.396C124.434 157.026 123.943 157.516 123.303 157.868C122.674 158.22 121.938 158.396 121.095 158.396C119.943 158.396 118.983 158.124 118.215 157.58C117.447 157.036 116.994 156.295 116.855 155.356H118.295C118.455 155.89 118.786 156.316 119.287 156.636C119.788 156.967 120.391 157.132 121.095 157.132C121.895 157.132 122.546 156.882 123.047 156.38C123.559 155.879 123.815 155.175 123.815 154.268V152.428C123.527 152.94 123.1 153.367 122.535 153.708C121.97 154.05 121.308 154.22 120.551 154.22C119.772 154.22 119.063 154.028 118.423 153.644C117.794 153.26 117.298 152.722 116.935 152.028C116.572 151.335 116.391 150.546 116.391 149.66C116.391 148.764 116.572 147.98 116.935 147.308C117.298 146.626 117.794 146.098 118.423 145.724C119.063 145.351 119.772 145.164 120.551 145.164ZM123.815 149.676C123.815 149.015 123.682 148.439 123.415 147.948C123.148 147.458 122.786 147.084 122.327 146.828C121.879 146.562 121.383 146.428 120.839 146.428C120.295 146.428 119.799 146.556 119.351 146.812C118.903 147.068 118.546 147.442 118.279 147.932C118.012 148.423 117.879 148.999 117.879 149.66C117.879 150.332 118.012 150.919 118.279 151.42C118.546 151.911 118.903 152.29 119.351 152.556C119.799 152.812 120.295 152.94 120.839 152.94C121.383 152.94 121.879 152.812 122.327 152.556C122.786 152.29 123.148 151.911 123.415 151.42C123.682 150.919 123.815 150.338 123.815 149.676ZM135.837 154.22C135.016 154.22 134.269 154.034 133.597 153.66C132.936 153.287 132.413 152.759 132.029 152.076C131.656 151.383 131.469 150.583 131.469 149.676C131.469 148.78 131.661 147.991 132.045 147.308C132.44 146.615 132.973 146.087 133.645 145.724C134.317 145.351 135.069 145.164 135.901 145.164C136.733 145.164 137.485 145.351 138.157 145.724C138.829 146.087 139.357 146.61 139.741 147.292C140.136 147.975 140.333 148.77 140.333 149.676C140.333 150.583 140.131 151.383 139.725 152.076C139.331 152.759 138.792 153.287 138.109 153.66C137.427 154.034 136.669 154.22 135.837 154.22ZM135.837 152.94C136.36 152.94 136.851 152.818 137.309 152.572C137.768 152.327 138.136 151.959 138.413 151.468C138.701 150.978 138.845 150.38 138.845 149.676C138.845 148.972 138.707 148.375 138.429 147.884C138.152 147.394 137.789 147.031 137.341 146.796C136.893 146.551 136.408 146.428 135.885 146.428C135.352 146.428 134.861 146.551 134.413 146.796C133.976 147.031 133.624 147.394 133.357 147.884C133.091 148.375 132.957 148.972 132.957 149.676C132.957 150.391 133.085 150.994 133.341 151.484C133.608 151.975 133.96 152.343 134.397 152.588C134.835 152.823 135.315 152.94 135.837 152.94ZM145.816 146.508H143.976V154.076H142.52V146.508H141.384V145.308H142.52V144.684C142.52 143.703 142.77 142.988 143.272 142.54C143.784 142.082 144.6 141.852 145.72 141.852V143.068C145.08 143.068 144.626 143.196 144.36 143.452C144.104 143.698 143.976 144.108 143.976 144.684V145.308H145.816V146.508ZM151.081 146.508H149.241V154.076H147.785V146.508H146.649V145.308H147.785V144.684C147.785 143.703 148.036 142.988 148.537 142.54C149.049 142.082 149.865 141.852 150.985 141.852V143.068C150.345 143.068 149.892 143.196 149.625 143.452C149.369 143.698 149.241 144.108 149.241 144.684V145.308H151.081V146.508ZM160.779 149.356C160.779 149.634 160.763 149.927 160.731 150.236H153.723C153.776 151.1 154.07 151.778 154.603 152.268C155.147 152.748 155.803 152.988 156.571 152.988C157.2 152.988 157.723 152.844 158.139 152.556C158.566 152.258 158.864 151.863 159.035 151.372H160.603C160.368 152.215 159.899 152.903 159.195 153.436C158.491 153.959 157.616 154.22 156.571 154.22C155.739 154.22 154.992 154.034 154.331 153.66C153.68 153.287 153.168 152.759 152.795 152.076C152.422 151.383 152.235 150.583 152.235 149.676C152.235 148.77 152.416 147.975 152.779 147.292C153.142 146.61 153.648 146.087 154.299 145.724C154.96 145.351 155.718 145.164 156.571 145.164C157.403 145.164 158.139 145.346 158.779 145.708C159.419 146.071 159.91 146.572 160.251 147.212C160.603 147.842 160.779 148.556 160.779 149.356ZM159.275 149.052C159.275 148.498 159.152 148.023 158.907 147.628C158.662 147.223 158.326 146.919 157.899 146.716C157.483 146.503 157.019 146.396 156.507 146.396C155.771 146.396 155.142 146.631 154.619 147.1C154.107 147.57 153.814 148.22 153.739 149.052H159.275ZM164.157 146.732C164.413 146.231 164.775 145.842 165.245 145.564C165.725 145.287 166.306 145.148 166.989 145.148V146.652H166.605C164.973 146.652 164.157 147.538 164.157 149.308V154.076H162.701V145.308H164.157V146.732ZM171.774 154.22C171.102 154.22 170.499 154.108 169.966 153.884C169.432 153.65 169.011 153.33 168.702 152.924C168.392 152.508 168.222 152.034 168.19 151.5H169.694C169.736 151.938 169.939 152.295 170.302 152.572C170.675 152.85 171.16 152.988 171.758 152.988C172.312 152.988 172.75 152.866 173.07 152.62C173.39 152.375 173.55 152.066 173.55 151.692C173.55 151.308 173.379 151.026 173.038 150.844C172.696 150.652 172.168 150.466 171.454 150.284C170.803 150.114 170.27 149.943 169.854 149.772C169.448 149.591 169.096 149.33 168.798 148.988C168.51 148.636 168.366 148.178 168.366 147.612C168.366 147.164 168.499 146.754 168.766 146.38C169.032 146.007 169.411 145.714 169.902 145.5C170.392 145.276 170.952 145.164 171.582 145.164C172.552 145.164 173.336 145.41 173.934 145.9C174.531 146.391 174.851 147.063 174.894 147.916H173.438C173.406 147.458 173.219 147.09 172.878 146.812C172.547 146.535 172.099 146.396 171.534 146.396C171.011 146.396 170.595 146.508 170.286 146.732C169.976 146.956 169.822 147.25 169.822 147.612C169.822 147.9 169.912 148.14 170.094 148.332C170.286 148.514 170.52 148.663 170.798 148.78C171.086 148.887 171.48 149.01 171.982 149.148C172.611 149.319 173.123 149.49 173.518 149.66C173.912 149.82 174.248 150.066 174.526 150.396C174.814 150.727 174.963 151.159 174.974 151.692C174.974 152.172 174.84 152.604 174.574 152.988C174.307 153.372 173.928 153.676 173.438 153.9C172.958 154.114 172.403 154.22 171.774 154.22ZM189.855 154.076L188.399 152.604C187.855 153.17 187.273 153.591 186.655 153.868C186.036 154.135 185.337 154.268 184.559 154.268C183.791 154.268 183.108 154.13 182.511 153.852C181.924 153.575 181.465 153.18 181.135 152.668C180.815 152.156 180.655 151.559 180.655 150.876C180.655 150.098 180.873 149.415 181.311 148.828C181.759 148.231 182.415 147.762 183.279 147.42C182.937 147.015 182.692 146.642 182.543 146.3C182.393 145.959 182.319 145.586 182.319 145.18C182.319 144.711 182.436 144.29 182.671 143.916C182.916 143.532 183.263 143.234 183.711 143.02C184.159 142.807 184.676 142.7 185.263 142.7C185.839 142.7 186.34 142.812 186.767 143.036C187.193 143.26 187.513 143.575 187.727 143.98C187.94 144.375 188.036 144.818 188.015 145.308H186.559C186.569 144.871 186.447 144.53 186.191 144.284C185.935 144.028 185.604 143.9 185.199 143.9C184.772 143.9 184.425 144.023 184.159 144.268C183.903 144.503 183.775 144.807 183.775 145.18C183.775 145.5 183.86 145.81 184.031 146.108C184.212 146.407 184.511 146.775 184.927 147.212L188.255 150.556L188.543 150.108L189.631 148.284H191.199L189.887 150.556C189.705 150.876 189.492 151.212 189.247 151.564L191.759 154.076H189.855ZM184.559 153.02C185.135 153.02 185.652 152.908 186.111 152.684C186.58 152.46 187.023 152.114 187.439 151.644L184.159 148.348C182.793 148.871 182.111 149.698 182.111 150.828C182.111 151.458 182.335 151.98 182.783 152.396C183.241 152.812 183.833 153.02 184.559 153.02ZM207.932 145.148C208.615 145.148 209.223 145.292 209.756 145.58C210.29 145.858 210.711 146.279 211.02 146.844C211.33 147.41 211.484 148.098 211.484 148.908V154.076H210.044V149.116C210.044 148.242 209.826 147.575 209.388 147.116C208.962 146.647 208.38 146.412 207.644 146.412C206.887 146.412 206.284 146.658 205.836 147.148C205.388 147.628 205.164 148.327 205.164 149.244V154.076H203.724V149.116C203.724 148.242 203.506 147.575 203.068 147.116C202.642 146.647 202.06 146.412 201.324 146.412C200.567 146.412 199.964 146.658 199.516 147.148C199.068 147.628 198.844 148.327 198.844 149.244V154.076H197.388V145.308H198.844V146.572C199.132 146.114 199.516 145.762 199.996 145.516C200.487 145.271 201.026 145.148 201.612 145.148C202.348 145.148 202.999 145.314 203.564 145.644C204.13 145.975 204.551 146.46 204.828 147.1C205.074 146.482 205.479 146.002 206.044 145.66C206.61 145.319 207.239 145.148 207.932 145.148ZM217.697 154.22C216.875 154.22 216.129 154.034 215.457 153.66C214.795 153.287 214.273 152.759 213.889 152.076C213.515 151.383 213.329 150.583 213.329 149.676C213.329 148.78 213.521 147.991 213.905 147.308C214.299 146.615 214.833 146.087 215.505 145.724C216.177 145.351 216.929 145.164 217.761 145.164C218.593 145.164 219.345 145.351 220.017 145.724C220.689 146.087 221.217 146.61 221.601 147.292C221.995 147.975 222.193 148.77 222.193 149.676C222.193 150.583 221.99 151.383 221.585 152.076C221.19 152.759 220.651 153.287 219.969 153.66C219.286 154.034 218.529 154.22 217.697 154.22ZM217.697 152.94C218.219 152.94 218.71 152.818 219.169 152.572C219.627 152.327 219.995 151.959 220.273 151.468C220.561 150.978 220.705 150.38 220.705 149.676C220.705 148.972 220.566 148.375 220.289 147.884C220.011 147.394 219.649 147.031 219.201 146.796C218.753 146.551 218.267 146.428 217.745 146.428C217.211 146.428 216.721 146.551 216.273 146.796C215.835 147.031 215.483 147.394 215.217 147.884C214.95 148.375 214.817 148.972 214.817 149.676C214.817 150.391 214.945 150.994 215.201 151.484C215.467 151.975 215.819 152.343 216.257 152.588C216.694 152.823 217.174 152.94 217.697 152.94ZM225.563 146.732C225.819 146.231 226.182 145.842 226.651 145.564C227.131 145.287 227.712 145.148 228.395 145.148V146.652H228.011C226.379 146.652 225.563 147.538 225.563 149.308V154.076H224.107V145.308H225.563V146.732ZM238.076 149.356C238.076 149.634 238.06 149.927 238.028 150.236H231.02C231.073 151.1 231.366 151.778 231.9 152.268C232.444 152.748 233.1 152.988 233.868 152.988C234.497 152.988 235.02 152.844 235.436 152.556C235.862 152.258 236.161 151.863 236.332 151.372H237.9C237.665 152.215 237.196 152.903 236.492 153.436C235.788 153.959 234.913 154.22 233.868 154.22C233.036 154.22 232.289 154.034 231.628 153.66C230.977 153.287 230.465 152.759 230.092 152.076C229.718 151.383 229.532 150.583 229.532 149.676C229.532 148.77 229.713 147.975 230.076 147.292C230.438 146.61 230.945 146.087 231.596 145.724C232.257 145.351 233.014 145.164 233.868 145.164C234.7 145.164 235.436 145.346 236.076 145.708C236.716 146.071 237.206 146.572 237.548 147.212C237.9 147.842 238.076 148.556 238.076 149.356ZM236.572 149.052C236.572 148.498 236.449 148.023 236.204 147.628C235.958 147.223 235.622 146.919 235.196 146.716C234.78 146.503 234.316 146.396 233.804 146.396C233.068 146.396 232.438 146.631 231.916 147.1C231.404 147.57 231.11 148.22 231.036 149.052H236.572Z" fill="#3E3D4D"/>
<path d="M8 8.07617H408H8ZM408 167.076H8H408ZM12 167.076C7.58172 167.076 4 163.494 4 159.076V16.0762C4 11.6579 7.58172 8.07617 12 8.07617C12 8.07617 12 9.86703 12 12.0762V163.076C12 165.285 12 167.076 12 167.076ZM408 8.07617V167.076V8.07617Z" fill="#6257CD" mask="url(#path-1-inside-1_8916_22143)"/>
</g>
<defs>
<filter id="filter0_d_8916_22143" x="0" y="0.576172" width="416" height="175" filterUnits="userSpaceOnUse" color-interpolation-filters="sRGB">
<feFlood flood-opacity="0" result="BackgroundImageFix"/>
<feColorMatrix in="SourceAlpha" type="matrix" values="0 0 0 0 0 0 0 0 0 0 0 0 0 0 0 0 0 0 127 0" result="hardAlpha"/>
<feOffset dy="0.5"/>
<feGaussianBlur stdDeviation="4"/>
<feComposite in2="hardAlpha" operator="out"/>
<feColorMatrix type="matrix" values="0 0 0 0 0 0 0 0 0 0 0 0 0 0 0 0 0 0 0.1 0"/>
<feBlend mode="normal" in2="BackgroundImageFix" result="effect1_dropShadow_8916_22143"/>
<feBlend mode="normal" in="SourceGraphic" in2="effect1_dropShadow_8916_22143" result="shape"/>
</filter>
<filter id="filter1_d_8916_22143" x="65" y="15.0762" width="84" height="84" filterUnits="userSpaceOnUse" color-interpolation-filters="sRGB">
<feFlood flood-opacity="0" result="BackgroundImageFix"/>
<feColorMatrix in="SourceAlpha" type="matrix" values="0 0 0 0 0 0 0 0 0 0 0 0 0 0 0 0 0 0 127 0" result="hardAlpha"/>
<feOffset dy="1"/>
<feGaussianBlur stdDeviation="1"/>
<feComposite in2="hardAlpha" operator="out"/>
<feColorMatrix type="matrix" values="0 0 0 0 0 0 0 0 0 0 0 0 0 0 0 0 0 0 0.05 0"/>
<feBlend mode="normal" in2="BackgroundImageFix" result="effect1_dropShadow_8916_22143"/>
<feBlend mode="normal" in="SourceGraphic" in2="effect1_dropShadow_8916_22143" result="shape"/>
</filter>
</defs>
</svg>
