<svg width="260" height="198" viewBox="0 0 260 198" fill="none" xmlns="http://www.w3.org/2000/svg">
<path d="M15.1263 197.791C5.1818 197.791 -2.03585 187.071 0.517299 176.14C3.8719 161.78 8.40884 151.777 28.568 140.214C46.0443 130.179 60.0539 115.472 68.8627 97.9147C81.317 73.1037 87.3678 50.041 110.768 50.041C145.395 50.041 145.577 80.2131 155.901 83.2815C166.225 86.3498 200.832 77.2376 208.562 104.134C222.852 153.853 242.033 129.885 256.919 168.172C257.849 170.586 258.65 173.044 259.319 175.536C262.318 186.592 255.037 197.791 244.862 197.791L15.1263 197.791Z" fill="#ECF3F9"/>
<path d="M63.508 102.439C62.9772 103.571 62.4433 104.699 62.3278 104.949C61.8033 106.063 61.3256 107.073 61.1039 107.552C60.9697 107.837 60.8573 108.076 60.8542 108.083C60.8479 108.09 59.4086 108.132 56.327 108.212C55.9149 108.222 55.0188 108.246 54.332 108.267C53.6482 108.284 53.0862 108.298 53.08 108.291C53.0737 108.281 52.0091 106.278 51.1848 104.723C49.8673 102.238 49.093 100.783 49.0898 100.78C49.0867 100.776 48.7464 100.867 48.3374 100.981C47.766 101.137 47.5787 101.203 47.5444 101.255C47.5225 101.29 47.4882 101.314 47.4726 101.304C47.4569 101.29 47.4445 101.301 47.4445 101.321C47.4445 101.346 47.4226 101.356 47.3976 101.342C47.3727 101.332 47.3508 101.342 47.3508 101.366C47.3508 101.398 47.3446 101.398 47.3258 101.366C47.2915 101.304 47.2134 101.297 47.2103 101.356C47.2103 101.384 47.1947 101.408 47.1728 101.408C47.151 101.408 47.1166 101.429 47.0979 101.45C47.0417 101.512 47.0854 101.505 47.2009 101.439C47.2509 101.408 47.2852 101.401 47.2759 101.419C47.2665 101.436 47.1853 101.495 47.0948 101.547C47.0042 101.599 46.8856 101.682 46.8325 101.727C46.7482 101.797 46.7326 101.8 46.7139 101.755C46.7045 101.724 46.7076 101.707 46.7201 101.717C46.7357 101.727 46.7482 101.714 46.7482 101.689C46.7482 101.662 46.7232 101.651 46.692 101.658C46.6483 101.672 46.6421 101.658 46.6546 101.599C46.6639 101.557 46.6827 101.537 46.692 101.557C46.717 101.599 46.8575 101.637 46.8325 101.596C46.8231 101.578 46.8294 101.564 46.8481 101.564C46.8637 101.564 46.8825 101.582 46.8887 101.606C46.8981 101.637 46.9074 101.637 46.9262 101.606C46.9387 101.582 46.9324 101.564 46.9168 101.564C46.8981 101.564 46.8825 101.55 46.8825 101.533C46.8825 101.512 46.9106 101.505 46.9418 101.512C47.0105 101.526 47.0542 101.443 47.0011 101.405C46.9824 101.391 46.9761 101.394 46.9855 101.415C46.998 101.436 46.9855 101.46 46.9605 101.471C46.9324 101.485 46.9231 101.474 46.9355 101.439C46.9449 101.415 46.9355 101.391 46.9168 101.391C46.8981 101.391 46.8825 101.415 46.8825 101.443C46.8825 101.523 46.7513 101.571 46.7045 101.505C46.6733 101.464 46.667 101.467 46.6483 101.526C46.6389 101.568 46.6108 101.599 46.589 101.599C46.564 101.599 46.5234 101.634 46.4953 101.675C46.4703 101.721 46.4547 101.731 46.4641 101.7C46.4735 101.665 46.4641 101.63 46.4422 101.613C46.4204 101.599 46.411 101.603 46.4235 101.62C46.4329 101.637 46.3985 101.655 46.3486 101.655C46.2768 101.658 46.2643 101.651 46.2893 101.616C46.3174 101.578 46.3111 101.575 46.258 101.589C46.2237 101.599 46.1862 101.62 46.18 101.637C46.1706 101.651 46.1394 101.655 46.1082 101.644C46.0676 101.63 46.0676 101.637 46.1175 101.679C46.1706 101.727 46.1737 101.734 46.1269 101.738C46.0988 101.738 46.0645 101.721 46.0551 101.7C46.0395 101.675 46.0145 101.682 45.9802 101.717C45.9489 101.748 45.9115 101.762 45.8959 101.748C45.8803 101.731 45.8803 101.734 45.8927 101.755C45.9084 101.776 45.9365 101.79 45.9552 101.79C45.977 101.79 45.9958 101.821 46.002 101.859C46.0083 101.911 46.0051 101.915 45.9833 101.884C45.9614 101.845 45.9521 101.845 45.9365 101.891C45.924 101.922 45.9021 101.946 45.8834 101.946C45.8646 101.946 45.8584 101.929 45.8678 101.911C45.8771 101.891 45.8709 101.877 45.8553 101.877C45.8365 101.877 45.8209 101.898 45.8209 101.918C45.8209 101.95 45.8084 101.946 45.7897 101.911C45.7741 101.884 45.7585 101.877 45.7585 101.898C45.7585 101.918 45.6867 101.932 45.5868 101.932C45.4744 101.932 45.4275 101.922 45.4525 101.901C45.4806 101.88 45.4744 101.877 45.4369 101.891C45.4057 101.901 45.3713 101.911 45.362 101.911C45.3526 101.911 45.362 101.936 45.3838 101.964C45.4151 102.005 45.4151 102.016 45.3745 102.016C45.3464 102.016 45.3151 101.998 45.3058 101.981C45.2902 101.953 45.2714 101.957 45.2433 101.981C45.2184 102.005 45.1871 102.012 45.1715 102.005C45.159 101.995 45.1278 102.002 45.1028 102.019C45.0622 102.05 45.0622 102.054 45.1028 102.04C45.1715 102.019 45.2589 102.078 45.2558 102.147C45.2558 102.186 45.2496 102.193 45.2371 102.161C45.2246 102.127 45.2121 102.13 45.1809 102.179C45.1434 102.231 45.1278 102.234 45.0747 102.196C45.0341 102.172 45.0092 102.168 45.0092 102.189C45.0092 102.206 44.9967 102.224 44.9811 102.224C44.9655 102.224 44.9561 102.196 44.9623 102.161C44.9655 102.123 44.9904 102.106 45.0279 102.113C45.0685 102.123 45.0779 102.113 45.056 102.088C45.0373 102.068 44.9936 102.061 44.953 102.075C44.8999 102.088 44.8905 102.106 44.9155 102.137C44.9623 102.2 44.9093 102.231 44.8125 102.206C44.7563 102.189 44.7251 102.206 44.6845 102.279C44.6532 102.328 44.6439 102.359 44.6626 102.349C44.6845 102.331 44.6938 102.356 44.6907 102.411C44.6845 102.491 44.6751 102.498 44.5221 102.491C44.3816 102.484 44.366 102.477 44.4222 102.446C44.4659 102.422 44.4753 102.397 44.4503 102.384C44.4316 102.37 44.4253 102.342 44.4347 102.321C44.4472 102.297 44.4409 102.293 44.4222 102.307C44.4035 102.321 44.3941 102.352 44.4035 102.377C44.4128 102.404 44.391 102.436 44.3473 102.449C44.2442 102.488 44.0725 102.498 44.0913 102.463C44.11 102.429 44.0132 102.463 43.9601 102.505C43.9414 102.522 43.9164 102.529 43.9039 102.519C43.8946 102.508 43.8977 102.522 43.9164 102.543C43.9601 102.602 43.957 102.651 43.9102 102.62C43.8789 102.599 43.8789 102.606 43.9102 102.644C43.9664 102.713 43.9539 102.779 43.8821 102.779C43.8477 102.779 43.829 102.762 43.8384 102.745C43.8508 102.724 43.8758 102.72 43.8946 102.734C43.9164 102.748 43.9133 102.734 43.8883 102.699C43.8446 102.64 43.7728 102.616 43.804 102.672C43.8134 102.689 43.8009 102.72 43.7759 102.745C43.7384 102.779 43.7135 102.779 43.6573 102.748C43.6011 102.713 43.598 102.71 43.651 102.727C43.7135 102.745 43.7135 102.745 43.651 102.692C43.5948 102.644 43.5886 102.644 43.5667 102.71C43.5542 102.748 43.5261 102.779 43.5074 102.779C43.4824 102.779 43.4856 102.762 43.5137 102.72C43.5511 102.668 43.5511 102.665 43.5012 102.686C43.4699 102.699 43.4387 102.71 43.4356 102.71C43.4294 102.71 43.4294 102.783 43.4356 102.876L43.4481 103.04L43.2764 103.05C43.1702 103.057 43.1047 103.047 43.1047 103.026C43.1047 103.005 43.089 102.987 43.0703 102.987C43.0547 102.987 43.0453 103.001 43.0578 103.019C43.0672 103.04 43.0453 103.047 43.011 103.04C42.9766 103.033 42.9485 103.043 42.9485 103.06C42.9485 103.081 42.9329 103.085 42.9142 103.071C42.8705 103.043 42.9173 102.987 42.9985 102.97C43.0328 102.963 43.0641 102.956 43.0734 102.953C43.0828 102.949 43.1109 102.942 43.1359 102.939C43.1608 102.939 43.1796 102.915 43.1733 102.89C43.1702 102.869 43.1889 102.849 43.2139 102.849C43.2389 102.849 43.2608 102.873 43.2608 102.908C43.2608 102.963 43.3045 102.942 43.3107 102.88C43.3201 102.804 43.3263 102.8 43.3544 102.849C43.3763 102.89 43.3825 102.883 43.3763 102.821C43.3763 102.779 43.37 102.745 43.3669 102.745C43.3138 102.745 41.6778 103.539 41.0596 103.866C40.8036 104.001 40.5882 104.112 40.5851 104.116C40.5819 104.116 40.6288 104.484 40.6881 104.931C40.8942 106.472 41.1533 108.441 41.528 111.266C41.6216 111.992 41.709 112.62 41.7153 112.661C41.7278 112.727 41.325 113.081 38.6805 115.331C37.0008 116.757 35.6083 117.938 35.5896 117.958C35.5428 117.997 35.6271 118.035 34.0504 117.278C31.0312 115.831 28.4117 114.571 28.3836 114.56C28.3462 114.543 27.7717 115.282 27.2097 116.074C25.8047 118.042 24.6277 120.006 23.5474 122.197L23.2383 122.814L23.8784 123.533C24.2312 123.925 25.4644 125.324 26.6196 126.636L28.7208 129.028L27.625 133.144C27.0224 135.408 26.5166 137.272 26.501 137.289C26.4885 137.303 24.7744 137.744 22.6951 138.264C20.6126 138.785 18.9016 139.219 18.8923 139.229C18.8704 139.254 18.8236 139.837 18.7986 140.385C18.7861 140.597 18.7736 140.816 18.7643 140.875C18.7268 141.142 18.7143 144.228 18.7487 144.971C18.7799 145.665 18.8767 147.081 18.9235 147.556C19.0047 148.386 19.1046 149.209 19.1202 149.226C19.1327 149.237 19.7883 149.365 20.5782 149.511C21.3681 149.66 22.8075 149.927 23.7785 150.108C24.7494 150.292 25.8297 150.493 26.1794 150.559C26.5291 150.625 26.8194 150.684 26.8288 150.691C26.8351 150.701 27.4251 152.531 28.137 154.763C29.2516 158.254 29.4233 158.824 29.3859 158.869C29.364 158.9 28.1963 160.372 26.7976 162.146L24.2499 165.363L24.4154 165.669C25.8266 168.248 27.5532 170.754 29.4421 172.968L29.7574 173.336L33.2667 171.4C36.751 169.473 36.7791 169.459 36.8572 169.515C36.9009 169.549 37.3318 169.872 37.8126 170.24C38.2934 170.608 39.6297 171.622 40.7786 172.496C41.9307 173.371 42.9361 174.142 43.0204 174.211C43.1484 174.319 43.1671 174.35 43.1671 174.458C43.1671 174.596 43.0922 175.537 42.9361 177.425C42.8736 178.151 42.7612 179.518 42.6832 180.463C42.6051 181.407 42.5208 182.372 42.5021 182.604L42.4615 183.031L42.8861 183.222C44.5721 184 46.7139 184.774 48.556 185.274C49.1211 185.426 50.5791 185.766 51.035 185.85C51.113 185.864 51.1723 185.746 52.5273 182.844C53.3048 181.181 54.1196 179.439 54.3413 178.97L54.7441 178.12L58.2659 178.008C60.2047 177.949 61.9532 177.897 62.1499 177.897L62.5089 177.894L62.8523 178.529C63.0397 178.876 63.9357 180.549 64.8443 182.25C65.7497 183.948 66.5021 185.35 66.5146 185.36C66.5271 185.374 66.8112 185.305 67.1453 185.211C69.284 184.614 71.4102 183.809 73.3647 182.854C73.8111 182.635 74.9851 182.032 75.0069 182.011C75.01 182.004 74.8165 180.556 74.5792 178.793C74.0734 175.072 73.8486 173.378 73.8642 173.368C73.8892 173.347 79.609 168.442 79.8244 168.255L79.9993 168.102L80.9952 168.571C81.5447 168.827 83.1433 169.588 84.5514 170.258C85.9595 170.931 87.1334 171.49 87.1646 171.497C87.2833 171.535 88.9006 169.272 89.8965 167.672C90.6958 166.384 91.8354 164.294 92.2194 163.412L92.2881 163.249L91.6512 162.52C91.3015 162.121 90.0682 160.726 88.9099 159.424C87.0054 157.279 86.8087 157.05 86.8243 156.967C86.843 156.869 88.9661 148.761 88.9786 148.751C88.988 148.74 91.1953 148.178 92.3412 147.89C92.7564 147.786 94.28 147.404 96.1034 146.942C96.3781 146.873 96.6092 146.81 96.6154 146.807C96.6373 146.786 96.7091 145.498 96.7466 144.432C96.8152 142.371 96.7185 140.014 96.4749 137.889C96.4312 137.508 96.3875 137.122 96.3781 137.036C96.3688 136.945 96.35 136.852 96.3375 136.827C96.3219 136.8 95.7662 136.685 94.8483 136.515C91.7636 135.953 88.6102 135.369 88.6071 135.362C88.5665 135.303 86.0063 127.261 86.0157 127.23C86.025 127.202 87.1771 125.723 88.579 123.939C89.9777 122.155 91.1235 120.683 91.1235 120.669C91.1235 120.659 91.0236 120.465 90.8987 120.242C89.5094 117.747 87.8765 115.386 86.0594 113.252L85.6223 112.741L82.1379 114.685C80.2178 115.758 78.6286 116.625 78.6005 116.619C78.5631 116.608 75.5689 114.355 73.4677 112.759C73.3147 112.641 72.965 112.377 72.6965 112.172C72.122 111.742 72.1751 111.874 72.2501 111.002C72.275 110.707 72.3312 110.013 72.3749 109.461C72.4186 108.906 72.4624 108.375 72.4686 108.281C72.478 108.184 72.5061 107.833 72.531 107.5C72.5591 107.167 72.5872 106.813 72.5935 106.719C72.6029 106.622 72.6653 105.827 72.734 104.949C72.8027 104.07 72.8651 103.296 72.8745 103.227L72.8901 103.106L72.197 102.8C70.102 101.873 68.0476 101.179 65.9433 100.679C65.272 100.52 64.6288 100.384 64.5414 100.384C64.4852 100.384 64.3229 100.71 63.508 102.439ZM46.0395 101.738C46.0395 101.755 46.0239 101.773 46.0051 101.773C45.9895 101.773 45.9833 101.755 45.9927 101.738C46.002 101.717 46.0176 101.703 46.027 101.703C46.0332 101.703 46.0395 101.717 46.0395 101.738ZM46.6452 101.776C46.6389 101.79 46.6514 101.807 46.6702 101.814C46.7045 101.828 46.5952 101.922 46.539 101.929C46.5297 101.929 46.4766 101.981 46.4173 102.043C46.3579 102.102 46.3017 102.144 46.2955 102.137C46.2861 102.127 46.2612 102.147 46.2393 102.182C46.2018 102.238 46.1987 102.234 46.1956 102.168C46.1956 102.127 46.2174 102.075 46.2424 102.05C46.2674 102.026 46.2799 101.991 46.2674 101.974C46.2549 101.95 46.2861 101.943 46.3486 101.953C46.4173 101.964 46.4454 101.957 46.4454 101.922C46.4454 101.894 46.4579 101.88 46.4735 101.891C46.486 101.901 46.5234 101.88 46.5546 101.842C46.6171 101.766 46.5796 101.745 46.5078 101.814C46.4703 101.852 46.4703 101.849 46.5047 101.8C46.5422 101.745 46.6764 101.724 46.6452 101.776ZM46.1488 101.87C46.1207 101.877 46.1082 101.898 46.1175 101.915C46.1269 101.932 46.1144 101.936 46.0863 101.925C46.0426 101.905 46.0426 101.898 46.0894 101.839C46.1332 101.786 46.1488 101.78 46.1706 101.814C46.1831 101.842 46.1769 101.863 46.1488 101.87ZM46.2424 101.977C46.2518 101.995 46.2455 102.019 46.2268 102.033C46.2112 102.043 46.1956 102.029 46.1956 102.002C46.1956 101.939 46.2143 101.929 46.2424 101.977ZM45.2902 102.016C45.2902 102.033 45.2746 102.05 45.2558 102.05C45.2402 102.05 45.234 102.033 45.2433 102.016C45.2527 101.995 45.2683 101.981 45.2777 101.981C45.2839 101.981 45.2902 101.995 45.2902 102.016ZM45.3994 102.147C45.3713 102.154 45.3589 102.175 45.3682 102.193C45.3776 102.21 45.3651 102.213 45.337 102.203C45.2933 102.182 45.2933 102.175 45.3401 102.116C45.3838 102.064 45.3994 102.057 45.4213 102.092C45.4338 102.12 45.4275 102.141 45.3994 102.147ZM46.1019 102.311C46.0208 102.408 45.9614 102.408 45.9583 102.307C45.9521 102.238 45.9677 102.227 46.0582 102.231L46.1644 102.234L46.1019 102.311ZM45.6648 102.606C45.6804 102.606 45.7085 102.578 45.7241 102.543C45.746 102.505 45.7554 102.498 45.7585 102.533C45.7585 102.571 45.7679 102.571 45.8053 102.536C45.8334 102.512 45.8522 102.508 45.8522 102.529C45.8522 102.55 45.7772 102.633 45.6898 102.717C45.5993 102.797 45.5056 102.89 45.4837 102.918C45.4588 102.946 45.4494 102.949 45.4619 102.928C45.4744 102.901 45.465 102.89 45.4369 102.904C45.4119 102.915 45.3838 102.897 45.3713 102.866C45.362 102.831 45.3651 102.817 45.387 102.835C45.4057 102.845 45.4463 102.824 45.4806 102.783C45.5306 102.724 45.5337 102.706 45.4962 102.668C45.4588 102.63 45.4588 102.616 45.4994 102.564C45.5399 102.512 45.5524 102.512 45.593 102.554C45.618 102.581 45.6492 102.606 45.6648 102.606ZM45.3058 102.814C45.3183 102.835 45.3027 102.838 45.2714 102.824C45.2277 102.807 45.2215 102.814 45.2371 102.863C45.2496 102.897 45.2465 102.915 45.2277 102.901C45.1809 102.869 45.1903 102.779 45.2402 102.779C45.2652 102.779 45.2964 102.793 45.3058 102.814ZM45.3339 103.04C45.3495 103.085 45.0092 103.473 44.953 103.473C44.9342 103.473 44.9093 103.487 44.8999 103.508C44.8874 103.529 44.903 103.532 44.9342 103.519C44.978 103.501 44.9748 103.512 44.9249 103.567C44.8905 103.605 44.8468 103.668 44.8281 103.703C44.8094 103.737 44.7844 103.755 44.7719 103.741C44.7594 103.727 44.7813 103.675 44.825 103.623C44.8937 103.539 44.8937 103.532 44.8375 103.553C44.7875 103.574 44.7906 103.56 44.8593 103.494C44.9061 103.449 44.9342 103.401 44.9218 103.387C44.9093 103.373 44.9155 103.369 44.9342 103.376C44.9499 103.38 45.0123 103.328 45.0716 103.255C45.1465 103.158 45.1809 103.133 45.1996 103.168C45.2215 103.203 45.2277 103.199 45.2277 103.151C45.2277 103.119 45.2121 103.092 45.1903 103.092C45.1715 103.092 45.1653 103.081 45.1746 103.071C45.1871 103.057 45.2152 103.067 45.2402 103.088C45.2714 103.116 45.2902 103.119 45.3058 103.092C45.3151 103.074 45.312 103.057 45.2964 103.057C45.2777 103.057 45.2589 103.033 45.2496 103.008C45.2371 102.974 45.2465 102.963 45.2746 102.974C45.2964 102.984 45.3245 103.012 45.3339 103.04ZM45.0498 103.126C45.0622 103.126 45.0654 103.112 45.056 103.092C45.0466 103.071 45.0591 103.067 45.0841 103.078C45.1122 103.088 45.1341 103.112 45.1341 103.13C45.1341 103.185 45.0185 103.165 44.9748 103.099C44.9405 103.05 44.9405 103.047 44.978 103.081C45.0029 103.106 45.0341 103.126 45.0498 103.126ZM42.7643 103.123C42.7206 103.154 42.7425 103.23 42.7956 103.23C42.8143 103.23 42.8174 103.213 42.8049 103.189C42.7924 103.165 42.7956 103.161 42.8205 103.175C42.8393 103.189 42.8767 103.182 42.9017 103.161C42.9423 103.126 42.9485 103.133 42.9454 103.217C42.9454 103.303 42.9392 103.307 42.9173 103.248C42.8955 103.189 42.8892 103.185 42.8705 103.234C42.858 103.269 42.8268 103.286 42.7924 103.276C42.7612 103.265 42.7269 103.276 42.7175 103.296C42.705 103.317 42.68 103.335 42.6644 103.335C42.6457 103.335 42.6426 103.317 42.6519 103.3C42.6613 103.279 42.6551 103.265 42.6394 103.265C42.6207 103.265 42.6051 103.283 42.6051 103.307C42.6051 103.328 42.5957 103.335 42.5833 103.324C42.5739 103.31 42.5895 103.265 42.6238 103.227C42.6832 103.151 42.6832 103.151 42.6145 103.199C42.5739 103.227 42.5427 103.269 42.5427 103.289C42.5427 103.328 42.5302 103.328 42.4802 103.293C42.4178 103.248 42.4178 103.23 42.4865 103.217C42.5083 103.21 42.577 103.182 42.6363 103.151C42.7518 103.092 42.8361 103.074 42.7643 103.123ZM45.0404 103.234C45.0404 103.283 44.9873 103.269 44.9686 103.217C44.9561 103.182 44.9655 103.171 44.9967 103.185C45.0185 103.196 45.0404 103.217 45.0404 103.234ZM42.4178 103.324C42.4178 103.342 42.3834 103.355 42.3397 103.355C42.296 103.359 42.271 103.348 42.2804 103.331C42.2991 103.293 42.4178 103.289 42.4178 103.324ZM44.8312 103.383C44.8437 103.421 44.8343 103.428 44.8 103.414C44.7625 103.397 44.7532 103.407 44.7688 103.449C44.7813 103.487 44.775 103.498 44.7407 103.484C44.6845 103.46 44.6845 103.456 44.7469 103.39C44.8062 103.321 44.8094 103.321 44.8312 103.383ZM42.218 103.47C42.2055 103.491 42.1742 103.508 42.1461 103.508C42.1056 103.508 42.1024 103.515 42.1399 103.567C42.1805 103.623 42.1774 103.626 42.1305 103.581C42.0837 103.543 42.0743 103.543 42.0712 103.581C42.0712 103.616 42.065 103.619 42.0525 103.585C42.0462 103.564 42.0244 103.543 42.0088 103.543C41.99 103.543 41.9838 103.557 41.9932 103.571C41.9994 103.585 41.9526 103.598 41.8839 103.598L41.759 103.602L41.9089 103.519C41.99 103.473 42.0743 103.432 42.0962 103.425C42.118 103.421 42.1461 103.407 42.1586 103.394C42.1899 103.359 42.2429 103.425 42.218 103.47ZM42.3553 103.473C42.3553 103.491 42.3428 103.508 42.3241 103.508C42.3085 103.508 42.2929 103.491 42.2929 103.473C42.2929 103.453 42.3085 103.439 42.3241 103.439C42.3428 103.439 42.3553 103.453 42.3553 103.473ZM44.7594 103.664C44.7407 103.689 44.7375 103.737 44.75 103.768C44.7625 103.814 44.7594 103.824 44.7344 103.807C44.6938 103.779 44.6845 103.64 44.7157 103.602C44.7532 103.56 44.7937 103.616 44.7594 103.664ZM41.6778 103.723C41.6841 103.748 41.6685 103.789 41.6404 103.814C41.5966 103.852 41.5966 103.852 41.6466 103.834C41.6747 103.824 41.6997 103.831 41.6997 103.852C41.6997 103.897 41.5248 103.904 41.4999 103.859C41.4905 103.841 41.5123 103.821 41.5498 103.81C41.5873 103.796 41.6091 103.779 41.5998 103.768C41.5904 103.755 41.5498 103.762 41.5155 103.786C41.4593 103.817 41.4499 103.855 41.4499 104.067C41.4499 104.275 41.4437 104.31 41.4031 104.293C41.3625 104.279 41.3625 104.286 41.3875 104.341C41.4031 104.376 41.4062 104.414 41.3937 104.425C41.3781 104.435 41.3687 104.487 41.3718 104.539C41.3843 104.727 41.3875 104.744 41.4124 104.699C41.4249 104.678 41.4343 104.733 41.4374 104.82C41.4374 104.91 41.4343 104.963 41.428 104.938C41.4187 104.917 41.3999 104.904 41.3875 104.914C41.3718 104.924 41.3594 104.904 41.3625 104.872C41.3625 104.838 41.35 104.678 41.3313 104.515C41.2532 103.807 41.2532 103.827 41.3094 103.925C41.3594 104.011 41.3594 104.011 41.3438 103.932C41.3313 103.862 41.3375 103.859 41.3812 103.897C41.4218 103.935 41.428 103.935 41.4093 103.883C41.3937 103.834 41.4187 103.803 41.5061 103.755C41.6435 103.671 41.6591 103.668 41.6778 103.723ZM44.6345 103.935C44.6345 103.952 44.5752 104.046 44.5034 104.147C44.3535 104.352 44.3036 104.411 44.3317 104.355C44.341 104.334 44.3317 104.317 44.3067 104.317C44.2755 104.317 44.2723 104.334 44.2911 104.376C44.3285 104.452 44.2224 104.57 44.1599 104.529C44.1318 104.511 44.135 104.522 44.1662 104.567C44.1943 104.605 44.1974 104.622 44.1756 104.605C44.1475 104.588 44.135 104.605 44.135 104.65C44.135 104.692 44.1225 104.723 44.1069 104.723C44.0413 104.723 44.0475 104.654 44.1256 104.529C44.1756 104.445 44.2068 104.352 44.2037 104.279C44.2005 104.192 44.213 104.168 44.2567 104.168C44.288 104.168 44.3254 104.192 44.3348 104.223C44.3629 104.31 44.4753 104.14 44.4597 104.036C44.4503 103.991 44.4534 103.942 44.4628 103.925C44.4846 103.883 44.6345 103.893 44.6345 103.935ZM44.06 104.515C44.06 104.543 44.0444 104.602 44.0194 104.643C43.9913 104.699 43.9882 104.727 44.0163 104.744C44.0382 104.761 44.0413 104.754 44.0257 104.72C44.0007 104.678 44.007 104.678 44.0507 104.72C44.1069 104.768 44.0913 104.845 44.0351 104.806C44.0163 104.792 44.0101 104.796 44.0194 104.817C44.0319 104.838 44.0194 104.879 43.9976 104.914C43.9632 104.969 43.957 104.942 43.9508 104.709C43.9445 104.466 43.9508 104.442 44.0007 104.452C44.0319 104.459 44.0569 104.487 44.06 104.515ZM41.4499 104.549C41.4499 104.567 41.4437 104.584 41.4374 104.584C41.428 104.584 41.4124 104.567 41.4031 104.549C41.3937 104.529 41.3999 104.515 41.4156 104.515C41.4343 104.515 41.4499 104.529 41.4499 104.549ZM43.9133 105.067C43.8977 105.098 43.8508 105.185 43.8103 105.261C43.7697 105.337 43.7104 105.403 43.6791 105.407C43.6261 105.417 43.6261 105.414 43.6823 105.386C43.726 105.362 43.7322 105.351 43.6979 105.348C43.6729 105.341 43.6385 105.341 43.6261 105.344C43.6104 105.348 43.6104 105.33 43.6198 105.31C43.6323 105.289 43.6698 105.278 43.701 105.289C43.7478 105.303 43.7541 105.296 43.7291 105.244C43.6854 105.153 43.6916 105.126 43.7384 105.171C43.7634 105.192 43.7915 105.199 43.8009 105.185C43.8415 105.14 43.8227 105.081 43.7541 105.046C43.6916 105.011 43.6979 105.008 43.8134 105.008C43.9289 105.008 43.9414 105.018 43.9133 105.067ZM41.4374 105.157C41.4343 105.271 41.3875 105.271 41.3875 105.157C41.3875 105.108 41.3999 105.07 41.4156 105.07C41.4312 105.07 41.4405 105.108 41.4374 105.157ZM43.5574 105.313C43.548 105.33 43.5199 105.348 43.5012 105.348C43.4793 105.348 43.4824 105.334 43.5105 105.313C43.5699 105.271 43.5823 105.271 43.5574 105.313ZM41.4405 105.494C41.4312 105.518 41.4249 105.501 41.4249 105.452C41.4249 105.403 41.4312 105.386 41.4405 105.407C41.4468 105.431 41.4468 105.473 41.4405 105.494ZM43.5418 105.452C43.5418 105.469 43.5355 105.487 43.5293 105.487C43.5199 105.487 43.5043 105.469 43.4949 105.452C43.4856 105.431 43.4918 105.417 43.5074 105.417C43.5261 105.417 43.5418 105.431 43.5418 105.452ZM43.5605 105.542C43.4824 105.605 43.4481 105.605 43.4481 105.539C43.4481 105.511 43.4668 105.497 43.4918 105.508C43.5168 105.518 43.5449 105.508 43.5574 105.487C43.5699 105.466 43.5886 105.459 43.598 105.469C43.6104 105.483 43.5917 105.514 43.5605 105.542ZM43.5168 105.771C43.4918 105.806 43.4824 105.834 43.498 105.834C43.5137 105.834 43.498 105.858 43.4668 105.886C43.4325 105.914 43.4137 105.938 43.4262 105.938C43.4543 105.938 43.3575 106.157 43.317 106.184C43.3013 106.195 43.2857 106.226 43.2795 106.254C43.2514 106.431 43.1952 106.504 43.1515 106.424C43.139 106.403 43.1484 106.393 43.1733 106.396C43.2014 106.403 43.2139 106.368 43.2139 106.285C43.2139 106.202 43.2295 106.16 43.267 106.153C43.2951 106.146 43.3232 106.098 43.3294 106.042C43.3388 105.966 43.3326 105.948 43.3076 105.973C43.2795 105.997 43.2545 105.99 43.2264 105.948C43.1858 105.889 43.1858 105.889 43.242 105.938C43.2982 105.987 43.3013 105.983 43.2857 105.934C43.2701 105.889 43.2795 105.879 43.3294 105.896C43.3732 105.907 43.3888 105.9 43.3732 105.875C43.3575 105.848 43.3669 105.841 43.3981 105.855C43.4356 105.872 43.4481 105.851 43.4481 105.778C43.4481 105.698 43.4543 105.688 43.4793 105.73C43.5043 105.775 43.5105 105.771 43.5105 105.719C43.5105 105.688 43.4918 105.66 43.4731 105.66C43.445 105.66 43.4481 105.65 43.4793 105.626C43.548 105.577 43.5792 105.695 43.5168 105.771ZM43.6354 105.605C43.6354 105.615 43.6229 105.632 43.6042 105.643C43.5886 105.653 43.573 105.646 43.573 105.629C43.573 105.608 43.5886 105.591 43.6042 105.591C43.6229 105.591 43.6354 105.598 43.6354 105.605ZM41.528 105.973C41.5155 106.063 41.5186 106.111 41.5404 106.111C41.5592 106.111 41.5717 106.084 41.5685 106.049C41.5592 105.928 41.5748 105.834 41.606 105.834C41.6247 105.834 41.6372 105.865 41.6372 105.903C41.6372 105.941 41.6528 105.973 41.6685 105.973C41.7028 105.973 41.709 106.108 41.6809 106.195C41.6716 106.226 41.6497 106.25 41.6372 106.25C41.606 106.25 41.6123 106.181 41.6497 106.118C41.6653 106.091 41.6622 106.056 41.6404 106.032C41.606 105.993 41.6029 105.997 41.5904 106.216C41.5873 106.306 41.6279 106.4 41.6653 106.375C41.6747 106.368 41.6841 106.438 41.6872 106.531C41.6872 106.639 41.6747 106.698 41.656 106.691C41.6372 106.684 41.6216 106.608 41.6216 106.525C41.6216 106.403 41.6123 106.375 41.5717 106.382C41.5311 106.389 41.5186 106.348 41.503 106.188C41.4905 106.077 41.4905 105.952 41.503 105.91C41.5311 105.782 41.5498 105.823 41.528 105.973ZM43.2451 106.039C43.2545 106.056 43.2514 106.08 43.2358 106.091C43.2202 106.101 43.2077 106.087 43.2077 106.059C43.2077 106 43.217 105.993 43.2451 106.039ZM43.0422 106.431C43.0422 106.452 43.0516 106.459 43.0609 106.448C43.0734 106.438 43.1078 106.441 43.1421 106.462C43.2014 106.497 43.2014 106.5 43.1452 106.552C43.114 106.58 43.1047 106.594 43.1265 106.58C43.1546 106.566 43.1577 106.584 43.1327 106.667C43.114 106.722 43.0859 106.761 43.0672 106.75C43.0516 106.74 43.0391 106.75 43.0453 106.774C43.0547 106.868 43.0422 106.913 43.0079 106.889C42.9891 106.879 42.9798 106.837 42.9891 106.802C42.9985 106.764 42.9923 106.736 42.9766 106.736C42.961 106.736 42.9485 106.695 42.9485 106.639C42.9485 106.57 42.9579 106.559 42.9766 106.597C42.9954 106.625 43.0016 106.656 42.9923 106.67C42.986 106.684 42.9923 106.705 43.011 106.719C43.0578 106.75 43.0828 106.58 43.0422 106.497C43.0235 106.455 42.9923 106.434 42.9735 106.445C42.9517 106.459 42.9485 106.455 42.961 106.431C42.9891 106.379 43.0422 106.379 43.0422 106.431ZM41.5873 106.597C41.5966 106.698 41.5904 106.733 41.5717 106.698C41.5436 106.65 41.5311 106.4 41.5592 106.431C41.5685 106.438 41.581 106.514 41.5873 106.597ZM43.0266 106.531C43.0609 106.587 43.0297 106.597 42.986 106.542C42.9642 106.514 42.961 106.493 42.9766 106.493C42.9923 106.493 43.0172 106.511 43.0266 106.531ZM41.6653 107.042C41.6497 107.049 41.6372 107.097 41.6372 107.146C41.6372 107.205 41.6466 107.222 41.6622 107.198C41.6778 107.174 41.6872 107.236 41.6872 107.34C41.6841 107.614 41.631 107.479 41.6247 107.184C41.6247 107.056 41.6123 106.958 41.6029 106.965C41.5935 106.972 41.5842 106.927 41.5842 106.865L41.581 106.754L41.6372 106.892C41.6653 106.969 41.6778 107.035 41.6653 107.042ZM42.7612 106.958C42.7612 106.969 42.7487 106.986 42.73 106.997C42.7144 107.007 42.6988 107 42.6988 106.983C42.6988 106.962 42.7144 106.945 42.73 106.945C42.7487 106.945 42.7612 106.951 42.7612 106.958ZM42.9798 106.993C42.9798 107.059 42.9267 107.094 42.9017 107.049C42.8923 107.031 42.9017 107.014 42.9236 107.014C42.9517 107.014 42.9517 107.004 42.9173 106.979C42.8767 106.951 42.8799 106.945 42.9267 106.945C42.9548 106.945 42.9798 106.965 42.9798 106.993ZM42.7924 107.097C42.7924 107.17 42.858 107.205 42.8892 107.149C42.908 107.115 42.9142 107.125 42.908 107.177C42.9048 107.24 42.8892 107.25 42.8268 107.233C42.7737 107.219 42.7581 107.226 42.7737 107.253C42.7862 107.274 42.8205 107.292 42.8486 107.295C42.883 107.295 42.8861 107.302 42.8611 107.316C42.8424 107.323 42.8299 107.347 42.8393 107.361C42.8486 107.378 42.8424 107.399 42.8237 107.413C42.808 107.424 42.7924 107.417 42.7924 107.399C42.7924 107.378 42.7768 107.361 42.7581 107.361C42.7425 107.361 42.7362 107.375 42.7456 107.396C42.7799 107.458 42.7893 107.58 42.7643 107.632C42.7456 107.667 42.7331 107.67 42.7175 107.642C42.705 107.621 42.7081 107.604 42.7206 107.604C42.7362 107.604 42.7487 107.573 42.7487 107.535C42.7487 107.496 42.7362 107.465 42.7206 107.465C42.7081 107.465 42.705 107.399 42.7144 107.316C42.7269 107.236 42.7362 107.142 42.7394 107.108C42.7456 107.038 42.7924 107.028 42.7924 107.097ZM41.6903 107.802C41.6809 107.837 41.6747 107.809 41.6747 107.743C41.6747 107.677 41.6809 107.649 41.6903 107.68C41.6966 107.715 41.6966 107.771 41.6903 107.802ZM42.6457 107.809C42.6582 107.812 42.6675 107.844 42.6675 107.885C42.6675 107.927 42.6551 107.944 42.6332 107.93C42.6113 107.916 42.6051 107.93 42.6176 107.979C42.6301 108.021 42.6207 108.055 42.5957 108.066C42.5489 108.083 42.5489 108.003 42.5895 107.864C42.602 107.816 42.5957 107.823 42.5614 107.882C42.499 107.996 42.499 108.08 42.5676 108.121C42.5989 108.142 42.6051 108.159 42.5801 108.159C42.5583 108.159 42.5458 108.173 42.5551 108.191C42.5676 108.208 42.5583 108.267 42.5395 108.323C42.5177 108.375 42.499 108.454 42.4927 108.5C42.4896 108.545 42.4709 108.6 42.4552 108.621C42.4396 108.645 42.4084 108.753 42.3866 108.861C42.3647 108.975 42.3272 109.062 42.3054 109.062C42.2835 109.062 42.2742 109.034 42.2835 108.996C42.2929 108.961 42.2835 108.92 42.2648 108.909C42.2429 108.892 42.2398 108.906 42.2523 108.947C42.2617 108.982 42.2585 108.999 42.2429 108.982C42.2273 108.965 42.2148 108.906 42.2117 108.843L42.2055 108.736L42.2648 108.822C42.3147 108.892 42.3272 108.899 42.3553 108.854C42.4022 108.774 42.3928 108.75 42.3241 108.75C42.2898 108.75 42.2523 108.725 42.2398 108.697C42.2117 108.611 42.2617 108.586 42.3147 108.663C42.3553 108.718 42.3616 108.722 42.346 108.67C42.3304 108.628 42.3428 108.611 42.3866 108.611C42.4521 108.611 42.4584 108.583 42.4552 108.357C42.4552 108.274 42.4646 108.236 42.4865 108.25C42.5114 108.267 42.5146 108.246 42.499 108.191C42.449 107.986 42.4428 107.916 42.4771 107.916C42.5052 107.916 42.5052 107.899 42.4802 107.847C42.449 107.781 42.4521 107.778 42.5333 107.792C42.5801 107.798 42.6301 107.809 42.6457 107.809ZM41.8652 108.08C41.8745 108.097 41.8402 108.107 41.7902 108.107C41.7403 108.107 41.6997 108.097 41.6997 108.08C41.6997 108.066 41.734 108.055 41.7746 108.055C41.8183 108.055 41.8589 108.066 41.8652 108.08ZM41.8246 108.139C41.8246 108.146 41.8027 108.163 41.7746 108.173C41.7496 108.184 41.7371 108.18 41.7465 108.159C41.7652 108.125 41.8246 108.111 41.8246 108.139ZM41.8558 108.375C41.8558 108.548 41.8808 108.538 41.8933 108.357C41.9057 108.156 41.937 108.208 41.9432 108.437C41.9463 108.552 41.937 108.645 41.9245 108.645C41.912 108.645 41.8995 108.677 41.8964 108.715C41.8933 108.753 41.9026 108.777 41.9182 108.767C41.9307 108.756 41.9401 108.777 41.9338 108.809C41.9276 108.843 41.9214 108.885 41.9214 108.899C41.9182 108.916 41.9057 108.916 41.887 108.906C41.8339 108.871 41.8527 108.93 41.912 108.982C41.9401 109.01 41.9463 109.024 41.9276 109.01C41.9057 108.999 41.887 109.003 41.887 109.017C41.887 109.034 41.9057 109.069 41.9276 109.093C41.9588 109.131 41.9588 109.138 41.9276 109.117C41.9057 109.104 41.887 109.104 41.8839 109.121C41.8839 109.135 41.8776 109.18 41.8714 109.215C41.8652 109.253 41.8745 109.308 41.8901 109.336C41.9151 109.381 41.9182 109.378 41.9057 109.322C41.8964 109.284 41.9026 109.229 41.9182 109.201C41.9401 109.166 41.9494 109.229 41.9463 109.409C41.9432 109.551 41.9557 109.708 41.9744 109.756C41.9932 109.805 42.0088 109.819 42.0088 109.791C42.0119 109.756 42.0462 109.732 42.1087 109.728C42.1618 109.725 42.1961 109.732 42.1867 109.749C42.1774 109.767 42.1337 109.982 42.0899 110.225C42.0056 110.69 41.9838 110.773 41.9775 110.603C41.9744 110.495 41.9682 110.44 41.9338 110.221C41.9214 110.131 41.9245 110.069 41.9432 110.055C41.9651 110.041 41.9713 110.065 41.9619 110.121C41.9557 110.169 41.9588 110.235 41.9744 110.266C41.9994 110.315 42.0056 110.312 42.0213 110.263C42.0337 110.228 42.0306 110.211 42.0119 110.225C41.9932 110.235 41.9807 110.228 41.9807 110.211C41.9807 110.19 41.9963 110.173 42.0181 110.173C42.0462 110.173 42.0462 110.162 42.0213 110.134C41.9775 110.086 42.0056 109.989 42.0525 110.023C42.0712 110.034 42.0743 110.027 42.0618 110.006C42.0494 109.982 42.0525 109.964 42.0681 109.964C42.0837 109.964 42.1056 109.916 42.1118 109.86C42.1305 109.721 42.0962 109.728 42.0431 109.878C42.0181 109.944 41.99 109.999 41.9775 109.999C41.937 109.999 41.8808 109.898 41.8964 109.853C41.9089 109.826 41.9151 109.829 41.9151 109.867C41.9182 109.902 41.9338 109.93 41.9494 109.93C41.9963 109.93 41.9869 109.874 41.9307 109.812C41.8933 109.77 41.8933 109.756 41.9245 109.756C41.9557 109.756 41.9526 109.746 41.9182 109.721C41.8933 109.704 41.8839 109.687 41.8995 109.687C41.9151 109.687 41.912 109.666 41.8964 109.642C41.8776 109.621 41.862 109.576 41.862 109.548C41.8558 109.409 41.8246 109.093 41.7933 108.906C41.759 108.684 41.7528 108.448 41.7777 108.479C41.7871 108.489 41.7996 108.552 41.8027 108.621C41.809 108.691 41.8214 108.76 41.8339 108.774C41.8558 108.798 41.8308 108.326 41.8058 108.236C41.7996 108.212 41.809 108.201 41.8246 108.212C41.8433 108.222 41.8558 108.298 41.8558 108.375ZM41.7528 108.409C41.7434 108.434 41.7371 108.416 41.7371 108.368C41.7371 108.319 41.7434 108.302 41.7528 108.323C41.759 108.347 41.759 108.389 41.7528 108.409ZM42.2617 109.235C42.2773 109.246 42.2773 109.308 42.2648 109.374C42.2429 109.496 42.2429 109.496 42.2242 109.399C42.2148 109.343 42.2211 109.305 42.2398 109.305C42.2617 109.305 42.2617 109.291 42.2367 109.263C42.2148 109.239 42.2023 109.19 42.2023 109.149C42.2055 109.079 42.2055 109.079 42.2211 109.149C42.2304 109.187 42.2492 109.225 42.2617 109.235ZM59.0121 114.65C63.3363 114.911 67.392 116.299 71.0543 118.767C74.7041 121.232 77.8325 124.807 79.9743 128.969C82.9403 134.727 83.9925 141.52 82.9403 148.095C82.1817 152.846 80.2959 157.404 77.5577 161.111C76.7834 162.159 75.5314 163.603 74.6853 164.423C70.7264 168.265 66.0838 170.601 60.9947 171.313C59.777 171.486 59.2025 171.521 57.7476 171.521C55.9805 171.521 54.9064 171.424 53.2517 171.108C49.1023 170.313 45.1372 168.335 41.8308 165.408C40.4009 164.141 38.9241 162.513 37.7814 160.941C34.8059 156.838 32.9108 151.895 32.3207 146.689C32.1646 145.335 32.1334 144.696 32.1334 143.079C32.1334 141.461 32.1646 140.823 32.3207 139.469C32.967 133.755 35.14 128.448 38.6087 124.113C39.0739 123.529 39.9794 122.512 40.4852 122.006C44.6002 117.868 49.6768 115.362 55.1718 114.755C56.3988 114.619 57.8381 114.581 59.0121 114.65Z" fill="#91B3FA"/>
<path d="M46.0078 102.315C46.0078 102.332 46.0236 102.339 46.0393 102.329C46.0582 102.318 46.0708 102.301 46.0708 102.29C46.0708 102.283 46.0582 102.276 46.0393 102.276C46.0236 102.276 46.0078 102.294 46.0078 102.315Z" fill="#91B3FA"/>
<path d="M45.5246 102.625C45.5152 102.639 45.5277 102.677 45.5527 102.705C45.5902 102.743 45.5902 102.764 45.5621 102.802C45.5402 102.83 45.5683 102.813 45.6183 102.764C45.6713 102.715 45.7182 102.67 45.7275 102.663C45.7369 102.656 45.7182 102.66 45.6901 102.67C45.6588 102.684 45.6339 102.677 45.6339 102.663C45.6339 102.618 45.5464 102.587 45.5246 102.625Z" fill="#91B3FA"/>
<path d="M45.1233 103.269C45.0515 103.349 45.0609 103.374 45.1358 103.301C45.1701 103.266 45.1982 103.231 45.1982 103.224C45.1982 103.2 45.1701 103.217 45.1233 103.269Z" fill="#91B3FA"/>
<path d="M42.047 103.489C42.0218 103.507 42.0186 103.528 42.0375 103.542C42.0533 103.552 42.0753 103.538 42.0879 103.51C42.1068 103.451 42.1068 103.447 42.047 103.489Z" fill="#91B3FA"/>
<path d="M41.3794 104.186C41.37 104.225 41.3763 104.256 41.3919 104.256C41.4075 104.256 41.42 104.225 41.42 104.186C41.42 104.148 41.4137 104.117 41.4075 104.117C41.4013 104.117 41.3888 104.148 41.3794 104.186Z" fill="#91B3FA"/>
<path d="M44.5174 103.974C44.4828 103.999 44.4828 104.006 44.5237 104.023C44.5552 104.037 44.5741 104.027 44.5741 103.995C44.5741 103.936 44.571 103.936 44.5174 103.974Z" fill="#91B3FA"/>
<path d="M56.328 117.485C51.5542 117.815 46.9802 119.769 43.3086 123.049C42.3813 123.875 41.1356 125.194 40.4018 126.124C35.1098 132.824 33.3145 142.05 35.6437 150.575C36.3961 153.334 37.6169 156.025 39.153 158.329C43.2586 164.473 49.3937 168.194 56.2812 168.715C56.9524 168.767 58.5603 168.767 59.216 168.718C63.7931 168.364 68.0049 166.636 71.5954 163.63C75.5793 160.294 78.4704 155.66 79.8691 150.37C81.3397 144.799 81.0868 138.912 79.1417 133.518C78.3299 131.258 77.1403 128.999 75.751 127.079C75.0079 126.048 73.8215 124.66 72.9847 123.847C69.082 120.036 64.2552 117.839 58.9975 117.481C58.4074 117.443 56.9275 117.443 56.328 117.485ZM58.4667 123.66C62.4287 123.872 66.013 125.423 69.0196 128.235C69.5348 128.717 70.6993 130.019 71.1239 130.585C73.5811 133.875 74.9392 137.642 75.2046 141.901C75.2483 142.623 75.2233 144.257 75.1546 144.973C74.9267 147.42 74.346 149.659 73.3937 151.776C72.7787 153.147 72.0419 154.393 71.1302 155.611C70.7118 156.167 69.5441 157.465 69.0196 157.954C66.1004 160.683 62.5817 162.255 58.7945 162.526C57.9859 162.585 56.634 162.547 55.8285 162.446C51.2826 161.87 47.2331 159.461 44.3139 155.594C41.9411 152.449 40.5236 148.503 40.2676 144.33C40.2332 143.754 40.2489 141.984 40.2926 141.484C40.5392 138.738 41.1512 136.395 42.2065 134.143C44.0485 130.203 47.1488 127.003 50.833 125.229C52.7313 124.313 54.9074 123.754 56.8744 123.67C57.1585 123.66 57.3958 123.646 57.402 123.639C57.4239 123.618 57.7923 123.625 58.4667 123.66Z" fill="#91B3FA"/>
<path d="M47.4693 101.259C47.4914 101.27 47.5197 101.266 47.5291 101.256C47.5417 101.245 47.5228 101.235 47.4882 101.238C47.4536 101.238 47.4441 101.249 47.4693 101.259Z" fill="#91B3FA"/>
<path d="M47.3463 101.296C47.3683 101.306 47.3966 101.303 47.4061 101.292C47.4187 101.282 47.3998 101.271 47.3652 101.275C47.3305 101.275 47.3211 101.285 47.3463 101.296Z" fill="#91B3FA"/>
<path d="M46.586 101.516C46.5734 101.537 46.5703 101.558 46.5797 101.568C46.586 101.579 46.6018 101.561 46.6112 101.53C46.6332 101.47 46.6143 101.46 46.586 101.516Z" fill="#91B3FA"/>
<path d="M46.4602 101.581C46.4728 101.602 46.4948 101.609 46.5105 101.598C46.5546 101.567 46.5452 101.546 46.4885 101.546C46.4633 101.546 46.4507 101.563 46.4602 101.581Z" fill="#91B3FA"/>
<path d="M45.7434 101.825C45.7529 101.842 45.7781 101.86 45.7938 101.86C45.8127 101.86 45.8159 101.842 45.8064 101.825C45.797 101.804 45.7718 101.79 45.756 101.79C45.7371 101.79 45.734 101.804 45.7434 101.825Z" fill="#91B3FA"/>
<path d="M45.586 101.863C45.5734 101.884 45.5703 101.905 45.5797 101.916C45.586 101.926 45.6018 101.909 45.6112 101.877C45.6332 101.818 45.6143 101.807 45.586 101.863Z" fill="#91B3FA"/>
<path d="M44.534 102.376C44.5215 102.418 44.5277 102.446 44.5434 102.432C44.559 102.421 44.5715 102.432 44.5715 102.453C44.5715 102.473 44.5871 102.48 44.6058 102.466C44.6277 102.453 44.6277 102.435 44.612 102.421C44.5933 102.411 44.5746 102.376 44.5652 102.348C44.5558 102.314 44.5465 102.321 44.534 102.376Z" fill="#91B3FA"/>
<path d="M131.731 2.31885H93.4762C90.5467 2.31885 88.1719 4.95908 88.1719 8.21598V94.9971C88.1719 98.254 90.5467 100.894 93.4762 100.894H131.731C134.661 100.894 137.036 98.254 137.036 94.9971V8.21598C137.036 4.95908 134.661 2.31885 131.731 2.31885Z" fill="white"/>
<path d="M131.732 102.425H93.4768C91.7058 102.423 90.0079 101.639 88.7556 100.247C87.5034 98.8549 86.7989 96.9673 86.7969 94.9984V8.21746C86.7989 6.24855 87.5034 4.36094 88.7556 2.9687C90.0079 1.57647 91.7058 0.793309 93.4768 0.791016H131.732C133.503 0.793309 135.201 1.57647 136.453 2.9687C137.706 4.36094 138.41 6.24855 138.412 8.21746V94.9984C138.41 96.9673 137.705 98.855 136.453 100.247C135.201 101.639 133.503 102.423 131.732 102.425ZM93.4768 3.84929C92.4353 3.85076 91.4368 4.31137 90.7004 5.13011C89.964 5.94886 89.5497 7.05889 89.5483 8.21677V94.9984C89.5496 96.1562 89.9639 97.2663 90.7004 98.0851C91.4368 98.9038 92.4353 99.3644 93.4768 99.3658H131.732C132.774 99.3644 133.772 98.9038 134.509 98.0851C135.245 97.2663 135.659 96.1562 135.661 94.9984V8.21746C135.659 7.05958 135.245 5.94955 134.509 5.13081C133.772 4.31207 132.774 3.85145 131.732 3.84998L93.4768 3.84929Z" fill="#4F52FF"/>
<path d="M104.229 2.31885H120.981V5.93242C120.981 6.28763 120.918 6.63936 120.796 6.96753C120.674 7.2957 120.494 7.59389 120.268 7.84506C120.043 8.09623 119.774 8.29548 119.479 8.43141C119.184 8.56734 118.868 8.63731 118.548 8.63731H106.661C106.016 8.63731 105.397 8.35233 104.941 7.84506C104.485 7.3378 104.229 6.6498 104.229 5.93242V2.31885H104.229Z" fill="#4F52FF"/>
<path d="M111.242 67.0581H96.1504V74.2419H111.242V67.0581Z" fill="#FF837B"/>
<path d="M129.058 67.0581H113.967V74.2419H129.058V67.0581Z" fill="#C1D8ED"/>
<path d="M123.494 34.4975C123.498 37.6279 122.407 40.6373 120.451 42.8893C118.982 39.2411 116.019 36.7506 112.607 36.7506C109.191 36.7506 106.228 39.2445 104.759 42.8928C103.523 41.4654 102.621 39.7227 102.132 37.8174C101.644 35.9122 101.583 33.9027 101.956 31.9653C102.328 30.0279 103.123 28.2217 104.27 26.7053C105.417 25.1889 106.881 24.0086 108.533 23.2679C110.186 22.5273 111.977 22.2489 113.75 22.4573C115.522 22.6656 117.221 23.3543 118.698 24.4629C120.175 25.5716 121.384 27.0662 122.221 28.8158C123.057 30.5653 123.494 32.5163 123.494 34.4975Z" fill="#C1D8ED"/>
<path d="M112.604 35.7436C114.985 35.7436 116.915 33.5978 116.915 30.9507C116.915 28.3036 114.985 26.1577 112.604 26.1577C110.223 26.1577 108.293 28.3036 108.293 30.9507C108.293 33.5978 110.223 35.7436 112.604 35.7436Z" fill="#DFE7FE"/>
<path d="M120.45 42.8892C119.434 44.0633 118.216 44.9975 116.868 45.6357C115.52 46.2738 114.07 46.6029 112.604 46.6033C111.139 46.6036 109.689 46.2751 108.341 45.6375C106.992 44.9999 105.774 44.0664 104.758 42.8927C106.226 39.2445 109.19 36.7505 112.605 36.7505C116.018 36.7505 118.981 39.241 120.45 42.8892Z" fill="#DFE7FE"/>
<path d="M129.057 51.394H96.1504V52.8558H129.057V51.394Z" fill="#DFE7FE"/>
<path d="M129.057 55.3706H96.1504V56.8323H129.057V55.3706Z" fill="#DFE7FE"/>
<path d="M111.242 59.4839H96.1504V60.9456H111.242V59.4839Z" fill="#DFE7FE"/>
<path d="M228.682 133.633L226.539 134.259L241.568 197.79L243.711 197.163L228.682 133.633Z" fill="#91B3FA"/>
<path d="M202.046 133.756L193.084 197.286L195.273 197.668L204.235 134.137L202.046 133.756Z" fill="#91B3FA"/>
<path d="M230.693 73.0039C230.693 73.0039 248.997 71.7188 248.997 89.498C248.997 107.277 246.301 132.125 232.813 134.91C219.324 137.695 199.399 136.855 194.773 135.983C189.089 134.912 186.611 120.254 194.182 119.273C215.665 116.488 205.26 74.9319 230.693 73.0039Z" fill="#91B3FA"/>
<path d="M234.808 47.3496C234.864 41.2449 232.694 37.4619 229.752 35.3849C226.848 33.3353 217.744 31.5514 214.292 38.9917C212.039 43.8462 212.929 45.5817 212.291 53.3578C211.653 61.1339 209.201 61.9493 206.714 71.3743C204.765 78.7673 215.688 82.6923 225.146 82.3532C234.604 82.0141 240.601 79.6845 241.15 72.9972C241.939 63.3986 234.697 59.3131 234.808 47.3496Z" fill="#0F1011"/>
<path d="M229.173 64.2308C229.173 64.2308 226.331 62.5184 227.04 53.8805L221.15 52.604C221.15 52.604 221.749 60.3612 218.744 62.7914L229.173 64.2308Z" fill="#FFCCC6"/>
<g opacity="0.15">
<path opacity="0.15" d="M219.967 61.1794L224.902 57.0606L221.054 56.9785C220.93 58.4418 220.561 59.8665 219.967 61.1794Z" fill="#141226"/>
</g>
<path d="M230.415 50.5559C229.985 53.1745 228.677 55.6449 226.589 56.4709C224.313 57.4488 221.856 57.7924 219.432 57.4719C212.978 56.8174 214.391 40.5036 217.483 37.3636C220.576 34.2236 229.559 36.3236 230.609 41.6392C231.153 44.39 230.824 48.065 230.415 50.5559Z" fill="#FFCCC6"/>
<path d="M221.199 48.4449C221.495 48.4449 221.734 48.1784 221.734 47.8497C221.734 47.5209 221.495 47.2544 221.199 47.2544C220.904 47.2544 220.664 47.5209 220.664 47.8497C220.664 48.1784 220.904 48.4449 221.199 48.4449Z" fill="#0F1011"/>
<path d="M216.98 48.0167C217.276 48.0167 217.516 47.7502 217.516 47.4214C217.516 47.0927 217.276 46.8262 216.98 46.8262C216.685 46.8262 216.445 47.0927 216.445 47.4214C216.445 47.7502 216.685 48.0167 216.98 48.0167Z" fill="#0F1011"/>
<path d="M216.066 46.144C216.001 46.1413 215.94 46.1106 215.894 46.0585C215.849 46.0064 215.824 45.9368 215.824 45.8645C215.824 45.7921 215.849 45.7226 215.894 45.6705C215.94 45.6184 216.001 45.5877 216.066 45.5849L217.484 45.5796C217.549 45.5824 217.61 45.613 217.655 45.6652C217.7 45.7173 217.726 45.7868 217.726 45.8591C217.726 45.9315 217.7 46.001 217.655 46.0531C217.61 46.1053 217.549 46.1359 217.484 46.1387L216.066 46.144Z" fill="#0F1011"/>
<path d="M222.365 46.7838C222.344 46.7837 222.324 46.7808 222.304 46.7751L220.909 46.3869C220.845 46.3689 220.789 46.323 220.755 46.2593C220.72 46.1956 220.71 46.1194 220.726 46.0474C220.742 45.9754 220.784 45.9135 220.841 45.8753C220.898 45.8371 220.967 45.8258 221.032 45.8438L222.426 46.2325C222.486 46.2489 222.538 46.2891 222.573 46.3454C222.607 46.4017 222.623 46.4703 222.615 46.5381C222.608 46.606 222.578 46.6685 222.532 46.7137C222.486 46.759 222.426 46.7839 222.365 46.7838Z" fill="#0F1011"/>
<path d="M220.912 52.5315C220.912 52.5315 218.935 52.743 217.555 52.1909C217.555 52.1909 217.555 53.6382 219.116 53.7964C220.677 53.9545 220.912 52.5315 220.912 52.5315Z" fill="white"/>
<path d="M226.125 43.7209C225.682 49.8644 226.236 56.0464 227.758 61.9726C227.758 61.9726 232.338 53.3918 233.101 46.2126C233.815 39.4818 229.381 35.4586 226.37 34.6782C214.929 31.711 214.135 40.989 214.135 40.989C214.873 44.1536 227.364 46.1173 227.364 46.1173" fill="#0F1011"/>
<path d="M223.877 50.4427C223.822 51.1087 224.008 51.7717 224.393 52.2856C224.778 52.7996 225.33 53.1224 225.929 53.1832C226.529 53.244 227.125 53.0376 227.587 52.6096C228.049 52.1816 228.34 51.5669 228.395 50.9009C228.427 50.57 228.399 50.2353 228.312 49.9167C228.226 49.5981 228.083 49.3022 227.891 49.0464C227.699 48.7907 227.464 48.5805 227.197 48.4282C226.931 48.276 226.64 48.1849 226.342 48.1603C224.725 48.0852 223.99 49.0554 223.877 50.4427Z" fill="#FFCCC6"/>
<g opacity="0.15">
<path opacity="0.15" d="M218.796 51.123C218.84 51.1229 218.883 51.1053 218.916 51.0735C218.95 51.0417 218.972 50.9976 218.979 50.9493C218.985 50.901 218.976 50.8516 218.953 50.81C218.93 50.7683 218.894 50.7373 218.853 50.7223L217.767 50.3396L218.543 48.4625C218.562 48.4134 218.562 48.358 218.545 48.3081C218.528 48.2583 218.494 48.2179 218.45 48.1956C218.406 48.1732 218.357 48.1707 218.311 48.1885C218.266 48.2063 218.229 48.243 218.207 48.2909L217.343 50.3791C217.332 50.4054 217.326 50.4341 217.326 50.4631C217.326 50.4922 217.331 50.521 217.342 50.5476C217.352 50.5742 217.368 50.5981 217.387 50.6176C217.406 50.6371 217.429 50.6518 217.454 50.6607L218.738 51.1123C218.757 51.1193 218.777 51.1229 218.796 51.123Z" fill="#141226"/>
</g>
<path d="M177.831 88.7953C177.831 88.7953 168.676 86.3795 164.783 90.6478C164.684 90.7567 164.617 90.8962 164.591 91.0481C164.564 91.2 164.58 91.3573 164.635 91.4994C164.69 91.6415 164.782 91.7618 164.9 91.8447C165.017 91.9276 165.154 91.9692 165.294 91.964C167.479 91.877 170.454 92.0737 172.261 92.9773C171.629 93.3058 170.986 93.7262 171.13 94.0037C171.529 94.7744 177.835 94.3938 177.835 94.3938L177.831 88.7953Z" fill="#FFCCC6"/>
<path d="M200.06 185.325L192.328 185.988L193.025 196.03L200.757 195.367L200.06 185.325Z" fill="#FFCCC6"/>
<path d="M183.2 197.548C183 197.547 182.803 197.502 182.62 197.417C182.436 197.331 182.269 197.206 182.129 197.049C181.989 196.892 181.878 196.705 181.802 196.5C181.727 196.295 181.689 196.076 181.689 195.854C181.689 195.813 181.689 195.772 181.694 195.731C181.717 195.411 181.821 195.104 181.995 194.848C182.169 194.591 182.405 194.395 182.676 194.282L191.702 190.921C191.877 190.857 192.063 190.835 192.246 190.858C192.429 190.881 192.605 190.947 192.763 191.052C194.004 192.01 195.488 192.499 196.998 192.448C198.174 192.355 199.303 191.897 200.255 191.125C200.339 191.049 200.441 191.001 200.548 190.986C200.656 190.972 200.765 190.991 200.862 191.043C200.96 191.095 201.043 191.176 201.101 191.278C201.158 191.379 201.189 191.497 201.189 191.618V196.525C201.189 196.816 201.085 197.096 200.899 197.302C200.714 197.509 200.462 197.624 200.2 197.624H200.196L183.2 197.548Z" fill="#91B3FA"/>
<path d="M165.301 184.943L163.781 194.985L171.429 196.415L172.948 186.373L165.301 184.943Z" fill="#FFCCC6"/>
<path d="M161.35 189.605L174.684 114.314C175.065 112.686 175.92 111.246 177.116 110.217C178.313 109.188 179.782 108.63 181.294 108.629H218.611V108.656H239.516V115.779C239.516 117.832 239.152 119.866 238.445 121.763C237.739 123.66 236.703 125.384 235.397 126.836C234.091 128.288 232.54 129.44 230.834 130.226C229.127 131.012 227.298 131.416 225.451 131.416H215.255V131.461H197.455L202.356 189.398L188.752 190.82L184.382 136.849L174.574 191.785L161.35 189.605Z" fill="#4F52FF"/>
<path d="M195.204 99.6421H208.618C207.827 104.379 206.821 106.369 207.859 109.018C209.406 112.972 239.81 114.614 240.216 107.659C240.475 103.233 236.966 99.3658 236.966 90.7439C236.966 82.122 244.105 71.1024 238.289 64.636C236.605 62.7638 233.687 61.5485 230.135 61.5444C229.869 63.8477 217.287 63.8559 217.191 61.5978C216.711 61.606 216.338 61.6183 216.105 61.6265C211.77 61.8343 209.645 63.9118 208.712 67.0128L198.852 86.6341L177.182 88.1857L177.664 95.9683L195.205 95.4855L195.204 99.6421ZM209.358 89.1016C209.363 89.6514 209.361 90.1761 209.358 90.6897H206.039L209.104 84.5887C209.243 86.1332 209.344 87.6511 209.359 89.1016H209.358Z" fill="#2F3235"/>
<path d="M217.189 61.5978C217.285 63.8559 218.393 67.1774 221.798 67.4237C226.344 67.7604 229.867 63.8477 230.133 61.5444H230.118C225.65 61.5444 219.8 61.5526 217.189 61.5978Z" fill="#FFCCC6"/>
<path d="M155.021 197.549C154.822 197.548 154.625 197.503 154.441 197.418C154.258 197.332 154.091 197.207 153.951 197.049C153.811 196.892 153.7 196.705 153.624 196.5C153.549 196.295 153.511 196.076 153.512 195.854C153.512 195.813 153.513 195.772 153.516 195.731C153.539 195.411 153.643 195.104 153.817 194.848C153.991 194.591 154.227 194.395 154.498 194.282L163.524 190.921C163.699 190.857 163.885 190.835 164.068 190.858C164.251 190.881 164.427 190.947 164.585 191.052C165.826 192.01 167.31 192.499 168.82 192.448C169.996 192.355 171.125 191.897 172.078 191.125C172.161 191.049 172.263 191.001 172.37 190.986C172.478 190.971 172.587 190.991 172.685 191.043C172.782 191.094 172.865 191.176 172.923 191.278C172.98 191.379 173.011 191.497 173.011 191.618V196.525C173.011 196.816 172.907 197.096 172.721 197.302C172.536 197.508 172.284 197.624 172.022 197.624H172.018L155.021 197.549Z" fill="#91B3FA"/>
<path d="M195.206 93.7689C195.206 93.7689 186.051 91.3531 182.158 95.6214C182.059 95.7303 181.992 95.8698 181.966 96.0217C181.939 96.1736 181.955 96.3309 182.01 96.473C182.065 96.6151 182.157 96.7355 182.275 96.8184C182.392 96.9012 182.529 96.9428 182.669 96.9377C184.854 96.8502 187.829 97.0473 189.636 97.9509C189.004 98.2794 188.361 98.6998 188.505 98.9774C188.904 99.7476 195.21 99.3674 195.21 99.3674L195.206 93.7689Z" fill="#FFCCC6"/>
<path d="M181.185 75.9386L185.669 96.8659C185.791 97.4376 185.704 98.0397 185.427 98.5401C185.15 99.0405 184.705 99.3982 184.191 99.5346C184.041 99.5748 183.886 99.595 183.731 99.595H157.294C156.857 99.5949 156.433 99.4354 156.085 99.141C155.738 98.8466 155.487 98.4336 155.371 97.9654L150.206 77.0372C150.125 76.7083 150.113 76.3629 150.171 76.0281C150.23 75.6933 150.357 75.378 150.543 75.1067C150.729 74.8355 150.969 74.6156 151.244 74.4642C151.519 74.3128 151.821 74.234 152.128 74.2339H179.246C179.695 74.2343 180.13 74.4028 180.482 74.7121C180.833 75.0214 181.081 75.4535 181.185 75.9386Z" fill="#FF837B"/>
<path d="M195.079 99.5949H163.128C162.818 99.5949 162.52 99.4577 162.3 99.2134C162.08 98.9692 161.957 98.6379 161.957 98.2925C161.957 97.9472 162.08 97.6159 162.3 97.3717C162.52 97.1274 162.818 96.9902 163.128 96.9902H195.079C195.39 96.9902 195.688 97.1274 195.908 97.3717C196.127 97.6159 196.251 97.9472 196.251 98.2925C196.251 98.6379 196.127 98.9692 195.908 99.2134C195.688 99.4577 195.39 99.5949 195.079 99.5949Z" fill="#FF837B"/>
<path d="M166.853 90.1807C168.58 90.1807 169.979 88.6245 169.979 86.7049C169.979 84.7852 168.58 83.229 166.853 83.229C165.126 83.229 163.727 84.7852 163.727 86.7049C163.727 88.6245 165.126 90.1807 166.853 90.1807Z" fill="white"/>
<path d="M78.1227 15.437H50.0008C47.8473 15.437 46.1016 17.3779 46.1016 19.7721V83.566C46.1016 85.9602 47.8473 87.901 50.0008 87.901H78.1227C80.2762 87.901 82.022 85.9602 82.022 83.566V19.7721C82.022 17.3779 80.2762 15.437 78.1227 15.437Z" fill="white"/>
<path d="M78.1221 89.0258H50.0003C48.6984 89.0241 47.4503 88.4484 46.5298 87.425C45.6092 86.4015 45.0914 85.0139 45.0898 83.5665V19.7728C45.0914 18.3254 45.6092 16.9378 46.5298 15.9143C47.4503 14.8909 48.6984 14.3152 50.0003 14.3135H78.1223C79.4242 14.3152 80.6723 14.8909 81.5929 15.9143C82.5135 16.9378 83.0313 18.3254 83.0328 19.7728V83.5665C83.0313 85.0139 82.5134 86.4016 81.5928 87.425C80.6722 88.4485 79.424 89.0242 78.1221 89.0258ZM50.0003 16.5617C49.2347 16.5627 48.5007 16.9013 47.9594 17.5032C47.418 18.1051 47.1134 18.9211 47.1125 19.7722V83.5665C47.1134 84.4177 47.418 85.2337 47.9593 85.8356C48.5007 86.4375 49.2347 86.7761 50.0003 86.7771H78.1223C78.888 86.7761 79.6219 86.4375 80.1633 85.8356C80.7047 85.2337 81.0092 84.4177 81.0102 83.5665V19.7728C81.0092 18.9216 80.7046 18.1056 80.1633 17.5037C79.6219 16.9018 78.8879 16.5632 78.1223 16.5622L50.0003 16.5617Z" fill="#91B3FA"/>
<path d="M57.9044 15.4365H70.2193V18.0929C70.2193 18.354 70.1731 18.6126 70.0832 18.8538C69.9933 19.0951 69.8616 19.3143 69.6955 19.4989C69.5294 19.6836 69.3322 19.83 69.1152 19.9299C68.8982 20.0299 68.6657 20.0813 68.4308 20.0813H59.6928C59.2185 20.0813 58.7635 19.8718 58.4281 19.4989C58.0927 19.126 57.9043 18.6203 57.9043 18.0929V15.4365H57.9044Z" fill="#91B3FA"/>
<path d="M63.0608 63.0288H51.9668V68.3097H63.0608V63.0288Z" fill="#FCDAD9"/>
<path d="M76.1565 63.0288H65.0625V68.3097H76.1565V63.0288Z" fill="#C1D8ED"/>
<path d="M72.0667 39.0917C72.0697 41.3929 71.2675 43.6051 69.8298 45.2606C68.7503 42.5787 66.5718 40.7479 64.0633 40.7479C61.5525 40.7479 59.374 42.5813 58.2945 45.2632C57.386 44.2139 56.723 42.9328 56.3637 41.5322C56.0043 40.1316 55.9597 38.6544 56.2336 37.2302C56.5075 35.806 57.0916 34.4783 57.9347 33.3635C58.7778 32.2488 59.8541 31.3812 61.0691 30.8367C62.2841 30.2922 63.6008 30.0876 64.9035 30.2408C66.2063 30.3939 67.4553 30.9002 68.541 31.7152C69.6267 32.5301 70.516 33.6289 71.1307 34.915C71.7454 36.2011 72.0668 37.6353 72.0667 39.0917Z" fill="#C1D8ED"/>
<path d="M64.0617 40.0096C65.812 40.0096 67.2309 38.4322 67.2309 36.4863C67.2309 34.5404 65.812 32.9629 64.0617 32.9629C62.3115 32.9629 60.8926 34.5404 60.8926 36.4863C60.8926 38.4322 62.3115 40.0096 64.0617 40.0096Z" fill="#DFE7FE"/>
<path d="M69.8302 45.2622C69.0836 46.1253 68.188 46.812 67.1971 47.2811C66.2061 47.7503 65.1401 47.9922 64.0631 47.9924C62.986 47.9927 61.9199 47.7512 60.9288 47.2825C59.9377 46.8138 59.0418 46.1275 58.2949 45.2647C59.3744 42.5829 61.5529 40.7495 64.0637 40.7495C66.5722 40.7495 68.7507 42.5803 69.8302 45.2622Z" fill="#DFE7FE"/>
<path d="M76.1569 51.5137H51.9668V52.5882H76.1569V51.5137Z" fill="#DFE7FE"/>
<path d="M76.1569 54.437H51.9668V55.5115H76.1569V54.437Z" fill="#DFE7FE"/>
<path d="M63.0608 57.4634H51.9668V58.5379H63.0608V57.4634Z" fill="#DFE7FE"/>
<path d="M55.6215 70.4976L56.0513 71.9683H57.4423L56.317 72.8772L56.7468 74.348L55.6215 73.439L54.4962 74.348L54.926 72.8772L53.8007 71.9683H55.1917L55.6215 70.4976Z" fill="#BDD0FB"/>
<path d="M101.806 76.8838L102.29 78.5384H103.855L102.589 79.5609L103.072 81.2155L101.806 80.1929L100.54 81.2155L101.024 79.5609L99.7578 78.5384H101.323L101.806 76.8838Z" fill="#96B7FB"/>
<path d="M60.4067 70.4976L60.8365 71.9683H62.2275L61.1022 72.8772L61.532 74.348L60.4067 73.439L59.2814 74.348L59.7112 72.8772L58.5859 71.9683H59.9768L60.4067 70.4976Z" fill="#BDD0FB"/>
<path d="M107.193 76.8838L107.676 78.5384H109.241L107.975 79.5609L108.459 81.2155L107.193 80.1929L105.927 81.2155L106.41 79.5609L105.144 78.5384H106.709L107.193 76.8838Z" fill="#96B7FB"/>
<path d="M64.7133 70.4976L65.1431 71.9683H66.5341L65.4088 72.8772L65.8386 74.348L64.7133 73.439L63.588 74.348L64.0178 72.8772L62.8925 71.9683H64.2835L64.7133 70.4976Z" fill="#BDD0FB"/>
<path d="M112.039 76.8838L112.522 78.5384H114.087L112.821 79.5609L113.305 81.2155L112.039 80.1929L110.773 81.2155L111.256 79.5609L109.99 78.5384H111.555L112.039 76.8838Z" fill="#96B7FB"/>
<path d="M69.0219 70.4976L69.4517 71.9683H70.8427L69.7174 72.8772L70.1472 74.348L69.0219 73.439L67.8966 74.348L68.3264 72.8772L67.2011 71.9683H68.5921L69.0219 70.4976Z" fill="#BDD0FB"/>
<path d="M116.884 76.8838L117.368 78.5384H118.933L117.667 79.5609L118.15 81.2155L116.884 80.1929L115.618 81.2155L116.102 79.5609L114.836 78.5384H116.401L116.884 76.8838Z" fill="#96B7FB"/>
<path d="M73.3286 70.4976L73.7584 71.9683H75.1493L74.024 72.8772L74.4539 74.348L73.3286 73.439L72.2032 74.348L72.6331 72.8772L71.5078 71.9683H72.8987L73.3286 70.4976Z" fill="#BDD0FB"/>
<path d="M121.73 76.8838L122.214 78.5384H123.778L122.512 79.5609L122.996 81.2155L121.73 80.1929L120.464 81.2155L120.948 79.5609L119.682 78.5384H121.246L121.73 76.8838Z" fill="#96B7FB"/>
<path d="M160.211 119.513C160.211 119.519 160.216 119.521 160.221 119.518C160.227 119.514 160.231 119.509 160.231 119.506C160.231 119.504 160.227 119.502 160.221 119.502C160.216 119.502 160.211 119.507 160.211 119.513Z" fill="#D5D6FF"/>
<path d="M160.054 119.613C160.051 119.618 160.055 119.63 160.063 119.64C160.075 119.652 160.075 119.659 160.066 119.671C160.059 119.681 160.068 119.675 160.084 119.659C160.102 119.643 160.117 119.628 160.12 119.626C160.123 119.624 160.117 119.625 160.108 119.628C160.098 119.633 160.09 119.63 160.09 119.626C160.09 119.611 160.061 119.601 160.054 119.613Z" fill="#D5D6FF"/>
<path d="M159.923 119.822C159.899 119.849 159.902 119.857 159.927 119.833C159.938 119.821 159.947 119.81 159.947 119.807C159.947 119.799 159.938 119.805 159.923 119.822Z" fill="#D5D6FF"/>
<path d="M158.923 119.893C158.915 119.899 158.914 119.905 158.92 119.91C158.925 119.913 158.932 119.909 158.936 119.9C158.942 119.88 158.942 119.879 158.923 119.893Z" fill="#D5D6FF"/>
<path d="M158.707 120.12C158.703 120.133 158.706 120.143 158.711 120.143C158.716 120.143 158.72 120.133 158.72 120.12C158.72 120.107 158.718 120.097 158.716 120.097C158.714 120.097 158.71 120.107 158.707 120.12Z" fill="#D5D6FF"/>
<path d="M159.727 120.05C159.716 120.058 159.716 120.06 159.729 120.066C159.739 120.07 159.745 120.067 159.745 120.057C159.745 120.037 159.744 120.037 159.727 120.05Z" fill="#D5D6FF"/>
<path d="M160.686 119.17C160.693 119.173 160.703 119.172 160.706 119.169C160.71 119.166 160.704 119.163 160.692 119.164C160.681 119.164 160.678 119.167 160.686 119.17Z" fill="#D5D6FF"/>
<path d="M160.645 119.179C160.652 119.182 160.662 119.181 160.665 119.178C160.669 119.176 160.663 119.173 160.651 119.174C160.64 119.174 160.637 119.177 160.645 119.179Z" fill="#D5D6FF"/>
<path d="M160.398 119.252C160.394 119.259 160.393 119.266 160.396 119.269C160.398 119.272 160.403 119.267 160.407 119.257C160.414 119.237 160.408 119.234 160.398 119.252Z" fill="#D5D6FF"/>
<path d="M160.358 119.275C160.363 119.281 160.37 119.283 160.375 119.28C160.389 119.27 160.386 119.264 160.368 119.264C160.359 119.264 160.355 119.269 160.358 119.275Z" fill="#D5D6FF"/>
<path d="M160.125 119.353C160.128 119.358 160.136 119.364 160.141 119.364C160.147 119.364 160.148 119.358 160.145 119.353C160.142 119.346 160.134 119.342 160.129 119.342C160.123 119.342 160.122 119.346 160.125 119.353Z" fill="#D5D6FF"/>
<path d="M160.074 119.365C160.07 119.372 160.069 119.379 160.072 119.382C160.074 119.386 160.079 119.38 160.082 119.37C160.089 119.35 160.083 119.347 160.074 119.365Z" fill="#D5D6FF"/>
<path d="M159.733 119.532C159.729 119.546 159.731 119.555 159.736 119.55C159.741 119.547 159.745 119.55 159.745 119.557C159.745 119.564 159.75 119.566 159.756 119.562C159.763 119.557 159.763 119.551 159.758 119.547C159.752 119.543 159.746 119.532 159.743 119.523C159.74 119.511 159.737 119.514 159.733 119.532Z" fill="#D5D6FF"/>
</svg>
