<svg width="260" height="198" viewBox="0 0 260 198" fill="none" xmlns="http://www.w3.org/2000/svg">
<path d="M15.1263 197.79C5.1818 197.79 -2.03585 184.792 0.517299 171.538C3.87191 154.126 8.40884 141.997 28.568 127.977C46.0443 115.809 60.0539 97.9763 68.8627 76.6874C81.317 46.6033 87.3678 18.6392 110.768 18.6392C145.395 18.6392 145.577 55.2237 155.901 58.9442C166.225 62.6646 200.832 51.6157 208.562 84.2289C222.852 144.515 242.033 115.452 256.919 161.876C257.849 164.804 258.65 167.784 259.319 170.806C262.318 184.212 255.037 197.79 244.862 197.79L15.1263 197.79Z" fill="#ECF3F9"/>
<path d="M91.4998 48.1013C91.4116 48.3078 91.3228 48.5137 91.3036 48.5594C91.2164 48.7627 91.137 48.9471 91.1001 49.0345C91.0778 49.0865 91.0591 49.1302 91.0586 49.1315C91.0575 49.1327 90.8182 49.1403 90.3059 49.1549C90.2374 49.1568 90.0884 49.1612 89.9742 49.165C89.8605 49.1682 89.7671 49.1708 89.766 49.1695C89.765 49.1676 89.588 48.802 89.4509 48.5182C89.2319 48.0645 89.1031 47.7991 89.1026 47.7984C89.1021 47.7978 89.0455 47.8143 88.9775 47.8352C88.8825 47.8637 88.8514 47.8757 88.8457 47.8852C88.842 47.8916 88.8363 47.896 88.8337 47.8941C88.8311 47.8916 88.8291 47.8935 88.8291 47.8973C88.8291 47.9017 88.8254 47.9036 88.8213 47.9011C88.8171 47.8992 88.8135 47.9011 88.8135 47.9055C88.8135 47.9112 88.8124 47.9112 88.8093 47.9055C88.8036 47.8941 88.7906 47.8928 88.7901 47.9036C88.7901 47.9087 88.7875 47.9131 88.7839 47.9131C88.7803 47.9131 88.7745 47.9169 88.7714 47.9207C88.7621 47.9321 88.7694 47.9309 88.7886 47.9188C88.7969 47.9131 88.8026 47.9118 88.801 47.915C88.7995 47.9182 88.786 47.9289 88.7709 47.9385C88.7559 47.948 88.7361 47.9632 88.7273 47.9714C88.7133 47.9841 88.7107 47.9847 88.7076 47.9765C88.706 47.9708 88.7065 47.9676 88.7086 47.9695C88.7112 47.9714 88.7133 47.9689 88.7133 47.9644C88.7133 47.9594 88.7091 47.9575 88.704 47.9587C88.6967 47.9613 88.6956 47.9587 88.6977 47.948C88.6993 47.9404 88.7024 47.9366 88.704 47.9404C88.7081 47.948 88.7315 47.9549 88.7273 47.9473C88.7258 47.9442 88.7268 47.9416 88.7299 47.9416C88.7325 47.9416 88.7356 47.9448 88.7367 47.9492C88.7382 47.9549 88.7398 47.9549 88.7429 47.9492C88.745 47.9448 88.7439 47.9416 88.7413 47.9416C88.7382 47.9416 88.7356 47.9391 88.7356 47.9359C88.7356 47.9321 88.7403 47.9309 88.7455 47.9321C88.7569 47.9347 88.7642 47.9194 88.7553 47.9125C88.7522 47.9099 88.7512 47.9106 88.7527 47.9144C88.7548 47.9182 88.7527 47.9226 88.7486 47.9245C88.7439 47.927 88.7424 47.9251 88.7444 47.9188C88.746 47.9144 88.7444 47.9099 88.7413 47.9099C88.7382 47.9099 88.7356 47.9144 88.7356 47.9194C88.7356 47.934 88.7138 47.9429 88.706 47.9309C88.7008 47.9232 88.6998 47.9239 88.6967 47.9347C88.6951 47.9423 88.6905 47.948 88.6868 47.948C88.6827 47.948 88.6759 47.9543 88.6712 47.9619C88.6671 47.9701 88.6645 47.972 88.6661 47.9663C88.6676 47.96 88.6661 47.9537 88.6624 47.9505C88.6588 47.948 88.6572 47.9486 88.6593 47.9518C88.6609 47.9549 88.6552 47.9581 88.6469 47.9581C88.6349 47.9587 88.6328 47.9575 88.637 47.9511C88.6417 47.9442 88.6406 47.9435 88.6318 47.9461C88.6261 47.948 88.6199 47.9518 88.6188 47.9549C88.6173 47.9575 88.6121 47.9581 88.6069 47.9562C88.6001 47.9537 88.6001 47.9549 88.6084 47.9625C88.6173 47.9714 88.6178 47.9727 88.61 47.9733C88.6053 47.9733 88.5996 47.9701 88.5981 47.9663C88.5955 47.9619 88.5913 47.9632 88.5856 47.9695C88.5804 47.9752 88.5742 47.9777 88.5716 47.9752C88.569 47.972 88.569 47.9727 88.5711 47.9765C88.5737 47.9803 88.5783 47.9828 88.5814 47.9828C88.5851 47.9828 88.5882 47.9885 88.5892 47.9955C88.5903 48.005 88.5898 48.0056 88.5861 47.9999C88.5825 47.9929 88.5809 47.9929 88.5783 48.0012C88.5763 48.0069 88.5726 48.0113 88.5695 48.0113C88.5664 48.0113 88.5654 48.0081 88.5669 48.005C88.5685 48.0012 88.5674 47.9986 88.5648 47.9986C88.5617 47.9986 88.5591 48.0024 88.5591 48.0062C88.5591 48.0119 88.557 48.0113 88.5539 48.005C88.5513 47.9999 88.5487 47.9986 88.5487 48.0024C88.5487 48.0062 88.5368 48.0088 88.5202 48.0088C88.5015 48.0088 88.4937 48.0069 88.4979 48.0031C88.5025 47.9993 88.5015 47.9986 88.4953 48.0012C88.4901 48.0031 88.4844 48.005 88.4828 48.005C88.4813 48.005 88.4828 48.0094 88.4865 48.0145C88.4916 48.0221 88.4916 48.024 88.4849 48.024C88.4802 48.024 88.475 48.0208 88.4735 48.0176C88.4709 48.0126 88.4678 48.0132 88.4631 48.0176C88.4589 48.0221 88.4537 48.0234 88.4512 48.0221C88.4491 48.0202 88.4439 48.0215 88.4397 48.0246C88.433 48.0303 88.433 48.031 88.4397 48.0284C88.4512 48.0246 88.4657 48.0354 88.4652 48.0481C88.4652 48.055 88.4641 48.0563 88.4621 48.0506C88.46 48.0443 88.4579 48.0449 88.4527 48.0538C88.4465 48.0633 88.4439 48.0639 88.4351 48.0569C88.4283 48.0525 88.4242 48.0519 88.4242 48.0557C88.4242 48.0588 88.4221 48.062 88.4195 48.062C88.4169 48.062 88.4153 48.0569 88.4164 48.0506C88.4169 48.0436 88.421 48.0405 88.4273 48.0417C88.434 48.0436 88.4356 48.0417 88.4319 48.0373C88.4288 48.0335 88.4216 48.0322 88.4148 48.0348C88.406 48.0373 88.4044 48.0405 88.4086 48.0462C88.4164 48.0576 88.4075 48.0633 88.3915 48.0588C88.3821 48.0557 88.3769 48.0588 88.3702 48.0721C88.365 48.081 88.3634 48.0867 88.3665 48.0848C88.3702 48.0816 88.3717 48.0861 88.3712 48.0962C88.3702 48.1108 88.3686 48.1121 88.3432 48.1108C88.3198 48.1095 88.3172 48.1083 88.3266 48.1025C88.3338 48.0981 88.3354 48.0937 88.3312 48.0911C88.3281 48.0886 88.3271 48.0835 88.3286 48.0797C88.3307 48.0753 88.3297 48.0747 88.3266 48.0772C88.3235 48.0797 88.3219 48.0854 88.3235 48.0899C88.325 48.0949 88.3214 48.1006 88.3141 48.1032C88.297 48.1102 88.2684 48.1121 88.2715 48.1057C88.2747 48.0994 88.2586 48.1057 88.2497 48.1133C88.2466 48.1165 88.2425 48.1178 88.2404 48.1159C88.2388 48.114 88.2394 48.1165 88.2425 48.1203C88.2497 48.1311 88.2492 48.1399 88.2414 48.1342C88.2362 48.1304 88.2362 48.1317 88.2414 48.1387C88.2508 48.1513 88.2487 48.1634 88.2368 48.1634C88.2311 48.1634 88.2279 48.1602 88.2295 48.157C88.2316 48.1532 88.2357 48.1526 88.2388 48.1551C88.2425 48.1577 88.242 48.1551 88.2378 48.1488C88.2305 48.138 88.2186 48.1336 88.2238 48.1437C88.2253 48.1469 88.2233 48.1526 88.2191 48.157C88.2129 48.1634 88.2087 48.1634 88.1994 48.1577C88.19 48.1513 88.1895 48.1507 88.1984 48.1539C88.2087 48.157 88.2087 48.157 88.1984 48.1475C88.189 48.1387 88.188 48.1387 88.1843 48.1507C88.1823 48.1577 88.1776 48.1634 88.1745 48.1634C88.1703 48.1634 88.1708 48.1602 88.1755 48.1526C88.1817 48.1431 88.1817 48.1425 88.1734 48.1463C88.1682 48.1488 88.1631 48.1507 88.1625 48.1507C88.1615 48.1507 88.1615 48.164 88.1625 48.1811L88.1646 48.2109L88.1361 48.2128C88.1184 48.2141 88.1075 48.2122 88.1075 48.2084C88.1075 48.2046 88.1049 48.2014 88.1018 48.2014C88.0992 48.2014 88.0976 48.2039 88.0997 48.2071C88.1013 48.2109 88.0976 48.2122 88.0919 48.2109C88.0862 48.2096 88.0816 48.2115 88.0816 48.2147C88.0816 48.2185 88.079 48.2191 88.0758 48.2166C88.0686 48.2115 88.0764 48.2014 88.0899 48.1982C88.0956 48.197 88.1008 48.1957 88.1023 48.1951C88.1039 48.1944 88.1085 48.1931 88.1127 48.1925C88.1169 48.1925 88.12 48.1881 88.1189 48.1836C88.1184 48.1798 88.1215 48.176 88.1257 48.176C88.1298 48.176 88.1335 48.1805 88.1335 48.1868C88.1335 48.197 88.1407 48.1931 88.1418 48.1817C88.1433 48.1678 88.1444 48.1672 88.149 48.176C88.1527 48.1836 88.1537 48.1824 88.1527 48.171C88.1527 48.1634 88.1516 48.157 88.1511 48.157C88.1423 48.157 87.8703 48.3021 87.7675 48.3617C87.7249 48.3864 87.6891 48.4067 87.6886 48.4073C87.6881 48.4073 87.6959 48.4745 87.7057 48.5562C87.74 48.8375 87.7831 49.1967 87.8454 49.7125C87.8609 49.8449 87.8755 49.9595 87.8765 49.9672C87.8786 49.9792 87.8116 50.0438 87.3719 50.4544C87.0927 50.7148 86.8612 50.9302 86.858 50.934C86.8503 50.941 86.8643 50.9479 86.6021 50.8098C86.1002 50.5456 85.6646 50.3156 85.66 50.3137C85.6537 50.3105 85.5582 50.4455 85.4648 50.59C85.2312 50.9492 85.0355 51.3078 84.8559 51.7076L84.8045 51.8203L84.9109 51.9515C84.9696 52.0231 85.1746 52.2784 85.3667 52.5179L85.716 52.9544L85.5338 53.7059C85.4336 54.1189 85.3495 54.4592 85.347 54.4623C85.3449 54.4649 85.0599 54.5453 84.7142 54.6404C84.3679 54.7354 84.0835 54.8146 84.0819 54.8165C84.0783 54.8209 84.0705 54.9274 84.0663 55.0275C84.0643 55.0661 84.0622 55.1061 84.0606 55.1168C84.0544 55.1656 84.0523 55.7289 84.058 55.8644C84.0632 55.9912 84.0793 56.2497 84.0871 56.3364C84.1006 56.4879 84.1172 56.638 84.1198 56.6412C84.1219 56.6431 84.2309 56.6665 84.3622 56.6932C84.4936 56.7204 84.7329 56.7692 84.8943 56.8021C85.0557 56.8357 85.2353 56.8725 85.2935 56.8845C85.3516 56.8965 85.3999 56.9073 85.4015 56.9086C85.4025 56.9105 85.5006 57.2444 85.619 57.6517C85.8043 58.2891 85.8328 58.393 85.8266 58.4013C85.823 58.407 85.6288 58.6756 85.3963 58.9994L84.9727 59.5867L85.0002 59.6424C85.2348 60.1132 85.5219 60.5706 85.8359 60.9748L85.8884 61.042L86.4718 60.6885C87.0511 60.3368 87.0558 60.3343 87.0688 60.3444C87.0761 60.3508 87.1477 60.4097 87.2276 60.4768C87.3076 60.544 87.5298 60.729 87.7208 60.8887C87.9123 61.0483 88.0795 61.189 88.0935 61.2016C88.1148 61.2213 88.1179 61.227 88.1179 61.2466C88.1179 61.272 88.1054 61.4437 88.0795 61.7883C88.0691 61.9208 88.0504 62.1704 88.0374 62.3427C88.0245 62.515 88.0104 62.6912 88.0073 62.7336L88.0006 62.8116L88.0712 62.8464C88.3515 62.9883 88.7076 63.1296 89.0139 63.2208C89.1078 63.2487 89.3502 63.3108 89.426 63.326C89.439 63.3285 89.4489 63.307 89.6741 62.7773C89.8034 62.4739 89.9389 62.1558 89.9757 62.0703L90.0427 61.915L90.6282 61.8948C90.9506 61.884 91.2413 61.8745 91.274 61.8745L91.3337 61.8739L91.3908 61.9898C91.4219 62.0532 91.5709 62.3585 91.722 62.669C91.8725 62.9788 91.9976 63.2348 91.9997 63.2367C92.0018 63.2392 92.049 63.2265 92.1046 63.2094C92.4601 63.1005 92.8136 62.9535 93.1386 62.7792C93.2128 62.7393 93.408 62.6291 93.4116 62.6253C93.4122 62.624 93.38 62.3598 93.3405 62.038C93.2564 61.3588 93.2191 61.0496 93.2217 61.0477C93.2258 61.0439 94.1768 60.1487 94.2126 60.1144L94.2417 60.0866L94.4073 60.1721C94.4986 60.219 94.7644 60.3577 94.9985 60.48C95.2326 60.6029 95.4278 60.7049 95.433 60.7062C95.4527 60.7132 95.7216 60.3001 95.8872 60.008C96.0201 59.7729 96.2096 59.3915 96.2734 59.2306L96.2848 59.2008L96.1789 59.0678C96.1208 58.9949 95.9158 58.7402 95.7232 58.5026C95.4065 58.1111 95.3738 58.0693 95.3764 58.0541C95.3795 58.0363 95.7325 56.5563 95.7346 56.5544C95.7362 56.5525 96.1032 56.4499 96.2937 56.3973C96.3627 56.3783 96.616 56.3086 96.9192 56.2243C96.9649 56.2116 97.0033 56.2002 97.0043 56.1996C97.0079 56.1958 97.0199 55.9607 97.0261 55.7662C97.0375 55.3899 97.0214 54.9597 96.981 54.572C96.9737 54.5023 96.9664 54.4319 96.9649 54.4161C96.9633 54.3996 96.9602 54.3825 96.9581 54.3781C96.9555 54.373 96.8631 54.3521 96.7105 54.3211C96.1976 54.2184 95.6733 54.112 95.6728 54.1107C95.6661 54.0999 95.2404 52.632 95.242 52.6263C95.2435 52.6212 95.4351 52.3513 95.6682 52.0256C95.9007 51.7 96.0912 51.4313 96.0912 51.4288C96.0912 51.4269 96.0746 51.3914 96.0538 51.3509C95.8228 50.8953 95.5514 50.4645 95.2492 50.0749L95.1766 49.9817L94.5973 50.3365C94.278 50.5323 94.0138 50.6907 94.0091 50.6894C94.0029 50.6875 93.5051 50.2763 93.1557 49.9849C93.1303 49.9633 93.0722 49.9152 93.0275 49.8778C92.932 49.7993 92.9408 49.8233 92.9533 49.6643C92.9574 49.6104 92.9668 49.4837 92.974 49.383C92.9813 49.2816 92.9886 49.1847 92.9896 49.1676C92.9912 49.1498 92.9958 49.0859 93 49.025C93.0047 48.9642 93.0093 48.8996 93.0104 48.8825C93.0119 48.8647 93.0223 48.7196 93.0337 48.5594C93.0452 48.3991 93.0555 48.2578 93.0571 48.2451L93.0597 48.2229L92.9445 48.1672C92.5961 47.998 92.2546 47.8713 91.9047 47.7801C91.7931 47.7509 91.6862 47.7262 91.6716 47.7262C91.6623 47.7262 91.6353 47.7858 91.4998 48.1013ZM88.5955 47.9733C88.5955 47.9765 88.5929 47.9796 88.5898 47.9796C88.5872 47.9796 88.5861 47.9765 88.5877 47.9733C88.5892 47.9695 88.5918 47.967 88.5934 47.967C88.5944 47.967 88.5955 47.9695 88.5955 47.9733ZM88.6962 47.9803C88.6951 47.9828 88.6972 47.986 88.7003 47.9872C88.706 47.9898 88.6879 48.0069 88.6785 48.0081C88.677 48.0081 88.6681 48.0176 88.6583 48.0291C88.6484 48.0398 88.6391 48.0474 88.638 48.0462C88.6365 48.0443 88.6323 48.0481 88.6287 48.0544C88.6225 48.0645 88.6219 48.0639 88.6214 48.0519C88.6214 48.0443 88.625 48.0348 88.6292 48.0303C88.6334 48.0259 88.6354 48.0196 88.6334 48.0164C88.6313 48.0119 88.6365 48.0107 88.6469 48.0126C88.6583 48.0145 88.6629 48.0132 88.6629 48.0069C88.6629 48.0018 88.665 47.9993 88.6676 48.0012C88.6697 48.0031 88.6759 47.9993 88.6811 47.9923C88.6915 47.9784 88.6853 47.9746 88.6733 47.9872C88.6671 47.9942 88.6671 47.9936 88.6728 47.9847C88.679 47.9746 88.7014 47.9708 88.6962 47.9803ZM88.6136 47.9974C88.609 47.9986 88.6069 48.0024 88.6084 48.0056C88.61 48.0088 88.6079 48.0094 88.6032 48.0075C88.596 48.0037 88.596 48.0024 88.6038 47.9917C88.611 47.9822 88.6136 47.9809 88.6173 47.9872C88.6193 47.9923 88.6183 47.9961 88.6136 47.9974ZM88.6292 48.017C88.6308 48.0202 88.6297 48.0246 88.6266 48.0272C88.624 48.0291 88.6214 48.0265 88.6214 48.0215C88.6214 48.01 88.6245 48.0081 88.6292 48.017ZM88.4709 48.024C88.4709 48.0272 88.4683 48.0303 88.4652 48.0303C88.4626 48.0303 88.4615 48.0272 88.4631 48.024C88.4646 48.0202 88.4672 48.0176 88.4688 48.0176C88.4698 48.0176 88.4709 48.0202 88.4709 48.024ZM88.489 48.0481C88.4844 48.0493 88.4823 48.0531 88.4839 48.0563C88.4854 48.0595 88.4833 48.0601 88.4787 48.0582C88.4714 48.0544 88.4714 48.0531 88.4792 48.0424C88.4865 48.0329 88.489 48.0316 88.4927 48.0379C88.4948 48.043 88.4937 48.0468 88.489 48.0481ZM88.6058 48.0778C88.5923 48.0956 88.5825 48.0956 88.582 48.0772C88.5809 48.0645 88.5835 48.0626 88.5986 48.0633L88.6162 48.0639L88.6058 48.0778ZM88.5332 48.1317C88.5358 48.1317 88.5404 48.1266 88.543 48.1203C88.5467 48.1133 88.5482 48.1121 88.5487 48.1184C88.5487 48.1254 88.5503 48.1254 88.5565 48.119C88.5612 48.1146 88.5643 48.114 88.5643 48.1178C88.5643 48.1216 88.5519 48.1368 88.5373 48.152C88.5223 48.1665 88.5067 48.1836 88.5031 48.1887C88.4989 48.1938 88.4974 48.1944 88.4994 48.1906C88.5015 48.1855 88.4999 48.1836 88.4953 48.1862C88.4911 48.1881 88.4865 48.1849 88.4844 48.1792C88.4828 48.1729 88.4833 48.1703 88.487 48.1735C88.4901 48.1754 88.4968 48.1716 88.5025 48.164C88.5108 48.1532 88.5114 48.1501 88.5051 48.1431C88.4989 48.1361 88.4989 48.1336 88.5057 48.1241C88.5124 48.1146 88.5145 48.1146 88.5212 48.1222C88.5254 48.1273 88.5306 48.1317 88.5332 48.1317ZM88.4735 48.1697C88.4755 48.1735 88.473 48.1741 88.4678 48.1716C88.4605 48.1684 88.4595 48.1697 88.4621 48.1786C88.4641 48.1849 88.4636 48.1881 88.4605 48.1855C88.4527 48.1798 88.4543 48.1634 88.4626 48.1634C88.4667 48.1634 88.4719 48.1659 88.4735 48.1697ZM88.4781 48.2109C88.4807 48.2191 88.4242 48.2901 88.4148 48.2901C88.4117 48.2901 88.4075 48.2926 88.406 48.2964C88.4039 48.3002 88.4065 48.3009 88.4117 48.2983C88.419 48.2952 88.4184 48.2971 88.4101 48.3072C88.4044 48.3142 88.3972 48.3256 88.3941 48.3319C88.3909 48.3382 88.3868 48.3414 88.3847 48.3389C88.3826 48.3363 88.3863 48.3268 88.3935 48.3173C88.405 48.3021 88.405 48.3009 88.3956 48.3047C88.3873 48.3085 88.3878 48.3059 88.3992 48.2939C88.407 48.2857 88.4117 48.2768 88.4096 48.2742C88.4075 48.2717 88.4086 48.2711 88.4117 48.2723C88.4143 48.273 88.4247 48.2635 88.4345 48.2502C88.447 48.2324 88.4527 48.228 88.4558 48.2343C88.4595 48.2407 88.4605 48.24 88.4605 48.2312C88.4605 48.2255 88.4579 48.2204 88.4543 48.2204C88.4512 48.2204 88.4501 48.2185 88.4517 48.2166C88.4537 48.2141 88.4584 48.216 88.4626 48.2198C88.4678 48.2248 88.4709 48.2255 88.4735 48.2204C88.475 48.2172 88.4745 48.2141 88.4719 48.2141C88.4688 48.2141 88.4657 48.2096 88.4641 48.2052C88.4621 48.1989 88.4636 48.197 88.4683 48.1989C88.4719 48.2008 88.4766 48.2058 88.4781 48.2109ZM88.4309 48.2267C88.433 48.2267 88.4335 48.2242 88.4319 48.2204C88.4304 48.2166 88.4325 48.216 88.4366 48.2179C88.4413 48.2198 88.4449 48.2242 88.4449 48.2274C88.4449 48.2375 88.4257 48.2337 88.4184 48.2217C88.4127 48.2128 88.4127 48.2122 88.419 48.2185C88.4231 48.2229 88.4283 48.2267 88.4309 48.2267ZM88.0509 48.2261C88.0437 48.2318 88.0473 48.2457 88.0561 48.2457C88.0592 48.2457 88.0598 48.2426 88.0577 48.2381C88.0556 48.2337 88.0561 48.2331 88.0603 48.2356C88.0634 48.2381 88.0696 48.2369 88.0738 48.2331C88.0805 48.2267 88.0816 48.228 88.081 48.2432C88.081 48.259 88.08 48.2597 88.0764 48.2489C88.0727 48.2381 88.0717 48.2375 88.0686 48.2464C88.0665 48.2527 88.0613 48.2559 88.0556 48.254C88.0504 48.2521 88.0447 48.254 88.0431 48.2578C88.0411 48.2616 88.0369 48.2647 88.0343 48.2647C88.0312 48.2647 88.0307 48.2616 88.0322 48.2584C88.0338 48.2546 88.0328 48.2521 88.0302 48.2521C88.027 48.2521 88.0245 48.2552 88.0245 48.2597C88.0245 48.2635 88.0229 48.2647 88.0208 48.2628C88.0193 48.2603 88.0219 48.2521 88.0276 48.2451C88.0374 48.2312 88.0374 48.2312 88.026 48.24C88.0193 48.2451 88.0141 48.2527 88.0141 48.2565C88.0141 48.2635 88.012 48.2635 88.0037 48.2571C87.9933 48.2489 87.9933 48.2457 88.0047 48.2432C88.0084 48.2419 88.0198 48.2369 88.0296 48.2312C88.0489 48.2204 88.0629 48.2172 88.0509 48.2261ZM88.4293 48.2464C88.4293 48.2552 88.4205 48.2527 88.4174 48.2432C88.4153 48.2369 88.4169 48.235 88.4221 48.2375C88.4257 48.2394 88.4293 48.2432 88.4293 48.2464ZM87.9933 48.2628C87.9933 48.266 87.9876 48.2685 87.9803 48.2685C87.9731 48.2692 87.9689 48.2673 87.9705 48.2641C87.9736 48.2571 87.9933 48.2565 87.9933 48.2628ZM88.3946 48.2736C88.3966 48.2806 88.3951 48.2818 88.3894 48.2793C88.3832 48.2761 88.3816 48.278 88.3842 48.2857C88.3863 48.2926 88.3852 48.2945 88.3795 48.292C88.3702 48.2876 88.3702 48.2869 88.3806 48.2749C88.3904 48.2622 88.3909 48.2622 88.3946 48.2736ZM87.9601 48.2895C87.958 48.2933 87.9528 48.2964 87.9481 48.2964C87.9414 48.2964 87.9409 48.2977 87.9471 48.3072C87.9539 48.3173 87.9533 48.318 87.9456 48.3097C87.9378 48.3028 87.9362 48.3028 87.9357 48.3097C87.9357 48.3161 87.9347 48.3167 87.9326 48.3104C87.9315 48.3066 87.9279 48.3028 87.9253 48.3028C87.9222 48.3028 87.9212 48.3053 87.9227 48.3078C87.9237 48.3104 87.916 48.3129 87.9045 48.3129L87.8838 48.3135L87.9087 48.2983C87.9222 48.2901 87.9362 48.2825 87.9398 48.2812C87.9435 48.2806 87.9481 48.278 87.9502 48.2755C87.9554 48.2692 87.9642 48.2812 87.9601 48.2895ZM87.9829 48.2901C87.9829 48.2933 87.9808 48.2964 87.9777 48.2964C87.9751 48.2964 87.9725 48.2933 87.9725 48.2901C87.9725 48.2863 87.9751 48.2837 87.9777 48.2837C87.9808 48.2837 87.9829 48.2863 87.9829 48.2901ZM88.3826 48.3249C88.3795 48.3294 88.379 48.3382 88.3811 48.3439C88.3832 48.3522 88.3826 48.3541 88.3785 48.3509C88.3717 48.3458 88.3702 48.3205 88.3754 48.3135C88.3816 48.3059 88.3883 48.3161 88.3826 48.3249ZM87.8703 48.3357C87.8713 48.3401 87.8687 48.3477 87.8641 48.3522C87.8568 48.3591 87.8568 48.3591 87.8651 48.356C87.8698 48.3541 87.8739 48.3553 87.8739 48.3591C87.8739 48.3674 87.8448 48.3686 87.8407 48.3604C87.8391 48.3572 87.8428 48.3534 87.849 48.3515C87.8552 48.349 87.8589 48.3458 87.8573 48.3439C87.8557 48.3414 87.849 48.3427 87.8433 48.3471C87.8339 48.3528 87.8324 48.3598 87.8324 48.3984C87.8324 48.4364 87.8314 48.4428 87.8246 48.4396C87.8179 48.4371 87.8179 48.4383 87.822 48.4485C87.8246 48.4548 87.8251 48.4618 87.823 48.4637C87.8204 48.4656 87.8189 48.4751 87.8194 48.4846C87.8215 48.5188 87.822 48.522 87.8262 48.5137C87.8282 48.5099 87.8298 48.5201 87.8303 48.5359C87.8303 48.5524 87.8298 48.5619 87.8288 48.5575C87.8272 48.5537 87.8241 48.5511 87.822 48.553C87.8194 48.5549 87.8173 48.5511 87.8179 48.5454C87.8179 48.5391 87.8158 48.5099 87.8127 48.4802C87.7997 48.3509 87.7997 48.3547 87.809 48.3724C87.8173 48.3883 87.8173 48.3883 87.8147 48.3737C87.8127 48.361 87.8137 48.3604 87.821 48.3674C87.8277 48.3744 87.8288 48.3744 87.8256 48.3648C87.823 48.356 87.8272 48.3503 87.8417 48.3414C87.8646 48.3262 87.8672 48.3256 87.8703 48.3357ZM88.3619 48.3744C88.3619 48.3775 88.352 48.3946 88.3401 48.413C88.3151 48.4504 88.3068 48.4612 88.3115 48.451C88.3131 48.4472 88.3115 48.444 88.3074 48.444C88.3022 48.444 88.3017 48.4472 88.3048 48.4548C88.311 48.4688 88.2933 48.4903 88.283 48.4827C88.2783 48.4795 88.2788 48.4814 88.284 48.4897C88.2887 48.4966 88.2892 48.4998 88.2856 48.4966C88.2809 48.4935 88.2788 48.4966 88.2788 48.5049C88.2788 48.5125 88.2767 48.5182 88.2741 48.5182C88.2632 48.5182 88.2643 48.5055 88.2773 48.4827C88.2856 48.4675 88.2908 48.4504 88.2902 48.4371C88.2897 48.4212 88.2918 48.4168 88.2991 48.4168C88.3042 48.4168 88.3105 48.4212 88.312 48.4269C88.3167 48.4428 88.3354 48.4117 88.3328 48.3927C88.3312 48.3845 88.3318 48.3756 88.3333 48.3724C88.337 48.3648 88.3619 48.3667 88.3619 48.3744ZM88.2664 48.4802C88.2664 48.4852 88.2638 48.496 88.2596 48.5036C88.2549 48.5137 88.2544 48.5188 88.2591 48.522C88.2627 48.5251 88.2632 48.5239 88.2606 48.5175C88.2565 48.5099 88.2575 48.5099 88.2648 48.5175C88.2741 48.5264 88.2715 48.5403 88.2622 48.5334C88.2591 48.5308 88.258 48.5315 88.2596 48.5353C88.2617 48.5391 88.2596 48.5467 88.256 48.553C88.2503 48.5632 88.2492 48.5581 88.2482 48.5156C88.2471 48.4713 88.2482 48.4669 88.2565 48.4688C88.2617 48.47 88.2658 48.4751 88.2664 48.4802ZM87.8324 48.4865C87.8324 48.4897 87.8314 48.4928 87.8303 48.4928C87.8288 48.4928 87.8262 48.4897 87.8246 48.4865C87.823 48.4827 87.8241 48.4802 87.8267 48.4802C87.8298 48.4802 87.8324 48.4827 87.8324 48.4865ZM88.242 48.5809C88.2394 48.5866 88.2316 48.6024 88.2248 48.6164C88.2181 48.6303 88.2082 48.6424 88.203 48.643C88.1942 48.6449 88.1942 48.6443 88.2035 48.6392C88.2108 48.6347 88.2118 48.6328 88.2061 48.6322C88.202 48.6309 88.1963 48.6309 88.1942 48.6316C88.1916 48.6322 88.1916 48.629 88.1932 48.6252C88.1952 48.6214 88.2015 48.6195 88.2067 48.6214C88.2144 48.624 88.2155 48.6227 88.2113 48.6132C88.2041 48.5967 88.2051 48.5917 88.2129 48.5999C88.217 48.6037 88.2217 48.605 88.2233 48.6024C88.23 48.5942 88.2269 48.5834 88.2155 48.5771C88.2051 48.5708 88.2061 48.5701 88.2253 48.5701C88.2446 48.5701 88.2466 48.572 88.242 48.5809ZM87.8303 48.5974C87.8298 48.6183 87.822 48.6183 87.822 48.5974C87.822 48.5885 87.8241 48.5815 87.8267 48.5815C87.8293 48.5815 87.8308 48.5885 87.8303 48.5974ZM88.1828 48.6259C88.1812 48.629 88.1765 48.6322 88.1734 48.6322C88.1698 48.6322 88.1703 48.6297 88.175 48.6259C88.1849 48.6183 88.1869 48.6183 88.1828 48.6259ZM87.8308 48.6588C87.8293 48.6633 87.8282 48.6601 87.8282 48.6512C87.8282 48.6424 87.8293 48.6392 87.8308 48.643C87.8319 48.6474 87.8319 48.655 87.8308 48.6588ZM88.1802 48.6512C88.1802 48.6544 88.1791 48.6576 88.1781 48.6576C88.1765 48.6576 88.174 48.6544 88.1724 48.6512C88.1708 48.6474 88.1719 48.6449 88.1745 48.6449C88.1776 48.6449 88.1802 48.6474 88.1802 48.6512ZM88.1833 48.6677C88.1703 48.6791 88.1646 48.6791 88.1646 48.6671C88.1646 48.662 88.1677 48.6595 88.1719 48.6614C88.176 48.6633 88.1807 48.6614 88.1828 48.6576C88.1849 48.6538 88.188 48.6525 88.1895 48.6544C88.1916 48.6569 88.1885 48.6626 88.1833 48.6677ZM88.176 48.7095C88.1719 48.7158 88.1703 48.7209 88.1729 48.7209C88.1755 48.7209 88.1729 48.7253 88.1677 48.7304C88.162 48.7355 88.1589 48.7399 88.161 48.7399C88.1656 48.7399 88.1496 48.7798 88.1428 48.7849C88.1402 48.7868 88.1376 48.7925 88.1366 48.7976C88.1319 48.8299 88.1226 48.8432 88.1153 48.8286C88.1132 48.8248 88.1148 48.8229 88.1189 48.8236C88.1236 48.8248 88.1257 48.8185 88.1257 48.8033C88.1257 48.7881 88.1283 48.7805 88.1345 48.7792C88.1392 48.7779 88.1438 48.7691 88.1449 48.7589C88.1464 48.745 88.1454 48.7418 88.1413 48.7463C88.1366 48.7507 88.1324 48.7494 88.1278 48.7418C88.121 48.7311 88.121 48.7311 88.1303 48.7399C88.1397 48.7488 88.1402 48.7482 88.1376 48.7393C88.135 48.7311 88.1366 48.7292 88.1449 48.7323C88.1522 48.7342 88.1547 48.733 88.1522 48.7285C88.1496 48.7234 88.1511 48.7222 88.1563 48.7247C88.1625 48.7279 88.1646 48.7241 88.1646 48.7108C88.1646 48.6962 88.1656 48.6943 88.1698 48.7019C88.174 48.7101 88.175 48.7095 88.175 48.7C88.175 48.6943 88.1719 48.6892 88.1688 48.6892C88.1641 48.6892 88.1646 48.6873 88.1698 48.6829C88.1812 48.674 88.1864 48.6956 88.176 48.7095ZM88.1958 48.6791C88.1958 48.681 88.1937 48.6842 88.1906 48.6861C88.188 48.688 88.1854 48.6867 88.1854 48.6835C88.1854 48.6797 88.188 48.6766 88.1906 48.6766C88.1937 48.6766 88.1958 48.6778 88.1958 48.6791ZM87.8454 48.7463C87.8433 48.7627 87.8438 48.7716 87.8474 48.7716C87.8506 48.7716 87.8526 48.7665 87.8521 48.7602C87.8506 48.738 87.8532 48.7209 87.8583 48.7209C87.8615 48.7209 87.8635 48.7266 87.8635 48.7336C87.8635 48.7406 87.8661 48.7463 87.8687 48.7463C87.8744 48.7463 87.8755 48.771 87.8708 48.7868C87.8692 48.7925 87.8656 48.7969 87.8635 48.7969C87.8583 48.7969 87.8594 48.7843 87.8656 48.7729C87.8682 48.7678 87.8677 48.7615 87.8641 48.757C87.8583 48.7501 87.8578 48.7507 87.8557 48.7906C87.8552 48.8071 87.862 48.8242 87.8682 48.8198C87.8698 48.8185 87.8713 48.8312 87.8718 48.8483C87.8718 48.8679 87.8698 48.8787 87.8666 48.8774C87.8635 48.8761 87.8609 48.8622 87.8609 48.847C87.8609 48.8248 87.8594 48.8198 87.8526 48.821C87.8459 48.8223 87.8438 48.8147 87.8412 48.7855C87.8391 48.7653 87.8391 48.7425 87.8412 48.7349C87.8459 48.7114 87.849 48.719 87.8454 48.7463ZM88.1309 48.7583C88.1324 48.7615 88.1319 48.7659 88.1293 48.7678C88.1267 48.7697 88.1246 48.7672 88.1246 48.7621C88.1246 48.7513 88.1262 48.7501 88.1309 48.7583ZM88.0971 48.8299C88.0971 48.8337 88.0987 48.835 88.1002 48.8331C88.1023 48.8312 88.108 48.8318 88.1137 48.8356C88.1236 48.8419 88.1236 48.8426 88.1143 48.8521C88.1091 48.8571 88.1075 48.8597 88.1111 48.8571C88.1158 48.8546 88.1163 48.8578 88.1122 48.873C88.1091 48.8831 88.1044 48.8901 88.1013 48.8882C88.0987 48.8863 88.0966 48.8882 88.0976 48.8926C88.0992 48.9097 88.0971 48.918 88.0914 48.9135C88.0883 48.9116 88.0867 48.904 88.0883 48.8977C88.0899 48.8907 88.0888 48.8856 88.0862 48.8856C88.0836 48.8856 88.0816 48.878 88.0816 48.8679C88.0816 48.8552 88.0831 48.8533 88.0862 48.8603C88.0893 48.8654 88.0904 48.8711 88.0888 48.8736C88.0878 48.8761 88.0888 48.8799 88.0919 48.8825C88.0997 48.8882 88.1039 48.8571 88.0971 48.8419C88.094 48.8343 88.0888 48.8305 88.0857 48.8324C88.0821 48.835 88.0816 48.8343 88.0836 48.8299C88.0883 48.8204 88.0971 48.8204 88.0971 48.8299ZM87.8552 48.8603C87.8568 48.8787 87.8557 48.885 87.8526 48.8787C87.848 48.8698 87.8459 48.8242 87.8506 48.8299C87.8521 48.8312 87.8542 48.8451 87.8552 48.8603ZM88.0945 48.8483C88.1002 48.8584 88.0951 48.8603 88.0878 48.8502C88.0842 48.8451 88.0836 48.8413 88.0862 48.8413C88.0888 48.8413 88.093 48.8445 88.0945 48.8483ZM87.8682 48.9414C87.8656 48.9427 87.8635 48.9515 87.8635 48.9604C87.8635 48.9712 87.8651 48.9743 87.8677 48.9699C87.8703 48.9655 87.8718 48.9769 87.8718 48.9959C87.8713 49.0459 87.8625 49.0212 87.8615 48.9674C87.8615 48.9439 87.8594 48.9262 87.8578 48.9275C87.8563 48.9287 87.8547 48.9205 87.8547 48.9091L87.8542 48.8888L87.8635 48.9142C87.8682 48.9281 87.8703 48.9401 87.8682 48.9414ZM88.0504 48.9262C88.0504 48.9281 88.0483 48.9313 88.0452 48.9332C88.0426 48.9351 88.04 48.9338 88.04 48.9306C88.04 48.9268 88.0426 48.9237 88.0452 48.9237C88.0483 48.9237 88.0504 48.9249 88.0504 48.9262ZM88.0867 48.9325C88.0867 48.9446 88.0779 48.9509 88.0738 48.9427C88.0722 48.9395 88.0738 48.9363 88.0774 48.9363C88.0821 48.9363 88.0821 48.9344 88.0764 48.93C88.0696 48.9249 88.0701 48.9237 88.0779 48.9237C88.0826 48.9237 88.0867 48.9275 88.0867 48.9325ZM88.0556 48.9515C88.0556 48.9648 88.0665 48.9712 88.0717 48.961C88.0748 48.9547 88.0758 48.9566 88.0748 48.9661C88.0743 48.9775 88.0717 48.9794 88.0613 48.9762C88.0525 48.9737 88.0499 48.975 88.0525 48.98C88.0546 48.9838 88.0603 48.987 88.0649 48.9876C88.0707 48.9876 88.0712 48.9889 88.067 48.9914C88.0639 48.9927 88.0618 48.9972 88.0634 48.9997C88.0649 49.0029 88.0639 49.0067 88.0608 49.0092C88.0582 49.0111 88.0556 49.0098 88.0556 49.0067C88.0556 49.0029 88.053 48.9997 88.0499 48.9997C88.0473 48.9997 88.0463 49.0022 88.0478 49.006C88.0535 49.0174 88.0551 49.0396 88.0509 49.0491C88.0478 49.0554 88.0457 49.0561 88.0431 49.051C88.0411 49.0472 88.0416 49.044 88.0437 49.044C88.0463 49.044 88.0483 49.0383 88.0483 49.0314C88.0483 49.0244 88.0463 49.0187 88.0437 49.0187C88.0416 49.0187 88.0411 49.0067 88.0426 48.9914C88.0447 48.9769 88.0463 48.9598 88.0468 48.9534C88.0478 48.9408 88.0556 48.9389 88.0556 48.9515ZM87.8724 49.0801C87.8708 49.0865 87.8698 49.0814 87.8698 49.0694C87.8698 49.0573 87.8708 49.0523 87.8724 49.058C87.8734 49.0643 87.8734 49.0744 87.8724 49.0801ZM88.0312 49.0814C88.0333 49.0821 88.0348 49.0878 88.0348 49.0954C88.0348 49.103 88.0328 49.1061 88.0291 49.1036C88.0255 49.1011 88.0245 49.1036 88.0265 49.1125C88.0286 49.1201 88.027 49.1264 88.0229 49.1283C88.0151 49.1315 88.0151 49.1169 88.0219 49.0916C88.0239 49.0827 88.0229 49.084 88.0172 49.0947C88.0068 49.1156 88.0068 49.1308 88.0182 49.1384C88.0234 49.1422 88.0245 49.1454 88.0203 49.1454C88.0167 49.1454 88.0146 49.1479 88.0161 49.1511C88.0182 49.1543 88.0167 49.165 88.0136 49.1752C88.0099 49.1847 88.0068 49.1993 88.0058 49.2075C88.0052 49.2157 88.0021 49.2259 87.9995 49.2297C87.9969 49.2341 87.9918 49.2537 87.9881 49.2734C87.9845 49.2943 87.9783 49.3101 87.9746 49.3101C87.971 49.3101 87.9694 49.3051 87.971 49.2981C87.9725 49.2918 87.971 49.2842 87.9679 49.2823C87.9642 49.2791 87.9637 49.2816 87.9658 49.2892C87.9674 49.2956 87.9668 49.2987 87.9642 49.2956C87.9616 49.2924 87.9596 49.2816 87.959 49.2702L87.958 49.2506L87.9679 49.2664C87.9762 49.2791 87.9783 49.2804 87.9829 49.2721C87.9907 49.2576 87.9892 49.2531 87.9777 49.2531C87.972 49.2531 87.9658 49.2487 87.9637 49.2436C87.959 49.2278 87.9674 49.2233 87.9762 49.2373C87.9829 49.2474 87.984 49.248 87.9814 49.2385C87.9788 49.2309 87.9808 49.2278 87.9881 49.2278C87.999 49.2278 88.0001 49.2227 87.9995 49.1815C87.9995 49.1663 88.0011 49.1593 88.0047 49.1619C88.0089 49.165 88.0094 49.1612 88.0068 49.1511C87.9985 49.1137 87.9975 49.1011 88.0032 49.1011C88.0078 49.1011 88.0078 49.0979 88.0037 49.0884C87.9985 49.0763 87.999 49.0757 88.0125 49.0782C88.0203 49.0795 88.0286 49.0814 88.0312 49.0814ZM87.9014 49.1308C87.903 49.134 87.8973 49.1359 87.889 49.1359C87.8807 49.1359 87.8739 49.134 87.8739 49.1308C87.8739 49.1283 87.8796 49.1264 87.8864 49.1264C87.8936 49.1264 87.9004 49.1283 87.9014 49.1308ZM87.8947 49.1416C87.8947 49.1429 87.891 49.146 87.8864 49.1479C87.8822 49.1498 87.8801 49.1492 87.8817 49.1454C87.8848 49.1391 87.8947 49.1365 87.8947 49.1416ZM87.8999 49.1847C87.8999 49.2164 87.904 49.2145 87.9061 49.1815C87.9082 49.1448 87.9134 49.1543 87.9144 49.1961C87.9149 49.217 87.9134 49.2341 87.9113 49.2341C87.9092 49.2341 87.9071 49.2398 87.9066 49.2468C87.9061 49.2537 87.9077 49.2582 87.9103 49.2563C87.9123 49.2544 87.9139 49.2582 87.9128 49.2639C87.9118 49.2702 87.9108 49.2778 87.9108 49.2804C87.9103 49.2835 87.9082 49.2835 87.9051 49.2816C87.8962 49.2753 87.8994 49.2861 87.9092 49.2956C87.9139 49.3006 87.9149 49.3032 87.9118 49.3006C87.9082 49.2987 87.9051 49.2994 87.9051 49.3019C87.9051 49.3051 87.9082 49.3114 87.9118 49.3158C87.917 49.3228 87.917 49.3241 87.9118 49.3203C87.9082 49.3177 87.9051 49.3177 87.9045 49.3209C87.9045 49.3234 87.9035 49.3317 87.9025 49.338C87.9014 49.345 87.903 49.3551 87.9056 49.3602C87.9097 49.3684 87.9103 49.3678 87.9082 49.3577C87.9066 49.3507 87.9077 49.3405 87.9103 49.3355C87.9139 49.3291 87.9154 49.3405 87.9149 49.3735C87.9144 49.3995 87.9165 49.428 87.9196 49.4369C87.9227 49.4457 87.9253 49.4483 87.9253 49.4432C87.9258 49.4369 87.9315 49.4324 87.9419 49.4318C87.9507 49.4311 87.9565 49.4324 87.9549 49.4356C87.9533 49.4388 87.9461 49.478 87.9388 49.5224C87.9248 49.6073 87.9212 49.6225 87.9201 49.5914C87.9196 49.5718 87.9186 49.5617 87.9128 49.5217C87.9108 49.5053 87.9113 49.4939 87.9144 49.4913C87.918 49.4888 87.9191 49.4932 87.9175 49.5034C87.9165 49.5122 87.917 49.5243 87.9196 49.53C87.9237 49.5389 87.9248 49.5382 87.9274 49.5294C87.9295 49.523 87.9289 49.5198 87.9258 49.5224C87.9227 49.5243 87.9206 49.523 87.9206 49.5198C87.9206 49.516 87.9232 49.5129 87.9269 49.5129C87.9315 49.5129 87.9315 49.511 87.9274 49.5059C87.9201 49.497 87.9248 49.4793 87.9326 49.4856C87.9357 49.4875 87.9362 49.4863 87.9341 49.4825C87.9321 49.478 87.9326 49.4749 87.9352 49.4749C87.9378 49.4749 87.9414 49.466 87.9424 49.4559C87.9456 49.4305 87.9398 49.4318 87.931 49.459C87.9269 49.4711 87.9222 49.4812 87.9201 49.4812C87.9134 49.4812 87.904 49.4628 87.9066 49.4546C87.9087 49.4495 87.9097 49.4502 87.9097 49.4571C87.9103 49.4635 87.9128 49.4685 87.9154 49.4685C87.9232 49.4685 87.9217 49.4584 87.9123 49.447C87.9061 49.4394 87.9061 49.4369 87.9113 49.4369C87.9165 49.4369 87.916 49.4349 87.9103 49.4305C87.9061 49.4273 87.9045 49.4242 87.9071 49.4242C87.9097 49.4242 87.9092 49.4204 87.9066 49.4159C87.9035 49.4121 87.9009 49.4039 87.9009 49.3988C87.8999 49.3735 87.8947 49.3158 87.8895 49.2816C87.8838 49.2411 87.8827 49.198 87.8869 49.2037C87.8885 49.2056 87.8905 49.217 87.891 49.2297C87.8921 49.2423 87.8942 49.255 87.8962 49.2576C87.8999 49.262 87.8957 49.1758 87.8916 49.1593C87.8905 49.1549 87.8921 49.153 87.8947 49.1549C87.8978 49.1568 87.8999 49.1708 87.8999 49.1847ZM87.8827 49.191C87.8812 49.1955 87.8801 49.1923 87.8801 49.1834C87.8801 49.1746 87.8812 49.1714 87.8827 49.1752C87.8838 49.1796 87.8838 49.1872 87.8827 49.191ZM87.9674 49.3418C87.9699 49.3437 87.9699 49.3551 87.9679 49.3672C87.9642 49.3893 87.9642 49.3893 87.9611 49.3716C87.9596 49.3615 87.9606 49.3545 87.9637 49.3545C87.9674 49.3545 87.9674 49.352 87.9632 49.3469C87.9596 49.3424 87.9575 49.3336 87.9575 49.326C87.958 49.3133 87.958 49.3133 87.9606 49.326C87.9622 49.3329 87.9653 49.3399 87.9674 49.3418ZM90.7523 50.3302C91.4713 50.3777 92.1456 50.6311 92.7545 51.0816C93.3613 51.5314 93.8814 52.184 94.2375 52.9437C94.7307 53.9948 94.9056 55.2347 94.7307 56.4347C94.6045 57.302 94.291 58.1339 93.8357 58.8105C93.707 59.0019 93.4988 59.2655 93.3582 59.415C92.7 60.1163 91.9281 60.5427 91.0819 60.6726C90.8795 60.7043 90.784 60.7106 90.5421 60.7106C90.2483 60.7106 90.0697 60.6929 89.7946 60.6352C89.1047 60.4901 88.4454 60.129 87.8957 59.5949C87.658 59.3637 87.4124 59.0665 87.2224 58.7795C86.7278 58.0306 86.4127 57.1284 86.3145 56.1781C86.2886 55.931 86.2834 55.8144 86.2834 55.5191C86.2834 55.2239 86.2886 55.1073 86.3145 54.8602C86.422 53.8174 86.7833 52.8486 87.36 52.0573C87.4374 51.9509 87.5879 51.7652 87.672 51.6727C88.3562 50.9175 89.2002 50.4601 90.1138 50.3492C90.3178 50.3245 90.5571 50.3175 90.7523 50.3302Z" fill="#91B3FA"/>
<path d="M88.5898 48.0783C88.5898 48.0813 88.5926 48.0825 88.5953 48.0807C88.5985 48.0789 88.6007 48.0759 88.6007 48.0741C88.6007 48.0729 88.5985 48.0717 88.5953 48.0717C88.5926 48.0717 88.5898 48.0747 88.5898 48.0783Z" fill="#91B3FA"/>
<path d="M88.5103 48.1345C88.5087 48.1371 88.5108 48.1442 88.5149 48.1494C88.521 48.1565 88.521 48.1603 88.5164 48.1675C88.5128 48.1726 88.5174 48.1694 88.5256 48.1603C88.5343 48.1513 88.542 48.1429 88.5435 48.1416C88.5451 48.1403 88.542 48.141 88.5374 48.1429C88.5323 48.1455 88.5282 48.1442 88.5282 48.1416C88.5282 48.1332 88.5139 48.1274 88.5103 48.1345Z" fill="#91B3FA"/>
<path d="M88.4417 48.2522C88.4298 48.266 88.4314 48.2702 88.4437 48.2576C88.4494 48.2516 88.454 48.2456 88.454 48.2444C88.454 48.2403 88.4494 48.2433 88.4417 48.2522Z" fill="#91B3FA"/>
<path d="M87.9313 48.2936C87.9271 48.2964 87.9266 48.2999 87.9297 48.3022C87.9323 48.3039 87.9359 48.3016 87.938 48.297C87.9411 48.2873 87.9411 48.2867 87.9313 48.2936Z" fill="#91B3FA"/>
<path d="M87.821 48.4192C87.8195 48.426 87.8205 48.4316 87.8231 48.4316C87.8257 48.4316 87.8277 48.426 87.8277 48.4192C87.8277 48.4123 87.8267 48.4067 87.8257 48.4067C87.8246 48.4067 87.8226 48.4123 87.821 48.4192Z" fill="#91B3FA"/>
<path d="M88.342 48.3821C88.3363 48.3861 88.3363 48.3873 88.3431 48.3901C88.3482 48.3924 88.3513 48.3907 88.3513 48.3855C88.3513 48.3758 88.3508 48.3758 88.342 48.3821Z" fill="#91B3FA"/>
<path d="M90.3047 50.8475C89.511 50.9077 88.7505 51.2644 88.14 51.8631C87.9859 52.0139 87.7788 52.2546 87.6568 52.4244C86.7769 53.6472 86.4784 55.3313 86.8657 56.8873C86.9908 57.391 87.1937 57.882 87.4491 58.3027C88.1317 59.4241 89.1518 60.1033 90.2969 60.1984C90.4085 60.2079 90.6758 60.2079 90.7848 60.199C91.5458 60.1344 92.2461 59.8188 92.8431 59.2702C93.5054 58.6613 93.9861 57.8155 94.2187 56.8499C94.4632 55.833 94.4211 54.7585 94.0977 53.7739C93.9628 53.3615 93.765 52.949 93.534 52.5987C93.4104 52.4105 93.2132 52.1571 93.0741 52.0088C92.4252 51.3131 91.6227 50.9121 90.7485 50.8468C90.6504 50.8399 90.4043 50.8399 90.3047 50.8475ZM90.6603 51.9746C91.319 52.0132 91.9149 52.2964 92.4148 52.8096C92.5005 52.8977 92.6941 53.1353 92.7647 53.2386C93.1732 53.8392 93.399 54.5266 93.4431 55.304C93.4504 55.4358 93.4463 55.7342 93.4348 55.8647C93.3969 56.3114 93.3004 56.72 93.1421 57.1065C93.0398 57.3568 92.9173 57.5842 92.7657 57.8066C92.6962 57.908 92.502 58.145 92.4148 58.2343C91.9295 58.7323 91.3444 59.0193 90.7148 59.0687C90.5803 59.0795 90.3556 59.0725 90.2216 59.0541C89.4658 58.949 88.7925 58.5093 88.3072 57.8035C87.9127 57.2294 87.677 56.5091 87.6344 55.7475C87.6287 55.6423 87.6313 55.3192 87.6386 55.228C87.6796 54.7268 87.7813 54.2992 87.9568 53.888C88.2631 53.1689 88.7785 52.5847 89.3911 52.261C89.7067 52.0937 90.0685 51.9917 90.3955 51.9765C90.4428 51.9746 90.4822 51.9721 90.4832 51.9708C90.4869 51.967 90.5481 51.9683 90.6603 51.9746Z" fill="#91B3FA"/>
<path d="M88.8325 47.8862C88.8363 47.8879 88.8412 47.8873 88.8429 47.8857C88.8451 47.884 88.8418 47.8823 88.8358 47.8829C88.8298 47.8829 88.8282 47.8845 88.8325 47.8862Z" fill="#91B3FA"/>
<path d="M88.8111 47.8921C88.8149 47.8937 88.8198 47.8932 88.8214 47.8915C88.8236 47.8899 88.8203 47.8882 88.8143 47.8887C88.8083 47.8887 88.8067 47.8904 88.8111 47.8921Z" fill="#91B3FA"/>
<path d="M88.6855 47.9328C88.6835 47.9362 88.6829 47.9397 88.6845 47.9414C88.6855 47.9431 88.6881 47.9402 88.6897 47.9351C88.6933 47.9254 88.6902 47.9236 88.6855 47.9328Z" fill="#91B3FA"/>
<path d="M88.6646 47.9441C88.6666 47.9475 88.6703 47.9487 88.6728 47.947C88.6801 47.9418 88.6785 47.9384 88.6692 47.9384C88.6651 47.9384 88.663 47.9412 88.6646 47.9441Z" fill="#91B3FA"/>
<path d="M88.5458 47.9894C88.5473 47.9923 88.5515 47.9951 88.554 47.9951C88.5571 47.9951 88.5577 47.9923 88.5561 47.9894C88.5546 47.986 88.5504 47.9837 88.5478 47.9837C88.5447 47.9837 88.5442 47.986 88.5458 47.9894Z" fill="#91B3FA"/>
<path d="M88.5195 47.9958C88.5174 47.9992 88.5169 48.0027 88.5185 48.0044C88.5195 48.0061 88.5221 48.0032 88.5236 47.9981C88.5273 47.9883 88.5242 47.9866 88.5195 47.9958Z" fill="#91B3FA"/>
<path d="M88.3448 48.0882C88.3428 48.096 88.3438 48.1012 88.3464 48.0986C88.349 48.0966 88.351 48.0986 88.351 48.1025C88.351 48.1064 88.3536 48.1077 88.3567 48.1051C88.3603 48.1025 88.3603 48.0992 88.3577 48.0966C88.3546 48.0947 88.3515 48.0882 88.35 48.083C88.3484 48.0765 88.3469 48.0778 88.3448 48.0882Z" fill="#91B3FA"/>
<rect x="96.4668" y="88.0518" width="67.1315" height="109.738" rx="2.21477" fill="#BDD0F8"/>
<rect x="153.443" y="126.395" width="60.9261" height="71.396" rx="2.21477" fill="#4649EE"/>
<rect x="40.6172" y="126.395" width="60.9261" height="71.396" rx="2.21477" fill="#4B4EF7"/>
<path d="M49.3984 81.4341C49.3984 81.4341 51.5814 79.9997 51.0941 72.6334L55.6037 71.5972C55.6037 71.5972 55.0955 78.2015 57.379 80.2985L49.3984 81.4341Z" fill="#FFCCC6"/>
<g opacity="0.15">
<path opacity="0.15" d="M56.4572 78.9184L52.7109 75.3664L55.6539 75.3286C55.7387 76.5768 56.0111 77.7943 56.4572 78.9184Z" fill="#141226"/>
</g>
<path d="M48.5357 69.7763C48.848 72.0114 49.8322 74.1276 51.4231 74.849C53.3119 75.7058 54.7108 75.7639 56.8884 75.7639C59.8599 75.7639 59.7617 71.924 59.8452 68.054C59.9299 64.1686 59.6798 60.0013 58.5053 58.6474C56.162 55.9448 49.2805 57.6563 48.4437 62.1763C48.01 64.5136 48.2384 67.6482 48.5357 69.7763Z" fill="#FFCCC6"/>
<path d="M61.4369 60.8942C61.4369 60.8942 62.654 60.5572 62.3206 59.0536C62.0998 58.0566 61.0687 58.278 61.0687 58.278C61.0687 58.278 62.045 58.0566 62.045 57.0004C62.045 56.3357 61.6322 55.2074 60.3875 55.8518C58.9267 56.6079 57.261 56.5106 55.9941 56.2468C55.2776 56.0524 54.5502 55.9252 53.8182 55.8662H53.8143C52.9728 55.8479 52.1339 55.9869 51.3259 56.2786C49.0616 57.1183 45.635 59.634 46.3634 65.3372C47.1765 71.7023 49.587 74.1365 50.6474 74.9173C50.7018 74.9579 50.7621 74.9848 50.8248 74.9966C50.8876 75.0083 50.9516 75.0046 51.0132 74.9856C51.0749 74.9667 51.1328 74.9329 51.1839 74.8862C51.235 74.8395 51.2781 74.7807 51.3109 74.7134C51.3308 74.6722 51.3467 74.6283 51.3583 74.5825C51.659 73.3899 52.1771 70.3882 52.0322 64.1988C58.9922 63.7755 60.9947 63.6474 60.9947 63.6474C60.9947 63.6474 62.6322 63.7233 62.6322 62.2404C62.6322 60.7574 61.4369 60.8942 61.4369 60.8942Z" fill="#0F1011"/>
<path d="M55.5985 68.0549C55.8245 68.0549 56.0076 67.8279 56.0076 67.5479C56.0076 67.268 55.8245 67.041 55.5985 67.041C55.3726 67.041 55.1895 67.268 55.1895 67.5479C55.1895 67.8279 55.3726 68.0549 55.5985 68.0549Z" fill="#0F1011"/>
<path d="M58.8232 67.7272C59.0491 67.7272 59.2323 67.5003 59.2323 67.2203C59.2323 66.9403 59.0491 66.7134 58.8232 66.7134C58.5972 66.7134 58.4141 66.9403 58.4141 67.2203C58.4141 67.5003 58.5972 67.7272 58.8232 67.7272Z" fill="#0F1011"/>
<path d="M59.5338 66.1394H59.5313L58.4474 66.1226C58.3977 66.1199 58.3508 66.0934 58.3166 66.0487C58.2823 66.0041 58.2633 65.9447 58.2637 65.883C58.264 65.8214 58.2836 65.7623 58.3183 65.7182C58.3531 65.6741 58.4002 65.6484 58.45 65.6465H58.4525L59.5361 65.6629C59.5871 65.6633 59.6358 65.6888 59.6717 65.7337C59.7075 65.7786 59.7275 65.8394 59.7272 65.9026C59.7269 65.9658 59.7064 66.0262 59.6701 66.0706C59.6338 66.115 59.5848 66.1398 59.5338 66.1394Z" fill="#0F1011"/>
<path d="M54.7125 66.6289C54.6653 66.6291 54.6196 66.6078 54.5843 66.569C54.5489 66.5302 54.5264 66.4766 54.5208 66.4185C54.5153 66.3604 54.5273 66.3018 54.5544 66.2539C54.5815 66.206 54.6219 66.1721 54.6679 66.1587L55.7362 65.8404C55.7609 65.8326 55.7866 65.831 55.8117 65.8356C55.8369 65.8402 55.8611 65.8509 55.8829 65.8672C55.9047 65.8835 55.9237 65.905 55.9387 65.9304C55.9538 65.9559 55.9646 65.9848 55.9706 66.0154C55.9765 66.0461 55.9775 66.0779 55.9735 66.1091C55.9694 66.1402 55.9604 66.1701 55.947 66.1969C55.9336 66.2237 55.916 66.2469 55.8953 66.2652C55.8746 66.2835 55.8511 66.2966 55.8263 66.3036L54.7577 66.6223C54.7429 66.6266 54.7277 66.6288 54.7125 66.6289Z" fill="#0F1011"/>
<path d="M53.4711 68.7869C53.4928 69.0679 53.4697 69.3514 53.403 69.6212C53.3363 69.8911 53.2274 70.142 53.0825 70.3597C52.9375 70.5774 52.7594 70.7576 52.5583 70.89C52.3571 71.0225 52.1369 71.1045 51.9102 71.1314C51.6835 71.1584 51.4547 71.1297 51.2369 71.0471C51.0191 70.9645 50.8166 70.8295 50.6409 70.6499C50.4652 70.4703 50.3198 70.2496 50.213 70.0004C50.1061 69.7511 50.0399 69.4782 50.0182 69.1973C50.0165 69.1774 50.0154 69.1571 50.0142 69.1368C49.9921 68.8607 50.014 68.5818 50.0788 68.3162C50.1437 68.0506 50.2501 67.8035 50.392 67.5888C50.5339 67.3742 50.7085 67.1963 50.9059 67.0653C51.1033 66.9343 51.3196 66.8528 51.5425 66.8254C51.5619 66.8229 51.5814 66.8208 51.6009 66.8194C52.8364 66.7708 53.3914 67.6041 53.4711 68.7869Z" fill="#FFCCC6"/>
<g opacity="0.15">
<path opacity="0.15" d="M57.4138 70.3591C57.3801 70.3588 57.3476 70.3437 57.3222 70.3164C57.2968 70.2891 57.28 70.2514 57.275 70.2102C57.27 70.1689 57.2771 70.1268 57.2949 70.0915C57.3127 70.0561 57.3402 70.0298 57.3723 70.0173L58.2043 69.7003L57.6219 68.0945C57.6065 68.0522 57.6053 68.0041 57.6185 67.9607C57.6318 67.9173 57.6584 67.8822 57.6926 67.8631C57.7267 67.844 57.7656 67.8426 57.8006 67.859C57.8356 67.8754 57.864 67.9084 57.8793 67.9507L58.5287 69.7378C58.5369 69.7604 58.5411 69.7849 58.5411 69.8097C58.5411 69.8345 58.5368 69.859 58.5286 69.8816C58.5203 69.9042 58.5083 69.9244 58.4933 69.9408C58.4783 69.9572 58.4606 69.9694 58.4415 69.9767L57.4564 70.3514C57.4426 70.3567 57.4282 70.3593 57.4138 70.3591Z" fill="#141226"/>
</g>
<path d="M55.7871 71.5398C55.7871 71.5398 57.2973 71.7371 58.3563 71.2788C58.3563 71.2788 58.3478 72.5113 57.1527 72.6327C55.9576 72.7541 55.7871 71.5398 55.7871 71.5398Z" fill="white"/>
<path d="M79.8262 81.4588C79.8262 81.4588 79.8685 77.2572 82.2923 77.4755C83.8214 77.6133 91.0871 77.1956 91.1952 78.0157C91.4629 80.0448 84.8169 80.5408 84.2138 82.4318L79.8262 81.4588Z" fill="#FFCCC6"/>
<path d="M81.4336 77.6099C81.4336 77.6099 84.8071 76.2476 85.6363 76.4904C86.3704 76.7063 84.8402 78.1872 84.8402 78.1872L81.4336 77.6099Z" fill="#FFCCC6"/>
<path d="M79.5403 79.0059L73.4567 93.0815L64.3545 82.5312C63.9362 81.7232 63.3618 81.0573 62.6834 80.5938L62.6399 80.5438L62.6297 80.5574C61.6015 79.9173 60.4689 79.5768 59.3183 79.5621C59.1404 79.5516 58.8553 79.5446 58.4882 79.5376C58.4148 81.4618 48.7987 81.4548 48.5955 79.4921C45.8795 79.4956 43.6519 80.5277 42.3616 82.1265C37.915 87.6365 43.3724 97.0264 43.3724 104.373C43.3724 111.72 40.6903 115.015 40.8879 118.787C41.1985 124.713 64.4425 123.314 65.6252 119.945C66.3178 117.974 65.8192 116.431 65.2788 113.389L70.7944 113.179L70.6069 105.554L64.5072 105.784C64.4809 104.915 64.4694 103.983 64.479 102.976C64.5072 100.009 64.9098 96.7164 65.1896 93.5583L72.2229 101.71C72.5548 102.094 72.9534 102.379 73.3882 102.542C73.823 102.706 74.2823 102.743 74.7305 102.651C75.1788 102.56 75.604 102.341 75.9734 102.014C76.3428 101.686 76.6465 101.258 76.861 100.761L84.7662 82.4714L79.5403 79.0059Z" fill="#2F3235"/>
<path d="M58.4904 79.5352C58.417 81.4594 57.5729 84.2896 54.967 84.503C51.4943 84.7864 48.8009 81.4524 48.5977 79.4897H48.6061C52.0251 79.4897 56.4972 79.4974 58.4904 79.5352Z" fill="#FFCCC6"/>
<path d="M69.3428 87.3688L65.9145 105.201C65.8612 105.478 65.8593 105.767 65.9089 106.046C65.9586 106.324 66.0585 106.585 66.2012 106.809C66.3439 107.033 66.5256 107.214 66.7327 107.338C66.9399 107.462 67.1671 107.527 67.3972 107.527H87.6074C87.9414 107.527 88.266 107.391 88.5316 107.14C88.7971 106.889 88.9888 106.537 89.0772 106.138L93.0273 88.3064C93.0893 88.0261 93.0982 87.7319 93.0535 87.4466C93.0087 87.1613 92.9114 86.8927 92.7692 86.6616C92.627 86.4305 92.4437 86.2432 92.2335 86.1142C92.0234 85.9852 91.792 85.9181 91.5575 85.918H70.8256C70.4828 85.918 70.15 86.0612 69.8809 86.3245C69.6119 86.5877 69.4223 86.9556 69.3428 87.3688Z" fill="#898BFC"/>
<path d="M58.7198 105.306H83.1465C83.384 105.306 83.6118 105.423 83.7798 105.631C83.9477 105.839 84.0421 106.122 84.0421 106.416C84.0421 106.71 83.9477 106.992 83.7798 107.201C83.6118 107.409 83.384 107.526 83.1465 107.526H58.7198C58.4822 107.526 58.2545 107.409 58.0865 107.201C57.9186 106.992 57.8242 106.71 57.8242 106.416C57.8242 106.122 57.9186 105.839 58.0865 105.631C58.2545 105.423 58.4822 105.306 58.7198 105.306Z" fill="#898BFC"/>
<path d="M80.2984 99.508C81.6185 99.508 82.6886 98.182 82.6886 96.5463C82.6886 94.9105 81.6185 93.5845 80.2984 93.5845C78.9783 93.5845 77.9082 94.9105 77.9082 96.5463C77.9082 98.182 78.9783 99.508 80.2984 99.508Z" fill="white"/>
<path d="M75.6949 109.866C74.4276 110.835 72.4654 111.293 70.7542 111.461L70.6582 107.599C71.4631 107.571 72.6997 107.466 73.9106 107.525C74.4581 106.972 74.7731 106.808 75.3347 106.112C75.9329 105.371 77.5021 104.926 77.7983 106.112C78.0944 107.298 76.8076 109.013 75.6949 109.866Z" fill="#FFCCC6"/>
<path d="M112.467 24.6416L110.143 27.438L111.064 28.49L113.389 25.6936L112.467 24.6416Z" fill="#FE786D"/>
<path d="M162.553 21.0733L161.471 21.8887L163.119 24.8922L164.201 24.0768L162.553 21.0733Z" fill="#FE786D"/>
<path d="M142.486 72.0403C133.702 67.4199 132.87 48.7632 133.282 46.9907C133.434 46.3351 133.166 46.1651 132.769 46.2105C132.239 46.1383 131.255 46.722 130.935 46.9232C130.614 46.7217 129.631 46.138 129.101 46.2105C128.703 46.1651 128.436 46.3351 128.588 46.9907C128.999 48.7632 128.168 67.4199 119.384 72.0403C117.538 73.0111 118.174 74.1671 118.174 74.1671H143.696C143.696 74.1671 144.331 73.0111 142.486 72.0403Z" fill="#FE786D"/>
<path d="M166.036 23.9679C163.478 28.6295 160.383 29.9316 156.929 31.0802C153.534 32.2096 150.602 33.1841 148.745 36.8451C148.291 37.7141 147.955 38.6607 147.749 39.6508V39.6535C147.701 39.8901 147.664 40.1295 147.637 40.3706C147.606 40.6861 147.511 40.9882 147.359 41.2511C147.229 41.4732 147.054 41.6528 146.849 41.7731C146.643 41.8933 146.415 41.9502 146.186 41.9384C145.496 41.9384 145.093 41.6112 144.858 41.2044C144.649 40.8298 144.565 40.3785 144.62 39.9357C144.631 39.841 144.643 39.7461 144.656 39.6508C144.894 38.0133 145.394 36.4435 146.131 35.0249C148.605 30.144 152.586 28.82 156.099 27.6508C159.32 26.5804 161.542 25.5688 163.478 22.0408C164.441 20.2836 165.467 16.2499 164.24 13.0439C163.284 10.5494 161.72 9.08691 159.593 8.6949C153.784 7.62581 151.055 14.257 150.942 14.5393C150.768 14.9586 150.46 15.2811 150.085 15.4376C149.71 15.594 149.297 15.5718 148.936 15.3759C148.575 15.1799 148.294 14.8258 148.153 14.3895C148.012 13.9533 148.023 13.4697 148.183 13.0426C148.896 11.3764 149.849 9.86748 151.002 8.58251C153.56 5.73158 156.694 4.55421 160.064 5.1751C163.182 5.74803 165.65 8.02466 167.014 11.5856C168.568 15.6454 167.682 20.969 166.036 23.9679Z" fill="#FE786D"/>
<path d="M95.8384 23.9679C98.3964 28.6295 101.725 29.9316 105.179 31.0802C108.575 32.2096 111.507 33.1841 113.363 36.8451C113.817 37.7141 114.154 38.6607 114.36 39.6508V39.6535C114.408 39.8901 114.445 40.1295 114.472 40.3706C114.502 40.6861 114.598 40.9882 114.75 41.2511C114.879 41.4732 115.055 41.6528 115.26 41.7731C115.465 41.8934 115.693 41.9502 115.922 41.9384C116.612 41.9384 117.016 41.6112 117.25 41.2044C117.459 40.8298 117.544 40.3785 117.488 39.9357C117.477 39.841 117.465 39.7461 117.452 39.6508C117.215 38.0133 116.714 36.4435 115.977 35.0249C113.504 30.144 109.522 28.82 106.01 27.6508C102.788 26.5804 100.332 25.5688 98.3964 22.0408C97.4338 20.2836 96.642 16.2499 97.8689 13.0439C98.8245 10.5494 100.388 9.08691 102.516 8.6949C108.324 7.62581 111.053 14.257 111.167 14.5393C111.341 14.9586 111.649 15.2811 112.024 15.4376C112.399 15.594 112.811 15.5718 113.172 15.3759C113.533 15.1799 113.815 14.8258 113.956 14.3895C114.097 13.9533 114.086 13.4697 113.926 13.0426C113.213 11.3764 112.259 9.86748 111.107 8.58251C108.549 5.73158 105.414 4.55421 102.045 5.1751C98.9263 5.74803 96.4583 8.02466 95.0945 11.5856C93.5404 15.6454 94.1927 20.969 95.8384 23.9679Z" fill="#FE786D"/>
<path d="M150.394 3.02707C150.334 2.41157 150.083 1.84346 149.689 1.43106C149.294 1.01866 148.784 0.790826 148.255 0.791016H113.822C113.294 0.790826 112.783 1.01866 112.389 1.43106C111.994 1.84346 111.743 2.41157 111.683 3.02707C111.129 8.76415 110.139 24.1486 114.349 32.637C119.592 43.2098 127.55 46.9908 129.264 46.9908H132.813C134.527 46.9908 142.485 43.2098 147.728 32.637C151.938 24.1489 150.948 8.76415 150.394 3.02707Z" fill="#FE786D"/>
<path d="M143.694 74.1665H118.184V81.3103H143.694V74.1665Z" fill="#0F1011"/>
<path d="M145.25 81.311H116.631V83.0291H145.25V81.311Z" fill="#0F1011"/>
<path d="M146.72 83.0298H115.16V84.7479H146.72V83.0298Z" fill="#0F1011"/>
<path d="M136.367 27.7781L131.018 24.4816L125.664 27.7781L126.689 20.7991L122.359 15.8548L128.341 14.8386L131.018 8.4873L133.688 14.8386L139.671 15.8548L135.342 20.7991L136.367 27.7781Z" fill="white"/>
<path d="M213.59 55.4673C213.59 55.4673 214.06 50.1283 218.059 50.1283C222.807 50.1283 219.565 65.4378 217.487 74.7999C217.266 75.801 217.227 76.8456 217.373 77.8657C217.518 78.8857 217.846 79.8582 218.334 80.7196C218.822 81.5809 219.459 82.3118 220.205 82.8645C220.95 83.4172 221.786 83.7793 222.658 83.9271C223.499 84.0706 224.356 84.0121 225.177 83.7549C225.998 83.4978 226.766 83.0475 227.434 82.4314C228.102 81.8153 228.657 81.0462 229.064 80.1709C229.47 79.2956 229.722 78.3323 229.801 77.3397C230.762 65.3351 230.539 43.1853 219.775 43.6115C212.782 43.889 212.782 52.068 212.782 52.068L213.59 55.4673Z" fill="#0F1011"/>
<path d="M213.59 73.8211C213.59 73.8211 210.697 72.0214 211.343 62.7787L205.366 61.4785C205.366 61.4785 206.038 69.7651 203.014 72.3963L213.59 73.8211Z" fill="#FFCCC6"/>
<g opacity="0.15">
<path opacity="0.15" d="M204.238 70.6642L209.203 66.2071L205.303 66.1597C205.191 67.726 204.829 69.2537 204.238 70.6642Z" fill="#141226"/>
</g>
<path d="M214.734 59.1951C214.32 61.9996 213.016 64.6548 210.908 65.5599C208.61 66.6299 206.123 67.0239 203.666 66.7078C197.123 66.0783 198.417 48.6228 201.523 45.2314C204.629 41.84 213.747 43.9878 214.856 49.6592C215.429 52.5931 215.128 56.524 214.734 59.1951Z" fill="#FFCCC6"/>
<path d="M205.374 57.0358C205.075 57.0358 204.832 56.751 204.832 56.3997C204.832 56.0484 205.075 55.7637 205.374 55.7637C205.673 55.7637 205.916 56.0484 205.916 56.3997C205.916 56.751 205.673 57.0358 205.374 57.0358Z" fill="#0F1011"/>
<path d="M201.099 56.6251C200.799 56.6251 200.556 56.3404 200.556 55.9891C200.556 55.6378 200.799 55.353 201.099 55.353C201.398 55.353 201.641 55.6378 201.641 55.9891C201.641 56.3404 201.398 56.6251 201.099 56.6251Z" fill="#0F1011"/>
<path d="M200.159 54.6326H200.162L201.598 54.6116C201.666 54.6105 201.73 54.5781 201.777 54.5214C201.824 54.4647 201.85 54.3883 201.85 54.3091C201.848 54.2303 201.82 54.1554 201.771 54.1003C201.723 54.0453 201.659 54.0144 201.591 54.0142L200.155 54.0348C200.088 54.0353 200.023 54.0673 199.976 54.1237C199.928 54.1802 199.902 54.2564 199.902 54.3357C199.903 54.415 199.93 54.4908 199.978 54.5465C200.026 54.6022 200.091 54.6332 200.159 54.6326Z" fill="#0F1011"/>
<path d="M206.545 55.2473C206.607 55.2471 206.667 55.2201 206.714 55.1715C206.76 55.1228 206.79 55.0559 206.797 54.9833C206.804 54.9107 206.789 54.8375 206.753 54.7775C206.717 54.7175 206.664 54.6749 206.604 54.6578L205.188 54.2583C205.156 54.2491 205.122 54.2475 205.089 54.2537C205.056 54.2598 205.024 54.2735 204.995 54.294C204.967 54.3145 204.942 54.3414 204.922 54.3732C204.903 54.4049 204.889 54.4409 204.881 54.4791C204.873 54.5173 204.872 54.5569 204.877 54.5957C204.882 54.6345 204.894 54.6717 204.911 54.7052C204.929 54.7388 204.951 54.7679 204.979 54.791C205.006 54.8141 205.036 54.8307 205.069 54.8399L206.484 55.2394C206.504 55.2446 206.524 55.2472 206.545 55.2473Z" fill="#0F1011"/>
<path d="M205.123 61.407C205.123 61.407 203.122 61.6546 201.719 61.0796C201.719 61.0796 201.73 62.626 203.313 62.7784C204.897 62.9307 205.123 61.407 205.123 61.407Z" fill="white"/>
<path d="M210.331 51.9283C209.76 64.7226 211.257 66.0434 211.257 66.0434C211.257 66.0434 216.705 62.1986 217.416 54.5151C218.083 47.3127 213.56 43.0583 210.503 42.2581C198.889 39.2108 197.607 51.6175 197.607 51.6175C203.42 53.3707 211.588 52.1842 211.588 52.1842" fill="#0F1011"/>
<path d="M208.194 57.955C208.164 58.3107 208.196 58.6697 208.286 59.011C208.376 59.3523 208.523 59.6691 208.719 59.9432C208.914 60.2172 209.154 60.4429 209.425 60.6072C209.695 60.7715 209.991 60.8711 210.294 60.9001C210.598 60.9292 210.903 60.8872 211.193 60.7766C211.482 60.666 211.75 60.489 211.981 60.2558C212.212 60.0226 212.401 59.7379 212.537 59.4183C212.673 59.0987 212.754 58.7505 212.774 58.394C212.804 58.0399 212.773 57.6824 212.683 57.3427C212.592 57.003 212.445 56.6882 212.249 56.4168C212.052 56.1455 211.812 55.9233 211.541 55.7635C211.27 55.6036 210.974 55.5094 210.672 55.4864C209.034 55.4262 208.297 56.4709 208.194 57.955Z" fill="#FFCCC6"/>
<g opacity="0.15">
<path opacity="0.15" d="M202.969 59.9266C203.013 59.9262 203.056 59.9072 203.09 59.8729C203.124 59.8386 203.146 59.7913 203.152 59.7396C203.159 59.6879 203.149 59.6351 203.126 59.5908C203.102 59.5464 203.066 59.5135 203.023 59.4978L201.921 59.1001L202.693 57.0853C202.712 57.0323 202.713 56.9724 202.695 56.9186C202.678 56.8648 202.643 56.8213 202.598 56.7976C202.553 56.7739 202.502 56.772 202.456 56.7921C202.41 56.8123 202.372 56.853 202.351 56.9053L201.493 59.1471C201.482 59.1754 201.477 59.2062 201.477 59.2373C201.477 59.2685 201.482 59.2992 201.493 59.3276C201.504 59.3559 201.52 59.3812 201.54 59.4018C201.56 59.4224 201.583 59.4377 201.609 59.4469L202.914 59.917C202.932 59.9234 202.95 59.9267 202.969 59.9266Z" fill="#141226"/>
</g>
<path d="M217.179 51.3218C217.312 51.3216 217.443 51.2882 217.564 51.224C217.685 51.1597 217.793 51.066 217.881 50.9491C217.969 50.8322 218.035 50.6947 218.074 50.5458C218.113 50.3969 218.124 50.2399 218.108 50.0852C217.839 48.063 216.998 46.2058 215.72 44.8125C215.532 44.6287 215.291 44.5384 215.047 44.561C214.803 44.5837 214.577 44.7174 214.416 44.9336C214.255 45.1498 214.173 45.4313 214.187 45.7177C214.201 46.0042 214.31 46.2728 214.491 46.466C215.422 47.5074 216.04 48.8747 216.253 50.3631C216.282 50.6277 216.391 50.8709 216.562 51.0474C216.732 51.2238 216.952 51.3214 217.179 51.3218Z" fill="#4F52FF"/>
<path d="M173.828 73.5308C173.828 73.5308 173.772 68.2589 170.56 68.5333C168.534 68.7062 158.907 68.1821 158.763 69.2106C158.409 71.7566 167.215 72.379 168.014 74.7516L173.828 73.5308Z" fill="#FFCCC6"/>
<path d="M171.697 68.7033C171.697 68.7033 167.227 66.9914 166.128 67.2986C165.156 67.5695 167.183 69.4276 167.183 69.4276L171.697 68.7033Z" fill="#FFCCC6"/>
<path d="M192.643 121.82C194.211 126.047 223.068 127.803 223.48 120.367C223.742 115.635 220.217 111.504 220.217 102.282C220.217 93.0591 227.465 83.5074 221.573 76.5938C219.863 74.5878 218.808 71.0674 215.209 71.063C214.94 73.5255 202.198 73.5343 202.1 71.1201C201.614 71.1288 201.236 71.1376 201.001 71.1508C188.588 71.7785 195.212 88.3535 195.331 100.53C195.477 114.779 191.027 117.465 192.643 121.82Z" fill="white"/>
<path d="M202.1 71.1201C202.198 73.5343 203.316 77.0855 206.769 77.3532C211.371 77.7088 214.94 73.5255 215.209 71.063H215.198C210.667 71.063 204.742 71.0718 202.1 71.1201Z" fill="#FFCCC6"/>
<path d="M174.205 70.4531L182.214 87.9974L194.544 73.8827C195.657 72.2252 197.411 71.1915 200.093 71.0536C200.297 71.0435 202.4 70.9658 202.525 71.1124C203.276 71.9947 203.691 87.5395 203.317 96.1769C202.908 105.527 203.329 117.203 202.949 123.916C202.924 124.356 202.822 124.786 202.648 125.178C202.475 125.57 202.234 125.915 201.941 126.192C201.648 126.469 201.309 126.671 200.946 126.787C200.583 126.902 200.203 126.928 199.831 126.862C195.798 126.139 192.652 124.906 192.194 123.67C190.578 119.315 194.307 114.776 194.161 100.527C194.124 96.6922 193.569 92.4062 193.182 88.3182L183.96 98.8747C183.524 99.3737 182.995 99.7469 182.415 99.9648C181.835 100.183 181.22 100.24 180.618 100.131C180.016 100.022 179.444 99.75 178.947 99.3371C178.45 98.9242 178.042 98.3813 177.754 97.7514L167.279 74.8032L174.205 70.4531Z" fill="#2F3235"/>
<path d="M186.043 103.764L206.893 104.51L211.36 93.5409C212.081 85.1367 213.036 77.9746 213.474 74.2176C214.035 70.738 213.736 70.9847 215.143 70.9834C218.742 70.9877 221.76 72.3599 223.47 74.366C229.362 81.2795 222.13 93.0611 222.13 102.279C222.13 111.497 225.684 115.632 225.423 120.364C225.261 123.32 223.974 127.059 214.265 127.86C213.479 127.925 212.702 127.633 212.094 127.045C211.486 126.457 211.093 125.617 210.997 124.699C210.651 121.151 210.469 117.583 210.453 114.011C210.119 114.116 209.774 114.17 209.427 114.173C209.386 114.173 209.344 114.173 209.302 114.17L185.794 113.329L186.043 103.764Z" fill="#2F3235"/>
<path d="M216.138 81.483L215.21 77.9143L216.998 76.5413L215.528 70.9972C214.628 70.9538 213.728 70.9758 212.831 71.0631C211.948 74.5264 210.997 89.3983 210.653 95.2057L216.138 81.483Z" fill="#2F3235"/>
<path d="M200.65 77.9146L199.266 83.2391L203.265 97.5403C203.265 97.5403 204.062 75.9349 203.003 71.0932C202.63 71.0343 202.254 71.0013 201.878 70.9944C201.109 70.9817 200.32 71.0427 200.32 71.0427L198.862 76.5415L200.65 77.9146Z" fill="#2F3235"/>
<g opacity="0.24">
<path opacity="0.24" d="M216.138 81.4821L215.21 77.9133L216.998 76.5403L215.528 70.9963C214.628 70.9528 213.728 70.9748 212.831 71.0621C211.948 74.5255 210.997 89.3973 210.653 95.2047L216.138 81.4821Z" fill="white"/>
</g>
<g opacity="0.24">
<path opacity="0.24" d="M200.648 77.9126L199.264 83.2372L203.263 97.5384C203.263 97.5384 204.06 75.9329 203.001 71.0912C202.628 71.0323 202.252 70.9993 201.876 70.9925C201.108 70.9797 200.318 71.0407 200.318 71.0407L198.86 76.5396L200.648 77.9126Z" fill="white"/>
</g>
<path d="M187.719 80.9444L192.262 103.318C192.332 103.667 192.335 104.029 192.269 104.378C192.203 104.728 192.071 105.055 191.882 105.336C191.693 105.617 191.452 105.844 191.178 106C190.903 106.156 190.602 106.237 190.297 106.238H163.517C163.075 106.237 162.644 106.067 162.293 105.752C161.941 105.437 161.687 104.996 161.57 104.495L156.335 82.1208C156.253 81.7691 156.241 81.3999 156.301 81.042C156.36 80.6841 156.489 80.347 156.677 80.0571C156.866 79.7671 157.109 79.5321 157.387 79.3702C157.666 79.2084 157.972 79.1242 158.283 79.124H185.754C186.209 79.1241 186.65 79.3038 187.006 79.634C187.363 79.9643 187.614 80.426 187.719 80.9444Z" fill="#FE7E73"/>
<path d="M169.429 103.452H201.796C202.451 103.452 202.982 104.075 202.982 104.844C202.982 105.613 202.451 106.236 201.796 106.236H169.429C168.773 106.236 168.242 105.613 168.242 104.844C168.242 104.075 168.773 103.452 169.429 103.452Z" fill="#FE7E73"/>
<path d="M173.202 96.1761C171.453 96.1761 170.035 94.5123 170.035 92.4599C170.035 90.4075 171.453 88.7437 173.202 88.7437C174.951 88.7437 176.369 90.4075 176.369 92.4599C176.369 94.5123 174.951 96.1761 173.202 96.1761Z" fill="white"/>
<path d="M179.302 109.175C180.982 110.391 183.582 110.966 185.849 111.177L185.977 106.331C184.91 106.296 183.271 106.164 181.666 106.239C180.941 105.545 180.524 105.339 179.78 104.465C178.987 103.536 176.908 102.977 176.515 104.465C176.122 105.953 177.828 108.104 179.302 109.175Z" fill="#FFCCC6"/>
<path d="M170.65 32.5229L172.74 40.9736L179.503 40.9736L174.031 46.1964L176.121 54.647L170.65 49.4242L165.179 54.647L167.269 46.1964L161.797 40.9736L168.56 40.9736L170.65 32.5229Z" fill="#96B7FB"/>
</svg>
