<svg width="260" height="198" viewBox="0 0 260 198" fill="none" xmlns="http://www.w3.org/2000/svg">
<path d="M15.1263 197.791C5.1818 197.791 -2.03585 186.585 0.517299 175.159C3.87191 160.148 8.40884 149.692 28.568 137.605C46.0443 127.114 60.0539 111.741 68.8627 93.3879C81.317 67.4522 87.3678 43.3442 110.768 43.3442C145.395 43.3442 145.577 74.884 155.901 78.0914C166.225 81.2988 200.832 71.7735 208.562 99.8895C222.852 151.862 242.033 126.807 256.919 166.83C257.849 169.354 258.65 171.923 259.319 174.528C262.318 186.085 255.037 197.791 244.862 197.791L15.1263 197.791Z" fill="#ECF3F9"/>
<path d="M90.8053 28.065C90.4588 28.7641 90.1104 29.4609 90.035 29.6153C89.6926 30.3036 89.3808 30.9276 89.2361 31.2235C89.1485 31.3993 89.0752 31.5473 89.0731 31.5516C89.069 31.5558 88.1296 31.5816 86.1183 31.6309C85.8493 31.6373 85.2645 31.6523 84.8161 31.6652C84.3699 31.6759 84.0031 31.6845 83.999 31.6802C83.9949 31.6738 83.3 30.4366 82.762 29.4759C81.9021 27.9407 81.3967 27.0422 81.3947 27.0401C81.3926 27.038 81.1705 27.0937 80.9036 27.1645C80.5306 27.261 80.4084 27.3017 80.386 27.3339C80.3717 27.3553 80.3493 27.3703 80.3391 27.3639C80.3289 27.3553 80.3207 27.3617 80.3207 27.3746C80.3207 27.3896 80.3065 27.396 80.2902 27.3875C80.2739 27.381 80.2596 27.3875 80.2596 27.4025C80.2596 27.4218 80.2555 27.4218 80.2433 27.4025C80.2209 27.3639 80.1699 27.3596 80.1679 27.396C80.1679 27.4132 80.1577 27.4282 80.1434 27.4282C80.1292 27.4282 80.1068 27.4411 80.0945 27.4539C80.0579 27.4925 80.0864 27.4882 80.1618 27.4475C80.1944 27.4282 80.2168 27.4239 80.2107 27.4346C80.2046 27.4454 80.1516 27.4818 80.0925 27.514C80.0334 27.5461 79.956 27.5976 79.9213 27.6255C79.8663 27.6684 79.8561 27.6705 79.8439 27.6426C79.8378 27.6233 79.8398 27.6126 79.848 27.619C79.8582 27.6255 79.8663 27.6169 79.8663 27.6019C79.8663 27.5847 79.85 27.5783 79.8296 27.5826C79.8011 27.5912 79.797 27.5826 79.8052 27.5461C79.8113 27.5204 79.8235 27.5075 79.8296 27.5204C79.8459 27.5461 79.9376 27.5697 79.9213 27.544C79.9152 27.5333 79.9193 27.5247 79.9315 27.5247C79.9417 27.5247 79.9539 27.5354 79.958 27.5504C79.9641 27.5697 79.9702 27.5697 79.9825 27.5504C79.9906 27.5354 79.9865 27.5247 79.9764 27.5247C79.9641 27.5247 79.9539 27.5161 79.9539 27.5054C79.9539 27.4925 79.9723 27.4882 79.9927 27.4925C80.0375 27.5011 80.066 27.4496 80.0314 27.4261C80.0191 27.4175 80.0151 27.4196 80.0212 27.4325C80.0293 27.4454 80.0212 27.4604 80.0049 27.4668C79.9865 27.4754 79.9804 27.4689 79.9886 27.4475C79.9947 27.4325 79.9886 27.4175 79.9764 27.4175C79.9641 27.4175 79.9539 27.4325 79.9539 27.4496C79.9539 27.499 79.8683 27.529 79.8378 27.4882C79.8174 27.4625 79.8133 27.4647 79.8011 27.5011C79.795 27.5268 79.7766 27.5461 79.7624 27.5461C79.7461 27.5461 79.7196 27.5676 79.7012 27.5933C79.6849 27.6212 79.6748 27.6276 79.6809 27.6083C79.687 27.5869 79.6809 27.5654 79.6666 27.5547C79.6523 27.5461 79.6462 27.5483 79.6544 27.559C79.6605 27.5697 79.6381 27.5804 79.6055 27.5804C79.5586 27.5826 79.5504 27.5783 79.5668 27.5569C79.5851 27.5333 79.581 27.5311 79.5464 27.5397C79.524 27.5461 79.4995 27.559 79.4954 27.5697C79.4893 27.5783 79.4689 27.5804 79.4486 27.574C79.4221 27.5654 79.4221 27.5697 79.4547 27.5955C79.4893 27.6255 79.4914 27.6298 79.4608 27.6319C79.4424 27.6319 79.42 27.6212 79.4139 27.6083C79.4037 27.5933 79.3874 27.5976 79.365 27.619C79.3446 27.6383 79.3202 27.6469 79.31 27.6383C79.2998 27.6276 79.2998 27.6298 79.308 27.6426C79.3181 27.6555 79.3365 27.6641 79.3487 27.6641C79.363 27.6641 79.3752 27.6834 79.3793 27.707C79.3833 27.7391 79.3813 27.7413 79.367 27.722C79.3528 27.6984 79.3467 27.6984 79.3365 27.7263C79.3283 27.7456 79.3141 27.7606 79.3018 27.7606C79.2896 27.7606 79.2855 27.7498 79.2916 27.7391C79.2978 27.7263 79.2937 27.7177 79.2835 27.7177C79.2713 27.7177 79.2611 27.7305 79.2611 27.7434C79.2611 27.7627 79.2529 27.7606 79.2407 27.7391C79.2305 27.722 79.2203 27.7177 79.2203 27.7305C79.2203 27.7434 79.1735 27.752 79.1082 27.752C79.0349 27.752 79.0043 27.7456 79.0206 27.7327C79.039 27.7198 79.0349 27.7177 79.0104 27.7263C78.9901 27.7327 78.9676 27.7391 78.9615 27.7391C78.9554 27.7391 78.9615 27.7541 78.9758 27.7713C78.9962 27.797 78.9962 27.8034 78.9697 27.8034C78.9513 27.8034 78.931 27.7927 78.9248 27.782C78.9147 27.7649 78.9024 27.767 78.8841 27.782C78.8678 27.797 78.8474 27.8013 78.8372 27.797C78.8291 27.7906 78.8087 27.7949 78.7924 27.8056C78.7659 27.8249 78.7659 27.827 78.7924 27.8185C78.8372 27.8056 78.8943 27.842 78.8922 27.8849C78.8922 27.9085 78.8882 27.9128 78.88 27.8935C78.8719 27.8721 78.8637 27.8742 78.8433 27.9042C78.8189 27.9364 78.8087 27.9385 78.774 27.9149C78.7476 27.8999 78.7313 27.8978 78.7313 27.9107C78.7313 27.9214 78.7231 27.9321 78.7129 27.9321C78.7027 27.9321 78.6966 27.9149 78.7007 27.8935C78.7027 27.8699 78.719 27.8592 78.7435 27.8635C78.77 27.8699 78.7761 27.8635 78.7618 27.8485C78.7496 27.8356 78.7211 27.8313 78.6946 27.8399C78.6599 27.8485 78.6538 27.8592 78.6701 27.8785C78.7007 27.9171 78.666 27.9364 78.6029 27.9214C78.5662 27.9107 78.5458 27.9214 78.5193 27.9664C78.4989 27.9964 78.4928 28.0157 78.5051 28.0093C78.5193 27.9986 78.5254 28.0136 78.5234 28.0479C78.5193 28.0972 78.5132 28.1015 78.4134 28.0972C78.3217 28.0929 78.3115 28.0886 78.3481 28.0693C78.3767 28.0543 78.3828 28.0393 78.3665 28.0307C78.3543 28.0222 78.3502 28.005 78.3563 27.9921C78.3644 27.9771 78.3604 27.975 78.3481 27.9836C78.3359 27.9921 78.3298 28.0114 78.3359 28.0264C78.342 28.0436 78.3278 28.0629 78.2992 28.0715C78.232 28.0951 78.1199 28.1015 78.1321 28.0801C78.1444 28.0586 78.0812 28.0801 78.0465 28.1058C78.0343 28.1165 78.018 28.1208 78.0099 28.1144C78.0038 28.1079 78.0058 28.1165 78.018 28.1294C78.0465 28.1658 78.0445 28.1958 78.0139 28.1765C77.9936 28.1637 77.9936 28.168 78.0139 28.1916C78.0506 28.2344 78.0425 28.2752 77.9956 28.2752C77.9732 28.2752 77.961 28.2645 77.9671 28.2537C77.9752 28.2409 77.9915 28.2387 78.0038 28.2473C78.018 28.2559 78.016 28.2473 77.9997 28.2259C77.9711 28.1894 77.9243 28.1744 77.9447 28.2087C77.9508 28.2194 77.9426 28.2387 77.9263 28.2537C77.9019 28.2752 77.8856 28.2752 77.8489 28.2559C77.8122 28.2344 77.8102 28.2323 77.8448 28.243C77.8856 28.2537 77.8856 28.2537 77.8448 28.2216C77.8081 28.1916 77.804 28.1916 77.7898 28.2323C77.7816 28.2559 77.7633 28.2752 77.7511 28.2752C77.7348 28.2752 77.7368 28.2645 77.7551 28.2387C77.7796 28.2066 77.7796 28.2044 77.747 28.2173C77.7266 28.2259 77.7062 28.2323 77.7042 28.2323C77.7001 28.2323 77.7001 28.2773 77.7042 28.3352L77.7123 28.436L77.6003 28.4424C77.531 28.4467 77.4882 28.4403 77.4882 28.4274C77.4882 28.4146 77.478 28.4038 77.4658 28.4038C77.4556 28.4038 77.4495 28.4124 77.4576 28.4231C77.4637 28.436 77.4495 28.4403 77.4271 28.436C77.4046 28.4317 77.3863 28.4381 77.3863 28.4489C77.3863 28.4617 77.3761 28.4639 77.3639 28.4553C77.3354 28.4381 77.3659 28.4038 77.4189 28.3931C77.4413 28.3888 77.4617 28.3845 77.4678 28.3824C77.4739 28.3802 77.4923 28.376 77.5086 28.3738C77.5249 28.3738 77.5371 28.3588 77.533 28.3438C77.531 28.3309 77.5432 28.3181 77.5595 28.3181C77.5758 28.3181 77.5901 28.3331 77.5901 28.3545C77.5901 28.3888 77.6186 28.376 77.6227 28.3374C77.6288 28.2902 77.6329 28.288 77.6512 28.3181C77.6655 28.3438 77.6696 28.3395 77.6655 28.3009C77.6655 28.2752 77.6614 28.2537 77.6594 28.2537C77.6247 28.2537 76.5569 28.7448 76.1534 28.9463C75.9863 29.0299 75.8457 29.0986 75.8437 29.1007C75.8416 29.1007 75.8722 29.328 75.9109 29.6046C76.0454 30.5566 76.2146 31.7724 76.4591 33.5178C76.5202 33.966 76.5773 34.3541 76.5814 34.3798C76.5895 34.4205 76.3266 34.6392 74.6006 36.0287C73.5043 36.91 72.5954 37.639 72.5832 37.6519C72.5526 37.6755 72.6076 37.699 71.5786 37.2316C69.608 36.3375 67.8983 35.5591 67.8799 35.5527C67.8555 35.542 67.4805 35.9987 67.1137 36.4876C66.1967 37.7033 65.4285 38.917 64.7234 40.27L64.5216 40.6516L64.9394 41.0955C65.1697 41.3378 65.9746 42.2019 66.7286 43.0124L68.1 44.4898L67.3847 47.0329C66.9915 48.4309 66.6613 49.5823 66.6511 49.5931C66.643 49.6016 65.5242 49.874 64.1671 50.1956C62.8078 50.5172 61.6911 50.7853 61.685 50.7917C61.6707 50.8067 61.6402 51.1669 61.6239 51.5057C61.6157 51.6365 61.6076 51.7716 61.6015 51.808C61.577 51.9732 61.5689 53.8794 61.5913 54.3382C61.6116 54.7671 61.6748 55.6419 61.7054 55.9357C61.7584 56.4482 61.8236 56.9563 61.8338 56.9671C61.8419 56.9735 62.2699 57.0528 62.7854 57.1429C63.301 57.2351 64.2404 57.4002 64.8742 57.5117C65.5079 57.6253 66.213 57.7497 66.4412 57.7904C66.6695 57.8312 66.859 57.8676 66.8651 57.8719C66.8692 57.8784 67.2543 59.0084 67.7189 60.3871C68.4464 62.5442 68.5585 62.8958 68.5341 62.9237C68.5198 62.943 67.7577 63.8522 66.8447 64.9479L65.1819 66.9356L65.2899 67.1242C66.211 68.7174 67.3379 70.2655 68.5708 71.6336L68.7766 71.8608L71.0671 70.6644C73.3413 69.4743 73.3596 69.4657 73.4105 69.5C73.4391 69.5215 73.7203 69.7209 74.0341 69.9482C74.3479 70.1755 75.2201 70.8016 75.97 71.3419C76.722 71.8823 77.3781 72.3583 77.4332 72.4012C77.5167 72.4677 77.5289 72.487 77.5289 72.5534C77.5289 72.6392 77.48 73.2203 77.3781 74.3867C77.3374 74.8349 77.264 75.6797 77.2131 76.2629C77.1621 76.8462 77.1071 77.4423 77.0949 77.5859L77.0684 77.8497L77.3455 77.9676C78.446 78.4479 79.8439 78.9261 81.0462 79.2348C81.415 79.3292 82.3667 79.5393 82.6642 79.5908C82.7152 79.5994 82.7539 79.5264 83.6383 77.7339C84.1457 76.7068 84.6776 75.6304 84.8223 75.3409L85.0851 74.8156L87.3838 74.747C88.6493 74.7105 89.7904 74.6784 89.9188 74.6784L90.1532 74.6762L90.3773 75.0686C90.4996 75.283 91.0844 76.3165 91.6774 77.3672C92.2684 78.4157 92.7595 79.282 92.7677 79.2884C92.7758 79.297 92.9612 79.2541 93.1793 79.1962C94.5752 78.8274 95.9629 78.33 97.2386 77.7403C97.53 77.6052 98.2962 77.2321 98.3105 77.2193C98.3125 77.215 98.1862 76.3208 98.0313 75.2316C97.7012 72.933 97.5545 71.8866 97.5647 71.8801C97.581 71.8673 101.314 68.8375 101.455 68.7217L101.569 68.6273L102.219 68.9168C102.578 69.0755 103.621 69.5451 104.54 69.9589C105.459 70.3749 106.225 70.7201 106.246 70.7244C106.323 70.748 107.379 69.35 108.029 68.3615C108.55 67.566 109.294 66.2751 109.545 65.7305L109.59 65.6297L109.174 65.1794C108.946 64.9328 108.141 64.0709 107.385 63.2668C106.142 61.9417 106.013 61.8001 106.024 61.7487C106.036 61.6886 107.422 56.6797 107.43 56.6733C107.436 56.6669 108.877 56.3195 109.624 56.1415C109.895 56.0772 110.89 55.8413 112.08 55.5562C112.259 55.5133 112.41 55.4747 112.414 55.4725C112.428 55.4597 112.475 54.6642 112.5 54.0059C112.545 52.7322 112.481 51.2763 112.322 49.964C112.294 49.7282 112.265 49.4901 112.259 49.4365C112.253 49.3808 112.241 49.3229 112.233 49.3079C112.223 49.2907 111.86 49.22 111.261 49.1149C109.247 48.7675 107.189 48.4073 107.187 48.403C107.161 48.3666 105.49 43.3984 105.496 43.3791C105.502 43.3619 106.254 42.4485 107.169 41.3464C108.082 40.2442 108.83 39.3351 108.83 39.3265C108.83 39.3201 108.764 39.2 108.683 39.0628C107.776 37.5211 106.71 36.063 105.524 34.7443L105.239 34.4291L102.965 35.6299C101.712 36.2924 100.674 36.8285 100.656 36.8242C100.632 36.8178 98.6773 35.4262 97.3059 34.4398C97.206 34.3669 96.9778 34.204 96.8025 34.0774C96.4276 33.8116 96.4622 33.893 96.5111 33.3548C96.5274 33.1726 96.5641 32.7437 96.5926 32.4028C96.6211 32.0597 96.6497 31.7317 96.6538 31.6738C96.6599 31.6137 96.6782 31.3972 96.6945 31.1913C96.7128 30.9855 96.7312 30.7668 96.7353 30.7089C96.7414 30.6488 96.7821 30.1578 96.827 29.6153C96.8718 29.0728 96.9126 28.5947 96.9187 28.5518L96.9289 28.4767L96.4765 28.288C95.1091 27.7155 93.7682 27.2867 92.3947 26.9779C91.9566 26.8793 91.5368 26.7957 91.4798 26.7957C91.4431 26.7957 91.3371 26.9972 90.8053 28.065ZM79.4037 27.6319C79.4037 27.6426 79.3935 27.6534 79.3813 27.6534C79.3711 27.6534 79.367 27.6426 79.3732 27.6319C79.3793 27.619 79.3895 27.6105 79.3956 27.6105C79.3997 27.6105 79.4037 27.619 79.4037 27.6319ZM79.7991 27.6555C79.795 27.6641 79.8031 27.6748 79.8154 27.6791C79.8378 27.6877 79.7665 27.7456 79.7298 27.7498C79.7237 27.7498 79.689 27.782 79.6503 27.8206C79.6116 27.8571 79.5749 27.8828 79.5708 27.8785C79.5647 27.8721 79.5484 27.8849 79.5341 27.9064C79.5097 27.9407 79.5077 27.9385 79.5056 27.8978C79.5056 27.8721 79.5199 27.8399 79.5362 27.8249C79.5525 27.8099 79.5606 27.7884 79.5525 27.7777C79.5443 27.7627 79.5647 27.7584 79.6055 27.7649C79.6503 27.7713 79.6686 27.767 79.6686 27.7456C79.6686 27.7284 79.6768 27.7198 79.687 27.7263C79.6951 27.7327 79.7196 27.7198 79.74 27.6962C79.7807 27.6491 79.7563 27.6362 79.7094 27.6791C79.6849 27.7027 79.6849 27.7005 79.7074 27.6705C79.7318 27.6362 79.8194 27.6233 79.7991 27.6555ZM79.475 27.7134C79.4567 27.7177 79.4486 27.7305 79.4547 27.7413C79.4608 27.752 79.4526 27.7541 79.4343 27.7477C79.4058 27.7348 79.4058 27.7305 79.4363 27.6941C79.4649 27.6619 79.475 27.6576 79.4893 27.6791C79.4975 27.6962 79.4934 27.7091 79.475 27.7134ZM79.5362 27.7799C79.5423 27.7906 79.5382 27.8056 79.526 27.8142C79.5158 27.8206 79.5056 27.812 79.5056 27.7949C79.5056 27.7563 79.5178 27.7498 79.5362 27.7799ZM78.9147 27.8034C78.9147 27.8142 78.9045 27.8249 78.8922 27.8249C78.882 27.8249 78.878 27.8142 78.8841 27.8034C78.8902 27.7906 78.9004 27.782 78.9065 27.782C78.9106 27.782 78.9147 27.7906 78.9147 27.8034ZM78.986 27.8849C78.9676 27.8892 78.9595 27.9021 78.9656 27.9128C78.9717 27.9235 78.9636 27.9257 78.9452 27.9192C78.9167 27.9064 78.9167 27.9021 78.9473 27.8656C78.9758 27.8335 78.986 27.8292 79.0002 27.8506C79.0084 27.8678 79.0043 27.8806 78.986 27.8849ZM79.4445 27.9857C79.3915 28.0457 79.3528 28.0457 79.3507 27.9836C79.3467 27.9407 79.3569 27.9342 79.416 27.9364L79.4852 27.9385L79.4445 27.9857ZM79.1592 28.168C79.1694 28.168 79.1877 28.1508 79.1979 28.1294C79.2122 28.1058 79.2183 28.1015 79.2203 28.1229C79.2203 28.1465 79.2264 28.1465 79.2509 28.1251C79.2692 28.1101 79.2815 28.1079 79.2815 28.1208C79.2815 28.1337 79.2326 28.1851 79.1755 28.2366C79.1164 28.2859 79.0553 28.3438 79.041 28.3609C79.0247 28.3781 79.0186 28.3802 79.0267 28.3674C79.0349 28.3502 79.0288 28.3438 79.0104 28.3524C78.9941 28.3588 78.9758 28.3481 78.9676 28.3288C78.9615 28.3073 78.9636 28.2988 78.9778 28.3095C78.9901 28.3159 79.0165 28.3031 79.039 28.2773C79.0716 28.2409 79.0736 28.2301 79.0491 28.2066C79.0247 28.183 79.0247 28.1744 79.0512 28.1422C79.0777 28.1101 79.0858 28.1101 79.1123 28.1358C79.1286 28.153 79.149 28.168 79.1592 28.168ZM78.9248 28.2966C78.933 28.3095 78.9228 28.3116 78.9024 28.3031C78.8739 28.2923 78.8698 28.2966 78.88 28.3266C78.8882 28.3481 78.8861 28.3588 78.8739 28.3502C78.8433 28.3309 78.8494 28.2752 78.882 28.2752C78.8984 28.2752 78.9187 28.2838 78.9248 28.2966ZM78.9432 28.436C78.9534 28.4639 78.7313 28.704 78.6946 28.704C78.6823 28.704 78.666 28.7126 78.6599 28.7255C78.6518 28.7383 78.662 28.7405 78.6823 28.7319C78.7109 28.7212 78.7088 28.7276 78.6762 28.7619C78.6538 28.7855 78.6253 28.8241 78.6131 28.8455C78.6008 28.867 78.5845 28.8777 78.5764 28.8691C78.5682 28.8605 78.5825 28.8284 78.611 28.7962C78.6559 28.7448 78.6559 28.7405 78.6192 28.7533C78.5866 28.7662 78.5886 28.7576 78.6334 28.7169C78.664 28.689 78.6823 28.659 78.6742 28.6504C78.666 28.6418 78.6701 28.6397 78.6823 28.644C78.6925 28.6461 78.7333 28.614 78.772 28.5689C78.8209 28.5089 78.8433 28.4939 78.8556 28.5153C78.8698 28.5368 78.8739 28.5346 78.8739 28.5046C78.8739 28.4853 78.8637 28.4682 78.8494 28.4682C78.8372 28.4682 78.8331 28.4617 78.8393 28.4553C78.8474 28.4467 78.8657 28.4531 78.882 28.466C78.9024 28.4832 78.9147 28.4853 78.9248 28.4682C78.931 28.4574 78.9289 28.4467 78.9187 28.4467C78.9065 28.4467 78.8943 28.4317 78.8882 28.4167C78.88 28.3953 78.8861 28.3888 78.9045 28.3953C78.9187 28.4017 78.9371 28.4188 78.9432 28.436ZM78.7577 28.4896C78.7659 28.4896 78.7679 28.481 78.7618 28.4682C78.7557 28.4553 78.7639 28.4531 78.7802 28.4596C78.7985 28.466 78.8128 28.481 78.8128 28.4917C78.8128 28.5261 78.7374 28.5132 78.7088 28.4724C78.6864 28.4424 78.6864 28.4403 78.7109 28.4617C78.7272 28.4767 78.7476 28.4896 78.7577 28.4896ZM77.2661 28.4875C77.2375 28.5068 77.2518 28.5539 77.2864 28.5539C77.2987 28.5539 77.3007 28.5432 77.2926 28.5282C77.2844 28.5132 77.2864 28.511 77.3027 28.5196C77.315 28.5282 77.3394 28.5239 77.3557 28.511C77.3822 28.4896 77.3863 28.4939 77.3843 28.5453C77.3843 28.599 77.3802 28.6011 77.3659 28.5646C77.3517 28.5282 77.3476 28.5261 77.3354 28.5561C77.3272 28.5775 77.3068 28.5882 77.2844 28.5818C77.264 28.5754 77.2416 28.5818 77.2355 28.5947C77.2273 28.6075 77.211 28.6183 77.2009 28.6183C77.1886 28.6183 77.1866 28.6075 77.1927 28.5968C77.1988 28.5839 77.1947 28.5754 77.1846 28.5754C77.1723 28.5754 77.1621 28.5861 77.1621 28.6011C77.1621 28.614 77.156 28.6183 77.1479 28.6118C77.1418 28.6032 77.152 28.5754 77.1744 28.5518C77.2131 28.5046 77.2131 28.5046 77.1683 28.5346C77.1418 28.5518 77.1214 28.5775 77.1214 28.5904C77.1214 28.614 77.1132 28.614 77.0806 28.5925C77.0399 28.5646 77.0399 28.5539 77.0847 28.5453C77.099 28.5411 77.1438 28.5239 77.1825 28.5046C77.2579 28.4682 77.3129 28.4574 77.2661 28.4875ZM78.7516 28.5561C78.7516 28.5861 78.717 28.5775 78.7048 28.5453C78.6966 28.5239 78.7027 28.5175 78.7231 28.5261C78.7374 28.5325 78.7516 28.5453 78.7516 28.5561ZM77.0399 28.6118C77.0399 28.6225 77.0175 28.6311 76.9889 28.6311C76.9604 28.6333 76.9441 28.6268 76.9502 28.6161C76.9624 28.5925 77.0399 28.5904 77.0399 28.6118ZM78.6151 28.6483C78.6232 28.6719 78.6171 28.6761 78.5947 28.6676C78.5703 28.6568 78.5642 28.6633 78.5743 28.689C78.5825 28.7126 78.5784 28.719 78.556 28.7105C78.5193 28.6954 78.5193 28.6933 78.5601 28.6526C78.5988 28.6097 78.6008 28.6097 78.6151 28.6483ZM76.9095 28.7019C76.9013 28.7147 76.8809 28.7255 76.8626 28.7255C76.8361 28.7255 76.8341 28.7298 76.8585 28.7619C76.885 28.7962 76.883 28.7984 76.8524 28.7705C76.8218 28.7469 76.8157 28.7469 76.8137 28.7705C76.8137 28.7919 76.8096 28.7941 76.8014 28.7726C76.7974 28.7598 76.7831 28.7469 76.7729 28.7469C76.7607 28.7469 76.7566 28.7555 76.7627 28.7641C76.7668 28.7726 76.7362 28.7812 76.6914 28.7812L76.6099 28.7834L76.7077 28.7319C76.7607 28.704 76.8157 28.6783 76.83 28.674C76.8442 28.6719 76.8626 28.6633 76.8707 28.6547C76.8911 28.6333 76.9258 28.674 76.9095 28.7019ZM76.9991 28.704C76.9991 28.7147 76.991 28.7255 76.9787 28.7255C76.9685 28.7255 76.9584 28.7147 76.9584 28.704C76.9584 28.6912 76.9685 28.6826 76.9787 28.6826C76.991 28.6826 76.9991 28.6912 76.9991 28.704ZM78.5682 28.822C78.556 28.837 78.554 28.867 78.5621 28.8863C78.5703 28.9142 78.5682 28.9206 78.5519 28.9099C78.5254 28.8927 78.5193 28.8069 78.5397 28.7834C78.5642 28.7576 78.5906 28.7919 78.5682 28.822ZM76.5569 28.8584C76.561 28.8734 76.5508 28.8991 76.5325 28.9142C76.5039 28.9377 76.5039 28.9377 76.5365 28.927C76.5549 28.9206 76.5712 28.9249 76.5712 28.9377C76.5712 28.9656 76.4571 28.9699 76.4408 28.942C76.4346 28.9313 76.4489 28.9184 76.4734 28.912C76.4978 28.9034 76.5121 28.8927 76.506 28.8863C76.4999 28.8777 76.4734 28.882 76.4509 28.897C76.4143 28.9163 76.4082 28.9399 76.4082 29.0707C76.4082 29.1993 76.4041 29.2208 76.3776 29.2101C76.3511 29.2015 76.3511 29.2058 76.3674 29.2401C76.3776 29.2615 76.3796 29.2851 76.3715 29.2915C76.3613 29.298 76.3552 29.3301 76.3572 29.3623C76.3654 29.4781 76.3674 29.4888 76.3837 29.4609C76.3918 29.4481 76.398 29.4824 76.4 29.536C76.4 29.5917 76.398 29.6239 76.3939 29.6089C76.3878 29.596 76.3755 29.5874 76.3674 29.5939C76.3572 29.6003 76.3491 29.5874 76.3511 29.5681C76.3511 29.5467 76.3429 29.4481 76.3307 29.3473C76.2798 28.9099 76.2798 28.9227 76.3165 28.9828C76.3491 29.0364 76.3491 29.0364 76.3389 28.9871C76.3307 28.9442 76.3348 28.942 76.3633 28.9656C76.3898 28.9892 76.3939 28.9892 76.3817 28.957C76.3715 28.927 76.3878 28.9077 76.4448 28.8777C76.5345 28.8262 76.5447 28.8241 76.5569 28.8584ZM78.4867 28.9892C78.4867 28.9999 78.448 29.0578 78.4011 29.12C78.3033 29.2465 78.2707 29.283 78.289 29.2487C78.2952 29.2358 78.289 29.2251 78.2727 29.2251C78.2524 29.2251 78.2503 29.2358 78.2626 29.2615C78.287 29.3087 78.2177 29.3816 78.177 29.3559C78.1586 29.3451 78.1607 29.3516 78.181 29.3795C78.1994 29.403 78.2014 29.4138 78.1872 29.403C78.1688 29.3923 78.1607 29.403 78.1607 29.4309C78.1607 29.4566 78.1525 29.4759 78.1423 29.4759C78.0995 29.4759 78.1036 29.4331 78.1546 29.3559C78.1872 29.3044 78.2075 29.2465 78.2055 29.2015C78.2035 29.1479 78.2116 29.1329 78.2401 29.1329C78.2605 29.1329 78.285 29.1479 78.2911 29.1672C78.3094 29.2208 78.3828 29.1157 78.3726 29.0514C78.3665 29.0235 78.3685 28.9935 78.3746 28.9828C78.3889 28.957 78.4867 28.9635 78.4867 28.9892ZM78.1118 29.3473C78.1118 29.3644 78.1016 29.4009 78.0853 29.4266C78.0669 29.4609 78.0649 29.4781 78.0832 29.4888C78.0975 29.4995 78.0995 29.4952 78.0893 29.4738C78.073 29.4481 78.0771 29.4481 78.1056 29.4738C78.1423 29.5038 78.1321 29.551 78.0955 29.5274C78.0832 29.5188 78.0792 29.521 78.0853 29.5338C78.0934 29.5467 78.0853 29.5724 78.071 29.5939C78.0486 29.6282 78.0445 29.611 78.0404 29.4674C78.0364 29.3173 78.0404 29.3023 78.073 29.3087C78.0934 29.313 78.1097 29.3301 78.1118 29.3473ZM76.4082 29.3687C76.4082 29.3795 76.4041 29.3902 76.4 29.3902C76.3939 29.3902 76.3837 29.3795 76.3776 29.3687C76.3715 29.3559 76.3755 29.3473 76.3857 29.3473C76.398 29.3473 76.4082 29.3559 76.4082 29.3687ZM78.016 29.6882C78.0058 29.7075 77.9752 29.7611 77.9487 29.8083C77.9222 29.8555 77.8835 29.8962 77.8631 29.8984C77.8285 29.9048 77.8285 29.9026 77.8652 29.8855C77.8937 29.8705 77.8978 29.864 77.8754 29.8619C77.8591 29.8576 77.8367 29.8576 77.8285 29.8598C77.8183 29.8619 77.8183 29.8512 77.8244 29.8383C77.8326 29.8255 77.857 29.819 77.8774 29.8255C77.908 29.834 77.9121 29.8297 77.8958 29.7976C77.8672 29.7418 77.8713 29.7247 77.9019 29.7525C77.9182 29.7654 77.9365 29.7697 77.9426 29.7611C77.9691 29.7332 77.9569 29.6968 77.9121 29.6754C77.8713 29.6539 77.8754 29.6518 77.9508 29.6518C78.0262 29.6518 78.0343 29.6582 78.016 29.6882ZM76.4 29.744C76.398 29.8147 76.3674 29.8147 76.3674 29.744C76.3674 29.714 76.3755 29.6904 76.3857 29.6904C76.3959 29.6904 76.402 29.714 76.4 29.744ZM77.7837 29.8405C77.7776 29.8512 77.7592 29.8619 77.747 29.8619C77.7327 29.8619 77.7348 29.8533 77.7531 29.8405C77.7918 29.8147 77.8 29.8147 77.7837 29.8405ZM76.402 29.952C76.3959 29.967 76.3918 29.9562 76.3918 29.9262C76.3918 29.8962 76.3959 29.8855 76.402 29.8984C76.4061 29.9134 76.4061 29.9391 76.402 29.952ZM77.7735 29.9262C77.7735 29.937 77.7694 29.9477 77.7653 29.9477C77.7592 29.9477 77.749 29.937 77.7429 29.9262C77.7368 29.9134 77.7409 29.9048 77.7511 29.9048C77.7633 29.9048 77.7735 29.9134 77.7735 29.9262ZM77.7857 29.982C77.7348 30.0206 77.7123 30.0206 77.7123 29.9798C77.7123 29.9627 77.7246 29.9541 77.7409 29.9605C77.7572 29.967 77.7755 29.9605 77.7837 29.9477C77.7918 29.9348 77.804 29.9305 77.8102 29.937C77.8183 29.9455 77.8061 29.9648 77.7857 29.982ZM77.7572 30.1235C77.7409 30.1449 77.7348 30.1621 77.745 30.1621C77.7551 30.1621 77.745 30.1771 77.7246 30.1943C77.7022 30.2114 77.6899 30.2264 77.6981 30.2264C77.7164 30.2264 77.6533 30.3615 77.6268 30.3787C77.6166 30.3851 77.6064 30.4044 77.6023 30.4215C77.584 30.5309 77.5473 30.5759 77.5188 30.5266C77.5106 30.5137 77.5167 30.5073 77.533 30.5095C77.5514 30.5137 77.5595 30.4923 77.5595 30.4408C77.5595 30.3894 77.5697 30.3637 77.5942 30.3594C77.6125 30.3551 77.6308 30.3251 77.6349 30.2907C77.641 30.2436 77.6369 30.2329 77.6206 30.2479C77.6023 30.2629 77.586 30.2586 77.5677 30.2329C77.5412 30.1964 77.5412 30.1964 77.5779 30.2264C77.6145 30.2564 77.6166 30.2543 77.6064 30.2243C77.5962 30.1964 77.6023 30.19 77.6349 30.2007C77.6634 30.2071 77.6736 30.2028 77.6634 30.1878C77.6533 30.1707 77.6594 30.1664 77.6797 30.175C77.7042 30.1857 77.7123 30.1728 77.7123 30.1278C77.7123 30.0785 77.7164 30.072 77.7327 30.0978C77.749 30.1256 77.7531 30.1235 77.7531 30.0913C77.7531 30.072 77.7409 30.0549 77.7286 30.0549C77.7103 30.0549 77.7123 30.0485 77.7327 30.0334C77.7776 30.0034 77.7979 30.0763 77.7572 30.1235ZM77.8346 30.0206C77.8346 30.027 77.8265 30.0377 77.8142 30.0442C77.804 30.0506 77.7939 30.0463 77.7939 30.0356C77.7939 30.0227 77.804 30.012 77.8142 30.012C77.8265 30.012 77.8346 30.0163 77.8346 30.0206ZM76.4591 30.2479C76.4509 30.3036 76.453 30.3336 76.4672 30.3336C76.4795 30.3336 76.4876 30.3165 76.4856 30.295C76.4795 30.22 76.4897 30.1621 76.51 30.1621C76.5223 30.1621 76.5304 30.1814 76.5304 30.205C76.5304 30.2286 76.5406 30.2479 76.5508 30.2479C76.5732 30.2479 76.5773 30.3315 76.5589 30.3851C76.5528 30.4044 76.5386 30.4194 76.5304 30.4194C76.51 30.4194 76.5141 30.3765 76.5386 30.3379C76.5488 30.3208 76.5467 30.2993 76.5325 30.2843C76.51 30.2607 76.508 30.2629 76.4999 30.398C76.4978 30.4537 76.5243 30.5116 76.5488 30.4966C76.5549 30.4923 76.561 30.5352 76.563 30.5931C76.563 30.6596 76.5549 30.696 76.5426 30.6917C76.5304 30.6874 76.5202 30.6403 76.5202 30.5888C76.5202 30.5137 76.5141 30.4966 76.4876 30.5009C76.4611 30.5052 76.453 30.4794 76.4428 30.3808C76.4346 30.3122 76.4346 30.235 76.4428 30.2093C76.4611 30.1299 76.4734 30.1557 76.4591 30.2479ZM77.5799 30.2886C77.586 30.2993 77.584 30.3143 77.5738 30.3208C77.5636 30.3272 77.5554 30.3186 77.5554 30.3015C77.5554 30.265 77.5616 30.2607 77.5799 30.2886ZM77.4474 30.5309C77.4474 30.5438 77.4535 30.5481 77.4597 30.5416C77.4678 30.5352 77.4902 30.5373 77.5126 30.5502C77.5514 30.5716 77.5514 30.5738 77.5147 30.6059C77.4943 30.6231 77.4882 30.6317 77.5025 30.6231C77.5208 30.6145 77.5228 30.6252 77.5065 30.6767C77.4943 30.711 77.476 30.7346 77.4637 30.7282C77.4535 30.7217 77.4454 30.7282 77.4495 30.7432C77.4556 30.8011 77.4474 30.8289 77.425 30.8139C77.4128 30.8075 77.4067 30.7818 77.4128 30.7603C77.4189 30.7367 77.4148 30.7196 77.4046 30.7196C77.3945 30.7196 77.3863 30.6939 77.3863 30.6596C77.3863 30.6167 77.3924 30.6102 77.4046 30.6338C77.4169 30.651 77.4209 30.6703 77.4148 30.6789C77.4108 30.6874 77.4148 30.7003 77.4271 30.7089C77.4576 30.7282 77.4739 30.6231 77.4474 30.5716C77.4352 30.5459 77.4148 30.533 77.4026 30.5395C77.3883 30.5481 77.3863 30.5459 77.3945 30.5309C77.4128 30.4987 77.4474 30.4987 77.4474 30.5309ZM76.4978 30.6338C76.5039 30.696 76.4999 30.7174 76.4876 30.696C76.4693 30.666 76.4611 30.5116 76.4795 30.5309C76.4856 30.5352 76.4937 30.5824 76.4978 30.6338ZM77.4372 30.5931C77.4597 30.6274 77.4393 30.6338 77.4108 30.5995C77.3965 30.5824 77.3945 30.5695 77.4046 30.5695C77.4148 30.5695 77.4311 30.5802 77.4372 30.5931ZM76.5488 30.9083C76.5386 30.9126 76.5304 30.9426 76.5304 30.9726C76.5304 31.0091 76.5365 31.0198 76.5467 31.0048C76.5569 30.9898 76.563 31.0284 76.563 31.0927C76.561 31.2621 76.5263 31.1785 76.5223 30.9962C76.5223 30.9169 76.5141 30.8568 76.508 30.8611C76.5019 30.8654 76.4958 30.8375 76.4958 30.7989L76.4937 30.7303L76.5304 30.8161C76.5488 30.8633 76.5569 30.904 76.5488 30.9083ZM77.264 30.8568C77.264 30.8633 77.2559 30.874 77.2437 30.8804C77.2335 30.8868 77.2233 30.8826 77.2233 30.8718C77.2233 30.859 77.2335 30.8482 77.2437 30.8482C77.2559 30.8482 77.264 30.8525 77.264 30.8568ZM77.4067 30.8783C77.4067 30.919 77.372 30.9404 77.3557 30.9126C77.3496 30.9019 77.3557 30.8911 77.37 30.8911C77.3883 30.8911 77.3883 30.8847 77.3659 30.8697C77.3394 30.8525 77.3415 30.8482 77.372 30.8482C77.3904 30.8482 77.4067 30.8611 77.4067 30.8783ZM77.2844 30.9426C77.2844 30.9876 77.3272 31.0091 77.3476 30.9748C77.3598 30.9533 77.3639 30.9597 77.3598 30.9919C77.3578 31.0305 77.3476 31.0369 77.3068 31.0262C77.2722 31.0176 77.262 31.0219 77.2722 31.0391C77.2803 31.0519 77.3027 31.0627 77.3211 31.0648C77.3435 31.0648 77.3455 31.0691 77.3292 31.0777C77.317 31.082 77.3089 31.097 77.315 31.1056C77.3211 31.1163 77.317 31.1291 77.3048 31.1377C77.2946 31.1441 77.2844 31.1399 77.2844 31.1291C77.2844 31.1163 77.2742 31.1056 77.262 31.1056C77.2518 31.1056 77.2477 31.1141 77.2538 31.127C77.2763 31.1656 77.2824 31.2406 77.2661 31.2728C77.2538 31.2942 77.2457 31.2964 77.2355 31.2792C77.2273 31.2664 77.2294 31.2556 77.2375 31.2556C77.2477 31.2556 77.2559 31.2364 77.2559 31.2128C77.2559 31.1892 77.2477 31.1699 77.2375 31.1699C77.2294 31.1699 77.2273 31.1291 77.2335 31.0777C77.2416 31.0284 77.2477 30.9705 77.2498 30.949C77.2538 30.9061 77.2844 30.8997 77.2844 30.9426ZM76.5651 31.3779C76.5589 31.3993 76.5549 31.3822 76.5549 31.3414C76.5549 31.3007 76.5589 31.2835 76.5651 31.3028C76.5691 31.3243 76.5691 31.3586 76.5651 31.3779ZM77.1886 31.3822C77.1968 31.3843 77.2029 31.4036 77.2029 31.4293C77.2029 31.4551 77.1947 31.4658 77.1805 31.4572C77.1662 31.4486 77.1621 31.4572 77.1703 31.4872C77.1784 31.513 77.1723 31.5344 77.156 31.5408C77.1255 31.5516 77.1255 31.5022 77.152 31.4165C77.1601 31.3864 77.156 31.3907 77.1336 31.4272C77.0929 31.4979 77.0929 31.5494 77.1377 31.5751C77.1581 31.588 77.1621 31.5987 77.1458 31.5987C77.1316 31.5987 77.1234 31.6073 77.1295 31.618C77.1377 31.6287 77.1316 31.6652 77.1193 31.6995C77.1051 31.7317 77.0929 31.781 77.0888 31.8089C77.0867 31.8367 77.0745 31.871 77.0643 31.8839C77.0541 31.8989 77.0338 31.9654 77.0195 32.0319C77.0052 32.1026 76.9808 32.1562 76.9665 32.1562C76.9522 32.1562 76.9461 32.1391 76.9522 32.1155C76.9584 32.094 76.9522 32.0683 76.94 32.0619C76.9258 32.0512 76.9237 32.0597 76.9319 32.0855C76.938 32.1069 76.9359 32.1176 76.9258 32.1069C76.9156 32.0962 76.9074 32.0597 76.9054 32.0211L76.9013 31.9547L76.94 32.0083C76.9726 32.0512 76.9808 32.0554 76.9991 32.0276C77.0297 31.9783 77.0236 31.9632 76.9787 31.9632C76.9563 31.9632 76.9319 31.9482 76.9237 31.9311C76.9054 31.8775 76.938 31.8625 76.9726 31.9096C76.9991 31.9439 77.0032 31.9461 76.993 31.9139C76.9828 31.8882 76.991 31.8775 77.0195 31.8775C77.0623 31.8775 77.0664 31.8603 77.0643 31.7209C77.0643 31.6695 77.0704 31.6459 77.0847 31.6545C77.101 31.6652 77.103 31.6523 77.0929 31.618C77.0602 31.4915 77.0562 31.4486 77.0786 31.4486C77.0969 31.4486 77.0969 31.4379 77.0806 31.4057C77.0602 31.365 77.0623 31.3629 77.1153 31.3714C77.1458 31.3757 77.1784 31.3822 77.1886 31.3822ZM76.6792 31.5494C76.6853 31.5601 76.6629 31.5666 76.6303 31.5666C76.5977 31.5666 76.5712 31.5601 76.5712 31.5494C76.5712 31.5408 76.5936 31.5344 76.6201 31.5344C76.6486 31.5344 76.6751 31.5408 76.6792 31.5494ZM76.6527 31.5859C76.6527 31.5901 76.6384 31.6009 76.6201 31.6073C76.6038 31.6137 76.5956 31.6116 76.6017 31.5987C76.614 31.5773 76.6527 31.5687 76.6527 31.5859ZM76.6731 31.7317C76.6731 31.8389 76.6894 31.8324 76.6975 31.7209C76.7057 31.5966 76.726 31.6287 76.7301 31.7703C76.7322 31.841 76.726 31.8989 76.7179 31.8989C76.7097 31.8989 76.7016 31.9182 76.6996 31.9418C76.6975 31.9654 76.7036 31.9804 76.7138 31.974C76.722 31.9675 76.7281 31.9804 76.724 31.9997C76.7199 32.0211 76.7159 32.0469 76.7159 32.0554C76.7138 32.0662 76.7057 32.0662 76.6934 32.0597C76.6588 32.0383 76.671 32.0747 76.7097 32.1069C76.7281 32.1241 76.7322 32.1326 76.7199 32.1241C76.7057 32.1176 76.6934 32.1198 76.6934 32.1283C76.6934 32.1391 76.7057 32.1605 76.7199 32.1755C76.7403 32.1991 76.7403 32.2034 76.7199 32.1905C76.7057 32.182 76.6934 32.182 76.6914 32.1927C76.6914 32.2013 76.6873 32.2291 76.6833 32.2506C76.6792 32.2742 76.6853 32.3085 76.6955 32.3256C76.7118 32.3535 76.7138 32.3513 76.7057 32.317C76.6996 32.2935 76.7036 32.2591 76.7138 32.242C76.7281 32.2206 76.7342 32.2591 76.7322 32.3706C76.7301 32.4586 76.7383 32.555 76.7505 32.5851C76.7627 32.6151 76.7729 32.6237 76.7729 32.6065C76.775 32.5851 76.7974 32.5701 76.8381 32.5679C76.8728 32.5658 76.8952 32.5701 76.8891 32.5808C76.883 32.5915 76.8544 32.7244 76.8259 32.8745C76.7709 33.1619 76.7566 33.2133 76.7525 33.1083C76.7505 33.0418 76.7464 33.0075 76.724 32.8724C76.7159 32.8166 76.7179 32.778 76.7301 32.7695C76.7444 32.7609 76.7485 32.7759 76.7424 32.8102C76.7383 32.8402 76.7403 32.881 76.7505 32.9003C76.7668 32.9303 76.7709 32.9281 76.7811 32.8981C76.7892 32.8767 76.7872 32.866 76.775 32.8745C76.7627 32.881 76.7546 32.8767 76.7546 32.866C76.7546 32.8531 76.7648 32.8424 76.779 32.8424C76.7974 32.8424 76.7974 32.8359 76.7811 32.8188C76.7525 32.7888 76.7709 32.7287 76.8014 32.7502C76.8137 32.7566 76.8157 32.7523 76.8076 32.7395C76.7994 32.7244 76.8014 32.7137 76.8116 32.7137C76.8218 32.7137 76.8361 32.6837 76.8402 32.6494C76.8524 32.5636 76.83 32.5679 76.7953 32.6601C76.779 32.7009 76.7607 32.7352 76.7525 32.7352C76.726 32.7352 76.6894 32.673 76.6996 32.6451C76.7077 32.628 76.7118 32.6301 76.7118 32.6537C76.7138 32.6751 76.724 32.6923 76.7342 32.6923C76.7648 32.6923 76.7587 32.658 76.722 32.6194C76.6975 32.5936 76.6975 32.5851 76.7179 32.5851C76.7383 32.5851 76.7362 32.5786 76.7138 32.5636C76.6975 32.5529 76.6914 32.5422 76.7016 32.5422C76.7118 32.5422 76.7097 32.5293 76.6996 32.5143C76.6873 32.5014 76.6771 32.4736 76.6771 32.4564C76.6731 32.3706 76.6527 32.1755 76.6323 32.0597C76.6099 31.9225 76.6058 31.7767 76.6221 31.796C76.6282 31.8024 76.6364 31.841 76.6384 31.8839C76.6425 31.9268 76.6507 31.9697 76.6588 31.9783C76.6731 31.9933 76.6568 31.7016 76.6405 31.6459C76.6364 31.6309 76.6425 31.6245 76.6527 31.6309C76.6649 31.6373 76.6731 31.6845 76.6731 31.7317ZM76.6058 31.7531C76.5997 31.7681 76.5956 31.7574 76.5956 31.7274C76.5956 31.6974 76.5997 31.6866 76.6058 31.6995C76.6099 31.7145 76.6099 31.7402 76.6058 31.7531ZM76.938 32.2634C76.9482 32.2699 76.9482 32.3085 76.94 32.3492C76.9258 32.4243 76.9258 32.4243 76.9135 32.3642C76.9074 32.3299 76.9115 32.3063 76.9237 32.3063C76.938 32.3063 76.938 32.2977 76.9217 32.2806C76.9074 32.2656 76.8993 32.2356 76.8993 32.2098C76.9013 32.1669 76.9013 32.1669 76.9115 32.2098C76.9176 32.2334 76.9298 32.257 76.938 32.2634ZM87.8708 35.6084C90.6932 35.7692 93.3403 36.6269 95.7306 38.1515C98.1128 39.6739 100.155 41.8824 101.553 44.4534C103.489 48.0106 104.175 52.2069 103.489 56.268C102.993 59.2035 101.763 62.0188 99.9754 64.3089C99.47 64.9564 98.6528 65.8484 98.1006 66.3545C95.5167 68.7281 92.4864 70.1712 89.1648 70.6108C88.3701 70.718 87.9951 70.7394 87.0455 70.7394C85.8921 70.7394 85.1911 70.6794 84.1111 70.4842C81.4028 69.9932 78.8148 68.771 76.6568 66.9634C75.7234 66.1808 74.7596 65.1751 74.0137 64.2038C72.0717 61.6693 70.8348 58.616 70.4496 55.3996C70.3477 54.5634 70.3273 54.1688 70.3273 53.1696C70.3273 52.1704 70.3477 51.7759 70.4496 50.9396C70.8714 47.4102 72.2897 44.1317 74.5537 41.4536C74.8574 41.0934 75.4483 40.4651 75.7785 40.152C78.4643 37.5961 81.7778 36.048 85.3643 35.6728C86.1652 35.5891 87.1046 35.5655 87.8708 35.6084Z" fill="#91B3FA"/>
<path d="M79.3848 27.9878C79.3848 27.9986 79.3949 28.003 79.405 27.9965C79.4171 27.99 79.4252 27.9791 79.4252 27.9727C79.4252 27.9683 79.4171 27.964 79.405 27.964C79.3949 27.964 79.3848 27.9748 79.3848 27.9878Z" fill="#91B3FA"/>
<path d="M79.0684 28.1788C79.0623 28.1874 79.0705 28.211 79.0868 28.2281C79.1112 28.2517 79.1112 28.2646 79.0929 28.2882C79.0786 28.3054 79.097 28.2946 79.1295 28.2646C79.1642 28.2346 79.1947 28.2067 79.2008 28.2024C79.207 28.1981 79.1947 28.2002 79.1764 28.2067C79.156 28.2152 79.1397 28.211 79.1397 28.2024C79.1397 28.1745 79.0827 28.1552 79.0684 28.1788Z" fill="#91B3FA"/>
<path d="M78.8047 28.5788C78.759 28.6276 78.7649 28.6425 78.8126 28.5979C78.8345 28.5766 78.8523 28.5554 78.8523 28.5512C78.8523 28.5363 78.8345 28.5469 78.8047 28.5788Z" fill="#91B3FA"/>
<path d="M76.7971 28.7139C76.7809 28.7247 76.7789 28.7377 76.791 28.7464C76.8011 28.7529 76.8153 28.7442 76.8234 28.7269C76.8355 28.6901 76.8355 28.6879 76.7971 28.7139Z" fill="#91B3FA"/>
<path d="M76.3622 29.1445C76.3562 29.1679 76.3602 29.187 76.3701 29.187C76.3801 29.187 76.388 29.1679 76.388 29.1445C76.388 29.1212 76.384 29.1021 76.3801 29.1021C76.3761 29.1021 76.3681 29.1212 76.3622 29.1445Z" fill="#91B3FA"/>
<path d="M78.4106 29.0141C78.3886 29.0291 78.3886 29.0334 78.4146 29.0441C78.4346 29.0527 78.4466 29.0463 78.4466 29.027C78.4466 28.9906 78.4446 28.9906 78.4106 29.0141Z" fill="#91B3FA"/>
<path d="M86.1187 37.3588C83.0029 37.5625 80.0175 38.7697 77.6211 40.796C77.0158 41.3063 76.2027 42.1211 75.7239 42.6957C72.2698 46.8341 71.098 52.5334 72.6182 57.7997C73.1094 59.5043 73.9061 61.1661 74.9087 62.5899C77.5885 66.3851 81.5927 68.6838 86.0881 69.0054C86.5263 69.0376 87.5757 69.0376 88.0037 69.0075C90.9911 68.7888 93.7401 67.721 96.0836 65.8641C98.6838 63.8035 100.571 60.941 101.484 57.6732C102.444 54.2317 102.279 50.5951 101.009 47.2629C100.479 45.8671 99.7027 44.4712 98.7959 43.2854C98.3109 42.6486 97.5365 41.7909 96.9904 41.2891C94.4431 38.9348 91.2927 37.5775 87.861 37.3566C87.4759 37.333 86.51 37.333 86.1187 37.3588ZM87.5146 41.1733C90.1006 41.3041 92.44 42.2626 94.4024 43.9994C94.7386 44.2975 95.4987 45.1016 95.7759 45.4511C97.3796 47.4838 98.2661 49.8103 98.4393 52.4412C98.4678 52.8872 98.4515 53.8972 98.4067 54.3389C98.2579 55.8506 97.8789 57.2336 97.2574 58.5416C96.8559 59.3885 96.375 60.1583 95.7799 60.9109C95.5069 61.254 94.7447 62.056 94.4024 62.3583C92.497 64.0437 90.2004 65.015 87.7286 65.1822C87.2008 65.2187 86.3184 65.1951 85.7927 65.1329C82.8256 64.777 80.1826 63.2889 78.2772 60.9002C76.7285 58.9575 75.8033 56.5196 75.6362 53.9422C75.6138 53.5863 75.624 52.4927 75.6525 52.1839C75.8135 50.4879 76.2129 49.0405 76.9017 47.6489C78.104 45.2152 80.1276 43.2382 82.5322 42.1425C83.7712 41.5765 85.1915 41.2312 86.4753 41.1798C86.6608 41.1733 86.8156 41.1648 86.8197 41.1605C86.834 41.1476 87.0744 41.1519 87.5146 41.1733Z" fill="#91B3FA"/>
<path d="M80.3373 27.3379C80.3514 27.3436 80.3697 27.3417 80.3757 27.336C80.3838 27.3303 80.3717 27.3246 80.3494 27.3265C80.3272 27.3265 80.3211 27.3322 80.3373 27.3379Z" fill="#91B3FA"/>
<path d="M80.2552 27.3579C80.2694 27.3636 80.2876 27.3617 80.2937 27.356C80.3018 27.3503 80.2896 27.3446 80.2674 27.3465C80.2451 27.3465 80.2391 27.3522 80.2552 27.3579Z" fill="#91B3FA"/>
<path d="M79.7614 27.4953C79.7534 27.5082 79.7514 27.521 79.7574 27.5274C79.7614 27.5339 79.7714 27.5231 79.7774 27.5039C79.7915 27.4675 79.7794 27.461 79.7614 27.4953Z" fill="#91B3FA"/>
<path d="M79.6797 27.5347C79.6877 27.5475 79.7018 27.5518 79.7118 27.5454C79.7398 27.5261 79.7338 27.5133 79.6978 27.5133C79.6817 27.5133 79.6737 27.524 79.6797 27.5347Z" fill="#91B3FA"/>
<path d="M79.2103 27.6883C79.2164 27.6991 79.2326 27.71 79.2427 27.71C79.2549 27.71 79.2569 27.6991 79.2508 27.6883C79.2448 27.6753 79.2286 27.6667 79.2184 27.6667C79.2063 27.6667 79.2043 27.6753 79.2103 27.6883Z" fill="#91B3FA"/>
<path d="M79.1091 27.7101C79.1011 27.723 79.099 27.7358 79.1051 27.7423C79.1091 27.7487 79.1191 27.738 79.1251 27.7187C79.1391 27.6823 79.1271 27.6759 79.1091 27.7101Z" fill="#91B3FA"/>
<path d="M78.4222 28.0253C78.4143 28.0508 78.4182 28.0678 78.4282 28.0593C78.4381 28.0529 78.446 28.0593 78.446 28.072C78.446 28.0848 78.456 28.089 78.4679 28.0805C78.4818 28.072 78.4818 28.0614 78.4718 28.0529C78.4599 28.0466 78.448 28.0253 78.4421 28.0083C78.4361 27.9871 78.4301 27.9913 78.4222 28.0253Z" fill="#91B3FA"/>
<path d="M110.495 15.451C110.366 15.7119 110.236 15.9719 110.208 16.0295C110.08 16.2863 109.964 16.5191 109.91 16.6296C109.877 16.6952 109.85 16.7504 109.849 16.752C109.848 16.7536 109.497 16.7632 108.747 16.7816C108.646 16.784 108.428 16.7896 108.261 16.7944C108.094 16.7984 107.957 16.8016 107.956 16.8C107.954 16.7976 107.695 16.3359 107.494 15.9775C107.173 15.4046 106.985 15.0694 106.984 15.0686C106.983 15.0678 106.9 15.0886 106.801 15.115C106.662 15.151 106.616 15.1662 106.608 15.1782C106.602 15.1862 106.594 15.1918 106.59 15.1894C106.586 15.1862 106.583 15.1886 106.583 15.1934C106.583 15.199 106.578 15.2014 106.572 15.1982C106.566 15.1958 106.561 15.1982 106.561 15.2038C106.561 15.211 106.559 15.211 106.554 15.2038C106.546 15.1894 106.527 15.1878 106.526 15.2014C106.526 15.2078 106.523 15.2134 106.517 15.2134C106.512 15.2134 106.504 15.2182 106.499 15.223C106.485 15.2374 106.496 15.2358 106.524 15.2206C106.536 15.2134 106.545 15.2118 106.542 15.2158C106.54 15.2198 106.52 15.2334 106.498 15.2454C106.476 15.2574 106.447 15.2766 106.434 15.287C106.414 15.303 106.41 15.3038 106.405 15.2934C106.403 15.2862 106.404 15.2822 106.407 15.2846C106.411 15.287 106.414 15.2838 106.414 15.2782C106.414 15.2718 106.408 15.2694 106.4 15.271C106.389 15.2742 106.388 15.271 106.391 15.2574C106.393 15.2478 106.398 15.243 106.4 15.2478C106.406 15.2574 106.44 15.2662 106.434 15.2566C106.432 15.2526 106.434 15.2494 106.438 15.2494C106.442 15.2494 106.446 15.2534 106.448 15.259C106.45 15.2662 106.453 15.2662 106.457 15.259C106.46 15.2534 106.459 15.2494 106.455 15.2494C106.45 15.2494 106.446 15.2462 106.446 15.2422C106.446 15.2374 106.453 15.2358 106.461 15.2374C106.478 15.2406 106.488 15.2214 106.475 15.2126C106.471 15.2094 106.469 15.2102 106.472 15.215C106.475 15.2198 106.472 15.2254 106.465 15.2278C106.459 15.231 106.456 15.2286 106.459 15.2206C106.462 15.215 106.459 15.2094 106.455 15.2094C106.45 15.2094 106.446 15.215 106.446 15.2214C106.446 15.2398 106.415 15.251 106.403 15.2358C106.396 15.2262 106.394 15.227 106.389 15.2406C106.387 15.2502 106.38 15.2574 106.375 15.2574C106.369 15.2574 106.359 15.2654 106.352 15.275C106.346 15.2854 106.342 15.2878 106.345 15.2806C106.347 15.2726 106.345 15.2646 106.339 15.2606C106.334 15.2574 106.332 15.2582 106.335 15.2622C106.337 15.2662 106.329 15.2702 106.316 15.2702C106.299 15.271 106.296 15.2694 106.302 15.2614C106.309 15.2526 106.307 15.2518 106.294 15.255C106.286 15.2574 106.277 15.2622 106.275 15.2662C106.273 15.2694 106.266 15.2702 106.258 15.2678C106.248 15.2646 106.248 15.2662 106.26 15.2758C106.273 15.287 106.274 15.2886 106.262 15.2894C106.256 15.2894 106.247 15.2854 106.245 15.2806C106.241 15.275 106.235 15.2766 106.227 15.2846C106.219 15.2918 106.21 15.295 106.206 15.2918C106.202 15.2878 106.202 15.2886 106.205 15.2934C106.209 15.2982 106.216 15.3014 106.221 15.3014C106.226 15.3014 106.231 15.3086 106.232 15.3174C106.234 15.3294 106.233 15.3302 106.228 15.323C106.222 15.3142 106.22 15.3142 106.216 15.3246C106.213 15.3318 106.208 15.3374 106.203 15.3374C106.199 15.3374 106.197 15.3334 106.199 15.3294C106.202 15.3246 106.2 15.3214 106.196 15.3214C106.192 15.3214 106.188 15.3262 106.188 15.331C106.188 15.3382 106.185 15.3374 106.18 15.3294C106.177 15.323 106.173 15.3214 106.173 15.3262C106.173 15.331 106.155 15.3342 106.131 15.3342C106.104 15.3342 106.092 15.3318 106.098 15.327C106.105 15.3222 106.104 15.3214 106.094 15.3246C106.087 15.327 106.078 15.3294 106.076 15.3294C106.074 15.3294 106.076 15.335 106.082 15.3414C106.089 15.351 106.089 15.3534 106.079 15.3534C106.072 15.3534 106.065 15.3494 106.062 15.3454C106.059 15.339 106.054 15.3398 106.047 15.3454C106.041 15.351 106.034 15.3526 106.03 15.351C106.027 15.3486 106.019 15.3502 106.013 15.3542C106.003 15.3614 106.003 15.3622 106.013 15.359C106.03 15.3542 106.051 15.3678 106.05 15.3838C106.05 15.3926 106.049 15.3942 106.046 15.387C106.043 15.379 106.04 15.3798 106.032 15.391C106.023 15.403 106.019 15.4038 106.006 15.395C105.996 15.3894 105.99 15.3886 105.99 15.3934C105.99 15.3974 105.987 15.4014 105.983 15.4014C105.98 15.4014 105.977 15.395 105.979 15.387C105.98 15.3782 105.986 15.3742 105.995 15.3758C106.005 15.3782 106.007 15.3758 106.002 15.3702C105.997 15.3654 105.986 15.3638 105.977 15.367C105.964 15.3702 105.961 15.3742 105.967 15.3814C105.979 15.3958 105.966 15.403 105.942 15.3974C105.929 15.3934 105.921 15.3974 105.911 15.4142C105.904 15.4254 105.901 15.4326 105.906 15.4302C105.911 15.4262 105.913 15.4318 105.913 15.4446C105.911 15.463 105.909 15.4646 105.872 15.463C105.837 15.4614 105.834 15.4598 105.847 15.4526C105.858 15.447 105.86 15.4414 105.854 15.4382C105.85 15.435 105.848 15.4286 105.85 15.4238C105.853 15.4182 105.852 15.4174 105.847 15.4206C105.843 15.4238 105.84 15.431 105.843 15.4366C105.845 15.443 105.84 15.4502 105.829 15.4534C105.804 15.4622 105.762 15.4646 105.767 15.4566C105.771 15.4486 105.748 15.4566 105.735 15.4662C105.73 15.4702 105.724 15.4718 105.721 15.4694C105.719 15.467 105.72 15.4702 105.724 15.475C105.735 15.4886 105.734 15.4998 105.723 15.4926C105.715 15.4878 105.715 15.4894 105.723 15.4982C105.736 15.5142 105.733 15.5294 105.716 15.5294C105.707 15.5294 105.703 15.5254 105.705 15.5214C105.708 15.5166 105.714 15.5158 105.719 15.519C105.724 15.5222 105.723 15.519 105.717 15.511C105.707 15.4974 105.689 15.4918 105.697 15.5046C105.699 15.5086 105.696 15.5158 105.69 15.5214C105.681 15.5294 105.675 15.5294 105.661 15.5222C105.647 15.5142 105.647 15.5134 105.66 15.5174C105.675 15.5214 105.675 15.5214 105.66 15.5094C105.646 15.4982 105.644 15.4982 105.639 15.5134C105.636 15.5222 105.629 15.5294 105.625 15.5294C105.618 15.5294 105.619 15.5254 105.626 15.5158C105.635 15.5038 105.635 15.503 105.623 15.5078C105.615 15.511 105.608 15.5134 105.607 15.5134C105.606 15.5134 105.606 15.5302 105.607 15.5518L105.61 15.5894L105.568 15.5918C105.542 15.5934 105.526 15.591 105.526 15.5862C105.526 15.5814 105.523 15.5774 105.518 15.5774C105.514 15.5774 105.512 15.5806 105.515 15.5846C105.517 15.5894 105.512 15.591 105.504 15.5894C105.495 15.5878 105.488 15.5902 105.488 15.5942C105.488 15.599 105.485 15.5998 105.48 15.5966C105.469 15.5902 105.481 15.5774 105.501 15.5734C105.509 15.5718 105.517 15.5702 105.519 15.5694C105.521 15.5686 105.528 15.567 105.534 15.5662C105.54 15.5662 105.545 15.5606 105.543 15.555C105.542 15.5502 105.547 15.5454 105.553 15.5454C105.559 15.5454 105.564 15.551 105.564 15.559C105.564 15.5718 105.575 15.567 105.577 15.5526C105.579 15.535 105.58 15.5342 105.587 15.5454C105.593 15.555 105.594 15.5534 105.593 15.539C105.593 15.5294 105.591 15.5214 105.59 15.5214C105.577 15.5214 105.179 15.7047 105.028 15.7799C104.966 15.8111 104.914 15.8367 104.913 15.8375C104.912 15.8375 104.923 15.9223 104.938 16.0255C104.988 16.3807 105.051 16.8344 105.142 17.4856C105.165 17.6529 105.187 17.7977 105.188 17.8073C105.191 17.8225 105.093 17.9041 104.449 18.4225C104.04 18.7514 103.701 19.0234 103.696 19.0282C103.685 19.037 103.705 19.0458 103.321 18.8714C102.586 18.5378 101.948 18.2473 101.941 18.2449C101.932 18.2409 101.792 18.4113 101.655 18.5938C101.313 19.0474 101.027 19.5003 100.763 20.0051L100.688 20.1475L100.844 20.3131C100.93 20.4035 101.23 20.726 101.512 21.0284L102.023 21.5797L101.756 22.5286C101.61 23.0502 101.487 23.4799 101.483 23.4839C101.48 23.4871 101.062 23.5887 100.556 23.7087C100.049 23.8287 99.632 23.9287 99.6297 23.9311C99.6244 23.9367 99.613 24.0711 99.6069 24.1975C99.6039 24.2464 99.6008 24.2968 99.5985 24.3104C99.5894 24.372 99.5864 25.0832 99.5947 25.2545C99.6024 25.4145 99.6259 25.7409 99.6373 25.8505C99.6571 26.0417 99.6814 26.2314 99.6852 26.2354C99.6883 26.2378 99.848 26.2674 100.04 26.301C100.233 26.3354 100.583 26.397 100.82 26.4386C101.056 26.481 101.319 26.5274 101.404 26.5426C101.49 26.5578 101.56 26.5714 101.563 26.573C101.564 26.5754 101.708 26.997 101.881 27.5115C102.153 28.3164 102.194 28.4476 102.185 28.458C102.18 28.4652 101.896 28.8044 101.555 29.2133L100.935 29.955L100.975 30.0254C101.319 30.6198 101.739 31.1975 102.199 31.7079L102.276 31.7927L103.13 31.3463C103.979 30.9023 103.986 30.899 104.005 30.9119C104.016 30.9199 104.121 30.9943 104.238 31.0791C104.355 31.1639 104.68 31.3975 104.96 31.5991C105.241 31.8007 105.485 31.9784 105.506 31.9944C105.537 32.0192 105.542 32.0264 105.542 32.0512C105.542 32.0832 105.523 32.3 105.485 32.7352C105.47 32.9025 105.443 33.2177 105.424 33.4353C105.405 33.6529 105.384 33.8754 105.38 33.929L105.37 34.0274L105.473 34.0714C105.884 34.2506 106.405 34.429 106.854 34.5442C106.992 34.5794 107.347 34.6578 107.458 34.677C107.477 34.6802 107.491 34.653 107.821 33.9842C108.011 33.6009 108.209 33.1993 108.263 33.0913L108.361 32.8953L109.219 32.8697C109.691 32.8561 110.117 32.8441 110.165 32.8441L110.252 32.8433L110.336 32.9897C110.381 33.0697 110.6 33.4553 110.821 33.8474C111.041 34.2386 111.225 34.5618 111.228 34.5642C111.231 34.5674 111.3 34.5514 111.381 34.5298C111.902 34.3922 112.42 34.2066 112.896 33.9866C113.005 33.9362 113.291 33.797 113.296 33.7922C113.297 33.7906 113.25 33.4569 113.192 33.0505C113.069 32.1928 113.014 31.8023 113.018 31.7999C113.024 31.7951 114.417 30.6646 114.469 30.6214L114.512 30.5862L114.754 30.6942C114.888 30.7534 115.277 30.9287 115.62 31.0831C115.963 31.2383 116.249 31.3671 116.257 31.3687C116.286 31.3775 116.68 30.8558 116.922 30.487C117.117 30.1902 117.394 29.7085 117.488 29.5053L117.505 29.4677L117.35 29.2997C117.264 29.2077 116.964 28.886 116.682 28.586C116.218 28.0916 116.17 28.0387 116.174 28.0195C116.179 27.9971 116.696 26.1281 116.699 26.1257C116.701 26.1233 117.238 25.9937 117.518 25.9273C117.619 25.9033 117.99 25.8153 118.434 25.7089C118.501 25.6929 118.557 25.6785 118.559 25.6777C118.564 25.6729 118.581 25.3761 118.59 25.1304C118.607 24.6552 118.584 24.1119 118.524 23.6223C118.514 23.5343 118.503 23.4455 118.501 23.4255C118.498 23.4047 118.494 23.3831 118.491 23.3775C118.487 23.3711 118.352 23.3447 118.128 23.3055C117.377 23.1758 116.609 23.0414 116.608 23.0398C116.598 23.0262 115.975 21.1724 115.977 21.1652C115.979 21.1588 116.26 20.818 116.601 20.4067C116.942 19.9955 117.221 19.6563 117.221 19.6531C117.221 19.6507 117.197 19.6059 117.166 19.5547C116.828 18.9794 116.43 18.4353 115.988 17.9433L115.881 17.8257L115.033 18.2737C114.565 18.5209 114.178 18.721 114.171 18.7194C114.162 18.717 113.433 18.1977 112.921 17.8297C112.884 17.8025 112.799 17.7417 112.733 17.6945C112.593 17.5953 112.606 17.6257 112.625 17.4248C112.631 17.3568 112.644 17.1968 112.655 17.0696C112.666 16.9416 112.676 16.8192 112.678 16.7976C112.68 16.7752 112.687 16.6944 112.693 16.6175C112.7 16.5407 112.707 16.4591 112.708 16.4375C112.71 16.4151 112.726 16.2319 112.742 16.0295C112.759 15.8271 112.774 15.6486 112.777 15.6326L112.78 15.6046L112.612 15.5342C112.101 15.3206 111.601 15.1606 111.089 15.0454C110.925 15.0086 110.768 14.9774 110.747 14.9774C110.733 14.9774 110.694 15.0526 110.495 15.451ZM106.241 15.2894C106.241 15.2934 106.237 15.2974 106.233 15.2974C106.229 15.2974 106.228 15.2934 106.23 15.2894C106.232 15.2846 106.236 15.2814 106.238 15.2814C106.24 15.2814 106.241 15.2846 106.241 15.2894ZM106.389 15.2982C106.387 15.3014 106.39 15.3054 106.395 15.307C106.403 15.3102 106.377 15.3318 106.363 15.3334C106.361 15.3334 106.348 15.3454 106.333 15.3598C106.319 15.3734 106.305 15.383 106.304 15.3814C106.301 15.379 106.295 15.3838 106.29 15.3918C106.281 15.4046 106.28 15.4038 106.279 15.3886C106.279 15.379 106.285 15.367 106.291 15.3614C106.297 15.3558 106.3 15.3478 106.297 15.3438C106.294 15.3382 106.301 15.3366 106.316 15.339C106.333 15.3414 106.34 15.3398 106.34 15.3318C106.34 15.3254 106.343 15.3222 106.347 15.3246C106.35 15.327 106.359 15.3222 106.367 15.3134C106.382 15.2958 106.373 15.291 106.355 15.307C106.346 15.3158 106.346 15.315 106.354 15.3038C106.364 15.291 106.396 15.2862 106.389 15.2982ZM106.268 15.3198C106.261 15.3214 106.258 15.3262 106.26 15.3302C106.262 15.3342 106.259 15.335 106.253 15.3326C106.242 15.3278 106.242 15.3262 106.253 15.3126C106.264 15.3006 106.268 15.299 106.273 15.307C106.276 15.3134 106.275 15.3182 106.268 15.3198ZM106.291 15.3446C106.293 15.3486 106.291 15.3542 106.287 15.3574C106.283 15.3598 106.279 15.3566 106.279 15.3502C106.279 15.3358 106.284 15.3334 106.291 15.3446ZM106.059 15.3534C106.059 15.3574 106.055 15.3614 106.05 15.3614C106.047 15.3614 106.045 15.3574 106.047 15.3534C106.05 15.3486 106.053 15.3454 106.056 15.3454C106.057 15.3454 106.059 15.3486 106.059 15.3534ZM106.085 15.3838C106.078 15.3854 106.075 15.3902 106.078 15.3942C106.08 15.3982 106.077 15.399 106.07 15.3966C106.059 15.3918 106.059 15.3902 106.071 15.3766C106.082 15.3646 106.085 15.363 106.091 15.371C106.094 15.3774 106.092 15.3822 106.085 15.3838ZM106.256 15.4214C106.237 15.4438 106.222 15.4438 106.221 15.4206C106.22 15.4046 106.224 15.4022 106.246 15.403L106.272 15.4038L106.256 15.4214ZM106.15 15.4894C106.154 15.4894 106.161 15.483 106.164 15.475C106.17 15.4662 106.172 15.4646 106.173 15.4726C106.173 15.4814 106.175 15.4814 106.184 15.4734C106.191 15.4678 106.196 15.467 106.196 15.4718C106.196 15.4766 106.177 15.4958 106.156 15.515C106.134 15.5334 106.111 15.555 106.106 15.5614C106.1 15.5678 106.097 15.5686 106.101 15.5638C106.104 15.5574 106.101 15.555 106.094 15.5582C106.088 15.5606 106.082 15.5566 106.078 15.5494C106.076 15.5414 106.077 15.5382 106.082 15.5422C106.087 15.5446 106.097 15.5398 106.105 15.5302C106.117 15.5166 106.118 15.5126 106.109 15.5038C106.1 15.495 106.1 15.4918 106.11 15.4798C106.12 15.4678 106.123 15.4678 106.132 15.4774C106.139 15.4838 106.146 15.4894 106.15 15.4894ZM106.062 15.5374C106.066 15.5422 106.062 15.543 106.054 15.5398C106.043 15.5358 106.042 15.5374 106.046 15.5486C106.049 15.5566 106.048 15.5606 106.043 15.5574C106.032 15.5502 106.034 15.5294 106.047 15.5294C106.053 15.5294 106.06 15.5326 106.062 15.5374ZM106.069 15.5894C106.073 15.5998 105.99 15.6895 105.977 15.6895C105.972 15.6895 105.966 15.6927 105.964 15.6975C105.961 15.7023 105.964 15.7031 105.972 15.6999C105.983 15.6959 105.982 15.6983 105.97 15.7111C105.961 15.7199 105.951 15.7343 105.946 15.7423C105.942 15.7503 105.936 15.7543 105.932 15.7511C105.929 15.7479 105.935 15.7359 105.945 15.7239C105.962 15.7047 105.962 15.7031 105.948 15.7079C105.936 15.7127 105.937 15.7095 105.954 15.6943C105.965 15.6839 105.972 15.6726 105.969 15.6694C105.966 15.6663 105.967 15.6654 105.972 15.667C105.976 15.6679 105.991 15.6558 106.005 15.639C106.024 15.6166 106.032 15.611 106.037 15.619C106.042 15.627 106.043 15.6262 106.043 15.615C106.043 15.6078 106.04 15.6014 106.034 15.6014C106.03 15.6014 106.028 15.599 106.031 15.5966C106.034 15.5934 106.04 15.5958 106.047 15.6006C106.054 15.607 106.059 15.6078 106.062 15.6014C106.065 15.5974 106.064 15.5934 106.06 15.5934C106.056 15.5934 106.051 15.5878 106.049 15.5822C106.046 15.5742 106.048 15.5718 106.055 15.5742C106.06 15.5766 106.067 15.583 106.069 15.5894ZM106 15.6094C106.003 15.6094 106.004 15.6062 106.002 15.6014C105.999 15.5966 106.002 15.5958 106.009 15.5982C106.015 15.6006 106.021 15.6062 106.021 15.6102C106.021 15.623 105.993 15.6182 105.982 15.603C105.974 15.5918 105.974 15.591 105.983 15.599C105.989 15.6046 105.996 15.6094 106 15.6094ZM105.444 15.6086C105.433 15.6158 105.438 15.6334 105.451 15.6334C105.456 15.6334 105.456 15.6294 105.453 15.6238C105.45 15.6182 105.451 15.6174 105.457 15.6206C105.462 15.6238 105.471 15.6222 105.477 15.6174C105.487 15.6094 105.488 15.611 105.488 15.6302C105.488 15.6502 105.486 15.651 105.481 15.6374C105.475 15.6238 105.474 15.623 105.469 15.6342C105.466 15.6422 105.459 15.6462 105.45 15.6438C105.443 15.6414 105.434 15.6438 105.432 15.6486C105.429 15.6534 105.423 15.6574 105.419 15.6574C105.415 15.6574 105.414 15.6534 105.416 15.6494C105.418 15.6446 105.417 15.6414 105.413 15.6414C105.409 15.6414 105.405 15.6454 105.405 15.651C105.405 15.6558 105.402 15.6574 105.399 15.655C105.397 15.6518 105.401 15.6414 105.409 15.6326C105.424 15.615 105.424 15.615 105.407 15.6262C105.397 15.6326 105.39 15.6422 105.39 15.647C105.39 15.6558 105.387 15.6558 105.374 15.6478C105.359 15.6374 105.359 15.6334 105.376 15.6302C105.381 15.6286 105.398 15.6222 105.412 15.615C105.441 15.6014 105.461 15.5974 105.444 15.6086ZM105.998 15.6342C105.998 15.6454 105.985 15.6422 105.98 15.6302C105.977 15.6222 105.98 15.6198 105.987 15.623C105.993 15.6254 105.998 15.6302 105.998 15.6342ZM105.359 15.655C105.359 15.659 105.351 15.6622 105.34 15.6622C105.329 15.663 105.323 15.6606 105.326 15.6566C105.33 15.6478 105.359 15.647 105.359 15.655ZM105.947 15.6686C105.95 15.6775 105.948 15.6791 105.939 15.6758C105.93 15.6719 105.928 15.6742 105.932 15.6839C105.935 15.6927 105.933 15.6951 105.925 15.6919C105.911 15.6863 105.911 15.6855 105.926 15.6702C105.941 15.6542 105.942 15.6542 105.947 15.6686ZM105.31 15.6887C105.307 15.6935 105.3 15.6975 105.293 15.6975C105.283 15.6975 105.282 15.6991 105.291 15.7111C105.301 15.7239 105.301 15.7247 105.289 15.7143C105.278 15.7055 105.276 15.7055 105.275 15.7143C105.275 15.7223 105.273 15.7231 105.27 15.7151C105.269 15.7103 105.263 15.7055 105.26 15.7055C105.255 15.7055 105.253 15.7087 105.256 15.7119C105.257 15.7151 105.246 15.7183 105.229 15.7183L105.199 15.7191L105.235 15.6999C105.255 15.6895 105.276 15.6799 105.281 15.6783C105.286 15.6775 105.293 15.6742 105.296 15.671C105.304 15.663 105.317 15.6783 105.31 15.6887ZM105.344 15.6895C105.344 15.6935 105.341 15.6975 105.336 15.6975C105.333 15.6975 105.329 15.6935 105.329 15.6895C105.329 15.6847 105.333 15.6815 105.336 15.6815C105.341 15.6815 105.344 15.6847 105.344 15.6895ZM105.929 15.7335C105.925 15.7391 105.924 15.7503 105.927 15.7575C105.93 15.7679 105.929 15.7703 105.923 15.7663C105.913 15.7599 105.911 15.7279 105.919 15.7191C105.928 15.7095 105.938 15.7223 105.929 15.7335ZM105.179 15.7471C105.18 15.7527 105.177 15.7623 105.17 15.7679C105.159 15.7767 105.159 15.7767 105.171 15.7727C105.178 15.7703 105.184 15.7719 105.184 15.7767C105.184 15.7871 105.142 15.7887 105.136 15.7783C105.133 15.7743 105.139 15.7695 105.148 15.7671C105.157 15.7639 105.162 15.7599 105.16 15.7575C105.158 15.7543 105.148 15.7559 105.139 15.7615C105.126 15.7687 105.123 15.7775 105.123 15.8263C105.123 15.8743 105.122 15.8823 105.112 15.8783C105.102 15.8751 105.102 15.8767 105.108 15.8895C105.112 15.8975 105.113 15.9063 105.11 15.9087C105.106 15.9111 105.104 15.9231 105.104 15.9351C105.107 15.9783 105.108 15.9823 105.114 15.9719C105.117 15.9671 105.12 15.9799 105.12 15.9999C105.12 16.0207 105.12 16.0327 105.118 16.0271C105.116 16.0223 105.111 16.0191 105.108 16.0215C105.104 16.0239 105.101 16.0191 105.102 16.0119C105.102 16.0039 105.099 15.9671 105.095 15.9295C105.076 15.7663 105.076 15.7711 105.089 15.7935C105.101 15.8135 105.101 15.8135 105.098 15.7951C105.095 15.7791 105.096 15.7783 105.107 15.7871C105.117 15.7959 105.118 15.7959 105.114 15.7839C105.11 15.7727 105.116 15.7655 105.137 15.7543C105.171 15.7351 105.174 15.7343 105.179 15.7471ZM105.899 15.7959C105.899 15.7999 105.885 15.8215 105.867 15.8447C105.831 15.8919 105.818 15.9055 105.825 15.8927C105.828 15.8879 105.825 15.8839 105.819 15.8839C105.812 15.8839 105.811 15.8879 105.815 15.8975C105.825 15.9151 105.799 15.9423 105.783 15.9327C105.777 15.9287 105.777 15.9311 105.785 15.9415C105.792 15.9503 105.793 15.9543 105.787 15.9503C105.78 15.9463 105.777 15.9503 105.777 15.9607C105.777 15.9703 105.774 15.9775 105.771 15.9775C105.755 15.9775 105.756 15.9615 105.775 15.9327C105.787 15.9135 105.795 15.8919 105.794 15.8751C105.793 15.8551 105.796 15.8495 105.807 15.8495C105.815 15.8495 105.824 15.8551 105.826 15.8623C105.833 15.8823 105.86 15.8431 105.856 15.8191C105.854 15.8087 105.855 15.7975 105.857 15.7935C105.863 15.7839 105.899 15.7863 105.899 15.7959ZM105.759 15.9295C105.759 15.9359 105.755 15.9495 105.749 15.9591C105.742 15.9719 105.742 15.9783 105.748 15.9823C105.754 15.9863 105.755 15.9847 105.751 15.9767C105.745 15.9671 105.746 15.9671 105.757 15.9767C105.771 15.9879 105.767 16.0055 105.753 15.9967C105.748 15.9935 105.747 15.9943 105.749 15.9991C105.752 16.0039 105.749 16.0135 105.744 16.0215C105.736 16.0343 105.734 16.0279 105.732 15.9743C105.731 15.9183 105.732 15.9127 105.745 15.9151C105.752 15.9167 105.758 15.9231 105.759 15.9295ZM105.123 15.9375C105.123 15.9415 105.122 15.9455 105.12 15.9455C105.118 15.9455 105.114 15.9415 105.112 15.9375C105.11 15.9327 105.111 15.9295 105.115 15.9295C105.12 15.9295 105.123 15.9327 105.123 15.9375ZM105.723 16.0567C105.72 16.0639 105.708 16.0839 105.698 16.1015C105.688 16.1191 105.674 16.1343 105.666 16.1351C105.653 16.1375 105.653 16.1367 105.667 16.1303C105.678 16.1247 105.679 16.1223 105.671 16.1215C105.665 16.1199 105.656 16.1199 105.653 16.1207C105.65 16.1215 105.65 16.1175 105.652 16.1127C105.655 16.1079 105.664 16.1055 105.672 16.1079C105.683 16.1111 105.685 16.1095 105.679 16.0975C105.668 16.0767 105.669 16.0703 105.681 16.0807C105.687 16.0855 105.694 16.0871 105.696 16.0839C105.706 16.0735 105.701 16.0599 105.685 16.0519C105.669 16.0439 105.671 16.0431 105.699 16.0431C105.727 16.0431 105.73 16.0455 105.723 16.0567ZM105.12 16.0775C105.12 16.1039 105.108 16.1039 105.108 16.0775C105.108 16.0663 105.111 16.0575 105.115 16.0575C105.119 16.0575 105.121 16.0663 105.12 16.0775ZM105.637 16.1135C105.634 16.1175 105.628 16.1215 105.623 16.1215C105.618 16.1215 105.618 16.1183 105.625 16.1135C105.64 16.1039 105.643 16.1039 105.637 16.1135ZM105.121 16.1551C105.119 16.1607 105.117 16.1567 105.117 16.1455C105.117 16.1343 105.119 16.1303 105.121 16.1351C105.123 16.1407 105.123 16.1503 105.121 16.1551ZM105.633 16.1455C105.633 16.1495 105.631 16.1535 105.63 16.1535C105.628 16.1535 105.624 16.1495 105.621 16.1455C105.619 16.1407 105.621 16.1375 105.625 16.1375C105.629 16.1375 105.633 16.1407 105.633 16.1455ZM105.637 16.1663C105.618 16.1807 105.61 16.1807 105.61 16.1655C105.61 16.1591 105.615 16.1559 105.621 16.1583C105.627 16.1607 105.634 16.1583 105.637 16.1535C105.64 16.1487 105.644 16.1471 105.647 16.1495C105.65 16.1527 105.645 16.1599 105.637 16.1663ZM105.627 16.2191C105.621 16.2271 105.618 16.2335 105.622 16.2335C105.626 16.2335 105.622 16.2391 105.615 16.2455C105.606 16.2519 105.602 16.2575 105.605 16.2575C105.612 16.2575 105.588 16.3079 105.578 16.3143C105.574 16.3167 105.571 16.3239 105.569 16.3303C105.562 16.3711 105.548 16.3879 105.538 16.3695C105.535 16.3647 105.537 16.3623 105.543 16.3631C105.55 16.3647 105.553 16.3567 105.553 16.3375C105.553 16.3183 105.557 16.3087 105.566 16.3071C105.573 16.3055 105.58 16.2943 105.581 16.2815C105.583 16.2639 105.582 16.2599 105.576 16.2655C105.569 16.2711 105.563 16.2695 105.556 16.2599C105.546 16.2463 105.546 16.2463 105.56 16.2575C105.574 16.2687 105.574 16.2679 105.571 16.2567C105.567 16.2463 105.569 16.2439 105.581 16.2479C105.592 16.2503 105.596 16.2487 105.592 16.2431C105.588 16.2367 105.59 16.2351 105.598 16.2383C105.607 16.2423 105.61 16.2375 105.61 16.2207C105.61 16.2023 105.612 16.1999 105.618 16.2095C105.624 16.2199 105.625 16.2191 105.625 16.2071C105.625 16.1999 105.621 16.1935 105.616 16.1935C105.609 16.1935 105.61 16.1911 105.618 16.1855C105.634 16.1743 105.642 16.2015 105.627 16.2191ZM105.656 16.1807C105.656 16.1831 105.653 16.1871 105.648 16.1895C105.644 16.1919 105.64 16.1903 105.64 16.1863C105.64 16.1815 105.644 16.1775 105.648 16.1775C105.653 16.1775 105.656 16.1791 105.656 16.1807ZM105.142 16.2655C105.139 16.2863 105.14 16.2975 105.145 16.2975C105.15 16.2975 105.153 16.2911 105.152 16.2831C105.15 16.2551 105.154 16.2335 105.161 16.2335C105.166 16.2335 105.169 16.2407 105.169 16.2495C105.169 16.2583 105.173 16.2655 105.177 16.2655C105.185 16.2655 105.187 16.2967 105.18 16.3167C105.177 16.3239 105.172 16.3295 105.169 16.3295C105.161 16.3295 105.163 16.3135 105.172 16.2991C105.176 16.2927 105.175 16.2847 105.17 16.2791C105.161 16.2703 105.161 16.2711 105.158 16.3215C105.157 16.3423 105.167 16.3639 105.176 16.3583C105.178 16.3567 105.18 16.3727 105.181 16.3943C105.181 16.4191 105.178 16.4327 105.174 16.4311C105.169 16.4295 105.165 16.4119 105.165 16.3927C105.165 16.3647 105.163 16.3583 105.153 16.3599C105.143 16.3615 105.14 16.3519 105.136 16.3151C105.133 16.2895 105.133 16.2607 105.136 16.2511C105.143 16.2215 105.148 16.2311 105.142 16.2655ZM105.561 16.2807C105.563 16.2847 105.562 16.2903 105.558 16.2927C105.555 16.2951 105.552 16.2919 105.552 16.2855C105.552 16.2719 105.554 16.2703 105.561 16.2807ZM105.511 16.3711C105.511 16.3759 105.514 16.3775 105.516 16.3751C105.519 16.3727 105.527 16.3735 105.536 16.3783C105.55 16.3863 105.55 16.3871 105.536 16.3991C105.529 16.4055 105.526 16.4087 105.532 16.4055C105.539 16.4023 105.539 16.4063 105.533 16.4255C105.529 16.4383 105.522 16.4471 105.517 16.4447C105.514 16.4423 105.51 16.4447 105.512 16.4503C105.514 16.4719 105.511 16.4823 105.503 16.4767C105.498 16.4743 105.496 16.4647 105.498 16.4567C105.501 16.4479 105.499 16.4415 105.495 16.4415C105.491 16.4415 105.488 16.4319 105.488 16.4191C105.488 16.4031 105.491 16.4007 105.495 16.4095C105.5 16.4159 105.501 16.4231 105.499 16.4263C105.498 16.4295 105.499 16.4343 105.504 16.4375C105.515 16.4447 105.521 16.4055 105.511 16.3863C105.507 16.3767 105.499 16.3719 105.494 16.3743C105.489 16.3775 105.488 16.3767 105.491 16.3711C105.498 16.3591 105.511 16.3591 105.511 16.3711ZM105.157 16.4095C105.159 16.4327 105.158 16.4407 105.153 16.4327C105.146 16.4215 105.143 16.3639 105.15 16.3711C105.152 16.3727 105.155 16.3903 105.157 16.4095ZM105.507 16.3943C105.516 16.4071 105.508 16.4095 105.498 16.3967C105.492 16.3903 105.491 16.3855 105.495 16.3855C105.499 16.3855 105.505 16.3895 105.507 16.3943ZM105.176 16.5119C105.172 16.5135 105.169 16.5247 105.169 16.5359C105.169 16.5495 105.171 16.5535 105.175 16.5479C105.179 16.5423 105.181 16.5567 105.181 16.5807C105.18 16.644 105.168 16.6127 105.166 16.5447C105.166 16.5151 105.163 16.4927 105.161 16.4943C105.158 16.4959 105.156 16.4855 105.156 16.4711L105.155 16.4455L105.169 16.4775C105.176 16.4951 105.179 16.5103 105.176 16.5119ZM105.443 16.4927C105.443 16.4951 105.44 16.4991 105.435 16.5015C105.431 16.5039 105.428 16.5023 105.428 16.4983C105.428 16.4935 105.431 16.4895 105.435 16.4895C105.44 16.4895 105.443 16.4911 105.443 16.4927ZM105.496 16.5007C105.496 16.5159 105.483 16.5239 105.477 16.5135C105.475 16.5095 105.477 16.5055 105.482 16.5055C105.489 16.5055 105.489 16.5031 105.481 16.4975C105.471 16.4911 105.472 16.4895 105.483 16.4895C105.49 16.4895 105.496 16.4943 105.496 16.5007ZM105.45 16.5247C105.45 16.5415 105.466 16.5495 105.474 16.5367C105.479 16.5287 105.48 16.5311 105.479 16.5431C105.478 16.5575 105.474 16.5599 105.459 16.5559C105.446 16.5527 105.442 16.5543 105.446 16.5607C105.449 16.5655 105.457 16.5695 105.464 16.5703C105.472 16.5703 105.473 16.5719 105.467 16.5751C105.463 16.5767 105.46 16.5823 105.462 16.5855C105.464 16.5895 105.463 16.5943 105.458 16.5975C105.454 16.5999 105.45 16.5983 105.45 16.5943C105.45 16.5895 105.447 16.5855 105.442 16.5855C105.438 16.5855 105.437 16.5887 105.439 16.5935C105.447 16.6079 105.45 16.636 105.444 16.648C105.439 16.656 105.436 16.6568 105.432 16.6504C105.429 16.6456 105.43 16.6416 105.433 16.6416C105.437 16.6416 105.44 16.6344 105.44 16.6255C105.44 16.6167 105.437 16.6095 105.433 16.6095C105.43 16.6095 105.429 16.5943 105.431 16.5751C105.434 16.5567 105.437 16.5351 105.437 16.5271C105.439 16.5111 105.45 16.5087 105.45 16.5247ZM105.182 16.6872C105.18 16.6952 105.178 16.6888 105.178 16.6736C105.178 16.6584 105.18 16.652 105.182 16.6592C105.184 16.6672 105.184 16.68 105.182 16.6872ZM105.415 16.6888C105.418 16.6896 105.42 16.6968 105.42 16.7064C105.42 16.716 105.417 16.72 105.412 16.7168C105.406 16.7136 105.405 16.7168 105.408 16.728C105.411 16.7376 105.409 16.7456 105.402 16.748C105.391 16.752 105.391 16.7336 105.401 16.7016C105.404 16.6904 105.402 16.692 105.394 16.7056C105.379 16.732 105.379 16.7512 105.396 16.7608C105.403 16.7656 105.405 16.7696 105.399 16.7696C105.393 16.7696 105.39 16.7728 105.393 16.7768C105.396 16.7808 105.393 16.7944 105.389 16.8072C105.383 16.8192 105.379 16.8376 105.377 16.848C105.377 16.8584 105.372 16.8712 105.368 16.876C105.364 16.8816 105.357 16.9064 105.352 16.9312C105.346 16.9576 105.337 16.9776 105.332 16.9776C105.326 16.9776 105.324 16.9712 105.326 16.9624C105.329 16.9544 105.326 16.9448 105.322 16.9424C105.317 16.9384 105.316 16.9416 105.319 16.9512C105.321 16.9592 105.32 16.9632 105.317 16.9592C105.313 16.9552 105.31 16.9416 105.309 16.9272L105.307 16.9024L105.322 16.9224C105.334 16.9384 105.337 16.94 105.344 16.9296C105.355 16.9112 105.353 16.9056 105.336 16.9056C105.328 16.9056 105.319 16.9 105.316 16.8936C105.309 16.8736 105.321 16.868 105.334 16.8856C105.344 16.8984 105.345 16.8992 105.342 16.8872C105.338 16.8776 105.341 16.8736 105.352 16.8736C105.368 16.8736 105.369 16.8672 105.368 16.8152C105.368 16.796 105.371 16.7872 105.376 16.7904C105.382 16.7944 105.383 16.7896 105.379 16.7768C105.367 16.7296 105.365 16.7136 105.374 16.7136C105.38 16.7136 105.38 16.7096 105.374 16.6976C105.367 16.6824 105.368 16.6816 105.387 16.6848C105.399 16.6864 105.411 16.6888 105.415 16.6888ZM105.225 16.7512C105.227 16.7552 105.218 16.7576 105.206 16.7576C105.194 16.7576 105.184 16.7552 105.184 16.7512C105.184 16.748 105.193 16.7456 105.203 16.7456C105.213 16.7456 105.223 16.748 105.225 16.7512ZM105.215 16.7648C105.215 16.7664 105.209 16.7704 105.203 16.7728C105.196 16.7752 105.193 16.7744 105.196 16.7696C105.2 16.7616 105.215 16.7584 105.215 16.7648ZM105.222 16.8192C105.222 16.8592 105.228 16.8568 105.231 16.8152C105.234 16.7688 105.242 16.7808 105.244 16.8336C105.244 16.86 105.242 16.8816 105.239 16.8816C105.236 16.8816 105.233 16.8888 105.232 16.8976C105.231 16.9064 105.234 16.912 105.237 16.9096C105.241 16.9072 105.243 16.912 105.241 16.9192C105.24 16.9272 105.238 16.9368 105.238 16.94C105.237 16.944 105.234 16.944 105.23 16.9416C105.217 16.9336 105.222 16.9472 105.236 16.9592C105.243 16.9656 105.244 16.9688 105.24 16.9656C105.234 16.9632 105.23 16.964 105.23 16.9672C105.23 16.9712 105.234 16.9792 105.24 16.9848C105.247 16.9936 105.247 16.9952 105.24 16.9904C105.234 16.9872 105.23 16.9872 105.229 16.9912C105.229 16.9944 105.228 17.0048 105.226 17.0128C105.225 17.0216 105.227 17.0344 105.231 17.0408C105.237 17.0512 105.237 17.0504 105.234 17.0376C105.232 17.0288 105.234 17.016 105.237 17.0096C105.243 17.0016 105.245 17.016 105.244 17.0576C105.244 17.0904 105.247 17.1264 105.251 17.1376C105.256 17.1488 105.26 17.152 105.26 17.1456C105.26 17.1376 105.269 17.132 105.284 17.1312C105.297 17.1304 105.305 17.132 105.303 17.136C105.301 17.14 105.29 17.1896 105.279 17.2456C105.259 17.3528 105.253 17.372 105.252 17.3328C105.251 17.308 105.25 17.2952 105.241 17.2448C105.238 17.224 105.239 17.2096 105.244 17.2064C105.249 17.2032 105.25 17.2088 105.248 17.2216C105.247 17.2328 105.247 17.248 105.251 17.2552C105.257 17.2664 105.259 17.2656 105.263 17.2544C105.266 17.2464 105.265 17.2424 105.26 17.2456C105.256 17.248 105.253 17.2464 105.253 17.2424C105.253 17.2376 105.257 17.2336 105.262 17.2336C105.269 17.2336 105.269 17.2312 105.263 17.2248C105.252 17.2136 105.259 17.1912 105.27 17.1992C105.275 17.2016 105.276 17.2 105.272 17.1952C105.269 17.1896 105.27 17.1856 105.274 17.1856C105.278 17.1856 105.283 17.1744 105.285 17.1616C105.289 17.1296 105.281 17.1312 105.268 17.1656C105.262 17.1808 105.255 17.1936 105.252 17.1936C105.242 17.1936 105.228 17.1704 105.232 17.16C105.235 17.1536 105.237 17.1544 105.237 17.1632C105.237 17.1712 105.241 17.1776 105.245 17.1776C105.257 17.1776 105.254 17.1648 105.241 17.1504C105.231 17.1408 105.231 17.1376 105.239 17.1376C105.247 17.1376 105.246 17.1352 105.237 17.1296C105.231 17.1256 105.229 17.1216 105.233 17.1216C105.237 17.1216 105.236 17.1168 105.232 17.1112C105.228 17.1064 105.224 17.096 105.224 17.0896C105.222 17.0576 105.215 16.9848 105.207 16.9416C105.199 16.8904 105.197 16.836 105.203 16.8432C105.206 16.8456 105.209 16.86 105.209 16.876C105.211 16.892 105.214 16.908 105.217 16.9112C105.222 16.9168 105.216 16.808 105.21 16.7872C105.209 16.7816 105.211 16.7792 105.215 16.7816C105.219 16.784 105.222 16.8016 105.222 16.8192ZM105.197 16.8272C105.195 16.8328 105.193 16.8288 105.193 16.8176C105.193 16.8064 105.195 16.8024 105.197 16.8072C105.199 16.8128 105.199 16.8224 105.197 16.8272ZM105.321 17.0176C105.325 17.02 105.325 17.0344 105.322 17.0496C105.317 17.0776 105.317 17.0776 105.312 17.0552C105.31 17.0424 105.311 17.0336 105.316 17.0336C105.321 17.0336 105.321 17.0304 105.315 17.024C105.31 17.0184 105.307 17.0072 105.307 16.9976C105.307 16.9816 105.307 16.9816 105.311 16.9976C105.314 17.0064 105.318 17.0152 105.321 17.0176ZM109.401 18.2657C110.454 18.3257 111.441 18.6458 112.333 19.2146C113.222 19.7827 113.984 20.6068 114.506 21.5661C115.228 22.8934 115.484 24.4592 115.228 25.9745C115.043 27.0698 114.584 28.1204 113.917 28.9748C113.729 29.2165 113.424 29.5493 113.218 29.7381C112.253 30.6238 111.123 31.1623 109.883 31.3263C109.587 31.3663 109.447 31.3743 109.093 31.3743C108.662 31.3743 108.401 31.3519 107.998 31.2791C106.987 31.0959 106.021 30.6398 105.216 29.9654C104.868 29.6733 104.508 29.2981 104.23 28.9356C103.505 27.9899 103.044 26.8506 102.9 25.6505C102.862 25.3385 102.854 25.1913 102.854 24.8184C102.854 24.4456 102.862 24.2984 102.9 23.9863C103.057 22.6694 103.587 21.4461 104.431 20.4468C104.545 20.3123 104.765 20.0779 104.888 19.9611C105.891 19.0074 107.127 18.4297 108.465 18.2897C108.764 18.2585 109.115 18.2497 109.401 18.2657Z" fill="#91B3FA"/>
<path d="M106.234 15.4226C106.234 15.426 106.238 15.4273 106.242 15.4253C106.246 15.4233 106.249 15.4199 106.249 15.4179C106.249 15.4166 106.246 15.4152 106.242 15.4152C106.238 15.4152 106.234 15.4186 106.234 15.4226Z" fill="#91B3FA"/>
<path d="M106.118 15.4951C106.116 15.4983 106.119 15.507 106.125 15.5134C106.133 15.5221 106.133 15.5268 106.127 15.5355C106.122 15.5419 106.128 15.5379 106.14 15.5268C106.153 15.5157 106.164 15.5054 106.166 15.5039C106.168 15.5023 106.164 15.5031 106.157 15.5054C106.15 15.5086 106.144 15.507 106.144 15.5039C106.144 15.4935 106.123 15.4864 106.118 15.4951Z" fill="#91B3FA"/>
<path d="M106.018 15.6418C106 15.6593 106.003 15.6646 106.02 15.6487C106.029 15.6411 106.035 15.6335 106.035 15.6319C106.035 15.6266 106.029 15.6304 106.018 15.6418Z" fill="#91B3FA"/>
<path d="M105.269 15.6943C105.263 15.6977 105.262 15.7017 105.266 15.7044C105.27 15.7064 105.275 15.7037 105.278 15.6984C105.282 15.6869 105.282 15.6863 105.269 15.6943Z" fill="#91B3FA"/>
<path d="M105.107 15.8534C105.104 15.8618 105.106 15.8687 105.109 15.8687C105.113 15.8687 105.116 15.8618 105.116 15.8534C105.116 15.8451 105.115 15.8382 105.113 15.8382C105.112 15.8382 105.109 15.8451 105.107 15.8534Z" fill="#91B3FA"/>
<path d="M105.871 15.8068C105.863 15.8115 105.863 15.8129 105.872 15.8162C105.88 15.8189 105.884 15.8169 105.884 15.8108C105.884 15.7994 105.883 15.7994 105.871 15.8068Z" fill="#91B3FA"/>
<path d="M108.746 18.9188C107.584 18.9948 106.47 19.4452 105.575 20.2013C105.35 20.3917 105.046 20.6958 104.867 20.9102C103.579 22.4544 103.141 24.581 103.709 26.546C103.892 27.1821 104.189 27.8021 104.563 28.3334C105.563 29.7495 107.057 30.6072 108.735 30.7272C108.898 30.7392 109.29 30.7392 109.449 30.728C110.564 30.6464 111.59 30.248 112.464 29.5551C113.435 28.7862 114.139 27.7181 114.479 26.4988C114.838 25.2146 114.776 23.8577 114.302 22.6144C114.104 22.0935 113.815 21.5727 113.476 21.1302C113.295 20.8926 113.007 20.5726 112.803 20.3853C111.852 19.5068 110.677 19.0004 109.396 18.918C109.253 18.9092 108.892 18.9092 108.746 18.9188ZM109.267 20.3421C110.232 20.3909 111.105 20.7486 111.837 21.3966C111.963 21.5079 112.246 21.8079 112.35 21.9383C112.948 22.6968 113.279 23.5649 113.343 24.5466C113.354 24.713 113.348 25.0898 113.331 25.2546C113.276 25.8187 113.134 26.3348 112.902 26.8228C112.753 27.1388 112.573 27.4261 112.351 27.7069C112.249 27.8349 111.965 28.1342 111.837 28.247C111.126 28.8758 110.269 29.2383 109.347 29.3007C109.15 29.3143 108.821 29.3055 108.624 29.2823C107.517 29.1495 106.531 28.5942 105.82 27.7029C105.242 26.978 104.897 26.0683 104.835 25.1066C104.826 24.9738 104.83 24.5658 104.841 24.4506C104.901 23.8177 105.05 23.2776 105.307 22.7584C105.756 21.8503 106.511 21.1126 107.408 20.7038C107.87 20.4925 108.4 20.3637 108.879 20.3445C108.948 20.3421 109.006 20.3389 109.008 20.3373C109.013 20.3325 109.103 20.3341 109.267 20.3421Z" fill="#91B3FA"/>
<path d="M106.589 15.1802C106.595 15.1826 106.601 15.1818 106.604 15.1794C106.607 15.1771 106.602 15.1747 106.594 15.1755C106.586 15.1755 106.583 15.1779 106.589 15.1802Z" fill="#91B3FA"/>
<path d="M106.558 15.1875C106.563 15.1899 106.57 15.1891 106.572 15.1868C106.575 15.1844 106.571 15.182 106.563 15.1828C106.554 15.1828 106.552 15.1852 106.558 15.1875Z" fill="#91B3FA"/>
<path d="M106.374 15.2403C106.371 15.2443 106.37 15.2484 106.372 15.2504C106.374 15.2524 106.377 15.249 106.38 15.243C106.385 15.2316 106.38 15.2295 106.374 15.2403Z" fill="#91B3FA"/>
<path d="M106.344 15.254C106.347 15.258 106.352 15.2594 106.356 15.2574C106.366 15.2513 106.364 15.2473 106.351 15.2473C106.345 15.2473 106.342 15.2507 106.344 15.254Z" fill="#91B3FA"/>
<path d="M106.169 15.3107C106.171 15.314 106.177 15.3174 106.181 15.3174C106.185 15.3174 106.186 15.314 106.183 15.3107C106.181 15.3066 106.176 15.3039 106.172 15.3039C106.168 15.3039 106.167 15.3066 106.169 15.3107Z" fill="#91B3FA"/>
<path d="M106.132 15.3194C106.129 15.3234 106.128 15.3275 106.13 15.3295C106.132 15.3315 106.135 15.3281 106.137 15.3221C106.142 15.3107 106.138 15.3087 106.132 15.3194Z" fill="#91B3FA"/>
<path d="M105.875 15.4362C105.872 15.4458 105.873 15.4521 105.877 15.4489C105.881 15.4465 105.884 15.4489 105.884 15.4537C105.884 15.4584 105.887 15.46 105.892 15.4568C105.897 15.4537 105.897 15.4497 105.893 15.4465C105.889 15.4442 105.884 15.4362 105.882 15.4299C105.88 15.422 105.878 15.4236 105.875 15.4362Z" fill="#91B3FA"/>
<path d="M54.8105 126.388C54.8105 126.388 59.1758 123.915 58.2014 111.216L67.2193 109.429C67.2193 109.429 66.203 120.815 70.7693 124.43L54.8105 126.388Z" fill="#FFCCC6"/>
<g opacity="0.15">
<path opacity="0.15" d="M68.9229 122.051L61.4316 115.927L67.3167 115.862C67.4862 118.014 68.0309 120.113 68.9229 122.051Z" fill="#141226"/>
</g>
<path d="M53.0831 106.29C53.7075 110.144 55.6756 113.792 58.8569 115.036C62.6339 116.513 65.4314 116.613 69.7859 116.613C75.728 116.613 75.5316 109.993 75.6987 103.321C75.868 96.6231 75.3678 89.4388 73.0192 87.1048C68.3333 82.4457 54.5724 85.3961 52.899 93.1884C52.0318 97.2178 52.4886 102.622 53.0831 106.29Z" fill="#FFCCC6"/>
<path d="M78.8848 90.9781C78.8848 90.9781 81.3186 90.3973 80.6519 87.8051C80.2104 86.0862 78.1486 86.468 78.1486 86.468C78.1486 86.468 80.1009 86.0862 80.1009 84.2654C80.1009 83.1195 79.2755 81.1745 76.7863 82.2854C73.8652 83.5887 70.5342 83.4211 68.001 82.9663C66.5681 82.6312 65.1136 82.4119 63.6498 82.3101H63.6419C61.9592 82.2786 60.2816 82.5183 58.6658 83.0212C54.1379 84.4687 47.2857 88.8057 48.7423 98.6376C50.3683 109.611 55.1886 113.807 57.3091 115.153C57.4179 115.223 57.5384 115.27 57.6639 115.29C57.7895 115.31 57.9175 115.304 58.0407 115.271C58.1639 115.238 58.2798 115.18 58.382 115.1C58.4841 115.019 58.5704 114.918 58.6359 114.802C58.6757 114.731 58.7075 114.655 58.7307 114.576C59.332 112.52 60.368 107.345 60.0784 96.6751C73.9962 95.9453 78.0007 95.7246 78.0007 95.7246C78.0007 95.7246 81.2752 95.8555 81.2752 93.2989C81.2752 90.7423 78.8848 90.9781 78.8848 90.9781Z" fill="#0F1011"/>
<path d="M67.2126 103.322C67.6644 103.322 68.0307 102.931 68.0307 102.448C68.0307 101.965 67.6644 101.574 67.2126 101.574C66.7608 101.574 66.3945 101.965 66.3945 102.448C66.3945 102.931 66.7608 103.322 67.2126 103.322Z" fill="#0F1011"/>
<path d="M73.6618 102.757C74.1136 102.757 74.4799 102.365 74.4799 101.883C74.4799 101.4 74.1136 101.009 73.6618 101.009C73.21 101.009 72.8438 101.4 72.8438 101.883C72.8438 102.365 73.21 102.757 73.6618 102.757Z" fill="#0F1011"/>
<path d="M75.0809 100.021H75.0758L72.9084 99.9917C72.8091 99.987 72.7153 99.9414 72.6468 99.8643C72.5783 99.7873 72.5404 99.6849 72.541 99.5787C72.5417 99.4725 72.5809 99.3706 72.6503 99.2946C72.7198 99.2185 72.8141 99.1742 72.9135 99.1709H72.9186L75.0854 99.1992C75.1874 99.1999 75.2849 99.2438 75.3566 99.3213C75.4283 99.3987 75.4682 99.5035 75.4676 99.6124C75.467 99.7213 75.426 99.8255 75.3534 99.9021C75.2809 99.9787 75.1829 100.021 75.0809 100.021Z" fill="#0F1011"/>
<path d="M65.4406 100.864C65.3461 100.865 65.2549 100.828 65.1842 100.761C65.1135 100.694 65.0683 100.602 65.0573 100.502C65.0463 100.401 65.0702 100.3 65.1244 100.218C65.1786 100.135 65.2594 100.077 65.3514 100.054L67.4877 99.5049C67.537 99.4915 67.5884 99.4886 67.6387 99.4966C67.6891 99.5045 67.7375 99.5231 67.7811 99.5512C67.8247 99.5792 67.8626 99.6163 67.8927 99.6602C67.9228 99.704 67.9444 99.7538 67.9563 99.8067C67.9683 99.8596 67.9702 99.9144 67.9621 99.9681C67.9541 100.022 67.9361 100.073 67.9092 100.119C67.8824 100.166 67.8472 100.206 67.8058 100.237C67.7643 100.269 67.7174 100.291 67.6678 100.303L65.5309 100.853C65.5013 100.86 65.471 100.864 65.4406 100.864Z" fill="#0F1011"/>
<path d="M62.9547 104.587C62.9982 105.071 62.952 105.56 62.8187 106.025C62.6853 106.49 62.4675 106.923 62.1777 107.298C61.8879 107.674 61.5317 107.984 61.1295 108.212C60.7272 108.441 60.2869 108.582 59.8335 108.629C59.3801 108.675 58.9226 108.626 58.4871 108.483C58.0516 108.341 57.6467 108.108 57.2953 107.798C56.944 107.489 56.6532 107.108 56.4395 106.679C56.2259 106.249 56.0935 105.779 56.05 105.294C56.0466 105.26 56.0444 105.225 56.0421 105.19C55.9978 104.714 56.0417 104.233 56.1713 103.775C56.3009 103.317 56.5137 102.891 56.7975 102.521C57.0813 102.151 57.4305 101.845 57.8253 101.619C58.22 101.393 58.6525 101.252 59.0981 101.205C59.1371 101.201 59.1761 101.197 59.215 101.195C61.6856 101.111 62.7955 102.548 62.9547 104.587Z" fill="#FFCCC6"/>
<g opacity="0.15">
<path opacity="0.15" d="M70.8393 107.296C70.7719 107.295 70.707 107.269 70.6561 107.222C70.6052 107.175 70.5718 107.11 70.5617 107.039C70.5517 106.968 70.5658 106.895 70.6015 106.835C70.6372 106.774 70.692 106.728 70.7563 106.707L72.4201 106.16L71.2553 103.392C71.2246 103.319 71.2222 103.236 71.2487 103.161C71.2752 103.086 71.3285 103.026 71.3968 102.993C71.465 102.96 71.5428 102.958 71.6128 102.986C71.6828 103.014 71.7395 103.071 71.7702 103.144L73.0687 106.225C73.0852 106.264 73.0936 106.306 73.0936 106.349C73.0935 106.392 73.085 106.434 73.0685 106.473C73.052 106.512 73.0279 106.546 72.9979 106.575C72.9679 106.603 72.9325 106.624 72.8943 106.637L70.9245 107.283C70.8969 107.292 70.8681 107.296 70.8393 107.296Z" fill="#141226"/>
</g>
<path d="M67.5859 109.331C67.5859 109.331 70.6058 109.671 72.7235 108.881C72.7235 108.881 72.7066 111.006 70.3168 111.215C67.9269 111.424 67.5859 109.331 67.5859 109.331Z" fill="white"/>
<path d="M115.658 126.431C115.658 126.431 115.743 119.187 120.59 119.563C123.647 119.801 138.177 119.081 138.393 120.495C138.928 123.993 125.638 124.848 124.432 128.108L115.658 126.431Z" fill="#FFCCC6"/>
<path d="M118.873 119.795C118.873 119.795 125.619 117.446 127.277 117.865C128.745 118.237 125.685 120.79 125.685 120.79L118.873 119.795Z" fill="#FFCCC6"/>
<path d="M115.086 122.2L102.921 146.466L84.7193 128.278C83.8828 126.885 82.7343 125.737 81.3776 124.938L81.2907 124.851L81.2704 124.875C79.2143 123.771 76.9493 123.184 74.6485 123.159C74.2928 123.141 73.7226 123.129 72.9887 123.117C72.8419 126.434 53.6126 126.422 53.2061 123.039C47.7749 123.045 43.3204 124.824 40.7403 127.58C31.8484 137.079 42.7615 153.267 42.7615 165.932C42.7615 178.597 37.3981 184.279 37.7933 190.78C38.4143 200.997 84.8955 198.585 87.2605 192.777C88.6453 189.38 87.6483 186.719 86.5677 181.474L97.5972 181.112L97.2223 167.968L85.0247 168.365C84.9722 166.866 84.9491 165.26 84.9683 163.523C85.0248 158.409 85.8298 152.732 86.3893 147.288L100.454 161.34C101.117 162.003 101.915 162.495 102.784 162.776C103.654 163.057 104.572 163.122 105.468 162.964C106.365 162.806 107.215 162.43 107.954 161.865C108.692 161.3 109.3 160.561 109.729 159.705L125.537 128.175L115.086 122.2Z" fill="#2F3235"/>
<path d="M72.9896 123.115C72.8428 126.432 71.1547 131.311 65.9438 131.679C58.9995 132.168 53.6135 126.42 53.207 123.037H53.224C60.0609 123.037 69.0037 123.05 72.9896 123.115Z" fill="#FFCCC6"/>
<path d="M94.6923 136.615L87.8367 167.356C87.7302 167.835 87.7264 168.333 87.8257 168.813C87.925 169.293 88.1248 169.743 88.4101 170.129C88.6954 170.515 89.0588 170.826 89.473 171.041C89.8872 171.255 90.3415 171.367 90.8018 171.367H131.216C131.884 171.367 132.533 171.132 133.064 170.7C133.595 170.267 133.978 169.66 134.155 168.973L142.054 138.231C142.178 137.748 142.196 137.241 142.107 136.749C142.017 136.257 141.822 135.794 141.538 135.396C141.254 134.997 140.887 134.674 140.467 134.452C140.047 134.23 139.584 134.114 139.115 134.114H97.6574C96.9719 134.114 96.3065 134.361 95.7685 134.815C95.2305 135.268 94.8514 135.903 94.6923 136.615Z" fill="#FE7062"/>
<path d="M73.451 167.538H122.297C122.772 167.538 123.228 167.739 123.563 168.098C123.899 168.457 124.088 168.943 124.088 169.451C124.088 169.958 123.899 170.445 123.563 170.803C123.228 171.162 122.772 171.364 122.297 171.364H73.451C72.976 171.364 72.5205 171.162 72.1847 170.803C71.8488 170.445 71.6602 169.958 71.6602 169.451C71.6602 168.943 71.8488 168.457 72.1847 168.098C72.5205 167.739 72.976 167.538 73.451 167.538Z" fill="#FE7062"/>
<path d="M116.602 157.545C119.242 157.545 121.382 155.259 121.382 152.439C121.382 149.619 119.242 147.333 116.602 147.333C113.962 147.333 111.822 149.619 111.822 152.439C111.822 155.259 113.962 157.545 116.602 157.545Z" fill="white"/>
<path d="M107.396 175.399C104.862 177.069 100.938 177.86 97.5162 178.149L97.3242 171.491C98.9338 171.442 101.407 171.261 103.828 171.364C104.923 170.41 105.553 170.128 106.676 168.927C107.872 167.65 111.01 166.883 111.602 168.927C112.194 170.972 109.621 173.93 107.396 175.399Z" fill="#FFCCC6"/>
<path d="M179.415 0.791135C176.896 0.791135 174.854 2.90791 174.854 5.51909C174.854 8.13028 176.896 10.2471 179.415 10.2471C181.934 10.2471 183.977 8.13028 183.977 5.51909C183.977 2.90791 181.934 0.791135 179.415 0.791135Z" fill="#E5534B"/>
<path d="M183.216 6.23774C183.216 4.97032 181.514 3.94287 179.414 3.94287C177.315 3.94287 175.613 4.97032 175.613 6.23774V195.495C175.613 196.762 177.315 197.79 179.414 197.79C181.514 197.79 183.216 196.762 183.216 195.495V6.23774Z" fill="#FE766A"/>
<path d="M149.006 55.9531H217.1L237.953 65.3976L219.853 77.229C218.819 77.1578 214.833 77.229 214.015 77.229H152.091C151.273 77.229 150.488 76.9775 149.91 76.5299C149.331 76.0822 159.269 66.0421 159.269 65.4091L149.006 55.9531Z" fill="#4F52FF"/>
<path d="M172.96 70.3713C174.854 70.3713 176.389 68.7314 176.389 66.7084C176.389 64.6854 174.854 63.0454 172.96 63.0454C171.066 63.0454 169.531 64.6854 169.531 66.7084C169.531 68.7314 171.066 70.3713 172.96 70.3713Z" fill="#E5534B"/>
<path d="M181.588 63.832H209.933C210.308 63.832 210.667 63.8586 210.932 63.9059C211.197 63.9531 211.345 64.0172 211.345 64.0841V65.408H180.176V64.0841C180.176 64.0172 180.325 63.9531 180.589 63.9059C180.854 63.8586 181.213 63.832 181.588 63.832Z" fill="#CFDEFD"/>
<path d="M181.588 67.7729H209.933C210.308 67.7729 210.667 67.7995 210.932 67.8468C211.197 67.894 211.345 67.9581 211.345 68.025V69.3489H180.176V68.025C180.176 67.9581 180.325 67.894 180.589 67.8468C180.854 67.7995 181.213 67.7729 181.588 67.7729Z" fill="#CFDEFD"/>
<path d="M204.502 43.3428L136.408 43.3428L115.555 33.8983L133.654 22.0669C134.689 22.1381 138.675 22.0669 139.493 22.0669L201.417 22.0669C202.235 22.0669 203.02 22.3184 203.598 22.766C204.177 23.2137 194.239 33.2538 194.239 33.8868L204.502 43.3428Z" fill="#FE786C"/>
<path d="M180.548 28.9251C178.654 28.9251 177.119 30.565 177.119 32.588C177.119 34.611 178.654 36.251 180.548 36.251C182.441 36.251 183.977 34.611 183.977 32.588C183.977 30.565 182.441 28.9251 180.548 28.9251Z" fill="#E5534B"/>
<path d="M171.92 35.4624L143.575 35.4624C143.2 35.4624 142.841 35.4358 142.576 35.3886C142.311 35.3413 142.162 35.2772 142.162 35.2104V33.8864L173.332 33.8864V35.2104C173.332 35.2772 173.183 35.3413 172.918 35.3886C172.654 35.4358 172.294 35.4624 171.92 35.4624Z" fill="#FEC2BC"/>
<path d="M171.92 31.522L143.575 31.522C143.2 31.522 142.841 31.4954 142.576 31.4482C142.311 31.4009 142.162 31.3368 142.162 31.2699V29.946L173.332 29.946V31.2699C173.332 31.3368 173.183 31.4009 172.918 31.4482C172.654 31.4954 172.294 31.522 171.92 31.522Z" fill="#FEC2BC"/>
<path d="M194.619 111.109L126.525 111.109L105.672 101.665L123.772 89.8335C124.806 89.9047 128.792 89.8335 129.61 89.8335H191.534C192.352 89.8335 193.137 90.085 193.715 90.5326C194.294 90.9803 184.356 101.02 184.356 101.653L194.619 111.109Z" fill="#C1D8ED"/>
<path d="M170.665 96.6907C168.771 96.6907 167.236 98.3306 167.236 100.354C167.236 102.377 168.771 104.017 170.665 104.017C172.559 104.017 174.094 102.377 174.094 100.354C174.094 98.3306 172.559 96.6907 170.665 96.6907Z" fill="#FE766A"/>
<path d="M162.037 103.229H133.692C133.317 103.229 132.958 103.202 132.693 103.155C132.428 103.108 132.28 103.044 132.28 102.977V101.653H163.449V102.977C163.449 103.044 163.3 103.108 163.036 103.155C162.771 103.202 162.412 103.229 162.037 103.229Z" fill="#CFDEFD"/>
<path d="M162.037 99.2896H133.692C133.317 99.2896 132.958 99.263 132.693 99.2157C132.428 99.1685 132.28 99.1044 132.28 99.0375V97.7136H163.449V99.0375C163.449 99.1044 163.3 99.1685 163.036 99.2157C162.771 99.263 162.412 99.2896 162.037 99.2896Z" fill="#CFDEFD"/>
</svg>
