<svg width="828" height="129" viewBox="0 0 828 129" fill="none" xmlns="http://www.w3.org/2000/svg">
<path d="M159.888 20.2791V25.3911H168.132V30.1431H159.888V35.6871H169.212V40.6191H153.732V15.3471H169.212V20.2791H159.888ZM185.089 40.6191L181.237 35.0391L177.997 40.6191H171.337L177.961 30.3591L171.157 20.5311H178.069L181.921 26.0751L185.161 20.5311H191.821L185.089 30.6471L192.001 40.6191H185.089ZM193.149 30.5391C193.149 28.4751 193.533 26.6631 194.301 25.1031C195.093 23.5431 196.161 22.3431 197.505 21.5031C198.849 20.6631 200.349 20.2431 202.005 20.2431C203.421 20.2431 204.657 20.5311 205.713 21.1071C206.793 21.6831 207.621 22.4391 208.197 23.3751V20.5311H214.353V40.6191H208.197V37.7751C207.597 38.7111 206.757 39.4671 205.677 40.0431C204.621 40.6191 203.385 40.9071 201.969 40.9071C200.337 40.9071 198.849 40.4871 197.505 39.6471C196.161 38.7831 195.093 37.5711 194.301 36.0111C193.533 34.4271 193.149 32.6031 193.149 30.5391ZM208.197 30.5751C208.197 29.0391 207.765 27.8271 206.901 26.9391C206.061 26.0511 205.029 25.6071 203.805 25.6071C202.581 25.6071 201.537 26.0511 200.673 26.9391C199.833 27.8031 199.413 29.0031 199.413 30.5391C199.413 32.0751 199.833 33.2991 200.673 34.2111C201.537 35.0991 202.581 35.5431 203.805 35.5431C205.029 35.5431 206.061 35.0991 206.901 34.2111C207.765 33.3231 208.197 32.1111 208.197 30.5751ZM244.438 20.3151C246.934 20.3151 248.914 21.0711 250.378 22.5831C251.866 24.0951 252.61 26.1951 252.61 28.8831V40.6191H246.49V29.7111C246.49 28.4151 246.142 27.4191 245.446 26.7231C244.774 26.0031 243.838 25.6431 242.638 25.6431C241.438 25.6431 240.49 26.0031 239.794 26.7231C239.122 27.4191 238.786 28.4151 238.786 29.7111V40.6191H232.666V29.7111C232.666 28.4151 232.318 27.4191 231.622 26.7231C230.95 26.0031 230.014 25.6431 228.814 25.6431C227.614 25.6431 226.666 26.0031 225.97 26.7231C225.298 27.4191 224.962 28.4151 224.962 29.7111V40.6191H218.806V20.5311H224.962V23.0511C225.586 22.2111 226.402 21.5511 227.41 21.0711C228.418 20.5671 229.558 20.3151 230.83 20.3151C232.342 20.3151 233.686 20.6391 234.862 21.2871C236.062 21.9351 236.998 22.8591 237.67 24.0591C238.366 22.9551 239.314 22.0551 240.514 21.3591C241.714 20.6631 243.022 20.3151 244.438 20.3151ZM277.436 20.5311L264.836 50.1591H258.212L262.82 39.9351L254.648 20.5311H261.524L266.168 33.0951L270.776 20.5311H277.436ZM287.834 40.9071C286.082 40.9071 284.522 40.6071 283.154 40.0071C281.786 39.4071 280.706 38.5911 279.914 37.5591C279.122 36.5031 278.678 35.3271 278.582 34.0311H284.666C284.738 34.7271 285.062 35.2911 285.638 35.7231C286.214 36.1551 286.922 36.3711 287.762 36.3711C288.53 36.3711 289.118 36.2271 289.526 35.9391C289.958 35.6271 290.174 35.2311 290.174 34.7511C290.174 34.1751 289.874 33.7551 289.274 33.4911C288.674 33.2031 287.702 32.8911 286.358 32.5551C284.918 32.2191 283.718 31.8711 282.758 31.5111C281.798 31.1271 280.97 30.5391 280.274 29.7471C279.578 28.9311 279.23 27.8391 279.23 26.4711C279.23 25.3191 279.542 24.2751 280.166 23.3391C280.814 22.3791 281.75 21.6231 282.974 21.0711C284.222 20.5191 285.698 20.2431 287.402 20.2431C289.922 20.2431 291.902 20.8671 293.342 22.1151C294.806 23.3631 295.646 25.0191 295.862 27.0831H290.174C290.078 26.3871 289.766 25.8351 289.238 25.4271C288.734 25.0191 288.062 24.8151 287.222 24.8151C286.502 24.8151 285.95 24.9591 285.566 25.2471C285.182 25.5111 284.99 25.8831 284.99 26.3631C284.99 26.9391 285.29 27.3711 285.89 27.6591C286.514 27.9471 287.474 28.2351 288.77 28.5231C290.258 28.9071 291.47 29.2911 292.406 29.6751C293.342 30.0351 294.158 30.6351 294.854 31.4751C295.574 32.2911 295.946 33.3951 295.97 34.7871C295.97 35.9631 295.634 37.0191 294.962 37.9551C294.314 38.8671 293.366 39.5871 292.118 40.1151C290.894 40.6431 289.466 40.9071 287.834 40.9071ZM306.321 27.9471C306.321 25.4511 306.861 23.2311 307.941 21.2871C309.021 19.3191 310.521 17.7951 312.441 16.7151C314.385 15.6111 316.581 15.0591 319.029 15.0591C322.029 15.0591 324.597 15.8511 326.733 17.4351C328.869 19.0191 330.297 21.1791 331.017 23.9151H324.249C323.745 22.8591 323.025 22.0551 322.089 21.5031C321.177 20.9511 320.133 20.6751 318.957 20.6751C317.061 20.6751 315.525 21.3351 314.349 22.6551C313.173 23.9751 312.585 25.7391 312.585 27.9471C312.585 30.1551 313.173 31.9191 314.349 33.2391C315.525 34.5591 317.061 35.2191 318.957 35.2191C320.133 35.2191 321.177 34.9431 322.089 34.3911C323.025 33.8391 323.745 33.0351 324.249 31.9791H331.017C330.297 34.7151 328.869 36.8751 326.733 38.4591C324.597 40.0191 322.029 40.7991 319.029 40.7991C316.581 40.7991 314.385 40.2591 312.441 39.1791C310.521 38.0751 309.021 36.5511 307.941 34.6071C306.861 32.6631 306.321 30.4431 306.321 27.9471ZM343.931 40.9071C341.963 40.9071 340.187 40.4871 338.603 39.6471C337.043 38.8071 335.807 37.6071 334.895 36.0471C334.007 34.4871 333.563 32.6631 333.563 30.5751C333.563 28.5111 334.019 26.6991 334.931 25.1391C335.843 23.5551 337.091 22.3431 338.675 21.5031C340.259 20.6631 342.035 20.2431 344.003 20.2431C345.971 20.2431 347.747 20.6631 349.331 21.5031C350.915 22.3431 352.163 23.5551 353.075 25.1391C353.987 26.6991 354.443 28.5111 354.443 30.5751C354.443 32.6391 353.975 34.4631 353.039 36.0471C352.127 37.6071 350.867 38.8071 349.259 39.6471C347.675 40.4871 345.899 40.9071 343.931 40.9071ZM343.931 35.5791C345.107 35.5791 346.103 35.1471 346.919 34.2831C347.759 33.4191 348.179 32.1831 348.179 30.5751C348.179 28.9671 347.771 27.7311 346.955 26.8671C346.163 26.0031 345.179 25.5711 344.003 25.5711C342.803 25.5711 341.807 26.0031 341.015 26.8671C340.223 27.7071 339.827 28.9431 339.827 30.5751C339.827 32.1831 340.211 33.4191 340.979 34.2831C341.771 35.1471 342.755 35.5791 343.931 35.5791ZM377.545 20.5311V40.6191H371.389V37.8831C370.765 38.7711 369.913 39.4911 368.833 40.0431C367.777 40.5711 366.601 40.8351 365.305 40.8351C363.769 40.8351 362.413 40.4991 361.237 39.8271C360.061 39.1311 359.149 38.1351 358.501 36.8391C357.853 35.5431 357.529 34.0191 357.529 32.2671V20.5311H363.649V31.4391C363.649 32.7831 363.997 33.8271 364.693 34.5711C365.389 35.3151 366.325 35.6871 367.501 35.6871C368.701 35.6871 369.649 35.3151 370.345 34.5711C371.041 33.8271 371.389 32.7831 371.389 31.4391V20.5311H377.545ZM388.122 23.8791C388.842 22.7751 389.742 21.9111 390.822 21.2871C391.902 20.6391 393.102 20.3151 394.422 20.3151V26.8311H392.73C391.194 26.8311 390.042 27.1671 389.274 27.8391C388.506 28.4871 388.122 29.6391 388.122 31.2951V40.6191H381.966V20.5311H388.122V23.8791ZM405.537 40.9071C403.785 40.9071 402.225 40.6071 400.857 40.0071C399.489 39.4071 398.409 38.5911 397.617 37.5591C396.825 36.5031 396.381 35.3271 396.285 34.0311H402.369C402.441 34.7271 402.765 35.2911 403.341 35.7231C403.917 36.1551 404.625 36.3711 405.465 36.3711C406.233 36.3711 406.821 36.2271 407.229 35.9391C407.661 35.6271 407.877 35.2311 407.877 34.7511C407.877 34.1751 407.577 33.7551 406.977 33.4911C406.377 33.2031 405.405 32.8911 404.061 32.5551C402.621 32.2191 401.421 31.8711 400.461 31.5111C399.501 31.1271 398.673 30.5391 397.977 29.7471C397.281 28.9311 396.933 27.8391 396.933 26.4711C396.933 25.3191 397.245 24.2751 397.869 23.3391C398.517 22.3791 399.453 21.6231 400.677 21.0711C401.925 20.5191 403.401 20.2431 405.105 20.2431C407.625 20.2431 409.605 20.8671 411.045 22.1151C412.509 23.3631 413.349 25.0191 413.565 27.0831H407.877C407.781 26.3871 407.469 25.8351 406.941 25.4271C406.437 25.0191 405.765 24.8151 404.925 24.8151C404.205 24.8151 403.653 24.9591 403.269 25.2471C402.885 25.5111 402.693 25.8831 402.693 26.3631C402.693 26.9391 402.993 27.3711 403.593 27.6591C404.217 27.9471 405.177 28.2351 406.473 28.5231C407.961 28.9071 409.173 29.2911 410.109 29.6751C411.045 30.0351 411.861 30.6351 412.557 31.4751C413.277 32.2911 413.649 33.3951 413.673 34.7871C413.673 35.9631 413.337 37.0191 412.665 37.9551C412.017 38.8671 411.069 39.5871 409.821 40.1151C408.597 40.6431 407.169 40.9071 405.537 40.9071ZM436.375 30.2511C436.375 30.8271 436.339 31.4271 436.267 32.0511H422.335C422.431 33.2991 422.827 34.2591 423.523 34.9311C424.243 35.5791 425.119 35.9031 426.151 35.9031C427.687 35.9031 428.755 35.2551 429.355 33.9591H435.907C435.571 35.2791 434.959 36.4671 434.071 37.5231C433.207 38.5791 432.115 39.4071 430.795 40.0071C429.475 40.6071 427.999 40.9071 426.367 40.9071C424.399 40.9071 422.647 40.4871 421.111 39.6471C419.575 38.8071 418.375 37.6071 417.511 36.0471C416.647 34.4871 416.215 32.6631 416.215 30.5751C416.215 28.4871 416.635 26.6631 417.475 25.1031C418.339 23.5431 419.539 22.3431 421.075 21.5031C422.611 20.6631 424.375 20.2431 426.367 20.2431C428.311 20.2431 430.039 20.6511 431.551 21.4671C433.063 22.2831 434.239 23.4471 435.079 24.9591C435.943 26.4711 436.375 28.2351 436.375 30.2511ZM430.075 28.6311C430.075 27.5751 429.715 26.7351 428.995 26.1111C428.275 25.4871 427.375 25.1751 426.295 25.1751C425.263 25.1751 424.387 25.4751 423.667 26.0751C422.971 26.6751 422.539 27.5271 422.371 28.6311H430.075ZM462.984 36.1551H453.552L452.04 40.6191H445.596L454.74 15.3471H461.868L471.012 40.6191H464.496L462.984 36.1551ZM461.4 31.4031L458.268 22.1511L455.172 31.4031H461.4ZM472.571 30.5391C472.571 28.4751 472.955 26.6631 473.723 25.1031C474.515 23.5431 475.583 22.3431 476.927 21.5031C478.271 20.6631 479.771 20.2431 481.427 20.2431C482.747 20.2431 483.947 20.5191 485.027 21.0711C486.131 21.6231 486.995 22.3671 487.619 23.3031V13.9791H493.775V40.6191H487.619V37.7391C487.043 38.6991 486.215 39.4671 485.135 40.0431C484.079 40.6191 482.843 40.9071 481.427 40.9071C479.771 40.9071 478.271 40.4871 476.927 39.6471C475.583 38.7831 474.515 37.5711 473.723 36.0111C472.955 34.4271 472.571 32.6031 472.571 30.5391ZM487.619 30.5751C487.619 29.0391 487.187 27.8271 486.323 26.9391C485.483 26.0511 484.451 25.6071 483.227 25.6071C482.003 25.6071 480.959 26.0511 480.095 26.9391C479.255 27.8031 478.835 29.0031 478.835 30.5391C478.835 32.0751 479.255 33.2991 480.095 34.2111C480.959 35.0991 482.003 35.5431 483.227 35.5431C484.451 35.5431 485.483 35.0991 486.323 34.2111C487.187 33.3231 487.619 32.1111 487.619 30.5751ZM507.264 34.8591L511.62 20.5311H518.172L511.044 40.6191H503.448L496.32 20.5311H502.908L507.264 34.8591ZM519.539 30.5391C519.539 28.4751 519.923 26.6631 520.691 25.1031C521.483 23.5431 522.551 22.3431 523.895 21.5031C525.239 20.6631 526.739 20.2431 528.395 20.2431C529.811 20.2431 531.047 20.5311 532.103 21.1071C533.183 21.6831 534.011 22.4391 534.587 23.3751V20.5311H540.743V40.6191H534.587V37.7751C533.987 38.7111 533.147 39.4671 532.067 40.0431C531.011 40.6191 529.775 40.9071 528.359 40.9071C526.727 40.9071 525.239 40.4871 523.895 39.6471C522.551 38.7831 521.483 37.5711 520.691 36.0111C519.923 34.4271 519.539 32.6031 519.539 30.5391ZM534.587 30.5751C534.587 29.0391 534.155 27.8271 533.291 26.9391C532.451 26.0511 531.419 25.6071 530.195 25.6071C528.971 25.6071 527.927 26.0511 527.063 26.9391C526.223 27.8031 525.803 29.0031 525.803 30.5391C525.803 32.0751 526.223 33.2991 527.063 34.2111C527.927 35.0991 528.971 35.5431 530.195 35.5431C531.419 35.5431 532.451 35.0991 533.291 34.2111C534.155 33.3231 534.587 32.1111 534.587 30.5751ZM557.437 20.3151C559.789 20.3151 561.661 21.0831 563.053 22.6191C564.469 24.1311 565.177 26.2191 565.177 28.8831V40.6191H559.057V29.7111C559.057 28.3671 558.709 27.3231 558.013 26.5791C557.317 25.8351 556.381 25.4631 555.205 25.4631C554.029 25.4631 553.093 25.8351 552.397 26.5791C551.701 27.3231 551.353 28.3671 551.353 29.7111V40.6191H545.197V20.5311H551.353V23.1951C551.977 22.3071 552.817 21.6111 553.873 21.1071C554.929 20.5791 556.117 20.3151 557.437 20.3151ZM580.651 35.3991V40.6191H577.519C575.287 40.6191 573.547 40.0791 572.299 38.9991C571.051 37.8951 570.427 36.1071 570.427 33.6351V25.6431H567.979V20.5311H570.427V15.6351H576.583V20.5311H580.615V25.6431H576.583V33.7071C576.583 34.3071 576.727 34.7391 577.015 35.0031C577.303 35.2671 577.783 35.3991 578.455 35.3991H580.651ZM582.856 30.5391C582.856 28.4751 583.24 26.6631 584.008 25.1031C584.8 23.5431 585.868 22.3431 587.212 21.5031C588.556 20.6631 590.056 20.2431 591.712 20.2431C593.128 20.2431 594.364 20.5311 595.42 21.1071C596.5 21.6831 597.328 22.4391 597.904 23.3751V20.5311H604.06V40.6191H597.904V37.7751C597.304 38.7111 596.464 39.4671 595.384 40.0431C594.328 40.6191 593.092 40.9071 591.676 40.9071C590.044 40.9071 588.556 40.4871 587.212 39.6471C585.868 38.7831 584.8 37.5711 584.008 36.0111C583.24 34.4271 582.856 32.6031 582.856 30.5391ZM597.904 30.5751C597.904 29.0391 597.472 27.8271 596.608 26.9391C595.768 26.0511 594.736 25.6071 593.512 25.6071C592.288 25.6071 591.244 26.0511 590.38 26.9391C589.54 27.8031 589.12 29.0031 589.12 30.5391C589.12 32.0751 589.54 33.2991 590.38 34.2111C591.244 35.0991 592.288 35.5431 593.512 35.5431C594.736 35.5431 595.768 35.0991 596.608 34.2111C597.472 33.3231 597.904 32.1111 597.904 30.5751ZM616.145 20.2431C617.561 20.2431 618.797 20.5311 619.853 21.1071C620.933 21.6831 621.761 22.4391 622.337 23.3751V20.5311H628.493V40.5831C628.493 42.4311 628.121 44.0991 627.377 45.5871C626.657 47.0991 625.541 48.2991 624.029 49.1871C622.541 50.0751 620.681 50.5191 618.449 50.5191C615.473 50.5191 613.061 49.8111 611.213 48.3951C609.365 47.0031 608.309 45.1071 608.045 42.7071H614.129C614.321 43.4751 614.777 44.0751 615.497 44.5071C616.217 44.9631 617.105 45.1911 618.161 45.1911C619.433 45.1911 620.441 44.8191 621.185 44.0751C621.953 43.3551 622.337 42.1911 622.337 40.5831V37.7391C621.737 38.6751 620.909 39.4431 619.853 40.0431C618.797 40.6191 617.561 40.9071 616.145 40.9071C614.489 40.9071 612.989 40.4871 611.645 39.6471C610.301 38.7831 609.233 37.5711 608.441 36.0111C607.673 34.4271 607.289 32.6031 607.289 30.5391C607.289 28.4751 607.673 26.6631 608.441 25.1031C609.233 23.5431 610.301 22.3431 611.645 21.5031C612.989 20.6631 614.489 20.2431 616.145 20.2431ZM622.337 30.5751C622.337 29.0391 621.905 27.8271 621.041 26.9391C620.201 26.0511 619.169 25.6071 617.945 25.6071C616.721 25.6071 615.677 26.0511 614.813 26.9391C613.973 27.8031 613.553 29.0031 613.553 30.5391C613.553 32.0751 613.973 33.2991 614.813 34.2111C615.677 35.0991 616.721 35.5431 617.945 35.5431C619.169 35.5431 620.201 35.0991 621.041 34.2111C621.905 33.3231 622.337 32.1111 622.337 30.5751ZM651.883 30.2511C651.883 30.8271 651.847 31.4271 651.775 32.0511H637.843C637.939 33.2991 638.335 34.2591 639.031 34.9311C639.751 35.5791 640.627 35.9031 641.659 35.9031C643.195 35.9031 644.263 35.2551 644.863 33.9591H651.415C651.079 35.2791 650.467 36.4671 649.579 37.5231C648.715 38.5791 647.623 39.4071 646.303 40.0071C644.983 40.6071 643.507 40.9071 641.875 40.9071C639.907 40.9071 638.155 40.4871 636.619 39.6471C635.083 38.8071 633.883 37.6071 633.019 36.0471C632.155 34.4871 631.723 32.6631 631.723 30.5751C631.723 28.4871 632.143 26.6631 632.983 25.1031C633.847 23.5431 635.047 22.3431 636.583 21.5031C638.119 20.6631 639.883 20.2431 641.875 20.2431C643.819 20.2431 645.547 20.6511 647.059 21.4671C648.571 22.2831 649.747 23.4471 650.587 24.9591C651.451 26.4711 651.883 28.2351 651.883 30.2511ZM645.583 28.6311C645.583 27.5751 645.223 26.7351 644.503 26.1111C643.783 25.4871 642.883 25.1751 641.803 25.1751C640.771 25.1751 639.895 25.4751 639.175 26.0751C638.479 26.6751 638.047 27.5271 637.879 28.6311H645.583Z" fill="#141226"/>
<path d="M586 70.5331C589.473 67.3589 592.678 64.2098 596.713 61.2863C599.546 59.2338 603.205 57.7203 606.837 56.2196C614.204 53.1763 622.001 50.4971 629.872 47.9478C633.033 46.9239 636.551 46.1727 639.883 45.3702C644.594 44.2355 649.417 43.2342 654.095 42.0629C657.979 41.0903 661.897 40.2931 665.986 39.6693C667.998 39.3623 670.098 39.0826 672.022 38.6191" stroke="#F88C29" stroke-width="2" stroke-linecap="round"/>
<path d="M590.479 72.6191C593.951 69.4449 597.157 66.2957 601.192 63.3722C604.024 61.3198 607.683 59.8063 611.316 58.3055C618.683 55.2622 626.48 52.583 634.35 50.0338C637.512 49.0099 641.03 48.2586 644.361 47.4561C649.072 46.3214 653.896 45.3202 658.574 44.1488C662.458 43.1762 666.375 42.3791 670.465 41.7552C672.477 41.4483 674.577 41.1685 676.501 40.7051" stroke="#F88C29" stroke-width="2" stroke-linecap="round"/>
<path d="M8.15188 93.8191C8.15188 91.8965 8.58121 90.1791 9.43988 88.6671C10.3172 87.1365 11.5025 85.9511 12.9959 85.1111C14.5079 84.2525 16.1972 83.8231 18.0639 83.8231C20.2479 83.8231 22.1612 84.3831 23.8039 85.5031C25.4465 86.6231 26.5945 88.1725 27.2479 90.1511H22.7399C22.2919 89.2178 21.6572 88.5178 20.8359 88.0511C20.0332 87.5845 19.0999 87.3511 18.0359 87.3511C16.8972 87.3511 15.8799 87.6218 14.9839 88.1631C14.1065 88.6858 13.4159 89.4325 12.9119 90.4031C12.4265 91.3738 12.1839 92.5125 12.1839 93.8191C12.1839 95.1071 12.4265 96.2458 12.9119 97.2351C13.4159 98.2058 14.1065 98.9618 14.9839 99.5031C15.8799 100.026 16.8972 100.287 18.0359 100.287C19.0999 100.287 20.0332 100.054 20.8359 99.5871C21.6572 99.1018 22.2919 98.3925 22.7399 97.4591H27.2479C26.5945 99.4565 25.4465 101.015 23.8039 102.135C22.1799 103.236 20.2665 103.787 18.0639 103.787C16.1972 103.787 14.5079 103.367 12.9959 102.527C11.5025 101.668 10.3172 100.483 9.43988 98.9711C8.58121 97.4591 8.15188 95.7418 8.15188 93.8191ZM34.5161 90.5151C35.0201 89.6938 35.6734 89.0498 36.4761 88.5831C37.2974 88.1165 38.2307 87.8831 39.2761 87.8831V91.9991H38.2401C37.0081 91.9991 36.0747 92.2885 35.4401 92.8671C34.8241 93.4458 34.5161 94.4538 34.5161 95.8911V103.619H30.5961V88.1071H34.5161V90.5151ZM40.9084 95.8071C40.9084 94.2391 41.2164 92.8485 41.8324 91.6351C42.467 90.4218 43.3164 89.4885 44.3804 88.8351C45.463 88.1818 46.667 87.8551 47.9924 87.8551C49.1497 87.8551 50.1577 88.0885 51.0164 88.5551C51.8937 89.0218 52.5937 89.6098 53.1164 90.3191V88.1071H57.0644V103.619H53.1164V101.351C52.6124 102.079 51.9124 102.686 51.0164 103.171C50.139 103.638 49.1217 103.871 47.9644 103.871C46.6577 103.871 45.463 103.535 44.3804 102.863C43.3164 102.191 42.467 101.248 41.8324 100.035C41.2164 98.8031 40.9084 97.3938 40.9084 95.8071ZM53.1164 95.8631C53.1164 94.9111 52.9297 94.0991 52.5564 93.4271C52.183 92.7365 51.679 92.2138 51.0444 91.8591C50.4097 91.4858 49.7284 91.2991 49.0004 91.2991C48.2724 91.2991 47.6004 91.4765 46.9844 91.8311C46.3684 92.1858 45.8644 92.7085 45.4724 93.3991C45.099 94.0711 44.9124 94.8738 44.9124 95.8071C44.9124 96.7405 45.099 97.5618 45.4724 98.2711C45.8644 98.9618 46.3684 99.4938 46.9844 99.8671C47.619 100.24 48.291 100.427 49.0004 100.427C49.7284 100.427 50.4097 100.25 51.0444 99.8951C51.679 99.5218 52.183 98.9991 52.5564 98.3271C52.9297 97.6365 53.1164 96.8151 53.1164 95.8631ZM59.8849 95.8631C59.8849 94.2578 60.2116 92.8578 60.8649 91.6631C61.5183 90.4498 62.4236 89.5165 63.5809 88.8631C64.7383 88.1911 66.0636 87.8551 67.5569 87.8551C69.4796 87.8551 71.0663 88.3405 72.3169 89.3111C73.5863 90.2631 74.4356 91.6071 74.8649 93.3431H70.6369C70.4129 92.6711 70.0303 92.1485 69.4889 91.7751C68.9663 91.3831 68.3129 91.1871 67.5289 91.1871C66.4089 91.1871 65.5223 91.5978 64.8689 92.4191C64.2156 93.2218 63.8889 94.3698 63.8889 95.8631C63.8889 97.3378 64.2156 98.4858 64.8689 99.3071C65.5223 100.11 66.4089 100.511 67.5289 100.511C69.1156 100.511 70.1516 99.8018 70.6369 98.3831H74.8649C74.4356 100.063 73.5863 101.398 72.3169 102.387C71.0476 103.376 69.4609 103.871 67.5569 103.871C66.0636 103.871 64.7383 103.544 63.5809 102.891C62.4236 102.219 61.5183 101.286 60.8649 100.091C60.2116 98.8778 59.8849 97.4685 59.8849 95.8631ZM86.9207 103.619L81.6567 97.0111V103.619H77.7367V82.8991H81.6567V94.6871L86.8647 88.1071H91.9607L85.1287 95.8911L92.0167 103.619H86.9207Z" fill="#F06B60"/>
<path d="M100.466 95.8351C100.466 94.2858 100.783 92.9138 101.418 91.7191C102.071 90.5245 102.948 89.6005 104.05 88.9471C105.17 88.2751 106.402 87.9391 107.746 87.9391C108.959 87.9391 110.014 88.1818 110.91 88.6671C111.824 89.1338 112.552 89.7218 113.094 90.4311V88.1911H116.314V103.619H113.094V101.323C112.552 102.051 111.815 102.658 110.882 103.143C109.948 103.628 108.884 103.871 107.69 103.871C106.364 103.871 105.151 103.535 104.05 102.863C102.948 102.172 102.071 101.22 101.418 100.007C100.783 98.7751 100.466 97.3845 100.466 95.8351ZM113.094 95.8911C113.094 94.8271 112.87 93.9031 112.422 93.1191C111.992 92.3351 111.423 91.7378 110.714 91.3271C110.004 90.9165 109.239 90.7111 108.418 90.7111C107.596 90.7111 106.831 90.9165 106.122 91.3271C105.412 91.7191 104.834 92.3071 104.386 93.0911C103.956 93.8565 103.742 94.7711 103.742 95.8351C103.742 96.8991 103.956 97.8325 104.386 98.6351C104.834 99.4378 105.412 100.054 106.122 100.483C106.85 100.894 107.615 101.099 108.418 101.099C109.239 101.099 110.004 100.894 110.714 100.483C111.423 100.072 111.992 99.4751 112.422 98.6911C112.87 97.8885 113.094 96.9551 113.094 95.8911ZM128.29 87.9391C129.504 87.9391 130.586 88.1911 131.538 88.6951C132.509 89.1991 133.265 89.9458 133.806 90.9351C134.348 91.9245 134.618 93.1191 134.618 94.5191V103.619H131.454V94.9951C131.454 93.6138 131.109 92.5591 130.418 91.8311C129.728 91.0845 128.785 90.7111 127.59 90.7111C126.396 90.7111 125.444 91.0845 124.734 91.8311C124.044 92.5591 123.698 93.6138 123.698 94.9951V103.619H120.506V88.1911H123.698V89.9551C124.221 89.3205 124.884 88.8258 125.686 88.4711C126.508 88.1165 127.376 87.9391 128.29 87.9391ZM152.578 88.1911L143.114 110.871H139.81L142.946 103.367L136.87 88.1911H140.426L144.766 99.9511L149.274 88.1911H152.578ZM165.452 86.7351V92.4471H172.172V95.0511H165.452V101.015H173.012V103.619H162.26V84.1311H173.012V86.7351H165.452ZM183.552 95.8071L188.536 103.619H184.924L181.592 98.3831L178.456 103.619H175.124L180.108 96.0311L175.124 88.1911H178.736L182.068 93.4271L185.204 88.1911H188.536L183.552 95.8071ZM189.852 95.8351C189.852 94.2858 190.17 92.9138 190.804 91.7191C191.458 90.5245 192.335 89.6005 193.436 88.9471C194.556 88.2751 195.788 87.9391 197.132 87.9391C198.346 87.9391 199.4 88.1818 200.296 88.6671C201.211 89.1338 201.939 89.7218 202.48 90.4311V88.1911H205.7V103.619H202.48V101.323C201.939 102.051 201.202 102.658 200.268 103.143C199.335 103.628 198.271 103.871 197.076 103.871C195.751 103.871 194.538 103.535 193.436 102.863C192.335 102.172 191.458 101.22 190.804 100.007C190.17 98.7751 189.852 97.3845 189.852 95.8351ZM202.48 95.8911C202.48 94.8271 202.256 93.9031 201.808 93.1191C201.379 92.3351 200.81 91.7378 200.1 91.3271C199.391 90.9165 198.626 90.7111 197.804 90.7111C196.983 90.7111 196.218 90.9165 195.508 91.3271C194.799 91.7191 194.22 92.3071 193.772 93.0911C193.343 93.8565 193.128 94.7711 193.128 95.8351C193.128 96.8991 193.343 97.8325 193.772 98.6351C194.22 99.4378 194.799 100.054 195.508 100.483C196.236 100.894 197.002 101.099 197.804 101.099C198.626 101.099 199.391 100.894 200.1 100.483C200.81 100.072 201.379 99.4751 201.808 98.6911C202.256 97.8885 202.48 96.9551 202.48 95.8911ZM228.569 87.9391C229.782 87.9391 230.865 88.1911 231.817 88.6951C232.788 89.1991 233.544 89.9458 234.085 90.9351C234.645 91.9245 234.925 93.1191 234.925 94.5191V103.619H231.761V94.9951C231.761 93.6138 231.416 92.5591 230.725 91.8311C230.034 91.0845 229.092 90.7111 227.897 90.7111C226.702 90.7111 225.75 91.0845 225.041 91.8311C224.35 92.5591 224.005 93.6138 224.005 94.9951V103.619H220.841V94.9951C220.841 93.6138 220.496 92.5591 219.805 91.8311C219.114 91.0845 218.172 90.7111 216.977 90.7111C215.782 90.7111 214.83 91.0845 214.121 91.8311C213.43 92.5591 213.085 93.6138 213.085 94.9951V103.619H209.893V88.1911H213.085V89.9551C213.608 89.3205 214.27 88.8258 215.073 88.4711C215.876 88.1165 216.734 87.9391 217.649 87.9391C218.881 87.9391 219.982 88.2005 220.953 88.7231C221.924 89.2458 222.67 90.0018 223.193 90.9911C223.66 90.0578 224.388 89.3205 225.377 88.7791C226.366 88.2191 227.43 87.9391 228.569 87.9391ZM266.98 88.1911L262.192 103.619H258.832L255.724 92.2231L252.616 103.619H249.256L244.44 88.1911H247.688L250.908 100.595L254.184 88.1911H257.516L260.652 100.539L263.844 88.1911H266.98ZM270.99 86.1471C270.411 86.1471 269.926 85.9511 269.534 85.5591C269.142 85.1671 268.946 84.6818 268.946 84.1031C268.946 83.5245 269.142 83.0391 269.534 82.6471C269.926 82.2551 270.411 82.0591 270.99 82.0591C271.55 82.0591 272.026 82.2551 272.418 82.6471C272.81 83.0391 273.006 83.5245 273.006 84.1031C273.006 84.6818 272.81 85.1671 272.418 85.5591C272.026 85.9511 271.55 86.1471 270.99 86.1471ZM272.558 88.1911V103.619H269.366V88.1911H272.558ZM280.472 90.7951V99.3351C280.472 99.9138 280.603 100.334 280.864 100.595C281.144 100.838 281.611 100.959 282.264 100.959H284.224V103.619H281.704C280.267 103.619 279.166 103.283 278.4 102.611C277.635 101.939 277.252 100.847 277.252 99.3351V90.7951H275.432V88.1911H277.252V84.3551H280.472V88.1911H284.224V90.7951H280.472ZM295.146 87.9391C296.322 87.9391 297.368 88.1911 298.282 88.6951C299.216 89.1991 299.944 89.9458 300.466 90.9351C301.008 91.9245 301.278 93.1191 301.278 94.5191V103.619H298.114V94.9951C298.114 93.6138 297.769 92.5591 297.078 91.8311C296.388 91.0845 295.445 90.7111 294.25 90.7111C293.056 90.7111 292.104 91.0845 291.394 91.8311C290.704 92.5591 290.358 93.6138 290.358 94.9951V103.619H287.166V82.8991H290.358V89.9831C290.9 89.3298 291.581 88.8258 292.402 88.4711C293.242 88.1165 294.157 87.9391 295.146 87.9391ZM315.815 84.1591V103.619H312.623V84.1591H315.815ZM327.79 87.9391C329.004 87.9391 330.086 88.1911 331.038 88.6951C332.009 89.1991 332.765 89.9458 333.306 90.9351C333.848 91.9245 334.118 93.1191 334.118 94.5191V103.619H330.954V94.9951C330.954 93.6138 330.609 92.5591 329.918 91.8311C329.228 91.0845 328.285 90.7111 327.09 90.7111C325.896 90.7111 324.944 91.0845 324.234 91.8311C323.544 92.5591 323.198 93.6138 323.198 94.9951V103.619H320.006V88.1911H323.198V89.9551C323.721 89.3205 324.384 88.8258 325.186 88.4711C326.008 88.1165 326.876 87.9391 327.79 87.9391ZM337.126 95.8351C337.126 94.2858 337.443 92.9138 338.078 91.7191C338.731 90.5245 339.609 89.6005 340.71 88.9471C341.83 88.2751 343.071 87.9391 344.434 87.9391C345.442 87.9391 346.431 88.1631 347.402 88.6111C348.391 89.0405 349.175 89.6191 349.754 90.3471V82.8991H352.974V103.619H349.754V101.295C349.231 102.042 348.503 102.658 347.57 103.143C346.655 103.628 345.601 103.871 344.406 103.871C343.062 103.871 341.83 103.535 340.71 102.863C339.609 102.172 338.731 101.22 338.078 100.007C337.443 98.7751 337.126 97.3845 337.126 95.8351ZM349.754 95.8911C349.754 94.8271 349.53 93.9031 349.082 93.1191C348.653 92.3351 348.083 91.7378 347.374 91.3271C346.665 90.9165 345.899 90.7111 345.078 90.7111C344.257 90.7111 343.491 90.9165 342.782 91.3271C342.073 91.7191 341.494 92.3071 341.046 93.0911C340.617 93.8565 340.402 94.7711 340.402 95.8351C340.402 96.8991 340.617 97.8325 341.046 98.6351C341.494 99.4378 342.073 100.054 342.782 100.483C343.51 100.894 344.275 101.099 345.078 101.099C345.899 101.099 346.665 100.894 347.374 100.483C348.083 100.072 348.653 99.4751 349.082 98.6911C349.53 97.8885 349.754 96.9551 349.754 95.8911ZM358.79 86.1471C358.212 86.1471 357.726 85.9511 357.334 85.5591C356.942 85.1671 356.746 84.6818 356.746 84.1031C356.746 83.5245 356.942 83.0391 357.334 82.6471C357.726 82.2551 358.212 82.0591 358.79 82.0591C359.35 82.0591 359.826 82.2551 360.218 82.6471C360.61 83.0391 360.806 83.5245 360.806 84.1031C360.806 84.6818 360.61 85.1671 360.218 85.5591C359.826 85.9511 359.35 86.1471 358.79 86.1471ZM360.358 88.1911V103.619H357.166V88.1911H360.358ZM363.485 95.8351C363.485 94.2858 363.803 92.9138 364.437 91.7191C365.091 90.5245 365.968 89.6005 367.069 88.9471C368.189 88.2751 369.421 87.9391 370.765 87.9391C371.979 87.9391 373.033 88.1818 373.929 88.6671C374.844 89.1338 375.572 89.7218 376.113 90.4311V88.1911H379.333V103.619H376.113V101.323C375.572 102.051 374.835 102.658 373.901 103.143C372.968 103.628 371.904 103.871 370.709 103.871C369.384 103.871 368.171 103.535 367.069 102.863C365.968 102.172 365.091 101.22 364.437 100.007C363.803 98.7751 363.485 97.3845 363.485 95.8351ZM376.113 95.8911C376.113 94.8271 375.889 93.9031 375.441 93.1191C375.012 92.3351 374.443 91.7378 373.733 91.3271C373.024 90.9165 372.259 90.7111 371.437 90.7111C370.616 90.7111 369.851 90.9165 369.141 91.3271C368.432 91.7191 367.853 92.3071 367.405 93.0911C366.976 93.8565 366.761 94.7711 366.761 95.8351C366.761 96.8991 366.976 97.8325 367.405 98.6351C367.853 99.4378 368.432 100.054 369.141 100.483C369.869 100.894 370.635 101.099 371.437 101.099C372.259 101.099 373.024 100.894 373.733 100.483C374.443 100.072 375.012 99.4751 375.441 98.6911C375.889 97.8885 376.113 96.9551 376.113 95.8911ZM384.03 84.1591H387.502L384.562 90.8231H382.322L384.03 84.1591ZM395.907 103.871C394.694 103.871 393.602 103.656 392.631 103.227C391.679 102.779 390.923 102.182 390.363 101.435C389.803 100.67 389.504 99.8205 389.467 98.8871H392.771C392.827 99.5405 393.135 100.091 393.695 100.539C394.274 100.968 394.992 101.183 395.851 101.183C396.747 101.183 397.438 101.015 397.923 100.679C398.427 100.324 398.679 99.8765 398.679 99.3351C398.679 98.7565 398.399 98.3271 397.839 98.0471C397.298 97.7671 396.43 97.4591 395.235 97.1231C394.078 96.8058 393.135 96.4978 392.407 96.1991C391.679 95.9005 391.044 95.4431 390.503 94.8271C389.98 94.2111 389.719 93.3991 389.719 92.3911C389.719 91.5698 389.962 90.8231 390.447 90.1511C390.932 89.4605 391.623 88.9191 392.519 88.5271C393.434 88.1351 394.479 87.9391 395.655 87.9391C397.41 87.9391 398.819 88.3871 399.883 89.2831C400.966 90.1605 401.544 91.3645 401.619 92.8951H398.427C398.371 92.2045 398.091 91.6538 397.587 91.2431C397.083 90.8325 396.402 90.6271 395.543 90.6271C394.703 90.6271 394.059 90.7858 393.611 91.1031C393.163 91.4205 392.939 91.8405 392.939 92.3631C392.939 92.7738 393.088 93.1191 393.387 93.3991C393.686 93.6791 394.05 93.9031 394.479 94.0711C394.908 94.2205 395.543 94.4165 396.383 94.6591C397.503 94.9578 398.418 95.2658 399.127 95.5831C399.855 95.8818 400.48 96.3298 401.003 96.9271C401.526 97.5245 401.796 98.3178 401.815 99.3071C401.815 100.184 401.572 100.968 401.087 101.659C400.602 102.35 399.911 102.891 399.015 103.283C398.138 103.675 397.102 103.871 395.907 103.871ZM431.214 87.9391C432.427 87.9391 433.51 88.1911 434.462 88.6951C435.432 89.1991 436.188 89.9458 436.73 90.9351C437.29 91.9245 437.57 93.1191 437.57 94.5191V103.619H434.406V94.9951C434.406 93.6138 434.06 92.5591 433.37 91.8311C432.679 91.0845 431.736 90.7111 430.542 90.7111C429.347 90.7111 428.395 91.0845 427.686 91.8311C426.995 92.5591 426.65 93.6138 426.65 94.9951V103.619H423.486V94.9951C423.486 93.6138 423.14 92.5591 422.45 91.8311C421.759 91.0845 420.816 90.7111 419.622 90.7111C418.427 90.7111 417.475 91.0845 416.766 91.8311C416.075 92.5591 415.73 93.6138 415.73 94.9951V103.619H412.538V88.1911H415.73V89.9551C416.252 89.3205 416.915 88.8258 417.718 88.4711C418.52 88.1165 419.379 87.9391 420.294 87.9391C421.526 87.9391 422.627 88.2005 423.598 88.7231C424.568 89.2458 425.315 90.0018 425.838 90.9911C426.304 90.0578 427.032 89.3205 428.022 88.7791C429.011 88.2191 430.075 87.9391 431.214 87.9391ZM448.323 103.871C446.867 103.871 445.551 103.544 444.375 102.891C443.199 102.219 442.275 101.286 441.603 100.091C440.931 98.8778 440.595 97.4778 440.595 95.8911C440.595 94.3231 440.941 92.9325 441.631 91.7191C442.322 90.5058 443.265 89.5725 444.459 88.9191C445.654 88.2658 446.989 87.9391 448.463 87.9391C449.938 87.9391 451.273 88.2658 452.467 88.9191C453.662 89.5725 454.605 90.5058 455.295 91.7191C455.986 92.9325 456.331 94.3231 456.331 95.8911C456.331 97.4591 455.977 98.8498 455.267 100.063C454.558 101.276 453.587 102.219 452.355 102.891C451.142 103.544 449.798 103.871 448.323 103.871ZM448.323 101.099C449.145 101.099 449.91 100.903 450.619 100.511C451.347 100.119 451.935 99.5311 452.383 98.7471C452.831 97.9631 453.055 97.0111 453.055 95.8911C453.055 94.7711 452.841 93.8285 452.411 93.0631C451.982 92.2791 451.413 91.6911 450.703 91.2991C449.994 90.9071 449.229 90.7111 448.407 90.7111C447.586 90.7111 446.821 90.9071 446.111 91.2991C445.421 91.6911 444.87 92.2791 444.459 93.0631C444.049 93.8285 443.843 94.7711 443.843 95.8911C443.843 97.5525 444.263 98.8405 445.103 99.7551C445.962 100.651 447.035 101.099 448.323 101.099ZM465.087 103.871C463.873 103.871 462.781 103.656 461.811 103.227C460.859 102.779 460.103 102.182 459.543 101.435C458.983 100.67 458.684 99.8205 458.647 98.8871H461.951C462.007 99.5405 462.315 100.091 462.875 100.539C463.453 100.968 464.172 101.183 465.031 101.183C465.927 101.183 466.617 101.015 467.103 100.679C467.607 100.324 467.859 99.8765 467.859 99.3351C467.859 98.7565 467.579 98.3271 467.019 98.0471C466.477 97.7671 465.609 97.4591 464.415 97.1231C463.257 96.8058 462.315 96.4978 461.587 96.1991C460.859 95.9005 460.224 95.4431 459.683 94.8271C459.16 94.2111 458.899 93.3991 458.899 92.3911C458.899 91.5698 459.141 90.8231 459.627 90.1511C460.112 89.4605 460.803 88.9191 461.699 88.5271C462.613 88.1351 463.659 87.9391 464.835 87.9391C466.589 87.9391 467.999 88.3871 469.063 89.2831C470.145 90.1605 470.724 91.3645 470.799 92.8951H467.607C467.551 92.2045 467.271 91.6538 466.767 91.2431C466.263 90.8325 465.581 90.6271 464.723 90.6271C463.883 90.6271 463.239 90.7858 462.791 91.1031C462.343 91.4205 462.119 91.8405 462.119 92.3631C462.119 92.7738 462.268 93.1191 462.567 93.3991C462.865 93.6791 463.229 93.9031 463.659 94.0711C464.088 94.2205 464.723 94.4165 465.563 94.6591C466.683 94.9578 467.597 95.2658 468.307 95.5831C469.035 95.8818 469.66 96.3298 470.183 96.9271C470.705 97.5245 470.976 98.3178 470.995 99.3071C470.995 100.184 470.752 100.968 470.267 101.659C469.781 102.35 469.091 102.891 468.195 103.283C467.317 103.675 466.281 103.871 465.087 103.871ZM478.168 90.7951V99.3351C478.168 99.9138 478.298 100.334 478.56 100.595C478.84 100.838 479.306 100.959 479.96 100.959H481.92V103.619H479.4C477.962 103.619 476.861 103.283 476.096 102.611C475.33 101.939 474.948 100.847 474.948 99.3351V90.7951H473.128V88.1911H474.948V84.3551H478.168V88.1911H481.92V90.7951H478.168ZM491.071 95.8351C491.071 94.2858 491.388 92.9138 492.023 91.7191C492.676 90.5245 493.554 89.6005 494.655 88.9471C495.775 88.2751 497.007 87.9391 498.351 87.9391C499.564 87.9391 500.619 88.1818 501.515 88.6671C502.43 89.1338 503.158 89.7218 503.699 90.4311V88.1911H506.919V103.619H503.699V101.323C503.158 102.051 502.42 102.658 501.487 103.143C500.554 103.628 499.49 103.871 498.295 103.871C496.97 103.871 495.756 103.535 494.655 102.863C493.554 102.172 492.676 101.22 492.023 100.007C491.388 98.7751 491.071 97.3845 491.071 95.8351ZM503.699 95.8911C503.699 94.8271 503.475 93.9031 503.027 93.1191C502.598 92.3351 502.028 91.7378 501.319 91.3271C500.61 90.9165 499.844 90.7111 499.023 90.7111C498.202 90.7111 497.436 90.9165 496.727 91.3271C496.018 91.7191 495.439 92.3071 494.991 93.0911C494.562 93.8565 494.347 94.7711 494.347 95.8351C494.347 96.8991 494.562 97.8325 494.991 98.6351C495.439 99.4378 496.018 100.054 496.727 100.483C497.455 100.894 498.22 101.099 499.023 101.099C499.844 101.099 500.61 100.894 501.319 100.483C502.028 100.072 502.598 99.4751 503.027 98.6911C503.475 97.8885 503.699 96.9551 503.699 95.8911ZM510.048 95.8351C510.048 94.2858 510.365 92.9138 511 91.7191C511.653 90.5245 512.53 89.6005 513.632 88.9471C514.752 88.2751 515.993 87.9391 517.356 87.9391C518.364 87.9391 519.353 88.1631 520.324 88.6111C521.313 89.0405 522.097 89.6191 522.676 90.3471V82.8991H525.896V103.619H522.676V101.295C522.153 102.042 521.425 102.658 520.492 103.143C519.577 103.628 518.522 103.871 517.328 103.871C515.984 103.871 514.752 103.535 513.632 102.863C512.53 102.172 511.653 101.22 511 100.007C510.365 98.7751 510.048 97.3845 510.048 95.8351ZM522.676 95.8911C522.676 94.8271 522.452 93.9031 522.004 93.1191C521.574 92.3351 521.005 91.7378 520.296 91.3271C519.586 90.9165 518.821 90.7111 518 90.7111C517.178 90.7111 516.413 90.9165 515.704 91.3271C514.994 91.7191 514.416 92.3071 513.968 93.0911C513.538 93.8565 513.324 94.7711 513.324 95.8351C513.324 96.8991 513.538 97.8325 513.968 98.6351C514.416 99.4378 514.994 100.054 515.704 100.483C516.432 100.894 517.197 101.099 518 101.099C518.821 101.099 519.586 100.894 520.296 100.483C521.005 100.072 521.574 99.4751 522.004 98.6911C522.452 97.8885 522.676 96.9551 522.676 95.8911ZM536.052 100.763L540.42 88.1911H543.808L537.928 103.619H534.12L528.268 88.1911H531.684L536.052 100.763ZM545.157 95.8351C545.157 94.2858 545.474 92.9138 546.109 91.7191C546.762 90.5245 547.64 89.6005 548.741 88.9471C549.861 88.2751 551.093 87.9391 552.437 87.9391C553.65 87.9391 554.705 88.1818 555.601 88.6671C556.516 89.1338 557.244 89.7218 557.785 90.4311V88.1911H561.005V103.619H557.785V101.323C557.244 102.051 556.506 102.658 555.573 103.143C554.64 103.628 553.576 103.871 552.381 103.871C551.056 103.871 549.842 103.535 548.741 102.863C547.64 102.172 546.762 101.22 546.109 100.007C545.474 98.7751 545.157 97.3845 545.157 95.8351ZM557.785 95.8911C557.785 94.8271 557.561 93.9031 557.113 93.1191C556.684 92.3351 556.114 91.7378 555.405 91.3271C554.696 90.9165 553.93 90.7111 553.109 90.7111C552.288 90.7111 551.522 90.9165 550.813 91.3271C550.104 91.7191 549.525 92.3071 549.077 93.0911C548.648 93.8565 548.433 94.7711 548.433 95.8351C548.433 96.8991 548.648 97.8325 549.077 98.6351C549.525 99.4378 550.104 100.054 550.813 100.483C551.541 100.894 552.306 101.099 553.109 101.099C553.93 101.099 554.696 100.894 555.405 100.483C556.114 100.072 556.684 99.4751 557.113 98.6911C557.561 97.8885 557.785 96.9551 557.785 95.8911ZM572.982 87.9391C574.195 87.9391 575.278 88.1911 576.23 88.6951C577.2 89.1991 577.956 89.9458 578.498 90.9351C579.039 91.9245 579.31 93.1191 579.31 94.5191V103.619H576.146V94.9951C576.146 93.6138 575.8 92.5591 575.11 91.8311C574.419 91.0845 573.476 90.7111 572.282 90.7111C571.087 90.7111 570.135 91.0845 569.426 91.8311C568.735 92.5591 568.39 93.6138 568.39 94.9951V103.619H565.198V88.1911H568.39V89.9551C568.912 89.3205 569.575 88.8258 570.378 88.4711C571.199 88.1165 572.067 87.9391 572.982 87.9391ZM582.317 95.8911C582.317 94.3045 582.635 92.9138 583.269 91.7191C583.923 90.5058 584.819 89.5725 585.957 88.9191C587.096 88.2658 588.403 87.9391 589.877 87.9391C591.744 87.9391 593.284 88.3871 594.497 89.2831C595.729 90.1605 596.56 91.4205 596.989 93.0631H593.545C593.265 92.2978 592.817 91.7005 592.201 91.2711C591.585 90.8418 590.811 90.6271 589.877 90.6271C588.571 90.6271 587.525 91.0938 586.741 92.0271C585.976 92.9418 585.593 94.2298 585.593 95.8911C585.593 97.5525 585.976 98.8498 586.741 99.7831C587.525 100.716 588.571 101.183 589.877 101.183C591.725 101.183 592.948 100.371 593.545 98.7471H596.989C596.541 100.315 595.701 101.566 594.469 102.499C593.237 103.414 591.707 103.871 589.877 103.871C588.403 103.871 587.096 103.544 585.957 102.891C584.819 102.219 583.923 101.286 583.269 100.091C582.635 98.8778 582.317 97.4778 582.317 95.8911ZM614.31 95.5271C614.31 96.1058 614.273 96.6285 614.198 97.0951H602.41C602.504 98.3271 602.961 99.3165 603.782 100.063C604.604 100.81 605.612 101.183 606.806 101.183C608.524 101.183 609.737 100.464 610.446 99.0271H613.89C613.424 100.446 612.574 101.612 611.342 102.527C610.129 103.423 608.617 103.871 606.806 103.871C605.332 103.871 604.006 103.544 602.83 102.891C601.673 102.219 600.758 101.286 600.086 100.091C599.433 98.8778 599.106 97.4778 599.106 95.8911C599.106 94.3045 599.424 92.9138 600.058 91.7191C600.712 90.5058 601.617 89.5725 602.774 88.9191C603.95 88.2658 605.294 87.9391 606.806 87.9391C608.262 87.9391 609.56 88.2565 610.698 88.8911C611.837 89.5258 612.724 90.4218 613.358 91.5791C613.993 92.7178 614.31 94.0338 614.31 95.5271ZM610.978 94.5191C610.96 93.3431 610.54 92.4005 609.718 91.6911C608.897 90.9818 607.88 90.6271 606.666 90.6271C605.565 90.6271 604.622 90.9818 603.838 91.6911C603.054 92.3818 602.588 93.3245 602.438 94.5191H610.978ZM616.388 95.8351C616.388 94.2858 616.705 92.9138 617.34 91.7191C617.993 90.5245 618.87 89.6005 619.972 88.9471C621.092 88.2751 622.333 87.9391 623.696 87.9391C624.704 87.9391 625.693 88.1631 626.664 88.6111C627.653 89.0405 628.437 89.6191 629.016 90.3471V82.8991H632.236V103.619H629.016V101.295C628.493 102.042 627.765 102.658 626.832 103.143C625.917 103.628 624.862 103.871 623.668 103.871C622.324 103.871 621.092 103.535 619.972 102.863C618.87 102.172 617.993 101.22 617.34 100.007C616.705 98.7751 616.388 97.3845 616.388 95.8351ZM629.016 95.8911C629.016 94.8271 628.792 93.9031 628.344 93.1191C627.914 92.3351 627.345 91.7378 626.636 91.3271C625.926 90.9165 625.161 90.7111 624.34 90.7111C623.518 90.7111 622.753 90.9165 622.044 91.3271C621.334 91.7191 620.756 92.3071 620.308 93.0911C619.878 93.8565 619.664 94.7711 619.664 95.8351C619.664 96.8991 619.878 97.8325 620.308 98.6351C620.756 99.4378 621.334 100.054 622.044 100.483C622.772 100.894 623.537 101.099 624.34 101.099C625.161 101.099 625.926 100.894 626.636 100.483C627.345 100.072 627.914 99.4751 628.344 98.6911C628.792 97.8885 629.016 96.9551 629.016 95.8911ZM646.894 86.7351V92.4471H653.614V95.0511H646.894V101.015H654.454V103.619H643.702V84.1311H654.454V86.7351H646.894ZM664.993 95.8071L669.977 103.619H666.365L663.033 98.3831L659.897 103.619H656.565L661.549 96.0311L656.565 88.1911H660.177L663.509 93.4271L666.645 88.1911H669.977L664.993 95.8071ZM671.294 95.8351C671.294 94.2858 671.611 92.9138 672.246 91.7191C672.899 90.5245 673.776 89.6005 674.878 88.9471C675.998 88.2751 677.23 87.9391 678.574 87.9391C679.787 87.9391 680.842 88.1818 681.738 88.6671C682.652 89.1338 683.38 89.7218 683.922 90.4311V88.1911H687.142V103.619H683.922V101.323C683.38 102.051 682.643 102.658 681.71 103.143C680.776 103.628 679.712 103.871 678.518 103.871C677.192 103.871 675.979 103.535 674.878 102.863C673.776 102.172 672.899 101.22 672.246 100.007C671.611 98.7751 671.294 97.3845 671.294 95.8351ZM683.922 95.8911C683.922 94.8271 683.698 93.9031 683.25 93.1191C682.82 92.3351 682.251 91.7378 681.542 91.3271C680.832 90.9165 680.067 90.7111 679.246 90.7111C678.424 90.7111 677.659 90.9165 676.95 91.3271C676.24 91.7191 675.662 92.3071 675.214 93.0911C674.784 93.8565 674.57 94.7711 674.57 95.8351C674.57 96.8991 674.784 97.8325 675.214 98.6351C675.662 99.4378 676.24 100.054 676.95 100.483C677.678 100.894 678.443 101.099 679.246 101.099C680.067 101.099 680.832 100.894 681.542 100.483C682.251 100.072 682.82 99.4751 683.25 98.6911C683.698 97.8885 683.922 96.9551 683.922 95.8911ZM710.01 87.9391C711.224 87.9391 712.306 88.1911 713.258 88.6951C714.229 89.1991 714.985 89.9458 715.526 90.9351C716.086 91.9245 716.366 93.1191 716.366 94.5191V103.619H713.202V94.9951C713.202 93.6138 712.857 92.5591 712.166 91.8311C711.476 91.0845 710.533 90.7111 709.338 90.7111C708.144 90.7111 707.192 91.0845 706.482 91.8311C705.792 92.5591 705.446 93.6138 705.446 94.9951V103.619H702.282V94.9951C702.282 93.6138 701.937 92.5591 701.246 91.8311C700.556 91.0845 699.613 90.7111 698.418 90.7111C697.224 90.7111 696.272 91.0845 695.562 91.8311C694.872 92.5591 694.526 93.6138 694.526 94.9951V103.619H691.334V88.1911H694.526V89.9551C695.049 89.3205 695.712 88.8258 696.514 88.4711C697.317 88.1165 698.176 87.9391 699.09 87.9391C700.322 87.9391 701.424 88.2005 702.394 88.7231C703.365 89.2458 704.112 90.0018 704.634 90.9911C705.101 90.0578 705.829 89.3205 706.818 88.7791C707.808 88.2191 708.872 87.9391 710.01 87.9391ZM730.894 86.7351V92.4471H737.614V95.0511H730.894V101.015H738.454V103.619H727.702V84.1311H738.454V86.7351H730.894ZM748.993 95.8071L753.977 103.619H750.365L747.033 98.3831L743.897 103.619H740.565L745.549 96.0311L740.565 88.1911H744.177L747.509 93.4271L750.645 88.1911H753.977L748.993 95.8071ZM759.55 90.4591C760.091 89.7498 760.828 89.1525 761.762 88.6671C762.695 88.1818 763.75 87.9391 764.926 87.9391C766.27 87.9391 767.492 88.2751 768.594 88.9471C769.714 89.6005 770.591 90.5245 771.226 91.7191C771.86 92.9138 772.178 94.2858 772.178 95.8351C772.178 97.3845 771.86 98.7751 771.226 100.007C770.591 101.22 769.714 102.172 768.594 102.863C767.492 103.535 766.27 103.871 764.926 103.871C763.75 103.871 762.704 103.638 761.79 103.171C760.875 102.686 760.128 102.088 759.55 101.379V110.955H756.358V88.1911H759.55V90.4591ZM768.93 95.8351C768.93 94.7711 768.706 93.8565 768.258 93.0911C767.828 92.3071 767.25 91.7191 766.522 91.3271C765.812 90.9165 765.047 90.7111 764.226 90.7111C763.423 90.7111 762.658 90.9165 761.93 91.3271C761.22 91.7378 760.642 92.3351 760.194 93.1191C759.764 93.9031 759.55 94.8271 759.55 95.8911C759.55 96.9551 759.764 97.8885 760.194 98.6911C760.642 99.4751 761.22 100.072 761.93 100.483C762.658 100.894 763.423 101.099 764.226 101.099C765.047 101.099 765.812 100.894 766.522 100.483C767.25 100.054 767.828 99.4378 768.258 98.6351C768.706 97.8325 768.93 96.8991 768.93 95.8351ZM789.474 95.5271C789.474 96.1058 789.437 96.6285 789.362 97.0951H777.574C777.668 98.3271 778.125 99.3165 778.946 100.063C779.768 100.81 780.776 101.183 781.97 101.183C783.688 101.183 784.901 100.464 785.61 99.0271H789.054C788.588 100.446 787.738 101.612 786.506 102.527C785.293 103.423 783.781 103.871 781.97 103.871C780.496 103.871 779.17 103.544 777.994 102.891C776.837 102.219 775.922 101.286 775.25 100.091C774.597 98.8778 774.27 97.4778 774.27 95.8911C774.27 94.3045 774.588 92.9138 775.222 91.7191C775.876 90.5058 776.781 89.5725 777.938 88.9191C779.114 88.2658 780.458 87.9391 781.97 87.9391C783.426 87.9391 784.724 88.2565 785.862 88.8911C787.001 89.5258 787.888 90.4218 788.522 91.5791C789.157 92.7178 789.474 94.0338 789.474 95.5271ZM786.142 94.5191C786.124 93.3431 785.704 92.4005 784.882 91.6911C784.061 90.9818 783.044 90.6271 781.83 90.6271C780.729 90.6271 779.786 90.9818 779.002 91.6911C778.218 92.3818 777.752 93.3245 777.602 94.5191H786.142ZM795.808 90.4311C796.274 89.6471 796.89 89.0405 797.656 88.6111C798.44 88.1631 799.364 87.9391 800.428 87.9391V91.2431H799.616C798.365 91.2431 797.413 91.5605 796.76 92.1951C796.125 92.8298 795.808 93.9311 795.808 95.4991V103.619H792.616V88.1911H795.808V90.4311ZM807.086 90.7951V99.3351C807.086 99.9138 807.216 100.334 807.478 100.595C807.758 100.838 808.224 100.959 808.878 100.959H810.838V103.619H808.318C806.88 103.619 805.779 103.283 805.014 102.611C804.248 101.939 803.866 100.847 803.866 99.3351V90.7951H802.046V88.1911H803.866V84.3551H807.086V88.1911H810.838V90.7951H807.086ZM819.38 103.871C818.166 103.871 817.074 103.656 816.104 103.227C815.152 102.779 814.396 102.182 813.836 101.435C813.276 100.67 812.977 99.8205 812.94 98.8871H816.244C816.3 99.5405 816.608 100.091 817.168 100.539C817.746 100.968 818.465 101.183 819.324 101.183C820.22 101.183 820.91 101.015 821.396 100.679C821.9 100.324 822.152 99.8765 822.152 99.3351C822.152 98.7565 821.872 98.3271 821.312 98.0471C820.77 97.7671 819.902 97.4591 818.708 97.1231C817.55 96.8058 816.608 96.4978 815.88 96.1991C815.152 95.9005 814.517 95.4431 813.976 94.8271C813.453 94.2111 813.192 93.3991 813.192 92.3911C813.192 91.5698 813.434 90.8231 813.92 90.1511C814.405 89.4605 815.096 88.9191 815.992 88.5271C816.906 88.1351 817.952 87.9391 819.128 87.9391C820.882 87.9391 822.292 88.3871 823.356 89.2831C824.438 90.1605 825.017 91.3645 825.092 92.8951H821.9C821.844 92.2045 821.564 91.6538 821.06 91.2431C820.556 90.8325 819.874 90.6271 819.016 90.6271C818.176 90.6271 817.532 90.7858 817.084 91.1031C816.636 91.4205 816.412 91.8405 816.412 92.3631C816.412 92.7738 816.561 93.1191 816.86 93.3991C817.158 93.6791 817.522 93.9031 817.952 94.0711C818.381 94.2205 819.016 94.4165 819.856 94.6591C820.976 94.9578 821.89 95.2658 822.6 95.5831C823.328 95.8818 823.953 96.3298 824.476 96.9271C824.998 97.5245 825.269 98.3178 825.288 99.3071C825.288 100.184 825.045 100.968 824.56 101.659C824.074 102.35 823.384 102.891 822.488 103.283C821.61 103.675 820.574 103.871 819.38 103.871Z" fill="#141226"/>
<path d="M7.29857 108.794L24.7874 106.031C26.5274 105.756 28.3249 105.674 30.1484 105.786L88.8781 109.386" stroke="url(#paint0_linear_8916_21410)"/>
<path d="M7.18139 111.811L24.6702 109.049C26.4102 108.774 28.2077 108.691 30.0312 108.803L88.7609 112.403" stroke="url(#paint1_linear_8916_21410)"/>
<defs>
<linearGradient id="paint0_linear_8916_21410" x1="48.1711" y1="109.599" x2="48.1637" y2="110.617" gradientUnits="userSpaceOnUse">
<stop stop-color="#F88C29"/>
<stop offset="1" stop-color="#F88C29" stop-opacity="0"/>
</linearGradient>
<linearGradient id="paint1_linear_8916_21410" x1="48.0539" y1="112.617" x2="48.0465" y2="113.634" gradientUnits="userSpaceOnUse">
<stop stop-color="#F88C29"/>
<stop offset="1" stop-color="#F88C29" stop-opacity="0"/>
</linearGradient>
</defs>
</svg>
