<svg width="58" height="58" viewBox="0 0 58 58" fill="none" xmlns="http://www.w3.org/2000/svg">
<path d="M58 29C58 13.021 44.979 0 29 0C13.021 0 0 13.021 0 29C0 37.41 3.625 44.979 9.367 50.286C9.367 50.315 9.367 50.315 9.338 50.344C9.628 50.634 9.976 50.866 10.266 51.127C10.44 51.272 10.585 51.417 10.759 51.533C11.281 51.968 11.861 52.374 12.412 52.78C12.615 52.925 12.789 53.041 12.992 53.186C13.543 53.563 14.123 53.911 14.732 54.23C14.935 54.346 15.167 54.491 15.37 54.607C15.95 54.926 16.559 55.216 17.197 55.477C17.429 55.593 17.661 55.709 17.893 55.796C18.531 56.057 19.169 56.289 19.807 56.492C20.039 56.579 20.271 56.666 20.503 56.724C21.199 56.927 21.895 57.101 22.591 57.275C22.794 57.333 22.997 57.391 23.229 57.42C24.041 57.594 24.853 57.71 25.694 57.797C25.81 57.797 25.926 57.826 26.042 57.855C27.028 57.942 28.014 58 29 58C29.986 58 30.972 57.942 31.929 57.855C32.045 57.855 32.161 57.826 32.277 57.797C33.118 57.71 33.93 57.594 34.742 57.42C34.945 57.391 35.148 57.304 35.38 57.275C36.076 57.101 36.801 56.956 37.468 56.724C37.7 56.637 37.932 56.55 38.164 56.492C38.802 56.26 39.469 56.057 40.078 55.796C40.31 55.709 40.542 55.593 40.774 55.477C41.383 55.216 41.992 54.926 42.601 54.607C42.833 54.491 43.036 54.346 43.239 54.23C43.819 53.882 44.399 53.563 44.979 53.186C45.182 53.07 45.356 52.925 45.559 52.78C46.139 52.374 46.69 51.968 47.212 51.533C47.386 51.388 47.531 51.243 47.705 51.127C48.024 50.866 48.343 50.605 48.633 50.344C48.633 50.315 48.633 50.315 48.604 50.286C54.375 44.979 58 37.41 58 29ZM43.326 43.413C35.467 38.135 22.591 38.135 14.674 43.413C13.398 44.254 12.354 45.24 11.484 46.313C7.076 41.847 4.35 35.728 4.35 29C4.35 15.399 15.399 4.35 29 4.35C42.601 4.35 53.65 15.399 53.65 29C53.65 35.728 50.924 41.847 46.516 46.313C45.675 45.24 44.602 44.254 43.326 43.413Z" fill="#8E8D97" fill-opacity="0.5"/>
<path d="M29 14.2961C22.997 14.2961 18.125 19.1681 18.125 25.1712C18.125 31.0582 22.736 35.8432 28.855 36.0172H29.116H29.319H29.377C35.235 35.8142 39.846 31.0582 39.875 25.1712C39.875 19.1681 35.003 14.2961 29 14.2961Z" fill="#8E8D97" fill-opacity="0.5"/>
</svg>
