<svg width="17" height="18" viewBox="0 0 17 18" fill="none" xmlns="http://www.w3.org/2000/svg">
<path fill-rule="evenodd" clip-rule="evenodd" d="M8.49984 17.3333C13.1023 17.3333 16.8332 13.6025 16.8332 8.99996C16.8332 4.39746 13.1023 0.666626 8.49984 0.666626C3.89734 0.666626 0.166504 4.39746 0.166504 8.99996C0.166504 13.6025 3.89734 17.3333 8.49984 17.3333ZM5.49951 11.9999C5.54845 11.9339 5.60774 11.8391 5.67821 11.7969C5.74869 11.7547 5.90806 11.9374 5.90806 11.7148C5.99951 11.8316 5.91985 11.9798 5.99951 11.9999C6.07918 12.0199 6.30642 11.7826 6.37234 11.8316C6.979 12.2816 7.71118 11.9999 8.49951 11.9999C9.49951 11.9999 10.0464 12.1761 10.6273 11.8316C10.693 11.7805 10.7824 11.9739 10.8628 11.9523C10.9432 11.9306 10.917 11.9886 10.9995 11.9999C10.9278 11.9575 11.082 12.0111 10.9995 11.9999C11.0712 12.0422 11.4633 11.8854 11.513 11.9523C11.5626 12.0191 11.5984 12.0952 11.6182 12.1761C11.638 12.257 11.6415 12.341 11.6284 12.4232C11.6153 12.5054 11.5859 12.5842 11.5419 12.6549C11.4979 12.7256 11.4403 12.7868 11.3723 12.835C10.157 12.6549 8.99951 12.4999 8.49951 12.9999C8.21708 12.4232 6.49951 12.4999 5.62734 12.835C5.49419 12.7363 5.4057 12.5887 5.38132 12.4248C5.35694 12.2609 5.40085 12.133 5.49951 11.9999ZM11.8332 7.74996C11.8332 8.43996 11.4598 8.99996 10.9998 8.99996C10.5398 8.99996 10.1665 8.43996 10.1665 7.74996C10.1665 7.05996 10.5398 6.49996 10.9998 6.49996C11.4598 6.49996 11.8332 7.05996 11.8332 7.74996ZM5.99984 8.99996C6.45984 8.99996 6.83317 8.43996 6.83317 7.74996C6.83317 7.05996 6.45984 6.49996 5.99984 6.49996C5.53984 6.49996 5.1665 7.05996 5.1665 7.74996C5.1665 8.43996 5.53984 8.99996 5.99984 8.99996Z" fill="#6C60E1"/>
<path d="M12.1098 12.7939C12.227 12.6767 12.2929 12.5178 12.2929 12.352C12.2929 12.1862 12.227 12.0273 12.1098 11.9101C11.9926 11.7929 11.8336 11.727 11.6679 11.727H5.41786C5.2521 11.727 5.09313 11.7929 4.97592 11.9101C4.85871 12.0273 4.79286 12.1862 4.79286 12.352C4.79286 12.5178 4.85871 12.6767 4.97592 12.7939C5.09313 12.9112 5.2521 12.977 5.41786 12.977H11.6679C11.8336 12.977 11.9926 12.9112 12.1098 12.7939Z" fill="white"/>
</svg>
