<svg width="17" height="16" viewBox="0 0 17 16" fill="none" xmlns="http://www.w3.org/2000/svg">
<path fill-rule="evenodd" clip-rule="evenodd" d="M8.8335 16C13.2518 16 16.8335 12.4183 16.8335 8C16.8335 3.58172 13.2518 0 8.8335 0C4.41522 0 0.833496 3.58172 0.833496 8C0.833496 12.4183 4.41522 16 8.8335 16ZM5.8335 7C6.38578 7 6.8335 6.55228 6.8335 6C6.8335 5.44772 6.38578 5 5.8335 5C5.28121 5 4.8335 5.44772 4.8335 6C4.8335 6.55228 5.28121 7 5.8335 7ZM12.8335 6C12.8335 6.55228 12.3858 7 11.8335 7C11.2812 7 10.8335 6.55228 10.8335 6C10.8335 5.44772 11.2812 5 11.8335 5C12.3858 5 12.8335 5.44772 12.8335 6ZM12.369 11.5354C12.7596 11.1449 12.7596 10.5118 12.369 10.1212C11.9785 9.7307 11.3453 9.7307 10.9548 10.1212C9.78324 11.2928 7.88375 11.2928 6.71218 10.1212C6.32165 9.7307 5.68849 9.7307 5.29796 10.1212C4.90744 10.5118 4.90744 11.1449 5.29796 11.5354C7.25058 13.4881 10.4164 13.4881 12.369 11.5354Z" fill="#008000"/>
</svg>
