<svg width="17" height="16" viewBox="0 0 17 16" fill="none" xmlns="http://www.w3.org/2000/svg">
<path fill-rule="evenodd" clip-rule="evenodd" d="M8.1665 16C12.5848 16 16.1665 12.4183 16.1665 8C16.1665 3.58172 12.5848 0 8.1665 0C3.74823 0 0.166504 3.58172 0.166504 8C0.166504 12.4183 3.74823 16 8.1665 16ZM5.1665 7C5.71879 7 6.1665 6.55228 6.1665 6C6.1665 5.44772 5.71879 5 5.1665 5C4.61422 5 4.1665 5.44772 4.1665 6C4.1665 6.55228 4.61422 7 5.1665 7ZM12.1665 6C12.1665 6.55228 11.7188 7 11.1665 7C10.6142 7 10.1665 6.55228 10.1665 6C10.1665 5.44772 10.6142 5 11.1665 5C11.7188 5 12.1665 5.44772 12.1665 6ZM4.63097 11.8785C5.02149 12.269 5.65466 12.269 6.04518 11.8785C7.21676 10.7069 9.11625 10.7069 10.2878 11.8785C10.6783 12.269 11.3115 12.269 11.702 11.8785C12.0926 11.4879 12.0926 10.8548 11.702 10.4642C9.74942 8.51162 6.58359 8.51162 4.63097 10.4642C4.24045 10.8548 4.24045 11.4879 4.63097 11.8785Z" fill="#C80303"/>
</svg>
