<svg width="21" height="20" viewBox="0 0 21 20" fill="none" xmlns="http://www.w3.org/2000/svg">
<path fill-rule="evenodd" clip-rule="evenodd" d="M10.4998 18.3333C15.1023 18.3333 18.8332 14.6025 18.8332 9.99996C18.8332 5.39746 15.1023 1.66663 10.4998 1.66663C5.89734 1.66663 2.1665 5.39746 2.1665 9.99996C2.1665 14.6025 5.89734 18.3333 10.4998 18.3333ZM7.49734 12.9608C7.54627 12.8948 7.60774 12.8391 7.67821 12.7969C7.74869 12.7547 7.82679 12.7268 7.90806 12.7148C7.98933 12.7028 8.07216 12.707 8.15183 12.727C8.23149 12.747 8.30642 12.7826 8.37234 12.8316C8.979 13.2816 9.7115 13.5416 10.4998 13.5416C11.2882 13.5416 12.0207 13.2808 12.6273 12.8316C12.693 12.7805 12.7683 12.743 12.8487 12.7214C12.9291 12.6997 13.013 12.6944 13.0955 12.7056C13.178 12.7168 13.2575 12.7444 13.3291 12.7868C13.4008 12.8292 13.4633 12.8854 13.513 12.9523C13.5626 13.0191 13.5984 13.0952 13.6182 13.1761C13.638 13.257 13.6415 13.341 13.6284 13.4232C13.6153 13.5054 13.5859 13.5842 13.5419 13.6549C13.4979 13.7256 13.4403 13.7868 13.3723 13.835C12.5429 14.4551 11.5354 14.7906 10.4998 14.7916C9.46426 14.7906 8.45673 14.4551 7.62734 13.835C7.49419 13.7363 7.4057 13.5887 7.38132 13.4248C7.35694 13.2609 7.39867 13.094 7.49734 12.9608ZM13.8332 8.74996C13.8332 9.43996 13.4598 9.99996 12.9998 9.99996C12.5398 9.99996 12.1665 9.43996 12.1665 8.74996C12.1665 8.05996 12.5398 7.49996 12.9998 7.49996C13.4598 7.49996 13.8332 8.05996 13.8332 8.74996ZM7.99984 9.99996C8.45984 9.99996 8.83317 9.43996 8.83317 8.74996C8.83317 8.05996 8.45984 7.49996 7.99984 7.49996C7.53984 7.49996 7.1665 8.05996 7.1665 8.74996C7.1665 9.43996 7.53984 9.99996 7.99984 9.99996Z" fill="#008000"/>
</svg>
