<svg width="20" height="21" viewBox="0 0 20 21" fill="none" xmlns="http://www.w3.org/2000/svg">
<path d="M2 11C2 10.1716 2.67157 9.5 3.5 9.5C4.32843 9.5 5 10.1716 5 11V17C5 17.8284 4.32843 18.5 3.5 18.5C2.67157 18.5 2 17.8284 2 17V11Z" fill="#4A4958"/>
<path d="M6 10.8333V16.2639C6 17.0215 6.428 17.714 7.10557 18.0528L7.15542 18.0777C7.71084 18.3554 8.32329 18.5 8.94427 18.5H14.3604C15.3138 18.5 16.1346 17.8271 16.3216 16.8922L17.5216 10.8922C17.7691 9.65465 16.8225 8.5 15.5604 8.5H12V4.5C12 3.39543 11.1046 2.5 10 2.5C9.44772 2.5 9 2.94772 9 3.5V4.16667C9 5.03215 8.71929 5.87428 8.2 6.56667L6.8 8.43333C6.28071 9.12572 6 9.96785 6 10.8333Z" fill="#4A4958"/>
</svg>
