<svg width="16" height="17" viewBox="0 0 16 17" fill="none" xmlns="http://www.w3.org/2000/svg">
<path d="M16 8C16 8.82843 15.3285 9.5 14.5 9.5C13.6716 9.5 13 8.82843 13 8V2C13 1.17157 13.6716 0.500001 14.5 0.500001C15.3285 0.500001 16 1.17157 16 2V8Z" fill="#4A4958"/>
<path d="M12 8.16667V2.73607C12 1.97852 11.572 1.286 10.8945 0.947215L10.8446 0.922291C10.2892 0.644581 9.67675 0.500001 9.05577 0.5L3.63964 0.5C2.68628 0.5 1.86545 1.17292 1.67848 2.10777L0.478483 8.10777C0.230966 9.34535 1.17755 10.5 2.43964 10.5H6.00004V14.5C6.00004 15.6046 6.89547 16.5 8.00004 16.5C8.55232 16.5 9.00004 16.0523 9.00004 15.5V14.8333C9.00004 13.9679 9.28075 13.1257 9.80004 12.4333L11.2 10.5667C11.7193 9.87428 12 9.03215 12 8.16667Z" fill="#4A4958"/>
</svg>
