<svg width="22" height="20" viewBox="0 0 22 20" fill="none" xmlns="http://www.w3.org/2000/svg">
<path d="M15 19V17C15 15.9391 14.5786 14.9217 13.8284 14.1716C13.0783 13.4214 12.0609 13 11 13H5C3.93913 13 2.92172 13.4214 2.17157 14.1716C1.42143 14.9217 1 15.9391 1 17V19" stroke="#3E30C2" stroke-width="2" stroke-linecap="round" stroke-linejoin="round"/>
<path d="M8 9C10.2091 9 12 7.20914 12 5C12 2.79086 10.2091 1 8 1C5.79086 1 4 2.79086 4 5C4 7.20914 5.79086 9 8 9Z" stroke="#3E30C2" stroke-width="2" stroke-linecap="round" stroke-linejoin="round"/>
<path d="M21 19V17C20.9993 16.1137 20.7044 15.2528 20.1614 14.5523C19.6184 13.8519 18.8581 13.3516 18 13.13M15 1.13C15.8604 1.35031 16.623 1.85071 17.1676 2.55232C17.7122 3.25392 18.0078 4.11683 18.0078 5.005C18.0078 5.89318 17.7122 6.75608 17.1676 7.45769C16.623 8.1593 15.8604 8.6597 15 8.88" stroke="#3E30C2" stroke-width="2" stroke-linecap="round" stroke-linejoin="round"/>
</svg>
