<svg width="23" height="20" viewBox="0 0 23 20" fill="none" xmlns="http://www.w3.org/2000/svg">
<path d="M15.5 19V17C15.5 15.9391 15.0786 14.9217 14.3284 14.1716C13.5783 13.4214 12.5609 13 11.5 13H5.5C4.43913 13 3.42172 13.4214 2.67157 14.1716C1.92143 14.9217 1.5 15.9391 1.5 17V19" stroke="#72717D" stroke-width="2" stroke-linecap="round" stroke-linejoin="round"/>
<path d="M8.5 9C10.7091 9 12.5 7.20914 12.5 5C12.5 2.79086 10.7091 1 8.5 1C6.29086 1 4.5 2.79086 4.5 5C4.5 7.20914 6.29086 9 8.5 9Z" stroke="#72717D" stroke-width="2" stroke-linecap="round" stroke-linejoin="round"/>
<path d="M21.5 19V17C21.4993 16.1137 21.2044 15.2528 20.6614 14.5523C20.1184 13.8519 19.3581 13.3516 18.5 13.13M15.5 1.13C16.3604 1.3503 17.123 1.8507 17.6676 2.55231C18.2122 3.25392 18.5078 4.11683 18.5078 5.005C18.5078 5.89317 18.2122 6.75608 17.6676 7.45769C17.123 8.1593 16.3604 8.6597 15.5 8.88" stroke="#72717D" stroke-width="2" stroke-linecap="round" stroke-linejoin="round"/>
</svg>
