<svg width="43" height="45" viewBox="0 0 43 45" fill="none" xmlns="http://www.w3.org/2000/svg">
<rect x="1.14062" y="1.00146" width="41" height="42.9965" rx="20.5" fill="white"/>
<path d="M23.3706 31.5015C23.1948 31.8045 22.9425 32.0561 22.6389 32.231C22.3352 32.4059 21.991 32.4979 21.6406 32.4979C21.2902 32.4979 20.946 32.4059 20.6424 32.231C20.3388 32.0561 20.0864 31.8045 19.9106 31.5015M27.6406 18.5015C27.6406 16.9102 27.0085 15.384 25.8833 14.2588C24.758 13.1336 23.2319 12.5015 21.6406 12.5015C20.0493 12.5015 18.5232 13.1336 17.398 14.2588C16.2728 15.384 15.6406 16.9102 15.6406 18.5015C15.6406 25.5015 12.6406 27.5015 12.6406 27.5015H30.6406C30.6406 27.5015 27.6406 25.5015 27.6406 18.5015Z" stroke="#6C60E1" stroke-width="2" stroke-linecap="round" stroke-linejoin="round"/>
<rect x="1.14062" y="1.00146" width="41" height="42.9965" rx="20.5" stroke="#72717D"/>
</svg>
