<svg width="44" height="45" viewBox="0 0 44 45" fill="none" xmlns="http://www.w3.org/2000/svg">
<rect x="1.14062" y="0.75" width="42.359" height="43.4997" rx="21.1795" fill="white"/>
<path d="M30.3074 32.769V30.487C30.3074 29.2765 29.8265 28.1156 28.9706 27.2596C28.1146 26.4037 26.9537 25.9229 25.7433 25.9229H18.8971C17.6866 25.9229 16.5257 26.4037 15.6698 27.2596C14.8139 28.1156 14.333 29.2765 14.333 30.487V32.769" stroke="#141226" stroke-width="2.56731" stroke-linecap="round" stroke-linejoin="round"/>
<path d="M22.32 21.3592C24.8406 21.3592 26.8841 19.3157 26.8841 16.7951C26.8841 14.2744 24.8406 12.231 22.32 12.231C19.7993 12.231 17.7559 14.2744 17.7559 16.7951C17.7559 19.3157 19.7993 21.3592 22.32 21.3592Z" stroke="#141226" stroke-width="2.56731" stroke-linecap="round" stroke-linejoin="round"/>
<rect x="1.14062" y="0.75" width="42.359" height="43.4997" rx="21.1795" stroke="#72717D"/>
</svg>
