<svg width="12" height="20" viewBox="0 0 12 20" fill="none" xmlns="http://www.w3.org/2000/svg">
<g clip-path="url(#clip0_1988_1401)">
<path fill-rule="evenodd" clip-rule="evenodd" d="M2.1696 0H9.27734C9.85251 0.00128801 10.4038 0.230232 10.8106 0.636785C11.2175 1.04334 11.4468 1.59443 11.4486 2.1696V17.8304C11.4468 18.4056 11.2175 18.9567 10.8106 19.3632C10.4038 19.7698 9.85251 19.9987 9.27734 20H2.1696C1.59417 19.9991 1.04258 19.7701 0.635837 19.363C0.229099 18.956 0.000430389 18.4042 0 17.8288L0 2.1696C0.000861002 1.59445 0.229719 1.0431 0.636411 0.636411C1.0431 0.229719 1.59445 0.000861002 2.1696 0V0ZM5.72266 17.6383C5.89849 17.638 6.07046 17.6899 6.21682 17.7873C6.36317 17.8848 6.47733 18.0235 6.54484 18.1858C6.61235 18.3482 6.63018 18.5269 6.59608 18.6994C6.56197 18.8719 6.47746 19.0304 6.35325 19.1548C6.22903 19.2793 6.07068 19.3641 5.89825 19.3985C5.72582 19.4329 5.54706 19.4154 5.38458 19.3482C5.2221 19.281 5.08321 19.1671 4.98549 19.0209C4.88777 18.8747 4.83561 18.7029 4.83561 18.527C4.83604 18.2917 4.92958 18.0662 5.0958 17.8997C5.26201 17.7332 5.48738 17.6392 5.72266 17.6383ZM10.8236 16.9564V2.72624H0.623372V16.9564H10.8236Z" fill="#999999"/>
</g>
<defs>
<clipPath id="clip0_1988_1401">
<rect width="11.4486" height="20" fill="white"/>
</clipPath>
</defs>
</svg>
