<svg width="16" height="20" viewBox="0 0 16 20" fill="none" xmlns="http://www.w3.org/2000/svg">
<g clip-path="url(#clip0_1988_1407)">
<path fill-rule="evenodd" clip-rule="evenodd" d="M2.06868 0H9.06738C9.61592 0.000859605 10.1418 0.219034 10.5298 0.606755C10.9178 0.994476 11.1364 1.52015 11.1377 2.06869V5.13021H10.5436V2.60417H0.595703V17.1012H10.5452V15.498L11.1393 15.0098V17.9281C11.138 18.4763 10.9197 19.0017 10.532 19.3894C10.1443 19.7771 9.61889 19.9955 9.07064 19.9967H2.07194C1.52368 19.9963 0.997912 19.7788 0.609627 19.3917C0.221342 19.0047 0.00215154 18.4796 0 17.9313L0 2.06869C0.00128951 1.52043 0.219654 0.995003 0.607328 0.607328C0.995003 0.219654 1.52043 0.00128951 2.06868 0V0ZM5.92448 8.46354C5.93007 8.38772 5.96413 8.31682 6.01983 8.26507C6.07553 8.21332 6.14874 8.18456 6.22477 8.18456C6.3008 8.18456 6.37401 8.21332 6.42972 8.26507C6.48542 8.31682 6.51948 8.38772 6.52506 8.46354V8.85091L6.85059 8.63607C6.88206 8.60611 6.9197 8.58341 6.96088 8.56954C7.00205 8.55567 7.04576 8.55098 7.08894 8.5558C7.13212 8.56061 7.17372 8.57482 7.21083 8.59741C7.24794 8.62001 7.27966 8.65045 7.30376 8.6866C7.32786 8.72275 7.34376 8.76373 7.35035 8.80668C7.35693 8.84962 7.35404 8.89349 7.34188 8.9352C7.32971 8.97691 7.30857 9.01546 7.27994 9.04813C7.2513 9.08081 7.21586 9.10682 7.17611 9.12435L6.76269 9.40267L7.17773 9.67773C7.23421 9.72473 7.27143 9.79084 7.28233 9.8635C7.29323 9.93615 7.27705 10.0103 7.23685 10.0718C7.19666 10.1333 7.13526 10.1779 7.06434 10.197C6.99342 10.2162 6.91792 10.2086 6.85221 10.1758L6.52669 9.96094V10.3499C6.52111 10.4258 6.48704 10.4967 6.43134 10.5484C6.37564 10.6002 6.30243 10.6289 6.2264 10.6289C6.15037 10.6289 6.07716 10.6002 6.02146 10.5484C5.96576 10.4967 5.93169 10.4258 5.92611 10.3499V9.97233L5.60059 10.1872C5.56813 10.2126 5.53076 10.2309 5.49084 10.2412C5.45091 10.2514 5.40931 10.2532 5.36865 10.2465C5.32799 10.2398 5.28916 10.2247 5.25462 10.2022C5.22008 10.1798 5.19058 10.1504 5.16798 10.1159C5.14539 10.0815 5.13019 10.0427 5.12334 10.002C5.1165 9.96141 5.11816 9.9198 5.12823 9.87984C5.13829 9.83988 5.15654 9.80244 5.18181 9.76989C5.20709 9.73735 5.23884 9.7104 5.27506 9.69076L5.6901 9.41406L5.27506 9.13737C5.24026 9.11698 5.20996 9.08973 5.186 9.05727C5.16204 9.02481 5.14493 8.98783 5.1357 8.94856C5.12646 8.90929 5.1253 8.86856 5.13228 8.82882C5.13927 8.78909 5.15425 8.75119 5.17632 8.71743C5.19839 8.68366 5.22709 8.65473 5.26068 8.63239C5.29426 8.61004 5.33204 8.59476 5.37171 8.58745C5.41139 8.58015 5.45213 8.58098 5.49147 8.5899C5.53082 8.59881 5.56794 8.61563 5.60059 8.63932L5.92611 8.85417V8.46354H5.92448ZM12.2282 8.46354C12.2282 8.38412 12.2597 8.30794 12.3159 8.25178C12.3721 8.19561 12.4482 8.16406 12.5277 8.16406C12.6071 8.16406 12.6833 8.19561 12.7394 8.25178C12.7956 8.30794 12.8271 8.38412 12.8271 8.46354V8.85091L13.1527 8.63607C13.2168 8.60778 13.2889 8.60303 13.3562 8.62266C13.4235 8.64229 13.4818 8.68504 13.5207 8.74338C13.5596 8.80173 13.5766 8.87192 13.5689 8.94161C13.5611 9.01129 13.529 9.07601 13.4782 9.12435L13.0632 9.40267L13.4782 9.67773C13.516 9.69662 13.5493 9.72329 13.576 9.75598C13.6028 9.78867 13.6223 9.82665 13.6333 9.86741C13.6444 9.90818 13.6466 9.95082 13.64 9.99253C13.6334 10.0342 13.618 10.0741 13.5949 10.1094C13.5718 10.1448 13.5415 10.1748 13.5059 10.1976C13.4704 10.2205 13.4304 10.2355 13.3887 10.2417C13.3469 10.248 13.3043 10.2454 13.2636 10.234C13.2229 10.2226 13.1851 10.2028 13.1527 10.1758L12.8271 9.96094V10.3499C12.8271 10.4294 12.7956 10.5055 12.7394 10.5617C12.6833 10.6179 12.6071 10.6494 12.5277 10.6494C12.4482 10.6494 12.3721 10.6179 12.3159 10.5617C12.2597 10.5055 12.2282 10.4294 12.2282 10.3499V9.97233L11.9027 10.1872C11.8704 10.2151 11.8325 10.2359 11.7916 10.248C11.7506 10.2601 11.7076 10.2633 11.6653 10.2574C11.623 10.2516 11.5825 10.2367 11.5464 10.2139C11.5103 10.191 11.4795 10.1607 11.4561 10.125C11.4327 10.0893 11.4172 10.049 11.4107 10.0069C11.4041 9.96467 11.4066 9.92157 11.4181 9.88044C11.4295 9.83931 11.4497 9.80111 11.4771 9.76839C11.5045 9.73568 11.5386 9.70921 11.5771 9.69076L11.9922 9.41406L11.5771 9.13737C11.5394 9.11848 11.506 9.09181 11.4793 9.05912C11.4526 9.02643 11.433 8.98846 11.422 8.94769C11.411 8.90692 11.4087 8.86428 11.4153 8.82257C11.4219 8.78086 11.4373 8.74103 11.4604 8.70567C11.4835 8.67032 11.5138 8.64026 11.5494 8.61745C11.5849 8.59465 11.6249 8.57962 11.6667 8.57336C11.7084 8.56709 11.7511 8.56973 11.7917 8.5811C11.8324 8.59247 11.8702 8.61231 11.9027 8.63932L12.2282 8.85417V8.46354ZM9.07715 8.46354C9.07715 8.38412 9.1087 8.30794 9.16486 8.25178C9.22103 8.19561 9.2972 8.16406 9.37663 8.16406C9.45605 8.16406 9.53223 8.19561 9.58839 8.25178C9.64455 8.30794 9.67611 8.38412 9.67611 8.46354V8.85091L10.0016 8.63607C10.0656 8.61005 10.1365 8.60691 10.2025 8.62719C10.2685 8.64746 10.3254 8.6899 10.3637 8.74733C10.402 8.80476 10.4193 8.87365 10.4126 8.94235C10.4059 9.01105 10.3758 9.07534 10.3271 9.12435L9.91211 9.40267L10.3271 9.67773C10.3649 9.69662 10.3983 9.72329 10.425 9.75598C10.4517 9.78867 10.4713 9.82665 10.4823 9.86741C10.4933 9.90818 10.4956 9.95082 10.489 9.99253C10.4823 10.0342 10.467 10.0741 10.4439 10.1094C10.4208 10.1448 10.3904 10.1748 10.3549 10.1976C10.3194 10.2205 10.2794 10.2355 10.2376 10.2417C10.1959 10.248 10.1532 10.2454 10.1126 10.234C10.0719 10.2226 10.0341 10.2028 10.0016 10.1758L9.67611 9.96094V10.3499C9.67611 10.4294 9.64455 10.5055 9.58839 10.5617C9.53223 10.6179 9.45605 10.6494 9.37663 10.6494C9.2972 10.6494 9.22103 10.6179 9.16486 10.5617C9.1087 10.5055 9.07715 10.4294 9.07715 10.3499V9.97233L8.75163 10.1872C8.68597 10.2228 8.60932 10.2324 8.53689 10.2142C8.46445 10.1959 8.40152 10.1511 8.36055 10.0887C8.31959 10.0262 8.3036 9.95064 8.31574 9.87694C8.32788 9.80323 8.36727 9.73678 8.42611 9.69076L8.84115 9.41406L8.42611 9.13737C8.38833 9.11848 8.35499 9.09181 8.32825 9.05912C8.30151 9.02643 8.28199 8.98846 8.27096 8.94769C8.25994 8.90692 8.25766 8.86428 8.26429 8.82257C8.27091 8.78086 8.28627 8.74103 8.30938 8.70567C8.33248 8.67032 8.3628 8.64026 8.39835 8.61745C8.4339 8.59465 8.47386 8.57962 8.51563 8.57336C8.55739 8.56709 8.60001 8.56973 8.64068 8.5811C8.68136 8.59247 8.71916 8.61231 8.75163 8.63932L9.07715 8.85417V8.46354ZM4.32129 6.36556H14.3506C14.567 6.36897 14.7735 6.45714 14.9257 6.61113C15.0779 6.76512 15.1636 6.97264 15.1644 7.18913V11.5951C15.1647 11.815 15.0803 12.0265 14.9288 12.1859C14.7773 12.3453 14.5702 12.4403 14.3506 12.4512H10.8284C9.92838 13.5921 8.75488 14.279 7.36816 14.6484C7.3137 14.6627 7.25637 14.6617 7.20242 14.6457C7.14846 14.6296 7.09995 14.599 7.06217 14.5573C7.03537 14.5276 7.01472 14.4928 7.00143 14.4551C6.98813 14.4173 6.98246 14.3773 6.98473 14.3374C6.987 14.2974 6.99717 14.2583 7.01465 14.2223C7.03214 14.1863 7.05659 14.1541 7.08659 14.1276C7.25034 13.9853 7.39972 13.8272 7.53255 13.6556C7.787 13.2772 7.97676 12.8592 8.09408 12.4186H4.32129C4.10326 12.4173 3.89453 12.3302 3.74035 12.176C3.58618 12.0218 3.499 11.8131 3.49772 11.5951V7.18913C3.49815 6.97084 3.58506 6.76161 3.73941 6.60725C3.89377 6.4529 4.103 6.36599 4.32129 6.36556ZM5.56966 17.7409C5.73703 17.7412 5.90056 17.7911 6.03965 17.8841C6.17874 17.9772 6.28717 18.1094 6.35129 18.264C6.41541 18.4186 6.43235 18.5887 6.39997 18.7529C6.36759 18.9171 6.28734 19.0681 6.16934 19.1868C6.05133 19.3054 5.90084 19.3866 5.73682 19.4199C5.57281 19.4532 5.4026 19.4372 5.24763 19.374C5.09267 19.3108 4.95989 19.2031 4.866 19.0645C4.77212 18.926 4.72134 18.7627 4.72005 18.5954C4.71941 18.4834 4.74091 18.3724 4.78332 18.2687C4.82573 18.1651 4.88821 18.0709 4.96716 17.9915C5.04612 17.912 5.14 17.849 5.2434 17.806C5.3468 17.763 5.45768 17.7409 5.56966 17.7409Z" fill="#999999"/>
</g>
<defs>
<clipPath id="clip0_1988_1407">
<rect width="15.1725" height="20" fill="white"/>
</clipPath>
</defs>
</svg>
