<svg width="19" height="22" viewBox="0 0 19 22" fill="none" xmlns="http://www.w3.org/2000/svg">
<path d="M11.6992 1H3.19922C2.66879 1 2.16008 1.21071 1.78501 1.58579C1.40993 1.96086 1.19922 2.46957 1.19922 3V19C1.19922 19.5304 1.40993 20.0391 1.78501 20.4142C2.16008 20.7893 2.66879 21 3.19922 21H15.1992C15.7297 21 16.2384 20.7893 16.6134 20.4142C16.9885 20.0391 17.1992 19.5304 17.1992 19V6.5L11.6992 1Z" stroke="#72717D" stroke-width="2" stroke-linecap="round" stroke-linejoin="round"/>
<path d="M11.1992 1V7H17.1992M9.19922 17V11M9.19922 17L6.19922 14M9.19922 17L12.1992 14" stroke="#72717D" stroke-width="2" stroke-linecap="round" stroke-linejoin="round"/>
</svg>
