<svg width="24" height="24" viewBox="0 0 24 24" fill="none" xmlns="http://www.w3.org/2000/svg">
<path d="M0 2.75C0 2.02065 0.289731 1.32118 0.805456 0.805456C1.32118 0.289731 2.02065 0 2.75 0H19.25C19.9793 0 20.6788 0.289731 21.1945 0.805456C21.7103 1.32118 22 2.02065 22 2.75V11.5C21.5357 11.1508 21.0323 10.8568 20.5 10.624V2.75C20.5 2.06 19.94 1.5 19.25 1.5H2.75C2.06 1.5 1.5 2.06 1.5 2.75V19.25C1.5 19.94 2.06 20.5 2.75 20.5H10.624C10.858 21.035 11.153 21.538 11.499 22H2.75C2.02065 22 1.32118 21.7103 0.805456 21.1945C0.289731 20.6788 0 19.9793 0 19.25V2.75ZM3.75 12.998H11.5C11.1512 13.4624 10.8575 13.9658 10.625 14.498H3.75C3.55109 14.498 3.36032 14.419 3.21967 14.2783C3.07902 14.1377 3 13.9469 3 13.748C3 13.5491 3.07902 13.3583 3.21967 13.2177C3.36032 13.077 3.55109 12.998 3.75 12.998ZM3 17.751C3 17.5521 3.07902 17.3613 3.21967 17.2207C3.36032 17.08 3.55109 17.001 3.75 17.001H9.252C9.45091 17.001 9.64168 17.08 9.78233 17.2207C9.92298 17.3613 10.002 17.5521 10.002 17.751C10.002 17.9499 9.92298 18.1407 9.78233 18.2813C9.64168 18.422 9.45091 18.501 9.252 18.501H3.75C3.55109 18.501 3.36032 18.422 3.21967 18.2813C3.07902 18.1407 3 17.9499 3 17.751ZM8.502 3C8.64927 3.00016 8.79324 3.04368 8.91595 3.12513C9.03865 3.20657 9.13466 3.32235 9.192 3.458L11.941 9.961C11.9803 10.0519 12.0013 10.1497 12.0026 10.2488C12.0039 10.3479 11.9856 10.4462 11.9487 10.5381C11.9118 10.6301 11.8571 10.7138 11.7876 10.7845C11.7182 10.8551 11.6354 10.9113 11.5442 10.9498C11.4529 10.9883 11.3549 11.0084 11.2558 11.0088C11.1568 11.0092 11.0586 10.99 10.967 10.9523C10.8754 10.9145 10.7922 10.859 10.7221 10.789C10.6521 10.7189 10.5967 10.6356 10.559 10.544L10.119 9.502H6.881L6.44 10.545C6.40159 10.6357 6.34568 10.718 6.27547 10.7872C6.20525 10.8563 6.12211 10.9109 6.03078 10.9479C5.93946 10.9849 5.84173 11.0036 5.7432 11.0028C5.64466 11.0021 5.54724 10.9819 5.4565 10.9435C5.36576 10.9051 5.28347 10.8492 5.21433 10.779C5.14519 10.7088 5.09056 10.6256 5.05356 10.5343C5.01656 10.443 4.9979 10.3452 4.99866 10.2467C4.99943 10.1482 5.01959 10.0507 5.058 9.96L7.81 3.457C7.86749 3.32153 7.96357 3.20597 8.08626 3.12471C8.20895 3.04345 8.35284 3.00008 8.5 3H8.502ZM7.517 8.002H9.484L8.501 5.675L7.517 8.002ZM14.75 3C14.9489 3 15.1397 3.07902 15.2803 3.21967C15.421 3.36032 15.5 3.55109 15.5 3.75V5H16.75C16.9489 5 17.1397 5.07902 17.2803 5.21967C17.421 5.36032 17.5 5.55109 17.5 5.75C17.5 5.94891 17.421 6.13968 17.2803 6.28033C17.1397 6.42098 16.9489 6.5 16.75 6.5H15.5V7.748C15.5 7.94691 15.421 8.13768 15.2803 8.27833C15.1397 8.41898 14.9489 8.498 14.75 8.498C14.5511 8.498 14.3603 8.41898 14.2197 8.27833C14.079 8.13768 14 7.94691 14 7.748V6.5H12.752C12.5531 6.5 12.3623 6.42098 12.2217 6.28033C12.081 6.13968 12.002 5.94891 12.002 5.75C12.002 5.55109 12.081 5.36032 12.2217 5.21967C12.3623 5.07902 12.5531 5 12.752 5H14V3.75C14 3.55109 14.079 3.36032 14.2197 3.21967C14.3603 3.07902 14.5511 3 14.75 3ZM24 17.5C24 19.2239 23.3152 20.8772 22.0962 22.0962C20.8772 23.3152 19.2239 24 17.5 24C15.7761 24 14.1228 23.3152 12.9038 22.0962C11.6848 20.8772 11 19.2239 11 17.5C11 15.7761 11.6848 14.1228 12.9038 12.9038C14.1228 11.6848 15.7761 11 17.5 11C19.2239 11 20.8772 11.6848 22.0962 12.9038C23.3152 14.1228 24 15.7761 24 17.5ZM18 13.5C18 13.3674 17.9473 13.2402 17.8536 13.1464C17.7598 13.0527 17.6326 13 17.5 13C17.3674 13 17.2402 13.0527 17.1464 13.1464C17.0527 13.2402 17 13.3674 17 13.5V17H13.5C13.3674 17 13.2402 17.0527 13.1464 17.1464C13.0527 17.2402 13 17.3674 13 17.5C13 17.6326 13.0527 17.7598 13.1464 17.8536C13.2402 17.9473 13.3674 18 13.5 18H17V21.5C17 21.6326 17.0527 21.7598 17.1464 21.8536C17.2402 21.9473 17.3674 22 17.5 22C17.6326 22 17.7598 21.9473 17.8536 21.8536C17.9473 21.7598 18 21.6326 18 21.5V18H21.5C21.6326 18 21.7598 17.9473 21.8536 17.8536C21.9473 17.7598 22 17.6326 22 17.5C22 17.3674 21.9473 17.2402 21.8536 17.1464C21.7598 17.0527 21.6326 17 21.5 17H18V13.5Z" fill="black"/>
</svg>
